<?xml version="1.0" standalone="no"?>
<!DOCTYPE svg PUBLIC "-//W3C//DTD SVG 1.1//EN" "http://www.w3.org/Graphics/SVG/1.1/DTD/svg11.dtd" >
<svg xmlns="http://www.w3.org/2000/svg" xmlns:xlink="http://www.w3.org/1999/xlink" version="1.1">
<metadata>
Created by FontForge 20170731 at Sun Jan 23 22:06:58 2022
 By Aleksey,,,
Copyright 2017 BlackFoundry
</metadata>
<defs>
<font id="TRYVesterbro-Bold" horiz-adv-x="1024" >
  <font-face 
    font-family="TRY Vesterbro"
    font-weight="700"
    font-stretch="normal"
    units-per-em="2048"
    panose-1="2 0 8 0 6 0 0 2 0 4"
    ascent="1597"
    descent="-451"
    x-height="1020"
    cap-height="1397"
    bbox="-424 -635 2720 2064"
    underline-thickness="81"
    underline-position="-265"
    unicode-range="U+0020-FB04"
  />
<missing-glyph horiz-adv-x="1060" 
d="M123 0v1393h815v-1393h-815zM190 70h680v1253h-680v-1253z" />
    <glyph glyph-name="ff" unicode="ff" horiz-adv-x="1472" 
d="M1384 68v-72q-280 18 -624 0v72l61 12q24 4 36 13.5t19.5 44t9 82.5t1.5 149v544h-379v-544q0 -70 0.5 -107t3.5 -73.5t7 -52t13.5 -30t21 -19.5t30.5 -9l51 -10v-72q-255 18 -569 0v72l57 12q21 4 33.5 8.5t22.5 19t14.5 29.5t7.5 52t3.5 73.5t0.5 106.5v544h-129v91
l129 12q0 213 107.5 353t291.5 140q113 0 187.5 -59t74.5 -131q0 -103 -112 -113l-35 8q-41 127 -67 175.5t-68 48.5t-59 -52t-17 -167v-203h379q5 141 54 251.5t141 176t214 65.5q131 0 216 -62t85 -140q0 -111 -127 -125l-36 10q-19 52 -27 73t-23.5 58t-25.5 51.5
t-24.5 33t-29 24.5t-32.5 6q-44 0 -63 -52.5t-19 -166.5v-203h225v-103h-225v-544q0 -67 1 -106t7 -73t13 -50t24 -30t35.5 -19.5t52.5 -12.5z" />
    <glyph glyph-name="fi" unicode="fi" horiz-adv-x="1378" 
d="M508 1225v-209h242q153 0 248 7.5t184 29.5l16 -17q-8 -148 -8 -409v-267q0 -72 0.5 -110.5t5 -74t8.5 -49t18 -26t26.5 -16t39.5 -8.5l41 -8v-72q-281 19 -569 0v72l49 10q21 4 31 6.5t21 14t14.5 25.5t7 49t4 75t0.5 112v187q0 259 -17 312.5t-102 53.5h-260v-544
q0 -70 0.5 -107.5t3.5 -74.5t7.5 -52.5t14.5 -30t22.5 -19.5t33.5 -9l45 -8v-72q-225 15 -569 0v72l51 10q23 4 36 9t24 19.5t15.5 29.5t8 52t4 73.5t0.5 107.5v544h-125v91l125 12q3 217 124.5 355t327.5 138q143 0 237.5 -64.5t94.5 -146.5q0 -116 -135 -129l-39 9
q-53 140 -93 200t-97 60q-63 0 -90 -52.5t-27 -160.5z" />
    <glyph glyph-name="fl" unicode="fl" horiz-adv-x="1378" 
d="M1329 68v-72q-254 17 -569 0v72l51 10q54 9 65 49t11 221v830q-44 130 -100 194t-132 64t-111.5 -58.5t-35.5 -179.5v-182h211v-103h-211v-544q0 -70 0.5 -107.5t3.5 -74.5t7.5 -52.5t14.5 -30t22.5 -19.5t33.5 -9l45 -8v-72q-255 18 -569 0v72l51 10q23 4 36 9t24 19.5
t15.5 29.5t8 52t4 73.5t0.5 107.5v544h-129v91l129 12q5 216 132 354.5t345 138.5q178 0 281 -79q105 15 217 81l18 -18q-8 -151 -8 -418v-727q0 -78 1.5 -118t5.5 -73.5t15 -46.5t25 -20t41 -12z" />
    <glyph glyph-name="ffi" unicode="ffi" horiz-adv-x="2062" 
d="M2013 68v-72q-281 19 -571 0v72l51 10q22 4 31.5 6t20.5 13.5t14.5 25.5t7 49t4 75t0.5 113v187q0 258 -17.5 312t-101.5 54h-262v-544q0 -71 0.5 -107.5t3.5 -74t7.5 -53t15 -30t23 -19.5t34.5 -9l45 -8v-72q-252 18 -559 0v72l51 10q55 10 65.5 54t10.5 237v544h-379
v-544q0 -70 0.5 -107t3.5 -73.5t7 -52t13.5 -30t21 -19.5t30.5 -9l51 -10v-72q-255 18 -569 0v72l57 12q21 4 33.5 8.5t22.5 19t14.5 29.5t7.5 52t3.5 73.5t0.5 106.5v544h-129v91l129 12q0 213 107.5 353t291.5 140q113 0 187.5 -59t74.5 -131q0 -103 -112 -113l-35 8
q-41 127 -67 175.5t-68 48.5t-59 -52t-17 -167v-203h379q3 217 126 355t328 138q143 0 237.5 -64.5t94.5 -146.5q0 -116 -137 -129l-37 9q-53 140 -93 200t-97 60q-64 0 -91.5 -52.5t-27.5 -160.5v-209h244q152 0 246.5 7.5t183.5 29.5l18 -17q-8 -148 -8 -409v-267
q0 -74 0.5 -111t4.5 -73.5t8 -49t17.5 -25.5t26 -16.5t39.5 -8.5z" />
    <glyph glyph-name="f_f_l" unicode="ffl" horiz-adv-x="2060" 
d="M2013 68v-72q-255 17 -571 0v72l53 10q20 3 31 7t20.5 16.5t13.5 26.5t7 48.5t3.5 69.5t0.5 102v830q-44 130 -100 194t-132 64q-77 0 -113 -58.5t-36 -179.5v-182h213v-103h-213v-544q0 -71 0.5 -107.5t3.5 -74t7.5 -53t15 -30t23 -19.5t34.5 -9l45 -8v-72
q-253 17 -559 0v72l51 10q55 11 65.5 47.5t10.5 196.5v47v544h-379v-544q0 -70 0.5 -107t3.5 -73.5t7 -52t13.5 -30t21 -19.5t30.5 -9l51 -10v-72q-281 16 -569 0v72l57 12q21 4 33.5 8.5t22.5 19t14.5 29.5t7.5 52t3.5 73.5t0.5 106.5v544h-129v91l129 12q0 213 107.5 353
t291.5 140q113 0 187.5 -59t74.5 -131q0 -103 -112 -113l-35 8q-41 127 -67 175.5t-68 48.5t-59 -52t-17 -167v-203h379q5 217 132 355t345 138q177 0 283 -79q109 16 215 81l20 -18q-8 -151 -8 -418v-727q0 -67 0.5 -101.5t4 -69.5t8 -48t15.5 -26t24 -17t36 -8z" />
    <glyph glyph-name="fj" unicode="fj" horiz-adv-x="1345" 
d="M508 1225v-209h242q154 0 247.5 7.5t184.5 29.5l16 -17q-8 -148 -8 -409v-582q0 -147 -35 -237t-108.5 -143.5t-208.5 -92.5l-70 -21l-23 50l35 20q45 28 67 69t31.5 123t8.5 238v516q0 86 -1 133.5t-5 92.5t-10 64t-19.5 34t-30 18.5t-43.5 3.5h-270v-544v-83t2.5 -63
t5.5 -49t10.5 -34t15.5 -25.5t24 -15.5t32 -13t43 -10l45 -8v-72q-278 18 -620 0v72l51 10q23 4 36 9t24 19.5t15.5 29.5t8 52t4 73.5t0.5 107.5v544h-125v91l125 12q3 217 124.5 355t327.5 138q143 0 237.5 -64.5t94.5 -146.5q0 -116 -135 -129l-39 9q-53 140 -93 200
t-97 60q-63 0 -90 -52.5t-27 -160.5z" />
    <glyph glyph-name="f_b" unicode="fb" horiz-adv-x="1996" 
d="M1915 553q0 -113 -29.5 -209t-80 -164.5t-117.5 -117t-144 -72t-158 -23.5q-193 0 -350 115l-106 -111l-43 11v1196q-44 130 -100 194t-132 64t-111.5 -58.5t-35.5 -179.5v-182h211v-103h-211v-544q0 -71 0.5 -107t6 -73t12.5 -51.5t25 -29.5t38.5 -20.5t56.5 -11.5
l45 -8v-72q-281 18 -626 0v72l51 10q23 4 36 9t24 19.5t15.5 29.5t8 52t4 73.5t0.5 107.5v544h-129v91l129 12q5 216 132 354.5t345 138.5q178 0 281 -79q105 15 217 81l18 -18q-8 -151 -8 -418v-196q102 168 317 168q125 0 218.5 -66.5t141.5 -178t48 -249.5zM1190 397
q0 -101 19.5 -173.5t53 -108.5t67 -51t71.5 -15q90 0 145.5 81t55.5 255q0 223 -68 347t-184 124q-93 0 -160 -70v-389z" />
    <glyph glyph-name="f_h" unicode="fh" horiz-adv-x="2076" 
d="M2036 68v-72q-282 18 -568 0v74l41 8q23 4 33.5 6.5t22.5 14.5t15.5 25.5t7.5 48.5t4.5 74.5t0.5 112.5v293q0 100 -46 148.5t-122 48.5q-133 0 -235 -82v-408q0 -73 0.5 -112.5t4.5 -74.5t7.5 -48.5t15.5 -25.5t22.5 -15t33.5 -8l41 -8v-72q-273 18 -555 0v72l51 10
q57 10 66.5 46.5t9.5 235.5v818q-44 130 -100 194t-132 64t-111.5 -58.5t-35.5 -179.5v-182h211v-103h-211v-544q0 -70 0.5 -107.5t3.5 -74.5t7.5 -52.5t14.5 -30t22.5 -19.5t33.5 -9l45 -8v-72q-255 18 -569 0v72l51 10q23 4 36 9t24 19.5t15.5 29.5t8 52t4 73.5t0.5 107.5
v544h-129v91l129 12q5 216 132 354.5t345 138.5q178 0 281 -79q105 15 217 81l18 -18q-8 -151 -8 -414v-245q147 215 383 215q65 0 120.5 -19t102 -58.5t73.5 -109.5t27 -164v-338q0 -73 0.5 -113t4.5 -75.5t8 -49.5t16.5 -25.5t24 -14t35.5 -6.5z" />
    <glyph glyph-name="f_k" unicode="fk" horiz-adv-x="2013" 
d="M1329 68v-72q-254 17 -569 0v72l51 10q56 10 66 49t10 217v834q-44 130 -100 194t-132 64t-111.5 -58.5t-35.5 -179.5v-182h211v-103h-211v-544q0 -70 0.5 -107.5t3.5 -74.5t7.5 -52.5t14.5 -30t22.5 -19.5t33.5 -9l45 -8v-72q-255 18 -569 0v72l51 10q23 4 36 9t24 19.5
t15.5 29.5t8 52t4 73.5t0.5 107.5v544h-129v91l129 12q5 216 132 354.5t345 138.5q178 0 281 -79q105 15 217 81l18 -18q-8 -151 -8 -414v-735q0 -77 1.5 -116t5.5 -72t15 -46t25 -20t41 -12zM1993 68v-72q-202 9 -400 0l-379 541l201 194q107 101 107 150q0 51 -86 71v66
q276 -16 503 0v-66l-55 -14q-58 -18 -97.5 -33t-114.5 -60t-148 -110l-66 -55l303 -428q70 -105 115 -138t117 -46z" />
    <glyph glyph-name="f_f_f" unicode="fff" horiz-adv-x="2154" 
d="M2068 68v-72q-281 17 -626 0v72l57 12q18 3 29 7.5t20 18.5t13 29.5t6.5 52.5t3 74.5t0.5 106.5v544h-381v-544q0 -70 0.5 -107t3.5 -73.5t7 -52t14 -30t21.5 -19.5t31.5 -9l51 -10v-72q-220 16 -559 0v72l57 12q50 9 60 54t10 235v544h-379v-544q0 -70 0.5 -107
t3.5 -73.5t7 -52t13.5 -30t21 -19.5t30.5 -9l51 -10v-72q-255 18 -569 0v72l57 12q21 4 33.5 8.5t22.5 19t14.5 29.5t7.5 52t3.5 73.5t0.5 106.5v544h-129v91l129 12q0 213 107.5 353t291.5 140q113 0 187.5 -59t74.5 -131q0 -103 -112 -113l-35 8q-41 127 -67 175.5
t-68 48.5q-41 0 -58.5 -52.5t-17.5 -166.5v-203h379q0 214 108 353.5t293 139.5q113 0 187.5 -59t74.5 -131q0 -103 -114 -113l-33 8q-49 147 -72 183q-27 41 -63 41q-42 0 -60 -52.5t-18 -166.5v-203h381q5 141 54 251.5t141 176t214 65.5q131 0 216 -62t85 -140
q0 -111 -127 -125l-36 10q-19 52 -27 73t-23.5 58t-25.5 51.5t-24.5 33t-29 24.5t-32.5 6q-44 0 -63 -52.5t-19 -166.5v-203h225v-103h-225v-544q0 -81 2.5 -123.5t8.5 -77t23 -49.5t37.5 -24t61.5 -17z" />
    <glyph glyph-name="f_f_j" unicode="ffj" horiz-adv-x="2029" 
d="M1522 -428l-72 -21l-20 50l34 20q45 28 66.5 69t31 122.5t9.5 238.5v496q0 258 -17.5 312t-101.5 54h-262v-544q0 -65 1.5 -106.5t8 -74t14.5 -49.5t25.5 -30.5t35.5 -19.5t50 -13l45 -8v-72q-276 19 -610 0v72l51 10q55 10 65.5 54t10.5 237v544h-379v-544
q0 -70 0.5 -107t3.5 -73.5t7 -52t13.5 -30t21 -19.5t30.5 -9l51 -10v-72q-255 18 -569 0v72l57 12q21 4 33.5 8.5t22.5 19t14.5 29.5t7.5 52t3.5 73.5t0.5 106.5v544h-129v91l129 12q0 213 107.5 353t291.5 140q113 0 187.5 -59t74.5 -131q0 -103 -112 -113l-35 8
q-41 127 -67 175.5t-68 48.5t-59 -52t-17 -167v-203h379q3 217 126 355t328 138q143 0 237.5 -64.5t94.5 -146.5q0 -116 -137 -129l-37 9q-53 140 -93 200t-97 60q-64 0 -91.5 -52.5t-27.5 -160.5v-209h244q152 0 246.5 7.5t183.5 29.5l18 -17q-8 -148 -8 -409v-582
q0 -147 -35.5 -237t-109 -143.5t-207.5 -92.5z" />
    <glyph glyph-name="f_f_b" unicode="ffb" horiz-adv-x="2680" 
d="M2597 553q0 -113 -29 -209t-79 -164.5t-117 -117t-143.5 -72t-157.5 -23.5q-194 0 -351 115l-106 -111l-43 11v1196q-44 130 -100 194t-132 64q-77 0 -113 -58.5t-36 -179.5v-182h213v-103h-213v-544q0 -70 1 -107t6.5 -73.5t12.5 -51.5t25 -29.5t38 -20t56 -11.5l47 -8
v-72q-305 16 -616 0v72l51 10q54 10 65 55t11 236v544h-379v-544q0 -70 0.5 -107t3.5 -73.5t7 -52t13.5 -30t21 -19.5t30.5 -9l51 -10v-72q-255 18 -569 0v72l57 12q21 4 33.5 8.5t22.5 19t14.5 29.5t7.5 52t3.5 73.5t0.5 106.5v544h-129v91l129 12q0 213 107.5 353
t291.5 140q113 0 187.5 -59t74.5 -131q0 -103 -112 -113l-35 8q-41 127 -67 175.5t-68 48.5q-41 0 -58.5 -52.5t-17.5 -166.5v-203h379q5 217 132 355t345 138q177 0 283 -79q109 16 215 81l20 -18q-8 -151 -8 -418v-196q102 168 315 168q125 0 219 -66.5t141.5 -178
t47.5 -249.5zM1874 397q0 -101 19.5 -173.5t53 -108.5t67 -51t71.5 -15q90 0 145.5 81t55.5 255q0 223 -68 347t-184 124q-93 0 -160 -70v-389z" />
    <glyph glyph-name="f_f_h" unicode="ffh" horiz-adv-x="2760" 
d="M2720 68v-72q-284 19 -568 0v74l41 8q23 4 33.5 6.5t22.5 14.5t15.5 25.5t7.5 48.5t4.5 74.5t0.5 112.5v293q0 100 -46 148.5t-122 48.5q-133 0 -235 -82v-408q0 -50 0.5 -79.5t1 -60.5t3 -47.5t4 -34t7.5 -25t10.5 -15t15 -11t18.5 -6t24 -5.5l41 -8v-72q-272 18 -557 0
v72l53 8q56 9 66 46.5t10 237.5v818q-44 130 -100 194t-132 64q-77 0 -113 -58.5t-36 -179.5v-182h213v-103h-213v-544q0 -71 0.5 -107.5t3.5 -74t7.5 -53t15 -30t23 -19.5t34.5 -9l45 -8v-72q-253 17 -559 0v72l51 10q55 11 65.5 47.5t10.5 196.5v47v544h-379v-544
q0 -70 0.5 -107t3.5 -73.5t7 -52t13.5 -30t21 -19.5t30.5 -9l51 -10v-72q-281 16 -569 0v72l57 12q21 4 33.5 8.5t22.5 19t14.5 29.5t7.5 52t3.5 73.5t0.5 106.5v544h-129v91l129 12q0 213 107.5 353t291.5 140q113 0 187.5 -59t74.5 -131q0 -103 -112 -113l-35 8
q-41 127 -67 175.5t-68 48.5t-59 -52t-17 -167v-203h379q5 217 132 355t345 138q177 0 283 -79q109 16 215 81l20 -18q-8 -151 -8 -414v-245q147 215 383 215q65 0 120.5 -19t102 -58.5t73.5 -109.5t27 -164v-338q0 -73 0.5 -113t4.5 -75.5t8 -49.5t16.5 -25.5t24 -14
t35.5 -6.5z" />
    <glyph glyph-name="f_f_k" unicode="ffk" horiz-adv-x="2697" 
d="M2013 68v-72q-280 15 -571 0v72l53 10q55 9 65.5 48t10.5 218v834q-44 130 -100 194t-132 64q-77 0 -113 -58.5t-36 -179.5v-182h213v-103h-213v-544q0 -71 0.5 -107.5t3.5 -74t7.5 -53t15 -30t23 -19.5t34.5 -9l45 -8v-72q-253 17 -559 0v72l51 10q55 11 65.5 47.5
t10.5 196.5v47v544h-379v-544q0 -70 0.5 -107t3.5 -73.5t7 -52t13.5 -30t21 -19.5t30.5 -9l51 -10v-72q-281 16 -569 0v72l57 12q21 4 33.5 8.5t22.5 19t14.5 29.5t7.5 52t3.5 73.5t0.5 106.5v544h-129v91l129 12q0 213 107.5 353t291.5 140q113 0 187.5 -59t74.5 -131
q0 -103 -112 -113l-35 8q-41 127 -67 175.5t-68 48.5t-59 -52t-17 -167v-203h379q5 217 132 355t345 138q177 0 283 -79q109 16 215 81l20 -18q-8 -151 -8 -414v-735q0 -66 0.5 -100t4 -68t8 -47t15.5 -26t24 -17t36 -8zM2677 68v-72q-202 9 -400 0l-379 541l201 194
q105 99 105 150t-86 71v66q275 -16 505 0v-66l-55 -14q-58 -17 -98 -32.5t-114.5 -60.5t-147.5 -110l-66 -55l303 -428q68 -105 114 -138t118 -46z" />
    <glyph glyph-name=".notdef" horiz-adv-x="1060" 
d="M123 0v1393h815v-1393h-815zM190 70h680v1253h-680v-1253z" />
    <glyph glyph-name=".null" horiz-adv-x="0" 
 />
    <glyph glyph-name="nonmarkingreturn" horiz-adv-x="682" 
 />
    <glyph glyph-name="space" unicode=" " horiz-adv-x="442" 
 />
    <glyph glyph-name="exclam" unicode="!" horiz-adv-x="681" 
d="M535 1190q0 -59 -15.5 -116.5t-39 -113.5t-47 -121.5t-42 -169t-22.5 -227.5h-58q-4 124 -22.5 227.5t-42 169t-47 121.5t-39 113.5t-15.5 116.5q0 105 51 170t144 65q94 0 144.5 -65t50.5 -170zM506 129q0 -69 -47 -115.5t-119 -46.5q-71 0 -118.5 46.5t-47.5 115.5
q0 72 47.5 119t118.5 47q72 0 119 -47t47 -119z" />
    <glyph glyph-name="quotedbl" unicode="&#x22;" horiz-adv-x="940" 
d="M233 766q-5 94 -24 173.5t-38.5 122.5t-35.5 94t-16 97q0 85 39.5 128.5t103.5 43.5q65 0 105.5 -43t40.5 -127q0 -47 -16 -98.5t-36 -94.5t-39 -122.5t-24 -173.5h-60zM645 766q-5 94 -24 173.5t-39 122.5t-36 94t-16 97q0 85 40 128.5t104 43.5q65 0 105 -43t40 -127
q0 -47 -16 -98.5t-35.5 -94.5t-38.5 -122.5t-24 -173.5h-60z" />
    <glyph glyph-name="numbersign" unicode="#" horiz-adv-x="1259" 
d="M678 0l72 367h-371l-72 -367h-100l72 367h-228v94h246l90 463h-211v94h230l73 375h101l-74 -375h371l73 375h101l-74 -375h231v-94h-250l-90 -463h215v-94h-233l-72 -367h-100zM397 461h371l90 463h-371z" />
    <glyph glyph-name="dollar" unicode="$" horiz-adv-x="1216" 
d="M561 -33q-30 0 -84 4l-49 -215h-82l51 226q-163 27 -266 96q8 135 4 387l55 12q84 -267 236 -364l102 456l-66 31.5t-63 32t-63.5 36.5t-56 39.5t-52.5 45.5t-41.5 50.5t-34.5 59.5t-20 67.5t-8 78.5q0 181 135.5 298t372.5 117q32 0 90 -4l39 174h82l-43 -188
q123 -25 225 -92q-9 -153 -6 -336l-55 -12q-81 231 -191 317l-92 -412q162 -76 191 -92q166 -90 224 -205q38 -76 38 -172q0 -194 -148 -315t-424 -121zM410 1157q0 -83 50.5 -141t145.5 -107l92 414q-38 14 -88 14q-94 0 -147 -48.5t-53 -131.5zM848 248q0 95 -63.5 159.5
t-182.5 124.5l-102 -456q59 -19 121 -19q100 0 163.5 50t63.5 141z" />
    <glyph glyph-name="percent" unicode="%" horiz-adv-x="1593" 
d="M397 737q-145 0 -242.5 100t-97.5 244t97.5 244t242.5 100t242.5 -100t97.5 -244t-97.5 -244t-242.5 -100zM180 0l1102 1393h131l-1104 -1393h-129zM397 1315q-97 0 -160 -66.5t-63 -167.5q0 -99 63.5 -167t159.5 -68q97 0 159 67.5t62 167.5q0 102 -61.5 168t-159.5 66z
M1196 -33q-145 0 -242.5 99t-97.5 243t97.5 244t242.5 100t242.5 -100t97.5 -244t-97.5 -243t-242.5 -99zM1196 545q-96 0 -159.5 -67t-63.5 -169q0 -98 63.5 -165.5t159.5 -67.5q97 0 159 67.5t62 165.5q0 102 -62 169t-159 67z" />
    <glyph glyph-name="ampersand" unicode="&#x26;" horiz-adv-x="1671" 
d="M1153 -4l-223 254q-72 -134 -180 -208.5t-248 -74.5q-102 0 -184 32t-133.5 86.5t-79 124t-27.5 146.5q0 303 383 441q-109 154 -109 284q0 153 120 248.5t316 95.5q171 0 281.5 -68.5t110.5 -193.5q0 -115 -103 -190.5t-260 -106.5l252 -301q72 154 147.5 236t174.5 82
q78 0 127 -52t49 -126q0 -64 -29 -111.5t-72 -75.5l-41 12q-54 78 -86 107t-73 29q-46 0 -79.5 -32t-78.5 -116l143 -172q117 -144 197.5 -202t150.5 -72l29 -9v-67q-234 12 -475 0zM735 965l49 -60q102 60 142.5 122t40.5 138q0 80 -46 128t-122 48q-78 0 -123 -40.5
t-45 -110.5q0 -104 104 -225zM348 520q0 -133 95.5 -236.5t232.5 -103.5q136 0 213 117l-336 383q-5 6 -26.5 31.5t-30.5 38.5q-148 -89 -148 -230z" />
    <glyph glyph-name="quotesingle" unicode="'" horiz-adv-x="526" 
d="M233 766q-5 94 -24 173.5t-38.5 122.5t-35.5 94t-16 97q0 85 39.5 128.5t103.5 43.5q65 0 105.5 -43t40.5 -127q0 -47 -16 -98.5t-36 -94.5t-39 -122.5t-24 -173.5h-60z" />
    <glyph glyph-name="parenleft" unicode="(" horiz-adv-x="882" 
d="M121 602q0 310 188.5 560.5t503.5 385.5l25 -43q-206 -156 -310 -392.5t-104 -510.5q0 -558 414 -903l-25 -43q-315 133 -503.5 384t-188.5 562z" />
    <glyph glyph-name="parenright" unicode=")" horiz-adv-x="882" 
d="M68 1548q316 -135 504 -385.5t188 -560.5q0 -311 -188.5 -562t-503.5 -384l-25 43q209 174 312.5 403.5t103.5 499.5q0 274 -104.5 510.5t-311.5 392.5z" />
    <glyph glyph-name="asterisk" unicode="*" horiz-adv-x="1058" 
d="M528 985q-25 -50 -40 -114.5t-27 -118t-33 -84.5q-38 -50 -88 -54.5t-88 27.5q-46 33 -56.5 76t23.5 98q23 32 71 60.5t106 62.5t96 74q-64 10 -183 -3.5t-149 1.5q-59 21 -78.5 64t-3.5 93q18 55 58.5 79.5t99.5 6.5q37 -13 79 -49.5t91.5 -79.5t99.5 -67
q-10 65 -57.5 167.5t-47.5 147.5q0 62 35.5 93.5t89.5 31.5q57 0 93 -31t36 -92q0 -47 -46.5 -149.5t-55.5 -167.5q59 29 141 105.5t125 90.5q60 18 102 -6.5t56 -75.5q20 -50 0.5 -95t-78.5 -66q-33 -15 -150.5 -0.5t-181.5 2.5q46 -48 144.5 -103t124.5 -92
q35 -57 24.5 -99.5t-53.5 -74.5q-40 -34 -89.5 -30t-86.5 53q-27 38 -50 149.5t-53 169.5z" />
    <glyph glyph-name="plus" unicode="+" 
d="M907 637h-348v-371h-96v371h-348v92h348v371h96v-371h348v-92z" />
    <glyph glyph-name="comma" unicode="," horiz-adv-x="595" 
d="M68 -365l-27 48q47 43 75 77t49 81t22.5 101.5t-12.5 130t-48 173.5l25 35q77 43 133 43q91 0 139.5 -61t48.5 -140q0 -133 -104.5 -250.5t-300.5 -237.5z" />
    <glyph glyph-name="hyphen" unicode="-" horiz-adv-x="706" 
d="M84 571v185h539v-185h-539z" />
    <glyph glyph-name="period" unicode="." horiz-adv-x="595" 
d="M483 150q0 -77 -53.5 -130t-132.5 -53q-78 0 -132 53t-54 130q0 78 54 131t132 53q79 0 132.5 -53t53.5 -131z" />
    <glyph glyph-name="slash" unicode="/" horiz-adv-x="868" 
d="M12 -184l715 1761h129l-717 -1761h-127z" />
    <glyph glyph-name="zero" unicode="0" horiz-adv-x="1263" 
d="M637 1425q157 0 278 -97t184.5 -262t63.5 -370q0 -169 -41.5 -307.5t-114.5 -229.5t-170.5 -140.5t-209.5 -49.5q-157 0 -278 96.5t-185 261t-64 369.5q0 168 42 307t115 230.5t170.5 141.5t209.5 50zM598 1354q-53 0 -88 -48t-56.5 -170.5t-21.5 -322.5
q0 -368 66.5 -571t165.5 -203q40 0 69.5 26.5t52 87t34 166t11.5 256.5q0 363 -70.5 571t-162.5 208z" />
    <glyph glyph-name="one" unicode="1" horiz-adv-x="808" 
d="M256 367v571q0 159 -19.5 201t-109.5 35l-49 -5l-6 80q280 43 485 174l27 -28q-9 -166 -9 -408v-620q0 -69 1 -107.5t5.5 -74.5t11 -51.5t21 -29t31.5 -18.5t47 -10l49 -10v-70q-324 12 -655 0v70l53 10q30 5 47 10t31.5 18.5t21 29t11 51.5t5.5 74.5t1 107.5z" />
    <glyph glyph-name="two" unicode="2" horiz-adv-x="1114" 
d="M1030 446q-66 -235 -80 -454q-439 14 -899 0v78q337 344 480 565t143 412q0 133 -56 209.5t-145 76.5q-71 0 -110 -55.5t-44 -145t9 -202.5l-37 -15q-207 7 -207 146q0 57 34 120t93 118t152 90.5t198 35.5q196 0 312 -107.5t116 -289.5q0 -91 -32 -172.5t-82 -142.5
t-127 -128t-149 -118.5t-166 -125.5t-163 -138l250 10q59 3 109 8.5t87 11.5t68.5 18t52 20t39.5 25t28.5 26t21 30.5t15.5 30t15 33.5l19 45z" />
    <glyph glyph-name="three" unicode="3" horiz-adv-x="1044" 
d="M979 428q0 -89 -34.5 -171.5t-97.5 -147.5t-161.5 -103.5t-216.5 -38.5q-173 0 -295.5 89t-122.5 192q0 54 42 87.5t106 43.5l34 -12q27 -77 48.5 -126.5t53.5 -100.5t72 -76t89 -25q85 0 135.5 65t50.5 183q0 306 -315 428l-35 12l424 440l-140 -6q-100 -4 -170 -12.5
t-112.5 -20t-69 -31t-38 -38.5t-19.5 -49l-17 -56h-55q11 86 12.5 217t-8.5 226q413 -16 768 0v-213l-426 -412q147 17 261.5 -24t175.5 -125t61 -195z" />
    <glyph glyph-name="four" unicode="4" horiz-adv-x="1208" 
d="M588 328q-225 3 -555 -9v99l645 985q99 -16 207 -19q-8 -151 -8 -417v-441q93 4 141.5 38t91.5 114l12 24l47 -14q-57 -182 -67 -369q-37 1 -109.5 3.5t-115.5 3.5q0 -113 8.5 -160.5t30 -65t75.5 -26.5l51 -8v-70q-314 12 -628 0v70l59 8q33 5 50.5 12t32.5 20.5
t20.5 42.5t8.5 69t3 110zM586 516v590l-398 -598z" />
    <glyph glyph-name="five" unicode="5" horiz-adv-x="1030" 
d="M956 436q0 -206 -137 -336.5t-362 -130.5q-174 0 -295 86t-121 189q0 53 40.5 86.5t104.5 46.5l37 -12q20 -60 38 -103t42.5 -87.5t50 -71.5t60 -44.5t73.5 -17.5q79 0 124.5 64.5t45.5 181.5q0 213 -122.5 340.5t-344.5 144.5l-45 4l95 617q346 -10 475.5 2t181.5 71
l43 -20q-51 -139 -66 -338q-93 14 -244.5 17.5t-336.5 -9.5l-55 -278q212 40 371.5 1.5t253 -146t93.5 -257.5z" />
    <glyph glyph-name="six" unicode="6" horiz-adv-x="1171" 
d="M1100 469q0 -148 -67.5 -263.5t-181.5 -177t-253 -61.5q-103 0 -196 40t-164.5 113t-113.5 186.5t-42 250.5q0 112 28.5 220.5t94 215t160.5 192t238.5 147.5t318.5 85l8 -71q-233 -49 -356 -171t-173 -321q102 55 234 55q204 0 334.5 -119t130.5 -321zM555 829
q-164 0 -164 -317q0 -216 67 -345.5t167 -129.5q74 0 117.5 76t43.5 239q0 219 -65.5 348t-165.5 129z" />
    <glyph glyph-name="seven" unicode="7" horiz-adv-x="1011" 
d="M971 1313q-324 -523 -410 -1313h-387l-18 25l635 1126h-222q-129 0 -210 -10t-127.5 -36t-67 -55.5t-37.5 -82.5l-16 -47h-54q8 94 9.5 233t-5.5 244q446 -16 910 0v-84z" />
    <glyph glyph-name="eight" unicode="8" horiz-adv-x="1167" 
d="M1098 406q0 -130 -72 -231t-194 -154.5t-271 -53.5q-224 0 -354.5 105t-130.5 276q0 65 26.5 126t70.5 106t96 78t108 51q-113 79 -174.5 158t-61.5 184q0 75 31 142t88.5 119t149.5 82.5t206 30.5q186 0 301 -87.5t115 -219.5q0 -221 -282 -307q55 -31 87 -50.5
t79 -51.5t74.5 -61t55 -67t40 -81.5t12.5 -93.5zM420 1186q0 -56 19.5 -104.5t58.5 -89t80 -71t100 -65.5q92 86 92 258q0 113 -56 176.5t-139 63.5q-66 0 -110.5 -45.5t-44.5 -122.5zM348 367q0 -148 71.5 -239t186.5 -91q90 0 152.5 52t62.5 144q0 68 -23.5 124t-86 113
t-97 82t-129.5 86q-8 6 -12.5 8.5t-11 7t-12.5 8.5q-50 -67 -75.5 -136t-25.5 -159z" />
    <glyph glyph-name="nine" unicode="9" horiz-adv-x="1171" 
d="M1090 840q0 -115 -27.5 -226t-92 -220t-159.5 -195t-240 -148t-323 -82l-8 68q233 49 355.5 173t172.5 327q-104 -56 -231 -56q-205 0 -335 119.5t-130 321.5q0 111 39.5 206t106.5 159.5t158.5 101t194.5 36.5q104 0 197.5 -39.5t165.5 -112.5t114 -185t42 -248z
M614 561q164 0 164 318q0 214 -66.5 343.5t-164.5 129.5q-75 0 -118.5 -76t-43.5 -238q0 -219 65 -348t164 -129z" />
    <glyph glyph-name="colon" unicode=":" horiz-adv-x="622" 
d="M496 860q0 -77 -54 -129.5t-133 -52.5q-78 0 -132 53t-54 129q0 78 54 131t132 53q79 0 133 -53t54 -131zM496 150q0 -77 -54 -130t-133 -53q-78 0 -132 53t-54 130q0 78 54 131t132 53q79 0 133 -53t54 -131z" />
    <glyph glyph-name="semicolon" unicode=";" horiz-adv-x="622" 
d="M496 860q0 -77 -54 -129.5t-133 -52.5q-78 0 -132 53t-54 129q0 78 54 131t132 53q79 0 133 -53t54 -131zM80 -365l-27 48q47 43 75 77t49 81t22.5 101.5t-12.5 130t-48 173.5l25 35q77 43 133 43q91 0 139.5 -61t48.5 -140q0 -133 -104.5 -250.5t-300.5 -237.5z" />
    <glyph glyph-name="less" unicode="&#x3c;" 
d="M907 330v-105l-792 416v88l792 414v-103l-686 -354z" />
    <glyph glyph-name="equal" unicode="=" 
d="M907 801h-792v92h792v-92zM907 471h-792v92h792v-92z" />
    <glyph glyph-name="greater" unicode="&#x3e;" 
d="M907 641l-792 -416v105l686 356l-686 354v103l792 -414v-88z" />
    <glyph glyph-name="question" unicode="?" horiz-adv-x="1060" 
d="M551 432q-91 0 -153 46.5t-62 135.5q0 47 16 86.5t42 69.5t57 58t62.5 58.5t57.5 64t42 81.5t16 105q0 100 -49.5 150t-126.5 50q-210 0 -152 -372l-39 -9q-99 0 -152 35.5t-53 102.5q0 50 34 106.5t94 107t157.5 84t210.5 33.5q206 0 318 -85t112 -214q0 -76 -29 -133
t-75 -91t-102 -60t-112 -47.5t-102 -45t-75 -60.5t-29 -87q0 -42 26.5 -70t75.5 -28q102 0 164 127l66 -37q-89 -162 -240 -162zM709 129q0 -69 -47.5 -115.5t-118.5 -46.5q-72 0 -120 46.5t-48 115.5q0 72 48 119t120 47q71 0 118.5 -47t47.5 -119z" />
    <glyph glyph-name="at" unicode="@" horiz-adv-x="1996" 
d="M1374 270q-22 -92 -10 -126.5t59 -34.5q42 0 91.5 24.5t101 75t93.5 118.5t68.5 165t26.5 204q0 134 -41 244.5t-120.5 191.5t-203 126t-280.5 45q-181 0 -338 -53.5t-269.5 -144.5t-194 -211.5t-121 -256t-39.5 -275.5q0 -172 55 -303.5t153.5 -212t228 -121
t286.5 -40.5t291.5 35.5t220.5 95.5l34 -41q-228 -185 -577 -185q-137 0 -258 29.5t-223 91t-175 150.5t-114 215t-41 278q0 138 35 270t100 248t161.5 213.5t214.5 167.5t264 109t306 39q173 0 317 -52t241.5 -144t151.5 -219t54 -275q0 -156 -54 -294.5t-140.5 -232
t-195 -148t-218.5 -54.5q-157 0 -210.5 87t3.5 259l123 364q-99 -215 -179 -355t-150.5 -217.5t-130.5 -107.5t-130 -30q-91 0 -136.5 57.5t-45.5 179.5q0 144 54.5 285.5t139.5 245.5t194.5 168.5t215.5 64.5q87 0 157 -37t111 -88q58 8 116 46t85 77h33zM737 391
q0 -194 78 -194q65 0 145.5 121t200.5 376q-2 85 -45.5 147t-101.5 62q-83 0 -147.5 -72t-97 -187.5t-32.5 -252.5z" />
    <glyph glyph-name="A" unicode="A" horiz-adv-x="1458" 
d="M1434 68v-72q-316 13 -625 0v72l37 8q48 12 67.5 28.5t18.5 52t-27 103.5l-57 160h-459l-51 -150q-17 -51 -20 -84t11 -54.5t35.5 -33t61.5 -22.5l35 -8v-72q-216 13 -438 0v72l40 12q59 15 98 56.5t81 156.5l198 534q92 238 92 349q0 65 -59 92l-39 14v66q84 -3 191 22
t166 60h38l433 -1158q43 -116 71 -152t70 -44zM418 510h397l-205 567z" />
    <glyph glyph-name="B" unicode="B" horiz-adv-x="1402" 
d="M1298 410q0 -190 -168 -302t-473 -112q-55 0 -173.5 2t-217.5 2t-178 -4v72l64 10q35 6 49.5 27t20 73t5.5 174v686q0 123 -5.5 175.5t-20 73.5t-49.5 26l-64 10v74q77 -4 169.5 -4t205 2t168.5 2q128 0 229 -18.5t179.5 -57.5t120.5 -105t42 -157q0 -115 -74 -188.5
t-243 -116.5q201 -23 307 -115t106 -229zM629 770q113 0 183.5 71t70.5 193q0 133 -86.5 207t-247.5 74v-545h80zM698 72q126 0 197.5 82t71.5 221q0 142 -90.5 230.5t-233.5 88.5h-94v-430q0 -108 32.5 -150t116.5 -42z" />
    <glyph glyph-name="C" unicode="C" horiz-adv-x="1386" 
d="M733 1329q-134 0 -210.5 -122.5t-76.5 -348.5q0 -164 37 -312.5t98 -252.5t141.5 -165.5t166.5 -61.5q45 0 80 16.5t70.5 60.5t67 99.5t79.5 154.5l43 88l49 -16q-25 -144 -59 -418q-147 -84 -373 -84q-213 0 -380.5 89.5t-264.5 261.5t-97 401q0 199 82.5 358.5
t241.5 253.5t369 94q118 0 221.5 -27t173.5 -71q2 -109 27 -395l-54 -12l-49 90q-93 170 -182 244.5t-201 74.5z" />
    <glyph glyph-name="D" unicode="D" horiz-adv-x="1540" 
d="M600 1397q253 0 440 -79t292.5 -237.5t105.5 -380.5q0 -321 -208 -512.5t-571 -191.5q-40 0 -155 2t-222 2t-194 -4v72l62 10q36 6 51 28t20.5 75.5t5.5 178.5v687q0 117 -5.5 167.5t-20.5 71.5t-51 27l-62 10v74q83 -5 183.5 -5t201.5 2.5t127 2.5zM1096 657
q0 318 -142 484t-405 180v-1020q0 -129 35 -178t129 -49q173 0 278 153t105 430z" />
    <glyph glyph-name="E" unicode="E" horiz-adv-x="1308" 
d="M1235 401q-57 -236 -72 -405q-620 15 -1075 0v72l64 10q35 6 49.5 27.5t20 75t5.5 179.5v668q0 127 -5.5 181t-20 76t-49.5 28l-64 10v74q424 -16 1049 0q-6 -180 4 -391l-49 -13q-69 194 -130.5 254t-193.5 60h-219v-576l139 6q103 4 145.5 38.5t71.5 125.5l13 33h51
q-16 -264 0 -475h-51l-13 33q-28 88 -71.5 123.5t-145.5 39.5l-139 7v-338q0 -142 43 -194t162 -52h67q69 0 121 26t112.5 100.5t135.5 213.5z" />
    <glyph glyph-name="F" unicode="F" horiz-adv-x="1216" 
d="M715 68v-72q-319 16 -627 0v72l64 10q35 6 49.5 27.5t20 73.5t5.5 173v695q0 118 -5.5 168.5t-20 71t-49.5 26.5l-64 10v74q472 -19 1024 0q-6 -177 4 -389l-43 -13q-56 185 -120.5 248.5t-202.5 63.5h-201v-574l121 4q104 4 146 38t73 126l10 33h53q-19 -259 0 -475h-53
l-10 33q-29 88 -72.5 123.5t-146.5 39.5l-121 7v-310q0 -77 1.5 -117t5.5 -74t15 -48t26 -22t42 -13z" />
    <glyph glyph-name="G" unicode="G" horiz-adv-x="1507" 
d="M1348 -25l-54 -8q-39 76 -71 117q-158 -117 -383 -117q-214 0 -380.5 90.5t-261 261t-94.5 396.5q0 208 89.5 370t248.5 251t361 89q137 0 250.5 -32t185.5 -86q-7 -148 8 -400l-55 -12l-33 68q-91 191 -186 279.5t-225 88.5q-302 0 -302 -483q0 -167 38 -315.5
t100.5 -252t146 -163.5t172.5 -60q88 0 127 54.5t39 191.5v121q0 86 -20 113t-80 36l-54 9v69q268 -16 523 0v-69q-23 -5 -36.5 -10.5t-25 -19t-16 -27t-8 -47.5t-4 -66.5t-0.5 -96.5v-340z" />
    <glyph glyph-name="H" unicode="H" horiz-adv-x="1648" 
d="M1559 68v-72q-299 17 -601 0v72l62 10q27 5 41 15t23 43t11.5 83.5t2.5 149.5v313h-549v-313q0 -99 2.5 -149.5t11.5 -83.5t23 -43t41 -15l61 -10v-72q-298 17 -600 0v72l64 10q35 6 49.5 28t20 77.5t5.5 185.5v653q0 130 -5.5 185.5t-20 77.5t-49.5 28l-64 10v74
q300 -17 600 0v-74l-61 -10q-27 -5 -41 -15t-23 -43t-11.5 -83.5t-2.5 -149.5v-244h549v244q0 99 -2.5 149.5t-11.5 83.5t-23 43t-41 15l-62 10v74q300 -17 601 0v-74l-62 -10q-27 -5 -41 -15t-23 -43t-11.5 -83.5t-2.5 -149.5v-653q0 -99 2.5 -149.5t11.5 -83.5t23 -43
t41 -15z" />
    <glyph glyph-name="I" unicode="I" horiz-adv-x="778" 
d="M227 369v653q0 130 -5.5 185.5t-20 77.5t-49.5 28l-64 10v74q300 -17 600 0v-74l-61 -10q-27 -5 -41 -15t-23 -43t-11.5 -83.5t-2.5 -149.5v-653q0 -99 2.5 -149.5t11.5 -83.5t23 -43t41 -15l61 -10v-72q-300 17 -600 0v72l64 10q35 6 49.5 28t20 77.5t5.5 185.5z" />
    <glyph glyph-name="J" unicode="J" horiz-adv-x="763" 
d="M227 1022q0 130 -5.5 185.5t-20 77.5t-49.5 28l-62 10v74q297 -19 600 0v-74l-63 -10q-27 -5 -40.5 -14.5t-22.5 -43.5t-11 -83.5t-2 -149.5v-729q0 -226 -85.5 -347.5t-281.5 -154.5l-71 -12l-15 47l39 20q40 22 58.5 65t25 126t6.5 260v725z" />
    <glyph glyph-name="K" unicode="K" horiz-adv-x="1560" 
d="M549 1024v-657q0 -98 2.5 -148t11.5 -83t23 -43t41 -15l61 -10v-72q-298 17 -600 0v72l64 10q35 6 49.5 28t20 77t5.5 184v657q0 129 -5.5 184t-20 77t-49.5 28l-64 10v74q302 -17 600 0v-74l-61 -10q-27 -5 -41 -15t-23 -43t-11.5 -83t-2.5 -148zM1542 68v-72
q-222 14 -448 0l-519 698l369 412q169 185 31 211l-43 8v72q264 -18 536 0v-72l-43 -8q-93 -17 -190 -75.5t-231 -197.5l-164 -178l444 -594q96 -123 136.5 -157.5t90.5 -42.5z" />
    <glyph glyph-name="L" unicode="L" horiz-adv-x="1257" 
d="M227 1022q0 130 -5.5 185.5t-20 77.5t-49.5 28l-64 10v74q300 -17 600 0v-74l-61 -10q-27 -5 -41 -15t-23 -43t-11.5 -83.5t-2.5 -149.5v-698q0 -149 29 -196.5t124 -47.5h37q77 0 165.5 83.5t201.5 266.5l37 59l49 -20q-67 -244 -88 -473q-585 18 -1016 0v72l64 12
q37 7 51.5 28t19 68.5t4.5 169.5v676z" />
    <glyph glyph-name="M" unicode="M" horiz-adv-x="1939" 
d="M1849 68v-72q-303 17 -596 0v72l56 10q25 5 38.5 13.5t24 23.5t14.5 50t5.5 79t1.5 125v755l-426 -1020q-91 3 -181 0l-471 1000l9 -770q1 -97 14.5 -149.5t39 -74t73.5 -32.5l41 -10v-72q-218 14 -433 0v72l54 12q42 10 64.5 30t36 74.5t13.5 153.5v772q0 44 -2.5 69.5
t-12 53t-29.5 45t-54 29.5l-49 16v74q208 -17 457 0l464 -983l406 983q216 -18 442 0v-74l-65 -10q-18 -3 -29 -8t-20 -19t-13 -29.5t-6.5 -51.5t-3 -72.5t-0.5 -104.5v-659q0 -82 1.5 -125.5t5 -79.5t12.5 -51t21 -23t34 -12z" />
    <glyph glyph-name="N" unicode="N" horiz-adv-x="1499" 
d="M504 66v-70q-220 10 -436 0v70l55 14q38 8 59 36.5t32 98t11 195.5v696q0 84 -23 130.5t-75 66.5l-53 20v74q92 -7 219.5 -7t216.5 7l690 -989l-12 587q-3 177 -25.5 239t-95.5 77l-51 12v74q211 -14 418 0v-74l-50 -14q-40 -10 -60 -38.5t-29 -91.5t-9 -184v-995
q-110 3 -223 0l-750 1087l11 -679q1 -127 11.5 -192t35.5 -96.5t75 -41.5z" />
    <glyph glyph-name="O" unicode="O" horiz-adv-x="1605" 
d="M799 1425q141 0 268.5 -52.5t224 -146t153 -232.5t56.5 -302q0 -210 -89 -375.5t-247.5 -257.5t-359.5 -92q-141 0 -268.5 52.5t-223.5 146t-152.5 232.5t-56.5 302q0 210 88.5 375.5t247 257.5t359.5 92zM1159 535q0 174 -37 326t-98 254.5t-139 161t-160 58.5
q-132 0 -205.5 -125.5t-73.5 -351.5q0 -175 37 -327.5t98 -254.5t139.5 -160.5t160.5 -58.5q132 0 205 125.5t73 352.5z" />
    <glyph glyph-name="P" unicode="P" horiz-adv-x="1353" 
d="M88 -4v72l62 10q23 4 36 13.5t22 24.5t12.5 51.5t5 77.5t1.5 120v659q0 189 -11 234t-64 55l-64 10v74q84 -5 180 -5t207.5 2.5t165.5 2.5q138 0 247.5 -24t190 -72.5t123.5 -128t43 -185.5q0 -218 -171.5 -335t-524.5 -117v-170q0 -65 1 -103.5t5.5 -72t10.5 -50t19 -30
t28.5 -19t41.5 -10.5l74 -12v-72q-337 18 -641 0zM549 1315v-699q181 0 279 88t98 248q0 169 -97 264.5t-280 98.5z" />
    <glyph glyph-name="Q" unicode="Q" horiz-adv-x="1605" 
d="M1425 -283q-77 -26 -152 -76.5t-126 -109.5q-31 59 -60 99.5t-72 79.5t-101 59t-130 20q-116 0 -280 -45l-27 63l352 160h-24q-141 0 -268.5 52.5t-223.5 146t-152.5 232.5t-56.5 302q0 210 88.5 375.5t247 257.5t359.5 92q141 0 268.5 -52.5t224 -146t153 -232.5
t56.5 -302q0 -246 -117.5 -419.5t-324.5 -266.5l-348 -153q135 34 247 41t198 -12t151 -52t125 -84zM1159 535q0 174 -37 326t-98 254.5t-139 161t-160 58.5q-132 0 -205.5 -125.5t-73.5 -351.5q0 -175 37 -327.5t98 -255t139.5 -161.5t160.5 -59q132 0 205 126.5t73 353.5z
" />
    <glyph glyph-name="R" unicode="R" horiz-adv-x="1472" 
d="M688 68v-72q-315 18 -600 0v72l62 10q23 4 36 13.5t22 24.5t12.5 51.5t5 77.5t1.5 120v659q0 189 -11 234t-64 55l-64 10v74q83 -5 176 -5t201.5 2.5t161.5 2.5q276 0 435 -90.5t159 -268.5q0 -242 -328 -327l319 -443q87 -120 119.5 -150.5t75.5 -39.5l41 -10v-70
q-210 7 -420 0l-450 674q183 53 253 126t70 218q0 140 -91 218t-261 81v-950q0 -69 0.5 -105.5t3.5 -73t7.5 -51.5t14 -29.5t22 -19t32.5 -8.5z" />
    <glyph glyph-name="S" unicode="S" horiz-adv-x="1212" 
d="M621 57q100 0 163.5 50t63.5 141q0 72 -40 130t-104 97.5t-141 76t-154.5 77.5t-141.5 89.5t-104 123t-40 168.5q0 181 135.5 298t372.5 117q223 0 393 -110q-9 -153 -6 -336l-55 -12q-66 188 -150.5 279t-202.5 91q-94 0 -147 -48.5t-53 -131.5q0 -56 24.5 -102
t66.5 -79t96.5 -62.5t114.5 -57t119.5 -56t114 -66t96.5 -82.5t66.5 -108.5t24.5 -140.5q0 -194 -148 -315t-424 -121q-125 0 -241 31.5t-189 79.5q8 135 4 387l55 12q130 -420 431 -420z" />
    <glyph glyph-name="T" unicode="T" horiz-adv-x="1423" 
d="M551 369v950h-88q-84 0 -149 -72.5t-136 -242.5l-47 -115l-57 8q27 288 30 502q605 -16 1217 0q3 -227 29 -502l-58 -8l-47 115q-74 177 -139.5 246t-147.5 69h-86v-950q0 -60 0.5 -94t2 -69t5.5 -52t8.5 -33t14.5 -23t20.5 -12t28.5 -8l64 -10v-72q-306 16 -608 0v72
l61 10q21 4 33 8.5t22 18.5t14.5 30t8 52t4 74.5t0.5 107.5z" />
    <glyph glyph-name="U" unicode="U" horiz-adv-x="1474" 
d="M213 1022q0 191 -11.5 235t-70.5 56l-57 10v74q305 -19 600 0v-74l-58 -10q-25 -5 -38 -13.5t-23 -23t-13.5 -51t-5 -78.5t-1.5 -125v-549q0 -385 311 -385q325 0 319 453l-4 534q-1 98 -10.5 145t-28.5 65.5t-61 27.5l-49 10v74q205 -13 397 0v-74l-57 -12
q-33 -8 -50 -25.5t-27.5 -67t-10.5 -141.5v-549q0 -152 -38 -262.5t-108.5 -174.5t-162 -94t-207.5 -30q-92 0 -170 16t-146.5 53t-116 94.5t-75 145t-27.5 199.5v547z" />
    <glyph glyph-name="V" unicode="V" horiz-adv-x="1445" 
d="M1223 1110l-387 -1112q-103 6 -209 0l-428 1124q-44 114 -71.5 150.5t-68.5 44.5l-36 6v74q329 -16 630 0v-74l-41 -10q-36 -11 -54.5 -20.5t-30 -29.5t-7 -51.5t22.5 -81.5l311 -833l256 821q26 96 7.5 138.5t-81.5 56.5l-41 10v74q187 -15 428 0v-74l-41 -12
q-55 -17 -92 -63.5t-67 -137.5z" />
    <glyph glyph-name="W" unicode="W" horiz-adv-x="2174" 
d="M1952 1112l-377 -1114q-98 6 -191 0l-280 811l-297 -811q-104 6 -205 0l-409 1124q-40 112 -68 150t-64 45l-38 6v74q319 -18 581 0v-74l-39 -8q-27 -6 -41 -20.5t-12.5 -54t25.5 -103.5l303 -820l221 617l-66 190q-29 81 -47.5 120t-34.5 53.5t-41 19.5l-38 6v74
q329 -18 598 0v-74l-46 -8q-41 -9 -56.5 -22.5t-14.5 -49.5t24 -106l263 -801l245 794q26 90 8 131.5t-81 53.5l-35 8v74q184 -16 413 0v-74l-34 -8q-56 -12 -95.5 -60.5t-70.5 -142.5z" />
    <glyph glyph-name="X" unicode="X" horiz-adv-x="1501" 
d="M1468 68v-72q-310 16 -628 0v72l47 8q14 3 23 10.5t12.5 22.5t-0.5 36t-18.5 53t-39.5 70l-209 322l-211 -320q-38 -57 -43.5 -100.5t13 -65.5t53.5 -28l45 -8v-72q-100 6 -241.5 6t-239.5 -6v72l49 12q119 24 252 207l276 375l-297 454q-82 126 -114.5 158.5t-77.5 40.5
l-47 8v74q313 -20 626 0v-74l-49 -8q-13 -3 -22 -9.5t-13 -20.5t-1 -33.5t17 -49.5t38 -67l180 -275l174 256q117 175 -21 199l-45 8v74q100 -6 242 -6t240 6v-74l-52 -12q-118 -21 -258 -207l-237 -311l344 -525q77 -119 110 -151.5t74 -40.5z" />
    <glyph glyph-name="Y" unicode="Y" horiz-adv-x="1382" 
d="M997 68v-72q-302 17 -604 0v72l66 8q19 3 30.5 7t21 18.5t13.5 30t7 53.5t3.5 75.5t0.5 108.5v219l-299 516q-54 93 -83.5 136t-48.5 57.5t-47 19.5l-34 6v74q263 -17 647 0v-74l-41 -8q-50 -10 -72.5 -28t-18.5 -58t42 -105l239 -407l199 397q26 50 32 88.5t-5 61
t-29.5 34.5t-44.5 17l-41 8v74q94 -9 215 -9t215 9v-74l-43 -10q-43 -9 -86.5 -54.5t-106.5 -154.5l-266 -473v-262q0 -71 0.5 -108.5t3.5 -75.5t7 -53.5t13.5 -30t21 -18.5t30.5 -7z" />
    <glyph glyph-name="Z" unicode="Z" horiz-adv-x="1323" 
d="M1163 -6q-536 15 -1075 0v35l741 1282l-194 -6q-164 -6 -258.5 -78.5t-169.5 -239.5l-31 -65l-49 12q27 152 47 463q517 -19 1028 0v-37l-739 -1278l221 8q176 3 279.5 72t177.5 231l35 80l57 -14q-51 -225 -70 -465z" />
    <glyph glyph-name="bracketleft" unicode="[" horiz-adv-x="843" 
d="M209 -342v1894h557v-86h-262v-1722h262v-86h-557z" />
    <glyph glyph-name="backslash" unicode="\" horiz-adv-x="868" 
d="M856 -184h-129l-715 1761h127z" />
    <glyph glyph-name="bracketright" unicode="]" horiz-adv-x="843" 
d="M633 1552v-1894h-555v86h260v1722h-260v86h555z" />
    <glyph glyph-name="asciicircum" unicode="^" 
d="M813 627l-303 682l-301 -682h-96l352 766h88l354 -766h-94z" />
    <glyph glyph-name="underscore" unicode="_" horiz-adv-x="909" 
d="M27 -281v140h854v-140h-854z" />
    <glyph glyph-name="grave" unicode="`" 
d="M260 1448q0 51 42 87t116 50l33 -12l229 -397l-27 -27q-224 96 -308.5 159.5t-84.5 139.5z" />
    <glyph glyph-name="a" unicode="a" horiz-adv-x="1173" 
d="M1157 127q-119 -160 -289 -160q-77 0 -124.5 40.5t-47.5 117.5q-95 -158 -293 -158q-140 0 -225.5 82t-85.5 209q0 112 82.5 183t249.5 91l264 31v35q0 157 -51 252.5t-137 95.5q-156 0 -129 -319l-37 -15q-39 2 -68 8t-55.5 18.5t-40.5 36.5t-14 58q0 75 71.5 149
t183.5 120.5t224 46.5q178 0 269 -97t91 -288v-443q0 -55 11.5 -74.5t44.5 -19.5q37 0 82 33zM555 125q86 0 133 47v309h-98q-119 0 -166 -41.5t-47 -117.5q0 -89 51 -143t127 -54z" />
    <glyph glyph-name="b" unicode="b" horiz-adv-x="1271" 
d="M1188 553q0 -140 -44.5 -254t-119 -185t-168.5 -109t-197 -38q-92 0 -184 30.5t-164 84.5l-108 -111l-41 11v1036q0 252 -14.5 312t-88.5 69l-36 4v74q161 0 252.5 7t179.5 32l18 -21q-8 -159 -8 -442v-174q102 168 315 168q125 0 219 -66.5t141.5 -178t47.5 -249.5z
M465 397q0 -101 19.5 -173.5t53 -108.5t67 -51t71.5 -15q90 0 144 81t54 255q0 223 -67.5 347t-181.5 124q-93 0 -160 -70v-389z" />
    <glyph glyph-name="c" unicode="c" horiz-adv-x="1056" 
d="M543 961q-76 0 -127 -75.5t-51 -209.5q0 -226 106 -348.5t268 -122.5q130 0 242 98l29 -27q-68 -153 -178 -231t-248 -78q-218 0 -359 148.5t-141 382.5q0 126 42.5 231.5t114 174.5t163 107t190.5 38q165 0 272 -81t107 -184q0 -70 -42 -107t-112 -42l-37 14
q-45 154 -100.5 233t-138.5 79z" />
    <glyph glyph-name="d" unicode="d" horiz-adv-x="1294" 
d="M1247 51q-208 -18 -407 -84q-22 108 -27 164q-106 -164 -291 -164q-130 0 -231 68t-155 185t-54 263q0 134 48 244t127 178t176.5 105t201.5 37q88 0 172 -33v6q0 251 -14 310.5t-88 68.5l-37 4v74q160 0 251.5 7t180.5 32l18 -19q-8 -151 -8 -418v-704q0 -71 1.5 -108.5
t5 -68.5t13.5 -43t23 -18t37 -8l57 -4v-74zM393 610q0 -220 79 -342.5t214 -122.5q70 0 123 50q-2 25 -2 75v467q0 105 -54 166.5t-143 61.5q-96 0 -156.5 -90.5t-60.5 -264.5z" />
    <glyph glyph-name="e" unicode="e" horiz-adv-x="1107" 
d="M1049 297q-84 -166 -198 -248t-267 -82q-218 0 -360 150.5t-142 382.5q0 121 42.5 225t114 174.5t165.5 110t196 39.5q99 0 179.5 -34.5t130.5 -92t77 -128.5t27 -149q0 -41 -6 -88h-637q25 -159 121 -252.5t237 -93.5q160 0 285 113zM362 657v-28l381 30
q-13 141 -64 218t-128 77q-86 0 -137.5 -75t-51.5 -222z" />
    <glyph glyph-name="f" unicode="f" horiz-adv-x="788" 
d="M702 68v-72q-286 17 -636 0v72l57 8q21 3 33.5 7.5t22.5 19t14.5 30t7.5 53t3.5 75t0.5 108.5v544h-129v91l129 12q0 213 110.5 353t298.5 140q129 0 214 -62t85 -140q0 -111 -127 -125l-36 10q-18 49 -26.5 72.5t-23 58.5t-25 51t-24.5 33.5t-29.5 24t-33.5 6.5
q-43 0 -61.5 -53t-18.5 -166v-203h225v-103h-225v-544q0 -81 2.5 -123.5t8.5 -77t23 -49.5t37.5 -24t61.5 -17z" />
    <glyph glyph-name="g" unicode="g" horiz-adv-x="1171" 
d="M1124 -55q0 -165 -174 -280.5t-430 -115.5q-221 0 -344 69t-123 169q0 153 232 197q-82 30 -124 82t-42 118q0 75 46.5 130.5t139.5 101.5q-91 45 -142.5 119.5t-51.5 166.5q0 148 125.5 247.5t312.5 99.5q97 0 186 -29q49 141 101.5 206.5t132.5 65.5q64 0 103 -48
t42 -122l-12 -41q-203 26 -322 -77q101 -43 160 -122.5t59 -179.5q0 -146 -123 -245t-311 -99q-116 0 -209 35q-57 -38 -57 -84q0 -41 38 -62.5t126 -27.5l307 -18q174 -10 264 -76t90 -180zM590 436q61 0 96 54.5t35 154.5q0 135 -59.5 230.5t-139.5 95.5q-59 0 -94 -56
t-35 -159q0 -135 58.5 -227.5t138.5 -92.5zM266 -174q0 -83 76.5 -134.5t210.5 -51.5q153 0 241.5 50.5t88.5 143.5q0 44 -38.5 68t-125.5 30l-275 19q-41 2 -102 14q-35 -22 -55.5 -59t-20.5 -80z" />
    <glyph glyph-name="h" unicode="h" horiz-adv-x="1386" 
d="M1346 68v-72q-282 18 -568 0v74l41 8q23 4 33.5 6.5t22.5 14.5t15.5 25.5t7.5 48.5t4.5 74.5t0.5 112.5v293q0 100 -46 148.5t-122 48.5q-140 0 -235 -82v-408q0 -74 0.5 -113.5t4.5 -75t7 -48.5t16 -25t22.5 -14.5t33.5 -7.5l41 -8v-72q-278 19 -566 0v72l52 10
q24 4 34.5 6.5t23 14.5t16 25.5t7.5 48.5t4.5 74.5t0.5 112.5v658q0 266 -13.5 318.5t-87.5 62.5l-37 4v74q161 0 253 7t180 32l16 -19q-8 -151 -8 -418v-245q147 215 383 215q65 0 120.5 -19t102 -58.5t73.5 -109.5t27 -164v-338q0 -74 0.5 -114t4.5 -75.5t7.5 -49
t16.5 -25.5t23.5 -14t35.5 -6z" />
    <glyph glyph-name="i" unicode="i" horiz-adv-x="698" 
d="M532 1366q0 -79 -52.5 -131.5t-133.5 -52.5q-79 0 -131.5 53t-52.5 131t52.5 131t131.5 53q81 0 133.5 -52.5t52.5 -131.5zM207 360v207q0 143 -1.5 202.5t-14 103.5t-29.5 51.5t-58 13.5l-36 4v74q153 0 248 7.5t184 29.5l18 -17q-8 -148 -8 -409v-267v-87t2 -65
t3.5 -49t8 -32t11.5 -22.5t17.5 -13t22.5 -9.5t31 -6l43 -8v-72q-286 19 -581 0v72l51 8q25 4 35.5 6t23.5 14t16.5 25.5t7.5 49t4.5 75.5t0.5 114z" />
    <glyph glyph-name="j" unicode="j" horiz-adv-x="649" 
d="M518 1366q0 -78 -52.5 -131t-131.5 -53t-133 53t-54 131t54 131t133 53t131.5 -53t52.5 -131zM190 51v512q0 246 -14 303t-86 70l-39 6v74q162 0 252.5 7t181.5 30l17 -19q-8 -148 -8 -409v-580q0 -111 -18 -187t-61.5 -131t-108 -90t-165.5 -65l-71 -21l-21 50l35 20
q45 28 66.5 69.5t30.5 122.5t9 238z" />
    <glyph glyph-name="k" unicode="k" horiz-adv-x="1323" 
d="M500 344q0 -77 1.5 -116t5.5 -72t15 -46t25 -20t41 -12l51 -10v-72q-257 17 -580 0v72l52 10q22 4 35 8t23.5 17t15 26t8 47t4 68t0.5 100v703q0 233 -14.5 288t-86.5 64l-37 4v74q161 0 253 7t180 32l16 -19q-8 -151 -8 -418v-735zM1303 68v-72q-200 9 -400 0l-379 541
l201 194q106 97 106 150q0 51 -86 71v66q276 -16 506 0v-66l-57 -14q-42 -13 -70.5 -23.5t-77.5 -33.5t-102 -59.5t-110 -86.5l-64 -55l301 -428q70 -105 115 -138t117 -46z" />
    <glyph glyph-name="l" unicode="l" horiz-adv-x="688" 
d="M500 348q0 -78 1.5 -118t5.5 -73.5t15 -46.5t25 -20t41 -12l51 -10v-72q-258 16 -580 0v72l52 10q23 4 35.5 8t23.5 17t15 26t7.5 48t4 69.5t0.5 101.5v699q0 232 -14.5 287t-86.5 65l-37 4v74q161 0 253 7t180 32l16 -19q-8 -151 -8 -418v-731z" />
    <glyph glyph-name="m" unicode="m" horiz-adv-x="2033" 
d="M1993 68v-72q-276 18 -555 0v72l45 6q33 4 46 24t18 75t5 187v279q0 110 -45.5 161.5t-122.5 51.5q-59 0 -106.5 -21t-99.5 -63q4 -40 4 -70v-338q0 -188 10.5 -231t62.5 -53l41 -8v-72q-262 18 -530 0v72l43 8q18 3 28 7t19 17.5t13 28.5t6.5 51t3 73t0.5 107v279
q0 110 -44.5 161.5t-119.5 51.5q-59 0 -106 -21t-99 -63v-408q0 -192 10.5 -234t65.5 -52l39 -6v-72q-274 18 -557 0v72l51 8q23 3 36 7t24 17.5t15.5 28t8 51t4 73t0.5 107.5v205q0 244 -15 303.5t-88 69.5l-36 4v74q153 0 248 7.5t184 29.5l18 -17q-2 -54 -6 -190
q61 91 150.5 147t205.5 56q102 0 182 -51t113 -158q64 93 160.5 151t216.5 58q62 0 116 -19t99.5 -58.5t71.5 -109.5t26 -164v-338q0 -82 1.5 -125t6 -78t15.5 -48.5t25.5 -21t42.5 -11.5z" />
    <glyph glyph-name="n" unicode="n" horiz-adv-x="1396" 
d="M1356 68v-72q-287 19 -568 0v74l41 8q23 4 33.5 7t22.5 15t15.5 26t7.5 48.5t4.5 73.5t0.5 110v295q0 100 -46 148.5t-122 48.5q-132 0 -235 -80v-412q0 -73 0.5 -110t4 -73.5t7 -49t15.5 -25.5t23 -16t34 -8l41 -8v-72q-280 19 -567 0v72l51 8q23 3 34.5 6.5t23.5 15
t16.5 26.5t8.5 49.5t4.5 74.5t0.5 110v207q0 92 -1 144.5t-5.5 97.5t-9.5 64.5t-19 35.5t-27.5 20t-40.5 9l-36 6v74q153 0 248 7.5t184 29.5l18 -17q-2 -56 -6 -196q149 209 379 209q65 0 121.5 -19t103.5 -58.5t74 -109.5t27 -164v-340q0 -71 0.5 -110t4.5 -74.5t8 -49.5
t15.5 -26t23 -15.5t34.5 -6.5z" />
    <glyph glyph-name="o" unicode="o" horiz-adv-x="1263" 
d="M610 -33q-150 0 -268.5 61.5t-189 185.5t-70.5 292q0 162 78.5 287.5t207.5 190.5t283 65q150 0 269 -62.5t189.5 -187t70.5 -291.5q0 -162 -79 -287t-207.5 -189.5t-283.5 -64.5zM690 59q82 0 127 91.5t45 259.5q0 138 -38 263.5t-104.5 203t-144.5 77.5
q-83 0 -128.5 -91.5t-45.5 -258.5q0 -140 38 -265.5t105 -202.5t146 -77z" />
    <glyph glyph-name="p" unicode="p" horiz-adv-x="1302" 
d="M655 -362v-72q-320 18 -602 0v72l53 12q26 5 39 12t24.5 22t15.5 47t6 77t2 124v631q0 125 -3 190t-15 108t-30 56t-53 19l-39 6v74q158 0 253 7t181 30l17 -17q-2 -40 -6 -162q114 175 311 175q191 0 300.5 -140t109.5 -356q0 -140 -43.5 -253.5t-117.5 -185
t-168 -109.5t-198 -38q-92 0 -196 33v-96q0 -114 9.5 -164t29 -66.5t69.5 -25.5zM496 371q0 -74 13.5 -131.5t35 -92t50.5 -57t57 -31t57 -8.5q90 0 144 79.5t54 252.5q0 229 -68.5 355t-185.5 126q-98 0 -155 -73q-2 -63 -2 -166v-254z" />
    <glyph glyph-name="q" unicode="q" horiz-adv-x="1265" 
d="M1243 -362v-72q-280 18 -602 0v72l53 10q34 6 51 15.5t31.5 38.5t19.5 83t5 147v174q-103 -139 -279 -139q-130 0 -231 67t-155 179.5t-54 249.5q0 139 50.5 253t133 185t184.5 109.5t209 38.5q161 0 320 -101l96 103l29 -11v-1108q0 -78 2 -123.5t6.5 -78t15.5 -47.5
t24 -21.5t38 -11.5zM393 627q0 -224 76 -360t211 -136q69 0 121 41v535q0 131 -51 193.5t-134 62.5q-96 0 -159.5 -85t-63.5 -251z" />
    <glyph glyph-name="r" unicode="r" horiz-adv-x="1001" 
d="M674 68v-72q-303 18 -606 0v72l57 8q41 5 55 22.5t19.5 69.5t5.5 192v207q0 256 -14.5 309t-86.5 62l-36 4v74q152 0 245.5 7.5t182.5 29.5l18 -17q-8 -120 -8 -305q61 166 129.5 243t169.5 77q76 0 113.5 -47t37.5 -113q0 -53 -24 -103l-33 -22q-50 17 -73 24t-53.5 13
t-57.5 6q-144 0 -207 -150v-299q0 -70 0.5 -108t5.5 -73t10.5 -49.5t20.5 -27.5t30.5 -17t45.5 -9z" />
    <glyph glyph-name="s" unicode="s" horiz-adv-x="972" 
d="M508 51q70 0 106.5 35t36.5 90q0 50 -31 89.5t-80 67.5t-108.5 53.5t-119.5 56t-109 66.5t-80 93t-31 129q0 137 110.5 227.5t297.5 90.5q101 0 177.5 -23t156.5 -72q0 -127 12 -262h-51q-85 145 -155 208t-157 63q-57 0 -90 -33t-33 -84q0 -50 31 -89t80 -65
t108.5 -50.5t119 -53t108.5 -64t80 -92t31 -129.5q0 -152 -122.5 -244t-310.5 -92q-107 0 -211 25t-174 65q6 113 2 277h52q85 -159 171.5 -221t182.5 -62z" />
    <glyph glyph-name="t" unicode="t" horiz-adv-x="761" 
d="M47 1004q74 9 134.5 38.5t105 76t76 96.5t59.5 114l53 -12v-301h240v-103h-240v-557q0 -106 25.5 -150t81.5 -44q74 0 133 59l33 -35q-76 -120 -145 -169.5t-165 -49.5q-142 0 -204 91t-62 284v571h-125v91z" />
    <glyph glyph-name="u" unicode="u" horiz-adv-x="1327" 
d="M1282 51q-205 -17 -405 -84q-24 81 -33 207q-43 -64 -87.5 -107t-112 -71.5t-148.5 -28.5q-68 0 -125.5 18.5t-104.5 58t-73.5 109t-26.5 162.5v248q0 243 -14 301t-84 70l-39 6v76q160 0 251 7t179 30l18 -19q-8 -153 -8 -426v-254q0 -98 42.5 -144t117.5 -46
q106 0 211 78v325q0 244 -12.5 301.5t-77.5 69.5l-35 4v74q151 0 240 7t175 30l21 -17q-8 -148 -8 -409v-252q0 -71 1.5 -108.5t5 -68.5t13.5 -43t23 -18t37 -8l57 -4z" />
    <glyph glyph-name="v" unicode="v" horiz-adv-x="1202" 
d="M946 633l-231 -635q-99 6 -205 0l-320 750q-53 124 -69 148q-22 33 -55 40l-48 10v74q291 -16 588 0v-74l-47 -12q-46 -13 -53 -48.5t26 -125.5l197 -508l135 397q46 138 43 205t-55 80l-43 12v74q185 -15 373 0v-74l-33 -8q-54 -16 -99.5 -80.5t-103.5 -224.5z" />
    <glyph glyph-name="w" unicode="w" horiz-adv-x="1849" 
d="M1612 674l-248 -676q-97 6 -190 0l-246 647l-230 -647q-103 6 -202 0l-306 758q-43 103 -68 139t-63 43l-41 8v74q278 -15 576 0v-74l-49 -14q-43 -11 -47 -43t28 -121l189 -518l172 506q-38 100 -59.5 135.5t-51.5 44.5l-37 10v74q260 -15 533 0v-74l-39 -12
q-49 -13 -54.5 -42.5t25.5 -121.5l176 -520l146 444q38 125 30 176t-65 66l-39 10v74q191 -15 379 0v-74l-33 -10q-53 -16 -94.5 -71.5t-91.5 -190.5z" />
    <glyph glyph-name="x" unicode="x" horiz-adv-x="1273" 
d="M1251 68v-72q-284 14 -628 0v72l51 10q38 7 50.5 23t-1.5 52t-61 101l-123 168l-115 -150q-30 -38 -46 -72t-17.5 -57.5t7 -39.5t27.5 -21l49 -14v-72q-211 14 -419 0v72q88 23 146.5 63.5t156.5 153.5l166 196l-193 262q-64 87 -100 124.5t-63.5 51t-86.5 27.5v72
q264 -13 608 0v-72l-36 -6q-43 -7 -55.5 -25.5t2.5 -54.5t63 -102l98 -133l98 129q41 54 56.5 94.5t6.5 62t-36 27.5l-37 8v74q204 -17 412 0v-74q-165 -54 -313 -215l-146 -164l217 -293q37 -50 55 -74t42 -51.5t37.5 -37.5t35 -21t41.5 -15t51 -7z" />
    <glyph glyph-name="y" unicode="y" horiz-adv-x="1193" 
d="M674 25q-64 -152 -118 -250t-102.5 -149t-90.5 -70t-93 -19q-149 0 -153 193l14 32q65 2 111.5 6t96 13.5t85 26.5t69.5 44t60 66.5t47 93.5l4 8h-88l-326 728q-54 121 -82.5 154.5t-89.5 43.5v74q280 -15 570 0v-74l-47 -12q-53 -13 -56 -52t35 -126l191 -457l143 373
q36 94 44 149.5t-5 78.5t-47 34l-43 12v74q197 -12 373 0v-74l-33 -8q-50 -11 -94.5 -70.5t-116.5 -228.5z" />
    <glyph glyph-name="z" unicode="z" horiz-adv-x="1093" 
d="M1018 367q-25 -227 -25 -371q-451 16 -915 0v59l551 879q-98 -2 -160.5 -10t-110.5 -23.5t-82 -49t-60 -74t-58 -111.5l-54 8q23 154 33 346q423 -18 840 0v-62l-561 -880q99 2 163 6.5t121 17.5t91.5 32t67.5 54.5t56 78.5t50 110z" />
    <glyph glyph-name="braceleft" unicode="{" horiz-adv-x="944" 
d="M115 557h-29v88h29q111 0 168 60t57 178q0 72 -32 192.5t-32 188.5q0 128 72.5 206t220.5 78q169 0 297 -125l-26 -43q-64 33 -127 33q-70 0 -105 -31t-35 -102q0 -38 21.5 -149.5t21.5 -178.5q0 -159 -97 -254.5t-298 -95.5q201 0 298 -96.5t97 -255.5
q0 -68 -21.5 -178.5t-21.5 -147.5q0 -71 35 -102t105 -31q63 0 127 33l26 -43q-128 -125 -297 -125q-148 0 -220.5 78.5t-72.5 206.5q0 67 32 186.5t32 191.5q0 238 -225 238z" />
    <glyph glyph-name="bar" unicode="|" horiz-adv-x="555" 
d="M190 1679h175v-1966h-175v1966z" />
    <glyph glyph-name="braceright" unicode="}" horiz-adv-x="944" 
d="M326 250q0 159 97 255.5t298 96.5q-201 0 -298 95.5t-97 254.5q0 67 21.5 178.5t21.5 149.5q0 72 -34.5 102.5t-105.5 30.5q-63 0 -127 -33l-26 43q132 125 299 125q147 0 219 -78t72 -206q0 -68 -32 -188.5t-32 -192.5q0 -118 57 -178t168 -60h29v-88h-29
q-225 0 -225 -238q0 -72 32 -191.5t32 -186.5q0 -128 -72 -206.5t-219 -78.5q-167 0 -299 125l26 43q64 -33 127 -33q71 0 105.5 30.5t34.5 102.5q0 37 -21.5 147.5t-21.5 178.5z" />
    <glyph glyph-name="asciitilde" unicode="~" 
d="M907 668q-56 -34 -99.5 -51t-96.5 -17q-65 0 -188.5 43t-178.5 43q-113 0 -229 -70v93q128 69 233 69q68 0 189 -43t176 -43q56 0 97.5 16.5t96.5 51.5v-92z" />
    <glyph glyph-name="uni00A0" unicode="&#xa0;" horiz-adv-x="442" 
 />
    <glyph glyph-name="exclamdown" unicode="&#xa1;" horiz-adv-x="681" 
d="M340 1049q72 0 119 -47.5t47 -116.5q0 -72 -47 -119t-119 -47q-71 0 -118.5 47t-47.5 119q0 69 48 116.5t118 47.5zM369 571q4 -124 22.5 -227t42 -169t47 -121.5t39 -112.5t15.5 -115q0 -105 -50.5 -170.5t-144.5 -65.5q-93 0 -144 65.5t-51 170.5q0 58 15.5 115
t39 112.5t47 121.5t42 169t22.5 227h58z" />
    <glyph glyph-name="cent" unicode="&#xa2;" horiz-adv-x="1062" 
d="M584 -33q-51 0 -92 8l-50 -219h-77l53 238q-153 50 -243.5 184.5t-90.5 319.5q0 126 42.5 231.5t114 174.5t163 107t190.5 38q13 0 63 -5l54 240h77l-57 -254q110 -29 176 -98t66 -148q0 -70 -42 -107t-112 -42l-37 14q-47 153 -88 215l-139 -610q82 -49 184 -49
q130 0 242 98l29 -27q-68 -153 -178 -231t-248 -78zM365 676q0 -242 124 -369l142 625q-44 29 -88 29q-76 0 -127 -75.5t-51 -209.5z" />
    <glyph glyph-name="sterling" unicode="&#xa3;" horiz-adv-x="1290" 
d="M1243 375q-32 -217 -122.5 -330t-258.5 -113q-90 0 -163 39t-150 109q-104 -113 -254 -113q-105 0 -163 52t-58 131q0 75 57 127.5t170 52.5q83 0 215 -41q0 48 -11 92t-37 92t-44 75.5t-57 84.5h-277v88h219q-98 153 -98 299q0 80 33.5 152.5t95.5 129t159.5 90
t217.5 33.5q109 0 204.5 -43t150 -109.5t54.5 -135.5q0 -70 -44.5 -106t-116.5 -38l-37 13q-17 64 -32.5 111t-37 94.5t-45 77.5t-55 48.5t-68.5 18.5q-69 0 -106 -56.5t-37 -162.5q0 -38 2 -72.5t7 -69.5t8.5 -58.5t12 -59.5t12.5 -51t15 -54.5t14 -50.5h379v-88h-356
q25 -113 25 -217q0 -84 -23 -168q154 -47 244 -47q124 0 191 42.5t128 149.5zM160 150q0 -45 32 -75t103 -30q121 0 182 98q-114 103 -201 103q-61 0 -88.5 -27t-27.5 -69z" />
    <glyph glyph-name="currency" unicode="&#xa4;" horiz-adv-x="921" 
d="M834 369l-58 -56l-114 113q-87 -68 -197 -68q-115 0 -203 72l-117 -117l-57 56l119 118q-64 87 -64 193q0 110 68 197l-123 122l57 58l123 -123q86 67 197 67q103 0 192 -63l119 119l58 -58l-119 -118q71 -87 71 -201t-67 -197zM465 446q95 0 164 69t69 165q0 95 -69 164
t-164 69t-164.5 -69t-69.5 -164q0 -96 69 -165t165 -69z" />
    <glyph glyph-name="yen" unicode="&#xa5;" horiz-adv-x="1425" 
d="M1018 68v-72q-302 17 -604 0v72l65 8q19 3 30 7t20.5 17t14 28t7.5 48t3.5 68.5t0.5 97.5h-344v86h344v160l-25 41h-319v86h270l-225 389q-77 134 -107.5 169.5t-70.5 43.5l-35 6v74q263 -17 647 0v-74l-41 -8q-50 -10 -72.5 -28t-18.5 -58t42 -105l240 -407l198 397
q26 50 32 88.5t-5 61t-29.5 34.5t-44.5 17l-41 8v74q94 -9 215 -9t215 9v-74l-43 -10q-43 -9 -85.5 -54t-106.5 -155l-219 -389h260v-86h-307v-201h307v-86h-307q0 -63 0.5 -98t3.5 -68t7 -48t13.5 -28t20.5 -17t30 -7z" />
    <glyph glyph-name="brokenbar" unicode="&#xa6;" horiz-adv-x="555" 
d="M190 881v798h175v-798h-175zM190 -287v799h175v-799h-175z" />
    <glyph glyph-name="section" unicode="&#xa7;" horiz-adv-x="1011" 
d="M895 4q0 -138 -113 -229.5t-297 -91.5q-161 0 -274 74.5t-113 150.5q0 94 121 94l39 -6q60 -128 118.5 -182t135.5 -54q58 0 91.5 33t33.5 92q0 84 -59.5 135.5t-223.5 129.5q-74 35 -121.5 65t-87.5 69t-58.5 86.5t-18.5 108.5q0 67 18 121.5t52.5 94t73.5 67.5t91 53
q-92 54 -140 120.5t-48 164.5q0 141 112 233t297 92q155 0 264 -74.5t109 -150.5q0 -45 -30 -70.5t-91 -25.5l-37 8q-58 129 -113.5 182.5t-129.5 53.5q-56 0 -89.5 -33.5t-33.5 -91.5q0 -86 59 -137.5t223 -129.5q74 -35 122 -65t88 -69t58.5 -86.5t18.5 -108.5
q0 -67 -18.5 -122t-53 -94.5t-73.5 -67.5t-90 -52q93 -56 140.5 -122t47.5 -165zM584 354q7 -4 35.5 -18t44.5 -21q53 63 53 150q0 86 -65 147.5t-226 139.5q-17 7 -46.5 22t-33.5 17q-53 -63 -53 -150q0 -86 65 -147.5t226 -139.5z" />
    <glyph glyph-name="dieresis" unicode="&#xa8;" 
d="M453 1354q0 -65 -46 -110.5t-114 -45.5q-70 0 -116 45.5t-46 110.5q0 68 46 112.5t116 44.5q68 0 114 -45t46 -112zM891 1354q0 -66 -45.5 -111t-116.5 -45q-67 0 -113.5 45.5t-46.5 110.5q0 67 46 112t114 45q70 0 116 -44.5t46 -112.5z" />
    <glyph glyph-name="copyright" unicode="&#xa9;" horiz-adv-x="1796" 
d="M897 -141q-163 0 -312.5 59.5t-262.5 164t-180.5 260t-67.5 335.5q0 153 46 290t125.5 239t183.5 177t224.5 113.5t243.5 38.5q163 0 312.5 -59.5t262.5 -164t180.5 -260t67.5 -335.5q0 -190 -70 -354t-185 -272.5t-263 -170t-305 -61.5zM897 1446q-111 0 -217.5 -35
t-197 -103t-159.5 -159t-108 -210.5t-39 -250.5q0 -217 99.5 -387.5t263 -261t358.5 -90.5q142 0 272.5 54.5t230 151.5t159 241t59.5 311q0 161 -58 300.5t-156 235t-229.5 149.5t-277.5 54zM899 1157q-92 0 -144.5 -90t-52.5 -258q0 -162 44.5 -293.5t118.5 -203.5
t163 -72q65 0 109.5 56t99.5 193l20 52l43 -13q-3 -20 -38 -301q-118 -67 -275 -67q-161 0 -286.5 60.5t-201 184.5t-75.5 295q0 235 138 385t378 150q85 0 161.5 -19t125.5 -49q2 -110 20 -301l-43 -8l-33 70q-104 229 -272 229z" />
    <glyph glyph-name="ordfeminine" unicode="&#xaa;" horiz-adv-x="874" 
d="M856 743q-88 -98 -211 -98q-62 0 -99.5 35t-41.5 96q-78 -131 -217 -131q-100 0 -165 57.5t-65 151.5q0 171 250 203l195 24v37q0 106 -36 161.5t-97 55.5q-57 0 -83 -51.5t-26 -155.5l-31 -8q-125 4 -125 80q0 54 59 107t149 85.5t177 32.5q118 0 185 -67.5t67 -198.5
v-330q0 -40 10 -56.5t33 -16.5q27 0 54 22zM281 901q0 -53 29 -88t79 -35q66 0 113 53v183l-82 -2q-139 0 -139 -111zM68 438v90h751v-90h-751z" />
    <glyph glyph-name="guillemotleft" unicode="&#xab;" horiz-adv-x="1171" 
d="M1075 37l-39 -27l-465 412v176l465 414l39 -27l-254 -475zM586 37l-39 -27l-465 412v176l465 414l39 -27l-254 -475z" />
    <glyph glyph-name="logicalnot" unicode="&#xac;" 
d="M115 891h792v-410h-94v318h-698v92z" />
    <glyph glyph-name="uni00AD" unicode="&#xad;" horiz-adv-x="0" 
 />
    <glyph glyph-name="registered" unicode="&#xae;" horiz-adv-x="1701" 
d="M68 930q0 122 31 234t85 200.5t128.5 161t161 121t183 74.5t193.5 26q156 0 298 -56.5t250 -156t172 -247t64 -318.5q0 -182 -66.5 -338t-176 -259t-250.5 -161.5t-291 -58.5q-155 0 -297 56.5t-249.5 156t-171.5 247t-64 318.5zM1530 958q0 152 -55 284t-147.5 222
t-216.5 141.5t-261 51.5q-130 0 -253 -53t-217.5 -145.5t-152 -228.5t-57.5 -290t54.5 -286.5t147.5 -222.5t217 -140.5t261 -50.5q130 0 253 52t217.5 144t152 228.5t57.5 293.5zM1296 610v-55q-130 6 -256 0l-252 412q91 26 130.5 68.5t39.5 123.5q0 86 -50 132.5
t-144 49.5v-567q0 -102 6.5 -127t36.5 -31l39 -6v-55q-193 9 -371 0v55l37 6q30 3 36.5 28.5t6.5 129.5v389q0 114 -7 142t-40 32l-33 6v56q51 -3 109 -3t125.5 1.5t99.5 1.5q165 0 259.5 -54.5t94.5 -164.5q0 -77 -40 -123.5t-122 -77.5l175 -268q34 -53 52.5 -71t45.5 -24
z" />
    <glyph glyph-name="macron" unicode="&#xaf;" 
d="M195 1243v176h632v-176h-632z" />
    <glyph glyph-name="degree" unicode="&#xb0;" horiz-adv-x="739" 
d="M369 809q-129 0 -217.5 88.5t-88.5 218.5q0 132 88.5 220.5t217.5 88.5t217 -88.5t88 -220.5q0 -130 -88 -218.5t-217 -88.5zM369 1329q-87 0 -144 -61t-57 -152q0 -90 57 -151.5t144 -61.5q88 0 144 61t56 152q0 92 -56 152.5t-144 60.5z" />
    <glyph glyph-name="plusminus" unicode="&#xb1;" 
d="M907 637h-348v-371h-96v371h-348v92h348v371h96v-371h348v-92zM907 0h-792v92h792v-92z" />
    <glyph glyph-name="twosuperior" unicode="&#xb2;" horiz-adv-x="720" 
d="M670 1171q-48 -147 -58 -278q-278 13 -569 0v53q143 137 217.5 228.5t100.5 156.5t26 142q0 58 -26.5 92t-67.5 34q-99 0 -74 -210l-29 -11q-133 0 -133 86q0 27 18.5 59.5t53.5 64.5t96 53.5t135 21.5q129 0 202 -59.5t73 -149.5q0 -48 -16.5 -89.5t-39 -70.5t-69 -64.5
t-83 -58t-106.5 -64.5t-116 -71l114 6q86 5 136 12.5t81.5 24t45 32t34.5 50.5l15 25z" />
    <glyph glyph-name="threesuperior" unicode="&#xb3;" horiz-adv-x="677" 
d="M629 1120q0 -115 -91.5 -185.5t-242.5 -70.5q-113 0 -182.5 51t-69.5 113q0 69 98 84l29 -8q25 -92 53.5 -139t75.5 -47q42 0 67 33.5t25 92.5q0 83 -37 147.5t-108 88.5l-13 4l218 191l-72 -2q-96 -4 -146 -15t-66.5 -26t-25.5 -46l-8 -30h-43q8 51 9 134t-5 142
q243 -12 490 0v-129l-240 -188q120 12 202.5 -43.5t82.5 -151.5z" />
    <glyph glyph-name="acute" unicode="&#xb4;" 
d="M795 1448q0 -75 -85.5 -138.5t-310.5 -160.5l-24 27l227 397l33 12q76 -15 118 -50t42 -87z" />
    <glyph glyph-name="paragraph" unicode="&#xb6;" horiz-adv-x="1320" 
d="M608 -463q-187 0 -310.5 76t-123.5 178q0 56 42 85.5t108 29.5l32 -21q62 -158 115 -218t141 -60q90 0 145.5 81.5t55.5 254.5v1380h-27q-19 0 -30.5 -2t-22 -6t-16 -15.5t-9.5 -23.5t-5.5 -38.5t-2 -52t-0.5 -71.5v-1302q-28 -13 -69 -58l-25 13v841
q-239 2 -383.5 107.5t-144.5 296.5q0 189 126 285t355 96q61 0 193 -3.5t194 -3.5q140 0 305 11v-74l-53 -8q-20 -4 -32 -9t-22 -18t-15 -30t-8 -52t-4 -75t-1 -107v-954q0 -259 -136 -396t-372 -137z" />
    <glyph glyph-name="periodcentered" unicode="&#xb7;" 
d="M696 729q0 -78 -52.5 -131t-131.5 -53t-132.5 53t-53.5 131t53.5 131t132.5 53t131.5 -53t52.5 -131z" />
    <glyph glyph-name="cedilla" unicode="&#xb8;" 
d="M489 0l82 4l-84 -149q120 20 201.5 -35.5t81.5 -151.5q0 -98 -68.5 -160.5t-179.5 -62.5q-140 0 -254 109l31 43q55 -39 123 -39q50 0 83.5 30.5t33.5 79.5q0 105 -133 125l-9 27z" />
    <glyph glyph-name="onesuperior" unicode="&#xb9;" horiz-adv-x="591" 
d="M188 1120v248q0 89 -13.5 112t-76.5 19l-45 -2l-4 59q213 25 367 107l18 -16q-4 -122 -4 -230v-297q0 -41 0.5 -61.5t4 -41t8 -28.5t16.5 -16.5t24 -11t37 -7.5l25 -6v-55q-239 12 -471 0v55l24 6q28 6 41 10.5t25.5 13t16 27.5t5.5 43.5t2 71.5z" />
    <glyph glyph-name="ordmasculine" unicode="&#xba;" horiz-adv-x="940" 
d="M473 1425q179 0 291.5 -107t112.5 -284q0 -116 -55.5 -205.5t-148 -136.5t-206.5 -47q-178 0 -292 106.5t-114 282.5q0 174 119.5 282.5t292.5 108.5zM510 713q55 0 88 68.5t33 179.5q0 97 -27 188.5t-73 149t-97 57.5q-58 0 -91.5 -68t-33.5 -180q0 -97 27 -188t74 -149
t100 -58zM86 528h770v-90h-770v90z" />
    <glyph glyph-name="guillemotright" unicode="&#xbb;" horiz-adv-x="1171" 
d="M600 422l-467 -412l-39 27l256 473l-256 475l39 27l467 -414v-176zM1090 422l-467 -412l-39 27l256 473l-256 475l39 27l467 -414v-176z" />
    <glyph glyph-name="onequarter" unicode="&#xbc;" horiz-adv-x="1501" 
d="M188 883v247q0 89 -13.5 112.5t-76.5 19.5l-45 -2l-4 59q216 26 367 106l18 -16q-4 -122 -4 -229v-297q0 -41 0.5 -61.5t4 -41t8 -28.5t16.5 -16.5t24 -11t37 -7.5l25 -6v-56q-239 12 -471 0v56l24 6q28 6 41 10.5t25.5 13t16 27.5t5.5 43.5t2 71.5zM244 0l968 1393h113
l-969 -1393h-112zM1403 51v-55q-208 15 -422 0v55l29 4q46 8 59 25.5t16 81.5q-109 0 -331 -4v57l397 526q85 -10 156 -10q-7 -107 -7 -233v-199q68 10 94 25t40 43l12 24l33 -6q-37 -133 -43 -227q-45 2 -136 2q3 -61 17 -78.5t61 -26.5zM1085 557l-215 -283l215 11v272z
" />
    <glyph glyph-name="onehalf" unicode="&#xbd;" horiz-adv-x="1554" 
d="M188 883v247q0 89 -13.5 112.5t-76.5 19.5l-45 -2l-4 59q216 26 367 106l18 -16q-4 -122 -4 -229v-297q0 -41 0.5 -61.5t4 -41t8 -28.5t16.5 -16.5t24 -11t37 -7.5l25 -6v-56q-239 12 -471 0v56l24 6q28 6 41 10.5t25.5 13t16 27.5t5.5 43.5t2 71.5zM223 0l969 1393h113
l-969 -1393h-113zM1503 274q-47 -143 -57 -278q-278 13 -569 0v53q143 137 217.5 228t100.5 156t26 142q0 58 -27 92.5t-68 34.5q-98 0 -73 -210l-29 -11q-133 0 -133 86q0 27 18.5 59.5t53.5 64.5t96 53.5t135 21.5q129 0 201.5 -59.5t72.5 -149.5q0 -48 -16.5 -89.5
t-39 -70.5t-69 -64.5t-83 -58t-106.5 -64.5t-116 -71l115 6q86 5 136 12.5t81.5 24t45 32t34.5 50.5l14 25z" />
    <glyph glyph-name="threequarters" unicode="&#xbe;" horiz-adv-x="1488" 
d="M629 883q0 -115 -91.5 -185.5t-242.5 -70.5q-113 0 -182.5 51t-69.5 113q0 68 98 83l29 -8q25 -92 53.5 -139t75.5 -47q42 0 67 34t25 93q0 83 -37 147t-108 88l-13 5l218 190l-72 -2q-97 -4 -146.5 -14.5t-66 -25.5t-25.5 -46l-8 -31h-43q8 51 9 134.5t-5 142.5
q243 -12 490 0v-129l-240 -189q120 12 202.5 -43t82.5 -151zM246 0l968 1393h113l-969 -1393h-112zM1393 51v-55q-208 15 -422 0v55l28 4q46 8 59.5 25.5t16.5 81.5q-110 0 -332 -4v57l398 526q85 -10 155 -10q-6 -91 -6 -233v-199q68 10 93.5 25t39.5 43l13 24l32 -6
q-37 -133 -43 -227q-45 2 -135 2q3 -61 17 -78.5t61 -26.5zM1075 557l-215 -283l215 11v272z" />
    <glyph glyph-name="questiondown" unicode="&#xbf;" horiz-adv-x="1060" 
d="M352 885q0 69 48 116.5t118 47.5q72 0 120 -47.5t48 -116.5q0 -72 -48 -119t-120 -47q-71 0 -118.5 47t-47.5 119zM510 582q91 0 153 -47.5t62 -137.5q0 -47 -16 -86.5t-42 -69t-57 -57t-62.5 -57.5t-57.5 -63.5t-42 -80.5t-16 -104q0 -101 49.5 -152t126.5 -51
q103 0 142 94t10 279l39 8q99 0 152 -34.5t53 -100.5q0 -50 -34 -106.5t-94 -107.5t-157.5 -84.5t-210.5 -33.5q-206 0 -318 85t-112 214q0 75 29 132t75 91t102 60t112 47.5t102 45t75 60.5t29 87q0 41 -26.5 68.5t-75.5 27.5q-104 0 -164 -127l-66 37q90 164 240 164z" />
    <glyph glyph-name="Agrave" unicode="&#xc0;" horiz-adv-x="1458" 
d="M367 1823q0 51 41.5 87t115.5 50l33 -12l229 -398l-26 -26q-224 96 -308.5 159.5t-84.5 139.5zM1434 68v-72q-316 13 -625 0v72l37 8q48 12 67.5 28.5t18.5 52t-27 103.5l-57 160h-459l-51 -150q-17 -51 -20 -84t11 -54.5t35.5 -33t61.5 -22.5l35 -8v-72q-216 13 -438 0
v72l40 12q59 15 98 56.5t81 156.5l198 534q92 238 92 349q0 65 -59 92l-39 14v66q84 -3 191 22t166 60h38l433 -1158q43 -116 71 -152t70 -44zM418 510h397l-205 567z" />
    <glyph glyph-name="Aacute" unicode="&#xc1;" horiz-adv-x="1458" 
d="M1044 1823q0 -75 -85 -138.5t-310 -160.5l-24 26l227 398l33 12q76 -15 117.5 -50t41.5 -87zM1434 68v-72q-316 13 -625 0v72l37 8q48 12 67.5 28.5t18.5 52t-27 103.5l-57 160h-459l-51 -150q-17 -51 -20 -84t11 -54.5t35.5 -33t61.5 -22.5l35 -8v-72q-216 13 -438 0v72
l40 12q59 15 98 56.5t81 156.5l198 534q92 238 92 349q0 65 -59 92l-39 14v66q84 -3 191 22t166 60h38l433 -1158q43 -116 71 -152t70 -44zM418 510h397l-205 567z" />
    <glyph glyph-name="Acircumflex" unicode="&#xc2;" horiz-adv-x="1458" 
d="M715 1761l-303 -243l-31 32l219 392h227l220 -392l-31 -32zM1434 68v-72q-316 13 -625 0v72l37 8q48 12 67.5 28.5t18.5 52t-27 103.5l-57 160h-459l-51 -150q-17 -51 -20 -84t11 -54.5t35.5 -33t61.5 -22.5l35 -8v-72q-216 13 -438 0v72l40 12q59 15 98 56.5t81 156.5
l198 534q92 238 92 349q0 65 -59 92l-39 14v66q84 -3 191 22t166 60h38l433 -1158q43 -116 71 -152t70 -44zM418 510h397l-205 567z" />
    <glyph glyph-name="Atilde" unicode="&#xc3;" horiz-adv-x="1458" 
d="M379 1583q57 326 219 326q58 0 147.5 -47t143.5 -47q79 0 129 122l45 -18q-56 -340 -221 -340q-47 0 -96.5 23.5t-99.5 47t-97 23.5q-83 0 -127 -108zM1434 68v-72q-316 13 -625 0v72l37 8q48 12 67.5 28.5t18.5 52t-27 103.5l-57 160h-459l-51 -150q-17 -51 -20 -84
t11 -54.5t35.5 -33t61.5 -22.5l35 -8v-72q-216 13 -438 0v72l40 12q59 15 98 56.5t81 156.5l198 534q92 238 92 349q0 65 -59 92l-39 14v66q84 -3 191 22t166 60h38l433 -1158q43 -116 71 -152t70 -44zM418 510h397l-205 567z" />
    <glyph glyph-name="Adieresis" unicode="&#xc4;" horiz-adv-x="1458" 
d="M659 1729q0 -65 -45.5 -110.5t-113.5 -45.5q-70 0 -116 45.5t-46 110.5q0 68 46 112.5t116 44.5q68 0 113.5 -45t45.5 -112zM1098 1729q0 -66 -45.5 -111t-116.5 -45q-67 0 -113.5 45.5t-46.5 110.5q0 67 46 112t114 45q70 0 116 -44.5t46 -112.5zM1434 68v-72
q-316 13 -625 0v72l37 8q48 12 67.5 28.5t18.5 52t-27 103.5l-57 160h-459l-51 -150q-17 -51 -20 -84t11 -54.5t35.5 -33t61.5 -22.5l35 -8v-72q-216 13 -438 0v72l40 12q59 15 98 56.5t81 156.5l198 534q92 238 92 349q0 65 -59 92l-39 14v66q84 -3 191 22t166 60h38
l433 -1158q43 -116 71 -152t70 -44zM418 510h397l-205 567z" />
    <glyph glyph-name="Aring" unicode="&#xc5;" horiz-adv-x="1458" 
d="M963 1790q0 -112 -79 -190t-190 -78q-113 0 -191.5 78t-78.5 190t78.5 190t191.5 78q111 0 190 -78t79 -190zM528 1790q0 -75 47.5 -124.5t118.5 -49.5q68 0 116 50t48 124q0 71 -48.5 122.5t-115.5 51.5q-70 0 -118 -51.5t-48 -122.5zM1434 68v-72q-316 13 -625 0v72
l37 8q48 12 67.5 28.5t18.5 52t-27 103.5l-57 160h-459l-51 -150q-17 -51 -20 -84t11 -54.5t35.5 -33t61.5 -22.5l35 -8v-72q-216 13 -438 0v72l40 12q59 15 98 56.5t81 156.5l198 534q92 238 92 349q0 65 -59 92l-39 14v66q84 -3 191 22t166 60h38l433 -1158
q43 -116 71 -152t70 -44zM418 510h397l-205 567z" />
    <glyph glyph-name="AE" unicode="&#xc6;" horiz-adv-x="1974" 
d="M1901 401q-59 -260 -72 -405q-620 15 -1075 0v72l63 10q27 5 40.5 14.5t22.5 42t11 80t2 143.5v82h-416l-96 -174q-33 -60 -32.5 -100.5t24 -60t67.5 -29.5l41 -8v-72q-224 14 -461 0v72l43 12q63 16 102.5 52.5t110.5 156.5l453 768q41 70 59.5 119t14.5 76.5t-18 41
t-40 19.5l-40 10v74q497 -19 1097 0q-6 -180 4 -391l-49 -13q-48 134 -87.5 198t-92 90t-143.5 26h-217v-576l137 6q102 4 145.5 38.5t73.5 125.5l10 33h51q-16 -264 0 -475h-51l-10 33q-29 88 -73.5 123.5t-145.5 39.5l-137 7v-338q0 -143 40.5 -194.5t157.5 -51.5h72
q69 0 121.5 26t113 100.5t136.5 213.5zM893 1186l-365 -656h365v656z" />
    <glyph glyph-name="Ccedilla" unicode="&#xc7;" horiz-adv-x="1386" 
d="M983 -332q0 -98 -68.5 -160.5t-179.5 -62.5q-140 0 -254 109l31 43q55 -39 123 -39q50 0 83.5 30.5t33.5 79.5q0 104 -134 125l-8 27l82 160q-266 47 -427 242.5t-161 496.5q0 199 82.5 358.5t241.5 253.5t369 94q118 0 221.5 -27t173.5 -71q2 -109 27 -395l-54 -12
l-49 90q-93 170 -182 244.5t-201 74.5q-134 0 -210.5 -122.5t-76.5 -348.5q0 -164 37 -312.5t98 -252.5t141.5 -165.5t166.5 -61.5q45 0 80 16.5t70.5 60.5t67 99.5t79.5 154.5l43 88l49 -16q-25 -144 -59 -418q-147 -84 -373 -84q-26 0 -80 4l-66 -116q120 20 201.5 -35.5
t81.5 -151.5z" />
    <glyph glyph-name="Egrave" unicode="&#xc8;" horiz-adv-x="1308" 
d="M381 1823q0 51 42 87t116 50l32 -12l230 -398l-27 -26q-224 96 -308.5 159.5t-84.5 139.5zM1235 401q-57 -236 -72 -405q-620 15 -1075 0v72l64 10q35 6 49.5 27.5t20 75t5.5 179.5v668q0 127 -5.5 181t-20 76t-49.5 28l-64 10v74q424 -16 1049 0q-6 -180 4 -391l-49 -13
q-69 194 -130.5 254t-193.5 60h-219v-576l139 6q103 4 145.5 38.5t71.5 125.5l13 33h51q-16 -264 0 -475h-51l-13 33q-28 88 -71.5 123.5t-145.5 39.5l-139 7v-338q0 -142 43 -194t162 -52h67q69 0 121 26t112.5 100.5t135.5 213.5z" />
    <glyph glyph-name="Eacute" unicode="&#xc9;" horiz-adv-x="1308" 
d="M993 1821q0 -75 -85 -138.5t-310 -160.5l-25 26l228 398l33 12q76 -15 117.5 -50t41.5 -87zM1235 401q-57 -236 -72 -405q-620 15 -1075 0v72l64 10q35 6 49.5 27.5t20 75t5.5 179.5v668q0 127 -5.5 181t-20 76t-49.5 28l-64 10v74q424 -16 1049 0q-6 -180 4 -391
l-49 -13q-69 194 -130.5 254t-193.5 60h-219v-576l139 6q103 4 145.5 38.5t71.5 125.5l13 33h51q-16 -264 0 -475h-51l-13 33q-28 88 -71.5 123.5t-145.5 39.5l-139 7v-338q0 -142 43 -194t162 -52h67q69 0 121 26t112.5 100.5t135.5 213.5z" />
    <glyph glyph-name="Ecircumflex" unicode="&#xca;" horiz-adv-x="1308" 
d="M655 1761l-303 -243l-30 32l219 392h227l219 -392l-31 -32zM1235 401q-57 -236 -72 -405q-620 15 -1075 0v72l64 10q35 6 49.5 27.5t20 75t5.5 179.5v668q0 127 -5.5 181t-20 76t-49.5 28l-64 10v74q424 -16 1049 0q-6 -180 4 -391l-49 -13q-69 194 -130.5 254t-193.5 60
h-219v-576l139 6q103 4 145.5 38.5t71.5 125.5l13 33h51q-16 -264 0 -475h-51l-13 33q-28 88 -71.5 123.5t-145.5 39.5l-139 7v-338q0 -142 43 -194t162 -52h67q69 0 121 26t112.5 100.5t135.5 213.5z" />
    <glyph glyph-name="Edieresis" unicode="&#xcb;" horiz-adv-x="1308" 
d="M594 1729q0 -65 -46 -110.5t-114 -45.5q-70 0 -116 45.5t-46 110.5q0 68 46 112.5t116 44.5q68 0 114 -45t46 -112zM1032 1729q0 -66 -45.5 -111t-116.5 -45q-67 0 -113 45.5t-46 110.5q0 67 45.5 112t113.5 45q70 0 116 -44.5t46 -112.5zM1235 401q-57 -236 -72 -405
q-620 15 -1075 0v72l64 10q35 6 49.5 27.5t20 75t5.5 179.5v668q0 127 -5.5 181t-20 76t-49.5 28l-64 10v74q424 -16 1049 0q-6 -180 4 -391l-49 -13q-69 194 -130.5 254t-193.5 60h-219v-576l139 6q103 4 145.5 38.5t71.5 125.5l13 33h51q-16 -264 0 -475h-51l-13 33
q-28 88 -71.5 123.5t-145.5 39.5l-139 7v-338q0 -142 43 -194t162 -52h67q69 0 121 26t112.5 100.5t135.5 213.5z" />
    <glyph glyph-name="Igrave" unicode="&#xcc;" horiz-adv-x="778" 
d="M111 1823q0 51 41.5 87t115.5 50l33 -12l229 -398l-26 -26q-224 96 -308.5 159.5t-84.5 139.5zM227 369v653q0 130 -5.5 185.5t-20 77.5t-49.5 28l-64 10v74q300 -17 600 0v-74l-61 -10q-27 -5 -41 -15t-23 -43t-11.5 -83.5t-2.5 -149.5v-653q0 -99 2.5 -149.5
t11.5 -83.5t23 -43t41 -15l61 -10v-72q-300 17 -600 0v72l64 10q35 6 49.5 28t20 77.5t5.5 185.5z" />
    <glyph glyph-name="Iacute" unicode="&#xcd;" horiz-adv-x="778" 
d="M729 1823q0 -75 -85 -138.5t-310 -160.5l-25 26l228 398l32 12q76 -15 118 -50t42 -87zM227 369v653q0 130 -5.5 185.5t-20 77.5t-49.5 28l-64 10v74q300 -17 600 0v-74l-61 -10q-27 -5 -41 -15t-23 -43t-11.5 -83.5t-2.5 -149.5v-653q0 -99 2.5 -149.5t11.5 -83.5
t23 -43t41 -15l61 -10v-72q-300 17 -600 0v72l64 10q35 6 49.5 28t20 77.5t5.5 185.5z" />
    <glyph glyph-name="Icircumflex" unicode="&#xce;" horiz-adv-x="778" 
d="M391 1761l-303 -243l-31 32l219 392h228l219 -392l-31 -32zM227 369v653q0 130 -5.5 185.5t-20 77.5t-49.5 28l-64 10v74q300 -17 600 0v-74l-61 -10q-27 -5 -41 -15t-23 -43t-11.5 -83.5t-2.5 -149.5v-653q0 -99 2.5 -149.5t11.5 -83.5t23 -43t41 -15l61 -10v-72
q-300 17 -600 0v72l64 10q35 6 49.5 28t20 77.5t5.5 185.5z" />
    <glyph glyph-name="Idieresis" unicode="&#xcf;" horiz-adv-x="778" 
d="M332 1729q0 -65 -46 -110.5t-114 -45.5q-70 0 -116 45.5t-46 110.5q0 68 46 112.5t116 44.5q68 0 114 -45t46 -112zM770 1729q0 -66 -45.5 -111t-116.5 -45q-67 0 -113 45.5t-46 110.5q0 67 45.5 112t113.5 45q70 0 116 -44.5t46 -112.5zM227 369v653q0 130 -5.5 185.5
t-20 77.5t-49.5 28l-64 10v74q300 -17 600 0v-74l-61 -10q-27 -5 -41 -15t-23 -43t-11.5 -83.5t-2.5 -149.5v-653q0 -99 2.5 -149.5t11.5 -83.5t23 -43t41 -15l61 -10v-72q-300 17 -600 0v72l64 10q35 6 49.5 28t20 77.5t5.5 185.5z" />
    <glyph glyph-name="Eth" unicode="&#xd0;" horiz-adv-x="1540" 
d="M1438 700q0 -321 -208 -512.5t-571 -191.5q-40 0 -155 2t-222 2t-194 -4v72l62 10q36 6 51 28t20.5 75.5t5.5 178.5v318h-125v92h125v277q0 117 -5.5 167.5t-20.5 71.5t-51 27l-62 10v74q83 -5 183.5 -5t201.5 2.5t127 2.5q253 0 440 -79t292.5 -237.5t105.5 -380.5z
M549 301q0 -129 35 -178t129 -49q173 0 278 153t105 430q0 318 -142 484t-405 180v-551h235v-92h-235v-377z" />
    <glyph glyph-name="Ntilde" unicode="&#xd1;" horiz-adv-x="1499" 
d="M461 1583q57 326 219 326q58 0 147.5 -47t143.5 -47q79 0 129 122l45 -18q-56 -340 -221 -340q-47 0 -96.5 23.5t-99.5 47t-97 23.5q-83 0 -127 -108zM504 66v-70q-220 10 -436 0v70l55 14q38 8 59 36.5t32 98t11 195.5v696q0 84 -23 130.5t-75 66.5l-53 20v74
q92 -7 219.5 -7t216.5 7l690 -989l-12 587q-3 177 -25.5 239t-95.5 77l-51 12v74q211 -14 418 0v-74l-50 -14q-40 -10 -60 -38.5t-29 -91.5t-9 -184v-995q-110 3 -223 0l-750 1087l11 -679q1 -127 11.5 -192t35.5 -96.5t75 -41.5z" />
    <glyph glyph-name="Ograve" unicode="&#xd2;" horiz-adv-x="1605" 
d="M492 1823q0 51 41.5 87t115.5 50l33 -12l229 -398l-26 -26q-224 96 -308.5 159.5t-84.5 139.5zM799 1425q141 0 268.5 -52.5t224 -146t153 -232.5t56.5 -302q0 -210 -89 -375.5t-247.5 -257.5t-359.5 -92q-141 0 -268.5 52.5t-223.5 146t-152.5 232.5t-56.5 302
q0 210 88.5 375.5t247 257.5t359.5 92zM1159 535q0 174 -37 326t-98 254.5t-139 161t-160 58.5q-132 0 -205.5 -125.5t-73.5 -351.5q0 -175 37 -327.5t98 -254.5t139.5 -160.5t160.5 -58.5q132 0 205 125.5t73 352.5z" />
    <glyph glyph-name="Oacute" unicode="&#xd3;" horiz-adv-x="1605" 
d="M1120 1823q0 -75 -85 -138.5t-310 -160.5l-25 26l228 398l33 12q76 -15 117.5 -50t41.5 -87zM799 1425q141 0 268.5 -52.5t224 -146t153 -232.5t56.5 -302q0 -210 -89 -375.5t-247.5 -257.5t-359.5 -92q-141 0 -268.5 52.5t-223.5 146t-152.5 232.5t-56.5 302
q0 210 88.5 375.5t247 257.5t359.5 92zM1159 535q0 174 -37 326t-98 254.5t-139 161t-160 58.5q-132 0 -205.5 -125.5t-73.5 -351.5q0 -175 37 -327.5t98 -254.5t139.5 -160.5t160.5 -58.5q132 0 205 125.5t73 352.5z" />
    <glyph glyph-name="Ocircumflex" unicode="&#xd4;" horiz-adv-x="1605" 
d="M807 1761l-303 -243l-31 32l219 392h228l219 -392l-31 -32zM799 1425q141 0 268.5 -52.5t224 -146t153 -232.5t56.5 -302q0 -210 -89 -375.5t-247.5 -257.5t-359.5 -92q-141 0 -268.5 52.5t-223.5 146t-152.5 232.5t-56.5 302q0 210 88.5 375.5t247 257.5t359.5 92z
M1159 535q0 174 -37 326t-98 254.5t-139 161t-160 58.5q-132 0 -205.5 -125.5t-73.5 -351.5q0 -175 37 -327.5t98 -254.5t139.5 -160.5t160.5 -58.5q132 0 205 125.5t73 352.5z" />
    <glyph glyph-name="Otilde" unicode="&#xd5;" horiz-adv-x="1605" 
d="M465 1583q57 326 219 326q58 0 147.5 -47t143.5 -47q79 0 129 122l45 -18q-56 -340 -221 -340q-47 0 -96.5 23.5t-99.5 47t-97 23.5q-83 0 -127 -108zM799 1425q141 0 268.5 -52.5t224 -146t153 -232.5t56.5 -302q0 -210 -89 -375.5t-247.5 -257.5t-359.5 -92
q-141 0 -268.5 52.5t-223.5 146t-152.5 232.5t-56.5 302q0 210 88.5 375.5t247 257.5t359.5 92zM1159 535q0 174 -37 326t-98 254.5t-139 161t-160 58.5q-132 0 -205.5 -125.5t-73.5 -351.5q0 -175 37 -327.5t98 -254.5t139.5 -160.5t160.5 -58.5q132 0 205 125.5t73 352.5z
" />
    <glyph glyph-name="Odieresis" unicode="&#xd6;" horiz-adv-x="1605" 
d="M748 1729q0 -65 -46 -110.5t-114 -45.5q-70 0 -116 45.5t-46 110.5q0 68 46 112.5t116 44.5q68 0 114 -45t46 -112zM1186 1729q0 -66 -45.5 -111t-116.5 -45q-67 0 -113.5 45.5t-46.5 110.5q0 67 46 112t114 45q70 0 116 -44.5t46 -112.5zM799 1425q141 0 268.5 -52.5
t224 -146t153 -232.5t56.5 -302q0 -210 -89 -375.5t-247.5 -257.5t-359.5 -92q-141 0 -268.5 52.5t-223.5 146t-152.5 232.5t-56.5 302q0 210 88.5 375.5t247 257.5t359.5 92zM1159 535q0 174 -37 326t-98 254.5t-139 161t-160 58.5q-132 0 -205.5 -125.5t-73.5 -351.5
q0 -175 37 -327.5t98 -254.5t139.5 -160.5t160.5 -58.5q132 0 205 125.5t73 352.5z" />
    <glyph glyph-name="multiply" unicode="&#xd7;" 
d="M868 389l-65 -67l-291 292l-293 -292l-65 67l290 291l-290 291l65 65l293 -291l291 291l65 -65l-290 -291z" />
    <glyph glyph-name="Oslash" unicode="&#xd8;" horiz-adv-x="1605" 
d="M805 -33q-241 0 -432 148l-140 -166h-118l190 225q-201 208 -201 526q0 210 88.5 375.5t247 257.5t359.5 92q245 0 434 -147l139 166h119l-191 -227q95 -98 148 -232t53 -293q0 -210 -89 -375.5t-247.5 -257.5t-359.5 -92zM446 858q0 -243 68 -434l539 639
q-63 129 -149.5 200.5t-178.5 71.5q-132 0 -205.5 -125.5t-73.5 -351.5zM1159 535q0 236 -67 434l-539 -639q63 -129 149.5 -201t178.5 -72q132 0 205 125.5t73 352.5z" />
    <glyph glyph-name="Ugrave" unicode="&#xd9;" horiz-adv-x="1474" 
d="M494 1823q0 51 41.5 87t115.5 50l33 -12l229 -398l-26 -26q-224 96 -308.5 159.5t-84.5 139.5zM213 1022q0 191 -11.5 235t-70.5 56l-57 10v74q305 -19 600 0v-74l-58 -10q-25 -5 -38 -13.5t-23 -23t-13.5 -51t-5 -78.5t-1.5 -125v-549q0 -385 311 -385q325 0 319 453
l-4 534q-1 98 -10.5 145t-28.5 65.5t-61 27.5l-49 10v74q205 -13 397 0v-74l-57 -12q-33 -8 -50 -25.5t-27.5 -67t-10.5 -141.5v-549q0 -152 -38 -262.5t-108.5 -174.5t-162 -94t-207.5 -30q-92 0 -170 16t-146.5 53t-116 94.5t-75 145t-27.5 199.5v547z" />
    <glyph glyph-name="Uacute" unicode="&#xda;" horiz-adv-x="1474" 
d="M1145 1823q0 -75 -85 -138.5t-310 -160.5l-25 26l227 398l33 12q76 -15 118 -50t42 -87zM213 1022q0 191 -11.5 235t-70.5 56l-57 10v74q305 -19 600 0v-74l-58 -10q-25 -5 -38 -13.5t-23 -23t-13.5 -51t-5 -78.5t-1.5 -125v-549q0 -385 311 -385q325 0 319 453l-4 534
q-1 98 -10.5 145t-28.5 65.5t-61 27.5l-49 10v74q205 -13 397 0v-74l-57 -12q-33 -8 -50 -25.5t-27.5 -67t-10.5 -141.5v-549q0 -152 -38 -262.5t-108.5 -174.5t-162 -94t-207.5 -30q-92 0 -170 16t-146.5 53t-116 94.5t-75 145t-27.5 199.5v547z" />
    <glyph glyph-name="Ucircumflex" unicode="&#xdb;" horiz-adv-x="1474" 
d="M791 1761l-304 -243l-30 32l219 392h227l219 -392l-30 -32zM213 1022q0 191 -11.5 235t-70.5 56l-57 10v74q305 -19 600 0v-74l-58 -10q-25 -5 -38 -13.5t-23 -23t-13.5 -51t-5 -78.5t-1.5 -125v-549q0 -385 311 -385q325 0 319 453l-4 534q-1 98 -10.5 145t-28.5 65.5
t-61 27.5l-49 10v74q205 -13 397 0v-74l-57 -12q-33 -8 -50 -25.5t-27.5 -67t-10.5 -141.5v-549q0 -152 -38 -262.5t-108.5 -174.5t-162 -94t-207.5 -30q-92 0 -170 16t-146.5 53t-116 94.5t-75 145t-27.5 199.5v547z" />
    <glyph glyph-name="Udieresis" unicode="&#xdc;" horiz-adv-x="1474" 
d="M733 1729q0 -65 -46 -110.5t-114 -45.5q-70 0 -115.5 45.5t-45.5 110.5q0 68 45.5 112.5t115.5 44.5q68 0 114 -45t46 -112zM1171 1729q0 -66 -45 -111t-116 -45q-67 0 -113.5 45.5t-46.5 110.5q0 67 46 112t114 45q70 0 115.5 -44.5t45.5 -112.5zM213 1022
q0 191 -11.5 235t-70.5 56l-57 10v74q305 -19 600 0v-74l-58 -10q-25 -5 -38 -13.5t-23 -23t-13.5 -51t-5 -78.5t-1.5 -125v-549q0 -385 311 -385q325 0 319 453l-4 534q-1 98 -10.5 145t-28.5 65.5t-61 27.5l-49 10v74q205 -13 397 0v-74l-57 -12q-33 -8 -50 -25.5
t-27.5 -67t-10.5 -141.5v-549q0 -152 -38 -262.5t-108.5 -174.5t-162 -94t-207.5 -30q-92 0 -170 16t-146.5 53t-116 94.5t-75 145t-27.5 199.5v547z" />
    <glyph glyph-name="Yacute" unicode="&#xdd;" horiz-adv-x="1382" 
d="M1092 1823q0 -75 -85.5 -138.5t-310.5 -160.5l-24 26l227 398l33 12q76 -15 118 -50t42 -87zM997 68v-72q-302 17 -604 0v72l66 8q19 3 30.5 7t21 18.5t13.5 30t7 53.5t3.5 75.5t0.5 108.5v219l-299 516q-54 93 -83.5 136t-48.5 57.5t-47 19.5l-34 6v74q263 -17 647 0
v-74l-41 -8q-50 -10 -72.5 -28t-18.5 -58t42 -105l239 -407l199 397q26 50 32 88.5t-5 61t-29.5 34.5t-44.5 17l-41 8v74q94 -9 215 -9t215 9v-74l-43 -10q-43 -9 -86.5 -54.5t-106.5 -154.5l-266 -473v-262q0 -71 0.5 -108.5t3.5 -75.5t7 -53.5t13.5 -30t21 -18.5t30.5 -7z
" />
    <glyph glyph-name="Thorn" unicode="&#xde;" horiz-adv-x="1329" 
d="M688 68v-72q-300 17 -600 0v72l64 10q35 6 49.5 28t20 77.5t5.5 185.5v653q0 130 -5.5 185.5t-20 77.5t-49.5 28l-64 10v74q300 -17 600 0v-74l-61 -10q-41 -8 -56.5 -36.5t-19.5 -119.5h88q181 0 310.5 -41t205.5 -134t76 -234q0 -216 -169.5 -332.5t-512.5 -116.5
q1 -94 8 -138t22 -61t48 -22zM549 1075v-700q172 4 266 93.5t94 244.5q0 167 -94.5 263t-265.5 99z" />
    <glyph glyph-name="germandbls" unicode="&#xdf;" horiz-adv-x="1490" 
d="M1442 315q0 -158 -112 -253t-294 -95q-178 0 -331 82q7 160 2 289h59l33 -66q59 -118 126 -171.5t148 -53.5q60 0 93.5 35.5t33.5 95.5q0 55 -28.5 103t-73.5 84.5t-100 72t-110 73.5t-100 80t-73.5 100.5t-28.5 127.5q0 55 18 101.5t43.5 80.5l51 68t43.5 81.5t18 104.5
q0 75 -47.5 126t-130.5 51q-174 0 -174 -242v-821q0 -191 9 -236.5t54 -54.5l52 -10v-72q-400 9 -557 0v72l57 12q21 4 33.5 8.5t22.5 19t14.5 29.5t7.5 52t3.5 73.5t0.5 106.5v546h-123v89l123 12q1 107 32 195t92 155.5t160 105t228 37.5q184 0 284.5 -71t100.5 -174
q0 -48 -25 -82.5t-61 -53t-72 -34.5t-61 -38t-25 -52q0 -41 32 -79t83.5 -72t114 -70t125 -81.5t114 -98t83.5 -127t32 -161.5z" />
    <glyph glyph-name="agrave" unicode="&#xe0;" horiz-adv-x="1173" 
d="M330 1448q0 51 41.5 87t115.5 50l33 -12l230 -397l-27 -27q-224 96 -308.5 159.5t-84.5 139.5zM1157 127q-119 -160 -289 -160q-77 0 -124.5 40.5t-47.5 117.5q-95 -158 -293 -158q-140 0 -225.5 82t-85.5 209q0 112 82.5 183t249.5 91l264 31v35q0 157 -51 252.5
t-137 95.5q-156 0 -129 -319l-37 -15q-39 2 -68 8t-55.5 18.5t-40.5 36.5t-14 58q0 75 71.5 149t183.5 120.5t224 46.5q178 0 269 -97t91 -288v-443q0 -55 11.5 -74.5t44.5 -19.5q37 0 82 33zM555 125q86 0 133 47v309h-98q-119 0 -166 -41.5t-47 -117.5q0 -89 51 -143
t127 -54z" />
    <glyph glyph-name="aacute" unicode="&#xe1;" horiz-adv-x="1173" 
d="M903 1448q0 -75 -85 -138.5t-310 -160.5l-25 27l228 397l32 12q76 -15 118 -50t42 -87zM1157 127q-119 -160 -289 -160q-77 0 -124.5 40.5t-47.5 117.5q-95 -158 -293 -158q-140 0 -225.5 82t-85.5 209q0 112 82.5 183t249.5 91l264 31v35q0 157 -51 252.5t-137 95.5
q-156 0 -129 -319l-37 -15q-39 2 -68 8t-55.5 18.5t-40.5 36.5t-14 58q0 75 71.5 149t183.5 120.5t224 46.5q178 0 269 -97t91 -288v-443q0 -55 11.5 -74.5t44.5 -19.5q37 0 82 33zM555 125q86 0 133 47v309h-98q-119 0 -166 -41.5t-47 -117.5q0 -89 51 -143t127 -54z" />
    <glyph glyph-name="acircumflex" unicode="&#xe2;" horiz-adv-x="1173" 
d="M586 1386l-303 -243l-31 33l219 391h227l220 -391l-31 -33zM1157 127q-119 -160 -289 -160q-77 0 -124.5 40.5t-47.5 117.5q-95 -158 -293 -158q-140 0 -225.5 82t-85.5 209q0 112 82.5 183t249.5 91l264 31v35q0 157 -51 252.5t-137 95.5q-156 0 -129 -319l-37 -15
q-39 2 -68 8t-55.5 18.5t-40.5 36.5t-14 58q0 75 71.5 149t183.5 120.5t224 46.5q178 0 269 -97t91 -288v-443q0 -55 11.5 -74.5t44.5 -19.5q37 0 82 33zM555 125q86 0 133 47v309h-98q-119 0 -166 -41.5t-47 -117.5q0 -89 51 -143t127 -54z" />
    <glyph glyph-name="atilde" unicode="&#xe3;" horiz-adv-x="1173" 
d="M242 1208q57 326 219 326q58 0 147.5 -47t143.5 -47q79 0 129 123l45 -19q-56 -340 -221 -340q-57 0 -146.5 47t-146.5 47q-83 0 -127 -108zM1157 127q-119 -160 -289 -160q-77 0 -124.5 40.5t-47.5 117.5q-95 -158 -293 -158q-140 0 -225.5 82t-85.5 209q0 112 82.5 183
t249.5 91l264 31v35q0 157 -51 252.5t-137 95.5q-156 0 -129 -319l-37 -15q-39 2 -68 8t-55.5 18.5t-40.5 36.5t-14 58q0 75 71.5 149t183.5 120.5t224 46.5q178 0 269 -97t91 -288v-443q0 -55 11.5 -74.5t44.5 -19.5q37 0 82 33zM555 125q86 0 133 47v309h-98
q-119 0 -166 -41.5t-47 -117.5q0 -89 51 -143t127 -54z" />
    <glyph glyph-name="adieresis" unicode="&#xe4;" horiz-adv-x="1173" 
d="M530 1354q0 -65 -45.5 -110.5t-113.5 -45.5q-70 0 -116 45.5t-46 110.5q0 68 46 112.5t116 44.5q68 0 113.5 -45t45.5 -112zM969 1354q0 -66 -45.5 -111t-116.5 -45q-67 0 -113.5 45.5t-46.5 110.5q0 67 46 112t114 45q70 0 116 -44.5t46 -112.5zM1157 127
q-119 -160 -289 -160q-77 0 -124.5 40.5t-47.5 117.5q-95 -158 -293 -158q-140 0 -225.5 82t-85.5 209q0 112 82.5 183t249.5 91l264 31v35q0 157 -51 252.5t-137 95.5q-156 0 -129 -319l-37 -15q-39 2 -68 8t-55.5 18.5t-40.5 36.5t-14 58q0 75 71.5 149t183.5 120.5
t224 46.5q178 0 269 -97t91 -288v-443q0 -55 11.5 -74.5t44.5 -19.5q37 0 82 33zM555 125q86 0 133 47v309h-98q-119 0 -166 -41.5t-47 -117.5q0 -89 51 -143t127 -54z" />
    <glyph glyph-name="aring" unicode="&#xe5;" horiz-adv-x="1173" 
d="M848 1421q0 -112 -78.5 -190t-189.5 -78q-113 0 -192 78t-79 190t79 190.5t192 78.5q111 0 189.5 -78.5t78.5 -190.5zM414 1421q0 -75 47.5 -124.5t118.5 -49.5q68 0 115.5 50t47.5 124q0 71 -48 122.5t-115 51.5q-70 0 -118 -51.5t-48 -122.5zM1157 127
q-119 -160 -289 -160q-77 0 -124.5 40.5t-47.5 117.5q-95 -158 -293 -158q-140 0 -225.5 82t-85.5 209q0 112 82.5 183t249.5 91l264 31v35q0 157 -51 252.5t-137 95.5q-156 0 -129 -319l-37 -15q-39 2 -68 8t-55.5 18.5t-40.5 36.5t-14 58q0 75 71.5 149t183.5 120.5
t224 46.5q178 0 269 -97t91 -288v-443q0 -55 11.5 -74.5t44.5 -19.5q37 0 82 33zM555 125q86 0 133 47v309h-98q-119 0 -166 -41.5t-47 -117.5q0 -89 51 -143t127 -54z" />
    <glyph glyph-name="ae" unicode="&#xe6;" horiz-adv-x="1712" 
d="M1651 297q-83 -166 -196 -248t-267 -82q-126 0 -231 53.5t-173 149.5q-66 -98 -153 -150.5t-221 -52.5q-146 0 -233 81.5t-87 209.5q0 112 82.5 182.5t251.5 91.5l262 33v47q0 155 -49 244.5t-133 89.5q-76 0 -110.5 -79.5t-22.5 -235.5l-37 -15q-178 8 -178 125
q0 75 73.5 147t187 116.5t226.5 44.5q165 0 248 -109q137 109 313 109q98 0 178.5 -34.5t130.5 -92t76.5 -128.5t26.5 -149q0 -57 -4 -88h-637q25 -159 121 -252.5t235 -93.5q162 0 287 113zM967 657v-28l381 30q-15 141 -66 218t-127 77q-85 0 -136.5 -75t-51.5 -222z
M555 125q121 0 201 92q-64 113 -70 264h-98q-119 0 -167 -41.5t-48 -117.5q0 -87 52.5 -142t129.5 -55z" />
    <glyph glyph-name="ccedilla" unicode="&#xe7;" horiz-adv-x="1056" 
d="M788 -332q0 -98 -68 -160.5t-179 -62.5q-140 0 -254 109l30 43q55 -39 123 -39q50 0 83.5 30.5t33.5 79.5q0 105 -133 125l-8 27l80 153q-185 31 -298.5 173.5t-113.5 351.5q0 126 42.5 231.5t114 174.5t163 107t190.5 38q165 0 272 -81t107 -184q0 -70 -42 -107
t-112 -42l-37 14q-45 154 -100.5 233t-138.5 79q-76 0 -127 -75.5t-51 -209.5q0 -226 106 -348.5t268 -122.5q130 0 242 98l29 -27q-68 -153 -178 -231t-248 -78h-15l-63 -112q120 20 201 -35t81 -152z" />
    <glyph glyph-name="egrave" unicode="&#xe8;" horiz-adv-x="1107" 
d="M272 1448q0 51 42 87t116 50l33 -12l229 -397l-26 -27q-224 97 -309 160.5t-85 138.5zM1049 297q-84 -166 -198 -248t-267 -82q-218 0 -360 150.5t-142 382.5q0 121 42.5 225t114 174.5t165.5 110t196 39.5q99 0 179.5 -34.5t130.5 -92t77 -128.5t27 -149q0 -41 -6 -88
h-637q25 -159 121 -252.5t237 -93.5q160 0 285 113zM362 657v-28l381 30q-13 141 -64 218t-128 77q-86 0 -137.5 -75t-51.5 -222z" />
    <glyph glyph-name="eacute" unicode="&#xe9;" horiz-adv-x="1107" 
d="M891 1448q0 -75 -85 -138.5t-310 -160.5l-25 27l227 397l33 12q76 -15 118 -50t42 -87zM1049 297q-84 -166 -198 -248t-267 -82q-218 0 -360 150.5t-142 382.5q0 121 42.5 225t114 174.5t165.5 110t196 39.5q99 0 179.5 -34.5t130.5 -92t77 -128.5t27 -149q0 -41 -6 -88
h-637q25 -159 121 -252.5t237 -93.5q160 0 285 113zM362 657v-28l381 30q-13 141 -64 218t-128 77q-86 0 -137.5 -75t-51.5 -222z" />
    <glyph glyph-name="ecircumflex" unicode="&#xea;" horiz-adv-x="1107" 
d="M571 1386l-303 -243l-30 33l219 391h227l219 -391l-31 -33zM1049 297q-84 -166 -198 -248t-267 -82q-218 0 -360 150.5t-142 382.5q0 121 42.5 225t114 174.5t165.5 110t196 39.5q99 0 179.5 -34.5t130.5 -92t77 -128.5t27 -149q0 -41 -6 -88h-637q25 -159 121 -252.5
t237 -93.5q160 0 285 113zM362 657v-28l381 30q-13 141 -64 218t-128 77q-86 0 -137.5 -75t-51.5 -222z" />
    <glyph glyph-name="edieresis" unicode="&#xeb;" horiz-adv-x="1107" 
d="M506 1354q0 -65 -46 -110.5t-114 -45.5q-70 0 -116 45.5t-46 110.5q0 68 46 112.5t116 44.5q68 0 114 -45t46 -112zM944 1354q0 -66 -45.5 -111t-116.5 -45q-67 0 -113 45.5t-46 110.5q0 67 45.5 112t113.5 45q70 0 116 -44.5t46 -112.5zM1049 297q-84 -166 -198 -248
t-267 -82q-218 0 -360 150.5t-142 382.5q0 121 42.5 225t114 174.5t165.5 110t196 39.5q99 0 179.5 -34.5t130.5 -92t77 -128.5t27 -149q0 -41 -6 -88h-637q25 -159 121 -252.5t237 -93.5q160 0 285 113zM362 657v-28l381 30q-13 141 -64 218t-128 77q-86 0 -137.5 -75
t-51.5 -222z" />
    <glyph glyph-name="igrave" unicode="&#xec;" horiz-adv-x="700" 
d="M88 1448q0 51 42 87t116 50l33 -12l229 -397l-27 -27q-224 96 -308.5 159.5t-84.5 139.5zM207 360v207q0 143 -1.5 202.5t-14 103.5t-29.5 51.5t-58 13.5l-36 4v74q153 0 248 7.5t184 29.5l18 -17q-8 -148 -8 -409v-267v-88.5t2.5 -66t3.5 -49t8 -32t10.5 -22t18 -11.5
t23 -9t30.5 -6l43 -8v-72q-286 19 -581 0v72l51 8q25 4 35.5 6t23.5 14t16.5 25.5t7.5 49t4.5 75.5t0.5 114z" />
    <glyph glyph-name="iacute" unicode="&#xed;" horiz-adv-x="700" 
d="M649 1448q0 -75 -85 -138.5t-310 -160.5l-25 27l228 397l32 12q76 -15 118 -50t42 -87zM207 360v207q0 143 -1.5 202.5t-14 103.5t-29.5 51.5t-58 13.5l-36 4v74q153 0 248 7.5t184 29.5l18 -17q-8 -148 -8 -409v-267v-88.5t2.5 -66t3.5 -49t8 -32t10.5 -22t18 -11.5
t23 -9t30.5 -6l43 -8v-72q-286 19 -581 0v72l51 8q25 4 35.5 6t23.5 14t16.5 25.5t7.5 49t4.5 75.5t0.5 114z" />
    <glyph glyph-name="icircumflex" unicode="&#xee;" horiz-adv-x="700" 
d="M350 1386l-303 -243l-31 33l220 391h227l219 -391l-31 -33zM207 360v207q0 143 -1.5 202.5t-14 103.5t-29.5 51.5t-58 13.5l-36 4v74q153 0 248 7.5t184 29.5l18 -17q-8 -148 -8 -409v-267v-88.5t2.5 -66t3.5 -49t8 -32t10.5 -22t18 -11.5t23 -9t30.5 -6l43 -8v-72
q-286 19 -581 0v72l51 8q25 4 35.5 6t23.5 14t16.5 25.5t7.5 49t4.5 75.5t0.5 114z" />
    <glyph glyph-name="idieresis" unicode="&#xef;" horiz-adv-x="700" 
d="M293 1354q0 -65 -46 -110.5t-114 -45.5q-70 0 -116 45.5t-46 110.5q0 68 46 112.5t116 44.5q68 0 114 -45t46 -112zM731 1354q0 -66 -45.5 -111t-116.5 -45q-67 0 -113 45.5t-46 110.5q0 67 45.5 112t113.5 45q70 0 116 -44.5t46 -112.5zM207 360v207q0 143 -1.5 202.5
t-14 103.5t-29.5 51.5t-58 13.5l-36 4v74q153 0 248 7.5t184 29.5l18 -17q-8 -148 -8 -409v-267v-88.5t2.5 -66t3.5 -49t8 -32t10.5 -22t18 -11.5t23 -9t30.5 -6l43 -8v-72q-286 19 -581 0v72l51 8q25 4 35.5 6t23.5 14t16.5 25.5t7.5 49t4.5 75.5t0.5 114z" />
    <glyph glyph-name="eth" unicode="&#xf0;" horiz-adv-x="1245" 
d="M1163 569q0 -274 -146.5 -438t-369.5 -164q-159 0 -286.5 64.5t-203 189t-75.5 287.5q0 160 74 285t195.5 190.5t266.5 65.5q75 0 148 -25q-79 149 -205 256l-176 -133l-49 61l162 123q-113 76 -238 111l23 59q182 -43 305 -100l164 123l49 -64l-133 -100
q136 -74 235.5 -172.5t154 -205t80 -209t25.5 -204.5zM397 602q0 -139 38.5 -264.5t106.5 -203t148 -77.5q82 0 130 94t48 261q0 139 -38 264.5t-105.5 202.5t-146.5 77q-83 0 -132 -93.5t-49 -260.5z" />
    <glyph glyph-name="ntilde" unicode="&#xf1;" horiz-adv-x="1396" 
d="M379 1208q57 326 219 326q58 0 147.5 -47t143.5 -47q79 0 129 123l45 -19q-56 -340 -221 -340q-47 0 -96.5 23.5t-99.5 47t-97 23.5q-83 0 -127 -108zM1356 68v-72q-287 19 -568 0v74l41 8q23 4 33.5 7t22.5 15t15.5 26t7.5 48.5t4.5 73.5t0.5 110v295q0 100 -46 148.5
t-122 48.5q-132 0 -235 -80v-412q0 -73 0.5 -110t4 -73.5t7 -49t15.5 -25.5t23 -16t34 -8l41 -8v-72q-280 19 -567 0v72l51 8q23 3 34.5 6.5t23.5 15t16.5 26.5t8.5 49.5t4.5 74.5t0.5 110v207q0 92 -1 144.5t-5.5 97.5t-9.5 64.5t-19 35.5t-27.5 20t-40.5 9l-36 6v74
q153 0 248 7.5t184 29.5l18 -17q-2 -56 -6 -196q149 209 379 209q65 0 121.5 -19t103.5 -58.5t74 -109.5t27 -164v-340q0 -71 0.5 -110t4.5 -74.5t8 -49.5t15.5 -26t23 -15.5t34.5 -6.5z" />
    <glyph glyph-name="ograve" unicode="&#xf2;" horiz-adv-x="1263" 
d="M352 1448q0 51 42 87t116 50l33 -12l229 -397l-27 -27q-224 96 -308.5 159.5t-84.5 139.5zM610 -33q-150 0 -268.5 61.5t-189 185.5t-70.5 292q0 162 78.5 287.5t207.5 190.5t283 65q150 0 269 -62.5t189.5 -187t70.5 -291.5q0 -162 -79 -287t-207.5 -189.5t-283.5 -64.5
zM690 59q82 0 127 91.5t45 259.5q0 138 -38 263.5t-104.5 203t-144.5 77.5q-83 0 -128.5 -91.5t-45.5 -258.5q0 -140 38 -265.5t105 -202.5t146 -77z" />
    <glyph glyph-name="oacute" unicode="&#xf3;" horiz-adv-x="1263" 
d="M938 1448q0 -75 -85 -138.5t-310 -160.5l-25 27l227 397l33 12q76 -15 118 -50t42 -87zM610 -33q-150 0 -268.5 61.5t-189 185.5t-70.5 292q0 162 78.5 287.5t207.5 190.5t283 65q150 0 269 -62.5t189.5 -187t70.5 -291.5q0 -162 -79 -287t-207.5 -189.5t-283.5 -64.5z
M690 59q82 0 127 91.5t45 259.5q0 138 -38 263.5t-104.5 203t-144.5 77.5q-83 0 -128.5 -91.5t-45.5 -258.5q0 -140 38 -265.5t105 -202.5t146 -77z" />
    <glyph glyph-name="ocircumflex" unicode="&#xf4;" horiz-adv-x="1263" 
d="M631 1386l-303 -243l-31 33l219 391h227l220 -391l-31 -33zM610 -33q-150 0 -268.5 61.5t-189 185.5t-70.5 292q0 162 78.5 287.5t207.5 190.5t283 65q150 0 269 -62.5t189.5 -187t70.5 -291.5q0 -162 -79 -287t-207.5 -189.5t-283.5 -64.5zM690 59q82 0 127 91.5
t45 259.5q0 138 -38 263.5t-104.5 203t-144.5 77.5q-83 0 -128.5 -91.5t-45.5 -258.5q0 -140 38 -265.5t105 -202.5t146 -77z" />
    <glyph glyph-name="otilde" unicode="&#xf5;" horiz-adv-x="1263" 
d="M291 1208q57 326 219 326q58 0 147.5 -47t143.5 -47q79 0 129 123l45 -19q-56 -340 -221 -340q-47 0 -96.5 23.5t-99.5 47t-97 23.5q-83 0 -127 -108zM610 -33q-150 0 -268.5 61.5t-189 185.5t-70.5 292q0 162 78.5 287.5t207.5 190.5t283 65q150 0 269 -62.5t189.5 -187
t70.5 -291.5q0 -162 -79 -287t-207.5 -189.5t-283.5 -64.5zM690 59q82 0 127 91.5t45 259.5q0 138 -38 263.5t-104.5 203t-144.5 77.5q-83 0 -128.5 -91.5t-45.5 -258.5q0 -140 38 -265.5t105 -202.5t146 -77z" />
    <glyph glyph-name="odieresis" unicode="&#xf6;" horiz-adv-x="1263" 
d="M571 1354q0 -65 -45.5 -110.5t-113.5 -45.5q-70 0 -116 45.5t-46 110.5q0 68 46 112.5t116 44.5q68 0 113.5 -45t45.5 -112zM1010 1354q0 -66 -45.5 -111t-116.5 -45q-67 0 -113.5 45.5t-46.5 110.5q0 67 46 112t114 45q70 0 116 -44.5t46 -112.5zM610 -33
q-150 0 -268.5 61.5t-189 185.5t-70.5 292q0 162 78.5 287.5t207.5 190.5t283 65q150 0 269 -62.5t189.5 -187t70.5 -291.5q0 -162 -79 -287t-207.5 -189.5t-283.5 -64.5zM690 59q82 0 127 91.5t45 259.5q0 138 -38 263.5t-104.5 203t-144.5 77.5q-83 0 -128.5 -91.5
t-45.5 -258.5q0 -140 38 -265.5t105 -202.5t146 -77z" />
    <glyph glyph-name="divide" unicode="&#xf7;" 
d="M625 999q0 -50 -31 -81t-82 -31t-83 31t-32 81q0 51 32 82t83 31t82 -31t31 -82zM907 637h-792v92h792v-92zM625 369q0 -50 -31 -81.5t-82 -31.5t-83 31.5t-32 81.5q0 51 32 81.5t83 30.5t82 -30.5t31 -81.5z" />
    <glyph glyph-name="oslash" unicode="&#xf8;" horiz-adv-x="1263" 
d="M610 -33q-175 0 -309 86l-98 -114h-105l140 165q-156 146 -156 402q0 162 78.5 287.5t207.5 190.5t283 65q176 0 312 -88l98 116h104l-141 -168q156 -149 156 -401q0 -162 -79 -287t-207.5 -189.5t-283.5 -64.5zM401 604q0 -133 37 -262l355 418q-41 90 -98 142t-120 52
q-83 0 -128.5 -91.5t-45.5 -258.5zM862 410q0 136 -39 264l-352 -418q41 -92 98 -144.5t121 -52.5q82 0 127 91.5t45 259.5z" />
    <glyph glyph-name="ugrave" unicode="&#xf9;" horiz-adv-x="1327" 
d="M381 1448q0 51 42 87t116 50l32 -12l230 -397l-27 -27q-224 96 -308.5 159.5t-84.5 139.5zM1282 51q-205 -17 -405 -84q-24 81 -33 207q-43 -64 -87.5 -107t-112 -71.5t-148.5 -28.5q-68 0 -125.5 18.5t-104.5 58t-73.5 109t-26.5 162.5v248q0 243 -14 301t-84 70l-39 6
v76q160 0 251 7t179 30l18 -19q-8 -153 -8 -426v-254q0 -98 42.5 -144t117.5 -46q106 0 211 78v325q0 244 -12.5 301.5t-77.5 69.5l-35 4v74q151 0 240 7t175 30l21 -17q-8 -148 -8 -409v-252q0 -71 1.5 -108.5t5 -68.5t13.5 -43t23 -18t37 -8l57 -4z" />
    <glyph glyph-name="uacute" unicode="&#xfa;" horiz-adv-x="1327" 
d="M991 1448q0 -75 -85 -138.5t-310 -160.5l-25 27l228 397l32 12q76 -15 118 -50t42 -87zM1282 51q-205 -17 -405 -84q-24 81 -33 207q-43 -64 -87.5 -107t-112 -71.5t-148.5 -28.5q-68 0 -125.5 18.5t-104.5 58t-73.5 109t-26.5 162.5v248q0 243 -14 301t-84 70l-39 6v76
q160 0 251 7t179 30l18 -19q-8 -153 -8 -426v-254q0 -98 42.5 -144t117.5 -46q106 0 211 78v325q0 244 -12.5 301.5t-77.5 69.5l-35 4v74q151 0 240 7t175 30l21 -17q-8 -148 -8 -409v-252q0 -71 1.5 -108.5t5 -68.5t13.5 -43t23 -18t37 -8l57 -4z" />
    <glyph glyph-name="ucircumflex" unicode="&#xfb;" horiz-adv-x="1327" 
d="M672 1386l-303 -243l-31 33l219 391h227l220 -391l-31 -33zM1282 51q-205 -17 -405 -84q-24 81 -33 207q-43 -64 -87.5 -107t-112 -71.5t-148.5 -28.5q-68 0 -125.5 18.5t-104.5 58t-73.5 109t-26.5 162.5v248q0 243 -14 301t-84 70l-39 6v76q160 0 251 7t179 30l18 -19
q-8 -153 -8 -426v-254q0 -98 42.5 -144t117.5 -46q106 0 211 78v325q0 244 -12.5 301.5t-77.5 69.5l-35 4v74q151 0 240 7t175 30l21 -17q-8 -148 -8 -409v-252q0 -71 1.5 -108.5t5 -68.5t13.5 -43t23 -18t37 -8l57 -4z" />
    <glyph glyph-name="udieresis" unicode="&#xfc;" horiz-adv-x="1327" 
d="M612 1354q0 -65 -45.5 -110.5t-113.5 -45.5q-70 0 -116 45.5t-46 110.5q0 68 46 112.5t116 44.5q68 0 113.5 -45t45.5 -112zM1051 1354q0 -66 -45.5 -111t-116.5 -45q-67 0 -113.5 45.5t-46.5 110.5q0 67 46 112t114 45q70 0 116 -44.5t46 -112.5zM1282 51
q-205 -17 -405 -84q-24 81 -33 207q-43 -64 -87.5 -107t-112 -71.5t-148.5 -28.5q-68 0 -125.5 18.5t-104.5 58t-73.5 109t-26.5 162.5v248q0 243 -14 301t-84 70l-39 6v76q160 0 251 7t179 30l18 -19q-8 -153 -8 -426v-254q0 -98 42.5 -144t117.5 -46q106 0 211 78v325
q0 244 -12.5 301.5t-77.5 69.5l-35 4v74q151 0 240 7t175 30l21 -17q-8 -148 -8 -409v-252q0 -71 1.5 -108.5t5 -68.5t13.5 -43t23 -18t37 -8l57 -4z" />
    <glyph glyph-name="yacute" unicode="&#xfd;" horiz-adv-x="1193" 
d="M965 1448q0 -75 -85.5 -138.5t-310.5 -160.5l-24 27l227 397l33 12q76 -15 118 -50t42 -87zM674 25q-64 -152 -118 -250t-102.5 -149t-90.5 -70t-93 -19q-149 0 -153 193l14 32q65 2 111.5 6t96 13.5t85 26.5t69.5 44t60 66.5t47 93.5l4 8h-88l-326 728
q-54 121 -82.5 154.5t-89.5 43.5v74q280 -15 570 0v-74l-47 -12q-53 -13 -56 -52t35 -126l191 -457l143 373q36 94 44 149.5t-5 78.5t-47 34l-43 12v74q197 -12 373 0v-74l-33 -8q-50 -11 -94.5 -70.5t-116.5 -228.5z" />
    <glyph glyph-name="thorn" unicode="&#xfe;" horiz-adv-x="1271" 
d="M616 -362v-72q-317 18 -593 0v72l51 12q26 5 39.5 12.5t25 21.5t15.5 47t6 77t2 124v1092q0 165 -7.5 236.5t-27.5 100t-68 36.5l-36 6v74q161 0 254 6.5t178 29.5l18 -16q-8 -151 -8 -412v-215q108 179 311 179q190 0 301 -140.5t111 -355.5q0 -112 -28.5 -208
t-78.5 -165t-116.5 -117.5t-143.5 -72t-159 -23.5q-104 0 -197 35v-70q0 -127 8.5 -182.5t27 -74.5t64.5 -27zM465 389q0 -78 13.5 -138.5t34.5 -97.5t50 -60.5t56.5 -32.5t56.5 -9q90 0 144 79.5t54 252.5q0 228 -69 354.5t-184 126.5q-93 0 -156 -73v-402z" />
    <glyph glyph-name="ydieresis" unicode="&#xff;" horiz-adv-x="1193" 
d="M584 1354q0 -65 -46 -110.5t-114 -45.5q-70 0 -116 45.5t-46 110.5q0 68 46 112.5t116 44.5q68 0 114 -45t46 -112zM1022 1354q0 -66 -45.5 -111t-116.5 -45q-67 0 -113.5 45.5t-46.5 110.5q0 67 46 112t114 45q70 0 116 -44.5t46 -112.5zM674 25q-64 -152 -118 -250
t-102.5 -149t-90.5 -70t-93 -19q-149 0 -153 193l14 32q65 2 111.5 6t96 13.5t85 26.5t69.5 44t60 66.5t47 93.5l4 8h-88l-326 728q-54 121 -82.5 154.5t-89.5 43.5v74q280 -15 570 0v-74l-47 -12q-53 -13 -56 -52t35 -126l191 -457l143 373q36 94 44 149.5t-5 78.5t-47 34
l-43 12v74q197 -12 373 0v-74l-33 -8q-50 -11 -94.5 -70.5t-116.5 -228.5z" />
    <glyph glyph-name="Amacron" unicode="&#x100;" horiz-adv-x="1458" 
d="M389 1618v176h633v-176h-633zM1434 68v-72q-316 13 -625 0v72l37 8q48 12 67.5 28.5t18.5 52t-27 103.5l-57 160h-459l-51 -150q-17 -51 -20 -84t11 -54.5t35.5 -33t61.5 -22.5l35 -8v-72q-216 13 -438 0v72l40 12q59 15 98 56.5t81 156.5l198 534q92 238 92 349
q0 65 -59 92l-39 14v66q84 -3 191 22t166 60h38l433 -1158q43 -116 71 -152t70 -44zM418 510h397l-205 567z" />
    <glyph glyph-name="amacron" unicode="&#x101;" horiz-adv-x="1173" 
d="M266 1243v176h633v-176h-633zM1157 127q-119 -160 -289 -160q-77 0 -124.5 40.5t-47.5 117.5q-95 -158 -293 -158q-140 0 -225.5 82t-85.5 209q0 112 82.5 183t249.5 91l264 31v35q0 157 -51 252.5t-137 95.5q-156 0 -129 -319l-37 -15q-39 2 -68 8t-55.5 18.5
t-40.5 36.5t-14 58q0 75 71.5 149t183.5 120.5t224 46.5q178 0 269 -97t91 -288v-443q0 -55 11.5 -74.5t44.5 -19.5q37 0 82 33zM555 125q86 0 133 47v309h-98q-119 0 -166 -41.5t-47 -117.5q0 -89 51 -143t127 -54z" />
    <glyph glyph-name="Abreve" unicode="&#x102;" horiz-adv-x="1458" 
d="M1012 1946q0 -192 -74 -298t-223 -106q-150 0 -224.5 105.5t-74.5 298.5h51q29 -183 248 -183q105 0 168.5 48t77.5 135h51zM1434 68v-72q-316 13 -625 0v72l37 8q48 12 67.5 28.5t18.5 52t-27 103.5l-57 160h-459l-51 -150q-17 -51 -20 -84t11 -54.5t35.5 -33
t61.5 -22.5l35 -8v-72q-216 13 -438 0v72l40 12q59 15 98 56.5t81 156.5l198 534q92 238 92 349q0 65 -59 92l-39 14v66q84 -3 191 22t166 60h38l433 -1158q43 -116 71 -152t70 -44zM418 510h397l-205 567z" />
    <glyph glyph-name="abreve" unicode="&#x103;" horiz-adv-x="1173" 
d="M879 1571q0 -192 -74 -298t-223 -106q-150 0 -224.5 105.5t-74.5 298.5h51q28 -182 248 -182q105 0 168 47.5t77 134.5h52zM1157 127q-119 -160 -289 -160q-77 0 -124.5 40.5t-47.5 117.5q-95 -158 -293 -158q-140 0 -225.5 82t-85.5 209q0 112 82.5 183t249.5 91l264 31
v35q0 157 -51 252.5t-137 95.5q-156 0 -129 -319l-37 -15q-39 2 -68 8t-55.5 18.5t-40.5 36.5t-14 58q0 75 71.5 149t183.5 120.5t224 46.5q178 0 269 -97t91 -288v-443q0 -55 11.5 -74.5t44.5 -19.5q37 0 82 33zM555 125q86 0 133 47v309h-98q-119 0 -166 -41.5t-47 -117.5
q0 -89 51 -143t127 -54z" />
    <glyph glyph-name="Aogonek" unicode="&#x104;" horiz-adv-x="1458" 
d="M1262 272q43 -116 71 -152t70 -44l31 -8v-72q-107 4 -177.5 -76t-70.5 -178q0 -135 106 -135q55 0 99 53l32 -27q-106 -188 -276 -188q-86 0 -145.5 52t-59.5 143q0 107 94.5 204.5t257.5 155.5q-237 6 -485 -4v72l37 8q48 12 67.5 28.5t18.5 52t-27 103.5l-55 160h-463
l-49 -150q-17 -51 -20 -84t11 -54.5t35.5 -33t61.5 -22.5l35 -8v-72q-216 13 -438 0v72l40 12q59 15 98 56.5t81 156.5l198 534q92 238 92 349q0 65 -59 92l-39 14v66q84 -3 191 22t166 60h38zM418 510h397l-205 565z" />
    <glyph glyph-name="aogonek" unicode="&#x105;" horiz-adv-x="1173" 
d="M1075 -367q-106 -188 -276 -188q-87 0 -147 52t-60 143q0 93 73.5 178.5t208.5 148.5q-69 2 -123.5 46t-54.5 112q-97 -158 -293 -158q-140 0 -225.5 82t-85.5 209q0 112 82.5 183t249.5 91l264 31v35q0 159 -51 253.5t-137 94.5q-156 0 -129 -319l-37 -15q-38 2 -67 8
t-55.5 18.5t-41 36.5t-14.5 58q0 75 71.5 149t183.5 120.5t224 46.5q178 0 269 -97t91 -288v-443q0 -55 11.5 -74.5t44.5 -19.5q37 0 82 33l24 -33q-59 -81 -166 -139q-153 -97 -153 -252q0 -129 106 -129q54 0 98 53zM555 125q83 0 133 47v309h-98q-119 0 -166 -41.5
t-47 -117.5q0 -89 51 -143t127 -54z" />
    <glyph glyph-name="Cacute" unicode="&#x106;" horiz-adv-x="1386" 
d="M1059 1823q0 -75 -85 -138.5t-310 -160.5l-25 26l227 398l33 12q76 -15 118 -50t42 -87zM733 1329q-134 0 -210.5 -122.5t-76.5 -348.5q0 -164 37 -312.5t98 -252.5t141.5 -165.5t166.5 -61.5q45 0 80 16.5t70.5 60.5t67 99.5t79.5 154.5l43 88l49 -16q-25 -144 -59 -418
q-147 -84 -373 -84q-213 0 -380.5 89.5t-264.5 261.5t-97 401q0 199 82.5 358.5t241.5 253.5t369 94q118 0 221.5 -27t173.5 -71q2 -109 27 -395l-54 -12l-49 90q-93 170 -182 244.5t-201 74.5z" />
    <glyph glyph-name="cacute" unicode="&#x107;" horiz-adv-x="1056" 
d="M858 1448q0 -75 -85 -138.5t-310 -160.5l-25 27l228 397l32 12q76 -15 118 -50t42 -87zM543 961q-76 0 -127 -75.5t-51 -209.5q0 -226 106 -348.5t268 -122.5q130 0 242 98l29 -27q-68 -153 -178 -231t-248 -78q-218 0 -359 148.5t-141 382.5q0 126 42.5 231.5t114 174.5
t163 107t190.5 38q165 0 272 -81t107 -184q0 -70 -42 -107t-112 -42l-37 14q-45 154 -100.5 233t-138.5 79z" />
    <glyph glyph-name="Ccircumflex" unicode="&#x108;" horiz-adv-x="1386" 
d="M733 1761l-303 -243l-31 32l219 392h228l219 -392l-31 -32zM733 1329q-134 0 -210.5 -122.5t-76.5 -348.5q0 -164 37 -312.5t98 -252.5t141.5 -165.5t166.5 -61.5q45 0 80 16.5t70.5 60.5t67 99.5t79.5 154.5l43 88l49 -16q-25 -144 -59 -418q-147 -84 -373 -84
q-213 0 -380.5 89.5t-264.5 261.5t-97 401q0 199 82.5 358.5t241.5 253.5t369 94q118 0 221.5 -27t173.5 -71q2 -109 27 -395l-54 -12l-49 90q-93 170 -182 244.5t-201 74.5z" />
    <glyph glyph-name="ccircumflex" unicode="&#x109;" horiz-adv-x="1056" 
d="M561 1386l-303 -243l-31 33l219 391h228l219 -391l-31 -33zM543 961q-76 0 -127 -75.5t-51 -209.5q0 -226 106 -348.5t268 -122.5q130 0 242 98l29 -27q-68 -153 -178 -231t-248 -78q-218 0 -359 148.5t-141 382.5q0 126 42.5 231.5t114 174.5t163 107t190.5 38
q165 0 272 -81t107 -184q0 -70 -42 -107t-112 -42l-37 14q-45 154 -100.5 233t-138.5 79z" />
    <glyph glyph-name="Cdotaccent" unicode="&#x10a;" horiz-adv-x="1386" 
d="M928 1741q0 -79 -53 -133t-132 -54t-132.5 54.5t-53.5 132.5t53.5 131t132.5 53t132 -53t53 -131zM733 1329q-134 0 -210.5 -122.5t-76.5 -348.5q0 -164 37 -312.5t98 -252.5t141.5 -165.5t166.5 -61.5q45 0 80 16.5t70.5 60.5t67 99.5t79.5 154.5l43 88l49 -16
q-25 -144 -59 -418q-147 -84 -373 -84q-213 0 -380.5 89.5t-264.5 261.5t-97 401q0 199 82.5 358.5t241.5 253.5t369 94q118 0 221.5 -27t173.5 -71q2 -109 27 -395l-54 -12l-49 90q-93 170 -182 244.5t-201 74.5z" />
    <glyph glyph-name="cdotaccent" unicode="&#x10b;" horiz-adv-x="1056" 
d="M750 1366q0 -78 -53 -132t-132 -54t-132.5 54t-53.5 132t53.5 131t132.5 53t132 -53t53 -131zM543 961q-76 0 -127 -75.5t-51 -209.5q0 -226 106 -348.5t268 -122.5q130 0 242 98l29 -27q-68 -153 -178 -231t-248 -78q-218 0 -359 148.5t-141 382.5q0 126 42.5 231.5
t114 174.5t163 107t190.5 38q165 0 272 -81t107 -184q0 -70 -42 -107t-112 -42l-37 14q-45 154 -100.5 233t-138.5 79z" />
    <glyph glyph-name="Ccaron" unicode="&#x10c;" horiz-adv-x="1386" 
d="M737 1722l316 250l30 -33l-227 -391h-240l-227 391l31 33zM733 1329q-134 0 -210.5 -122.5t-76.5 -348.5q0 -164 37 -312.5t98 -252.5t141.5 -165.5t166.5 -61.5q45 0 80 16.5t70.5 60.5t67 99.5t79.5 154.5l43 88l49 -16q-25 -144 -59 -418q-147 -84 -373 -84
q-213 0 -380.5 89.5t-264.5 261.5t-97 401q0 199 82.5 358.5t241.5 253.5t369 94q118 0 221.5 -27t173.5 -71q2 -109 27 -395l-54 -12l-49 90q-93 170 -182 244.5t-201 74.5z" />
    <glyph glyph-name="ccaron" unicode="&#x10d;" horiz-adv-x="1056" 
d="M569 1348l316 249l30 -32l-227 -391h-239l-228 391l31 32zM543 961q-76 0 -127 -75.5t-51 -209.5q0 -226 106 -348.5t268 -122.5q130 0 242 98l29 -27q-68 -153 -178 -231t-248 -78q-218 0 -359 148.5t-141 382.5q0 126 42.5 231.5t114 174.5t163 107t190.5 38
q165 0 272 -81t107 -184q0 -70 -42 -107t-112 -42l-37 14q-45 154 -100.5 233t-138.5 79z" />
    <glyph glyph-name="Dcaron" unicode="&#x10e;" horiz-adv-x="1540" 
d="M788 1722l316 250l31 -33l-228 -391h-239l-228 391l31 33zM600 1397q253 0 440 -79t292.5 -237.5t105.5 -380.5q0 -321 -208 -512.5t-571 -191.5q-40 0 -155 2t-222 2t-194 -4v72l62 10q36 6 51 28t20.5 75.5t5.5 178.5v687q0 117 -5.5 167.5t-20.5 71.5t-51 27l-62 10
v74q83 -5 183.5 -5t201.5 2.5t127 2.5zM1096 657q0 318 -142 484t-405 180v-1020q0 -129 35 -178t129 -49q173 0 278 153t105 430z" />
    <glyph glyph-name="dcaron" unicode="&#x10f;" horiz-adv-x="1488" 
d="M1247 51q-208 -18 -407 -84q-22 108 -27 164q-106 -164 -291 -164q-130 0 -231 68t-155 185t-54 263q0 134 48 244t127 178t176.5 105t201.5 37q88 0 172 -33v6q0 251 -14 310.5t-88 68.5l-37 4v74q160 0 251.5 7t180.5 32l18 -19q-8 -151 -8 -418v-704q0 -71 1.5 -108.5
t5 -68.5t13.5 -43t23 -18t37 -8l57 -4v-74zM1253 1479q50 26 95 26q58 0 91.5 -34t33.5 -93q0 -47 -22 -93.5t-52 -82t-72 -94.5t-70 -117l-34 8l6 447zM393 610q0 -220 79 -342.5t214 -122.5q70 0 123 50q-2 25 -2 75v467q0 105 -54 166.5t-143 61.5q-96 0 -156.5 -90.5
t-60.5 -264.5z" />
    <glyph glyph-name="Dcroat" unicode="&#x110;" horiz-adv-x="1540" 
d="M1438 700q0 -321 -208 -512.5t-571 -191.5q-40 0 -155 2t-222 2t-194 -4v72l62 10q36 6 51 28t20.5 75.5t5.5 178.5v318h-125v92h125v277q0 117 -5.5 167.5t-20.5 71.5t-51 27l-62 10v74q83 -5 183.5 -5t201.5 2.5t127 2.5q253 0 440 -79t292.5 -237.5t105.5 -380.5z
M549 301q0 -129 35 -178t129 -49q173 0 278 153t105 430q0 318 -142 484t-405 180v-551h235v-92h-235v-377z" />
    <glyph glyph-name="dcroat" unicode="&#x111;" horiz-adv-x="1294" 
d="M1247 51q-208 -18 -407 -84q-22 108 -27 164q-106 -164 -291 -164q-130 0 -231 68t-155 185t-54 263q0 134 48 244t127 178t176.5 105t201.5 37q88 0 172 -33v6q0 127 -2 172h-424v84h420q-6 68 -26.5 92.5t-69.5 30.5l-37 4v74q160 0 251.5 7t180.5 32l18 -19
q-6 -88 -6 -221h123v-84h-125v-817q0 -71 1.5 -108.5t5 -68.5t13.5 -43t23 -18t37 -8l57 -4v-74zM393 610q0 -220 79 -342.5t214 -122.5q70 0 123 50q-2 25 -2 75v467q0 105 -54 166.5t-143 61.5q-96 0 -156.5 -90.5t-60.5 -264.5z" />
    <glyph glyph-name="Emacron" unicode="&#x112;" horiz-adv-x="1308" 
d="M336 1618v176h633v-176h-633zM1235 401q-57 -236 -72 -405q-620 15 -1075 0v72l64 10q35 6 49.5 27.5t20 75t5.5 179.5v668q0 127 -5.5 181t-20 76t-49.5 28l-64 10v74q424 -16 1049 0q-6 -180 4 -391l-49 -13q-69 194 -130.5 254t-193.5 60h-219v-576l139 6
q103 4 145.5 38.5t71.5 125.5l13 33h51q-16 -264 0 -475h-51l-13 33q-28 88 -71.5 123.5t-145.5 39.5l-139 7v-338q0 -142 43 -194t162 -52h67q69 0 121 26t112.5 100.5t135.5 213.5z" />
    <glyph glyph-name="emacron" unicode="&#x113;" horiz-adv-x="1107" 
d="M250 1243v176h633v-176h-633zM1049 297q-84 -166 -198 -248t-267 -82q-218 0 -360 150.5t-142 382.5q0 121 42.5 225t114 174.5t165.5 110t196 39.5q99 0 179.5 -34.5t130.5 -92t77 -128.5t27 -149q0 -41 -6 -88h-637q25 -159 121 -252.5t237 -93.5q160 0 285 113z
M362 657v-28l381 30q-13 141 -64 218t-128 77q-86 0 -137.5 -75t-51.5 -222z" />
    <glyph glyph-name="Ebreve" unicode="&#x114;" horiz-adv-x="1308" 
d="M954 1946q0 -192 -74 -298t-223 -106q-150 0 -224.5 105.5t-74.5 298.5h52q29 -183 247 -183q105 0 168.5 48t77.5 135h51zM1235 401q-57 -236 -72 -405q-620 15 -1075 0v72l64 10q35 6 49.5 27.5t20 75t5.5 179.5v668q0 127 -5.5 181t-20 76t-49.5 28l-64 10v74
q424 -16 1049 0q-6 -180 4 -391l-49 -13q-69 194 -130.5 254t-193.5 60h-219v-576l139 6q103 4 145.5 38.5t71.5 125.5l13 33h51q-16 -264 0 -475h-51l-13 33q-28 88 -71.5 123.5t-145.5 39.5l-139 7v-338q0 -142 43 -194t162 -52h67q69 0 121 26t112.5 100.5t135.5 213.5z
" />
    <glyph glyph-name="ebreve" unicode="&#x115;" horiz-adv-x="1107" 
d="M862 1571q0 -192 -74 -298t-223 -106q-150 0 -224.5 105.5t-74.5 298.5h51q28 -182 248 -182q105 0 168.5 47.5t77.5 134.5h51zM1049 297q-84 -166 -198 -248t-267 -82q-218 0 -360 150.5t-142 382.5q0 121 42.5 225t114 174.5t165.5 110t196 39.5q99 0 179.5 -34.5
t130.5 -92t77 -128.5t27 -149q0 -41 -6 -88h-637q25 -159 121 -252.5t237 -93.5q160 0 285 113zM362 657v-28l381 30q-13 141 -64 218t-128 77q-86 0 -137.5 -75t-51.5 -222z" />
    <glyph glyph-name="Edotaccent" unicode="&#x116;" horiz-adv-x="1308" 
d="M836 1741q0 -79 -53 -133t-132 -54t-132.5 54.5t-53.5 132.5t53.5 131t132.5 53t132 -53t53 -131zM1235 401q-57 -236 -72 -405q-620 15 -1075 0v72l64 10q35 6 49.5 27.5t20 75t5.5 179.5v668q0 127 -5.5 181t-20 76t-49.5 28l-64 10v74q424 -16 1049 0q-6 -180 4 -391
l-49 -13q-69 194 -130.5 254t-193.5 60h-219v-576l139 6q103 4 145.5 38.5t71.5 125.5l13 33h51q-16 -264 0 -475h-51l-13 33q-28 88 -71.5 123.5t-145.5 39.5l-139 7v-338q0 -142 43 -194t162 -52h67q69 0 121 26t112.5 100.5t135.5 213.5z" />
    <glyph glyph-name="edotaccent" unicode="&#x117;" horiz-adv-x="1107" 
d="M754 1366q0 -78 -53 -132t-132 -54t-132.5 54t-53.5 132t53.5 131t132.5 53t132 -53t53 -131zM1049 297q-84 -166 -198 -248t-267 -82q-218 0 -360 150.5t-142 382.5q0 121 42.5 225t114 174.5t165.5 110t196 39.5q99 0 179.5 -34.5t130.5 -92t77 -128.5t27 -149
q0 -41 -6 -88h-637q25 -159 121 -252.5t237 -93.5q160 0 285 113zM362 657v-28l381 30q-13 141 -64 218t-128 77q-86 0 -137.5 -75t-51.5 -222z" />
    <glyph glyph-name="Eogonek" unicode="&#x118;" horiz-adv-x="1308" 
d="M1028 -367q-103 -188 -274 -188q-87 0 -147 52t-60 143q0 112 95.5 204.5t264.5 157.5q-470 6 -819 -6v72l64 10q35 6 49.5 27.5t20 75t5.5 179.5v668q0 127 -5.5 181t-20 76t-49.5 28l-64 10v74q424 -16 1049 0q-6 -180 4 -391l-49 -13q-69 194 -130.5 254t-193.5 60
h-219v-576l139 6q103 4 145.5 38.5t71.5 125.5l13 33h51q-16 -264 0 -475h-51l-13 33q-28 88 -71.5 123.5t-145.5 39.5l-139 7v-338q0 -143 42.5 -194.5t162.5 -51.5h67q69 0 121 26t112.5 100.5t135.5 213.5l45 -17q-57 -236 -72 -405q-144 7 -217 -21q-72 -29 -112.5 -98
t-40.5 -145q0 -125 106 -125q54 0 98 53z" />
    <glyph glyph-name="eogonek" unicode="&#x119;" horiz-adv-x="1107" 
d="M842 -367q-106 -188 -277 -188q-87 0 -147 52t-60 143q0 92 73 177t206 154q-32 -4 -53 -4q-218 0 -360 150.5t-142 382.5q0 121 43 225.5t114.5 174.5t165.5 109.5t195 39.5q99 0 179.5 -34.5t130.5 -92t77 -128.5t27 -149q0 -41 -6 -88h-637q25 -159 121 -252.5
t237 -93.5q163 0 285 113l35 -27q-95 -194 -236 -274q-209 -117 -209 -291q0 -125 107 -125q54 0 98 53zM362 657v-28l381 30q-13 141 -64 218t-128 77q-86 0 -137.5 -75t-51.5 -222z" />
    <glyph glyph-name="Ecaron" unicode="&#x11a;" horiz-adv-x="1308" 
d="M664 1722l315 250l31 -33l-228 -391h-239l-228 391l31 33zM1235 401q-57 -236 -72 -405q-620 15 -1075 0v72l64 10q35 6 49.5 27.5t20 75t5.5 179.5v668q0 127 -5.5 181t-20 76t-49.5 28l-64 10v74q424 -16 1049 0q-6 -180 4 -391l-49 -13q-69 194 -130.5 254t-193.5 60
h-219v-576l139 6q103 4 145.5 38.5t71.5 125.5l13 33h51q-16 -264 0 -475h-51l-13 33q-28 88 -71.5 123.5t-145.5 39.5l-139 7v-338q0 -142 43 -194t162 -52h67q69 0 121 26t112.5 100.5t135.5 213.5z" />
    <glyph glyph-name="ecaron" unicode="&#x11b;" horiz-adv-x="1107" 
d="M569 1348l316 249l30 -32l-227 -391h-239l-228 391l31 32zM1049 297q-84 -166 -198 -248t-267 -82q-218 0 -360 150.5t-142 382.5q0 121 42.5 225t114 174.5t165.5 110t196 39.5q99 0 179.5 -34.5t130.5 -92t77 -128.5t27 -149q0 -41 -6 -88h-637q25 -159 121 -252.5
t237 -93.5q160 0 285 113zM362 657v-28l381 30q-13 141 -64 218t-128 77q-86 0 -137.5 -75t-51.5 -222z" />
    <glyph glyph-name="Gcircumflex" unicode="&#x11c;" horiz-adv-x="1507" 
d="M766 1761l-303 -243l-31 32l219 392h228l219 -392l-31 -32zM1348 -25l-54 -8q-39 76 -71 117q-158 -117 -383 -117q-214 0 -380.5 90.5t-261 261t-94.5 396.5q0 208 89.5 370t248.5 251t361 89q137 0 250.5 -32t185.5 -86q-7 -148 8 -400l-55 -12l-33 68
q-91 191 -186 279.5t-225 88.5q-302 0 -302 -483q0 -167 38 -315.5t100.5 -252t146 -163.5t172.5 -60q88 0 127 54.5t39 191.5v121q0 86 -20 113t-80 36l-54 9v69q268 -16 523 0v-69q-23 -5 -36.5 -10.5t-25 -19t-16 -27t-8 -47.5t-4 -66.5t-0.5 -96.5v-340z" />
    <glyph glyph-name="gcircumflex" unicode="&#x11d;" horiz-adv-x="1171" 
d="M1124 -55q0 -107 -78.5 -198t-218 -144.5t-307.5 -53.5q-221 0 -344 69t-123 169q0 153 232 197q-82 30 -124 82t-42 118q0 75 46.5 130.5t139.5 101.5q-91 45 -142.5 119.5t-51.5 166.5q0 148 125.5 247.5t312.5 99.5q97 0 186 -29q36 100 68 156l-258 210l-301 -243
l-31 33l219 391h225l187 -332q54 57 125 57q64 0 103 -48t42 -122l-12 -41q-203 26 -322 -77q101 -43 160 -122.5t59 -179.5q0 -146 -123 -245t-311 -99q-116 0 -209 35q-57 -38 -57 -84q0 -41 38 -62.5t126 -27.5l307 -18q174 -10 264 -76t90 -180zM590 436q61 0 96 54.5
t35 154.5q0 135 -59.5 230.5t-139.5 95.5q-59 0 -94 -56t-35 -159q0 -135 58.5 -227.5t138.5 -92.5zM266 -174q0 -83 76.5 -134.5t210.5 -51.5q153 0 241.5 50.5t88.5 143.5q0 44 -38.5 68t-125.5 30l-275 19q-41 2 -102 14q-35 -22 -55.5 -59t-20.5 -80z" />
    <glyph glyph-name="Gbreve" unicode="&#x11e;" horiz-adv-x="1507" 
d="M1065 1946q0 -192 -74 -298t-223 -106q-150 0 -224.5 105.5t-74.5 298.5h51q29 -183 248 -183q105 0 168.5 48t77.5 135h51zM1348 -25l-54 -8q-39 76 -71 117q-158 -117 -383 -117q-214 0 -380.5 90.5t-261 261t-94.5 396.5q0 208 89.5 370t248.5 251t361 89
q137 0 250.5 -32t185.5 -86q-7 -148 8 -400l-55 -12l-33 68q-91 191 -186 279.5t-225 88.5q-302 0 -302 -483q0 -167 38 -315.5t100.5 -252t146 -163.5t172.5 -60q88 0 127 54.5t39 191.5v121q0 86 -20 113t-80 36l-54 9v69q268 -16 523 0v-69q-23 -5 -36.5 -10.5t-25 -19
t-16 -27t-8 -47.5t-4 -66.5t-0.5 -96.5v-340z" />
    <glyph glyph-name="gbreve" unicode="&#x11f;" horiz-adv-x="1171" 
d="M850 1571q0 -192 -74 -298t-223 -106q-150 0 -224.5 105.5t-74.5 298.5h51q28 -182 248 -182q105 0 168.5 47.5t77.5 134.5h51zM1124 -55q0 -165 -174 -280.5t-430 -115.5q-221 0 -344 69t-123 169q0 153 232 197q-82 30 -124 82t-42 118q0 75 46.5 130.5t139.5 101.5
q-91 45 -142.5 119.5t-51.5 166.5q0 148 125.5 247.5t312.5 99.5q97 0 186 -29q49 141 101.5 206.5t132.5 65.5q64 0 103 -48t42 -122l-12 -41q-203 26 -322 -77q101 -43 160 -122.5t59 -179.5q0 -146 -123 -245t-311 -99q-116 0 -209 35q-57 -38 -57 -84q0 -41 38 -62.5
t126 -27.5l307 -18q174 -10 264 -76t90 -180zM590 436q61 0 96 54.5t35 154.5q0 135 -59.5 230.5t-139.5 95.5q-59 0 -94 -56t-35 -159q0 -135 58.5 -227.5t138.5 -92.5zM266 -174q0 -83 76.5 -134.5t210.5 -51.5q153 0 241.5 50.5t88.5 143.5q0 44 -38.5 68t-125.5 30
l-275 19q-41 2 -102 14q-35 -22 -55.5 -59t-20.5 -80z" />
    <glyph glyph-name="Gdotaccent" unicode="&#x120;" horiz-adv-x="1507" 
d="M950 1741q0 -79 -52.5 -133t-131.5 -54t-132.5 54.5t-53.5 132.5t53.5 131t132.5 53t131.5 -53t52.5 -131zM1348 -25l-54 -8q-39 76 -71 117q-158 -117 -383 -117q-214 0 -380.5 90.5t-261 261t-94.5 396.5q0 208 89.5 370t248.5 251t361 89q137 0 250.5 -32t185.5 -86
q-7 -148 8 -400l-55 -12l-33 68q-91 191 -186 279.5t-225 88.5q-302 0 -302 -483q0 -167 38 -315.5t100.5 -252t146 -163.5t172.5 -60q88 0 127 54.5t39 191.5v121q0 86 -20 113t-80 36l-54 9v69q268 -16 523 0v-69q-23 -5 -36.5 -10.5t-25 -19t-16 -27t-8 -47.5t-4 -66.5
t-0.5 -96.5v-340z" />
    <glyph glyph-name="gdotaccent" unicode="&#x121;" horiz-adv-x="1171" 
d="M729 1366q0 -79 -52.5 -132.5t-131.5 -53.5t-133 54t-54 132t54 131t133 53t131.5 -53t52.5 -131zM1124 -55q0 -165 -174 -280.5t-430 -115.5q-221 0 -344 69t-123 169q0 153 232 197q-82 30 -124 82t-42 118q0 75 46.5 130.5t139.5 101.5q-91 45 -142.5 119.5
t-51.5 166.5q0 148 125.5 247.5t312.5 99.5q97 0 186 -29q49 141 101.5 206.5t132.5 65.5q64 0 103 -48t42 -122l-12 -41q-203 26 -322 -77q101 -43 160 -122.5t59 -179.5q0 -146 -123 -245t-311 -99q-116 0 -209 35q-57 -38 -57 -84q0 -41 38 -62.5t126 -27.5l307 -18
q174 -10 264 -76t90 -180zM590 436q61 0 96 54.5t35 154.5q0 135 -59.5 230.5t-139.5 95.5q-59 0 -94 -56t-35 -159q0 -135 58.5 -227.5t138.5 -92.5zM266 -174q0 -83 76.5 -134.5t210.5 -51.5q153 0 241.5 50.5t88.5 143.5q0 44 -38.5 68t-125.5 30l-275 19q-41 2 -102 14
q-35 -22 -55.5 -59t-20.5 -80z" />
    <glyph glyph-name="Gcommaaccent" unicode="&#x122;" horiz-adv-x="1507" 
d="M1348 -25l-54 -8q-39 76 -71 117q-158 -117 -383 -117q-214 0 -380.5 90.5t-261 261t-94.5 396.5q0 208 89.5 370t248.5 251t361 89q137 0 250.5 -32t185.5 -86q-7 -148 8 -400l-55 -12l-33 68q-91 191 -186 279.5t-225 88.5q-302 0 -302 -483q0 -167 38 -315.5
t100.5 -252t146 -163.5t172.5 -60q88 0 127 54.5t39 191.5v121q0 86 -20 113t-80 36l-54 9v69q268 -16 523 0v-69q-23 -5 -36.5 -10.5t-25 -19t-16 -27t-8 -47.5t-4 -66.5t-0.5 -96.5v-340zM610 -635l-28 45l53 47q76 68 69 145.5t-92 176.5l13 37q65 59 145 59
q75 0 121.5 -48.5t46.5 -113.5q0 -93 -79 -171.5t-249 -176.5z" />
    <glyph glyph-name="gcommaaccent" unicode="&#x123;" horiz-adv-x="1171" 
d="M707 1665l28 -45l-55 -47q-75 -68 -68 -144.5t90 -175.5l-12 -36q-61 -58 -145 -58q-75 0 -121.5 47.5t-46.5 112.5q0 93 79 170.5t251 175.5zM1124 -55q0 -165 -174 -280.5t-430 -115.5q-221 0 -344 69t-123 169q0 153 232 197q-82 30 -124 82t-42 118q0 75 46.5 130.5
t139.5 101.5q-91 45 -142.5 119.5t-51.5 166.5q0 148 125.5 247.5t312.5 99.5q97 0 186 -29q49 141 101.5 206.5t132.5 65.5q64 0 103 -48t42 -122l-12 -41q-203 26 -322 -77q101 -43 160 -122.5t59 -179.5q0 -146 -123 -245t-311 -99q-116 0 -209 35q-57 -38 -57 -84
q0 -41 38 -62.5t126 -27.5l307 -18q174 -10 264 -76t90 -180zM590 436q61 0 96 54.5t35 154.5q0 135 -59.5 230.5t-139.5 95.5q-59 0 -94 -56t-35 -159q0 -135 58.5 -227.5t138.5 -92.5zM266 -174q0 -83 76.5 -134.5t210.5 -51.5q153 0 241.5 50.5t88.5 143.5q0 44 -38.5 68
t-125.5 30l-275 19q-41 2 -102 14q-35 -22 -55.5 -59t-20.5 -80z" />
    <glyph glyph-name="Hcircumflex" unicode="&#x124;" horiz-adv-x="1648" 
d="M823 1761l-303 -243l-31 32l220 392h227l219 -392l-31 -32zM1559 68v-72q-299 17 -601 0v72l62 10q27 5 41 15t23 43t11.5 83.5t2.5 149.5v313h-549v-313q0 -99 2.5 -149.5t11.5 -83.5t23 -43t41 -15l61 -10v-72q-298 17 -600 0v72l64 10q35 6 49.5 28t20 77.5t5.5 185.5
v653q0 130 -5.5 185.5t-20 77.5t-49.5 28l-64 10v74q300 -17 600 0v-74l-61 -10q-27 -5 -41 -15t-23 -43t-11.5 -83.5t-2.5 -149.5v-244h549v244q0 99 -2.5 149.5t-11.5 83.5t-23 43t-41 15l-62 10v74q300 -17 601 0v-74l-62 -10q-27 -5 -41 -15t-23 -43t-11.5 -83.5
t-2.5 -149.5v-653q0 -99 2.5 -149.5t11.5 -83.5t23 -43t41 -15z" />
    <glyph glyph-name="hcircumflex" unicode="&#x125;" horiz-adv-x="1386" 
d="M721 1853l-303 -243l-31 32l219 392h228l219 -392l-31 -32zM1346 68v-72q-282 18 -568 0v74l41 8q23 4 33.5 6.5t22.5 14.5t15.5 25.5t7.5 48.5t4.5 74.5t0.5 112.5v293q0 100 -46 148.5t-122 48.5q-140 0 -235 -82v-408q0 -74 0.5 -113.5t4.5 -75t7 -48.5t16 -25
t22.5 -14.5t33.5 -7.5l41 -8v-72q-278 19 -566 0v72l52 10q24 4 34.5 6.5t23 14.5t16 25.5t7.5 48.5t4.5 74.5t0.5 112.5v658q0 266 -13.5 318.5t-87.5 62.5l-37 4v74q161 0 253 7t180 32l16 -19q-8 -151 -8 -418v-245q147 215 383 215q65 0 120.5 -19t102 -58.5
t73.5 -109.5t27 -164v-338q0 -74 0.5 -114t4.5 -75.5t7.5 -49t16.5 -25.5t23.5 -14t35.5 -6z" />
    <glyph glyph-name="Hbar" unicode="&#x126;" horiz-adv-x="1648" 
d="M1559 68v-72q-299 17 -601 0v72l62 10q27 5 41 15t23 43t11.5 83.5t2.5 149.5v313h-549v-313q0 -99 2.5 -149.5t11.5 -83.5t23 -43t41 -15l61 -10v-72q-298 17 -600 0v72l64 10q35 6 49.5 28t20 77.5t5.5 185.5v635h-139v90h139q-1 93 -8 136.5t-21.5 60.5t-45.5 22
l-64 10v74q300 -17 600 0v-74l-61 -10q-32 -5 -47 -21.5t-22.5 -61t-8.5 -136.5h549q-1 92 -8.5 136.5t-22.5 61t-47 21.5l-62 10v74q300 -17 601 0v-74l-62 -10q-32 -5 -47 -21.5t-22.5 -61t-8.5 -136.5h140v-90h-140v-635q0 -99 2.5 -149.5t11.5 -83.5t23 -43t41 -15z
M549 778h549v226h-549v-226z" />
    <glyph glyph-name="hbar" unicode="&#x127;" horiz-adv-x="1386" 
d="M1346 68v-72q-282 18 -568 0v74l41 8q23 4 33.5 6.5t22.5 14.5t15.5 25.5t7.5 48.5t4.5 74.5t0.5 112.5v293q0 100 -46 148.5t-122 48.5q-140 0 -235 -82v-408q0 -74 0.5 -113.5t4.5 -75t7 -48.5t16 -25t22.5 -14.5t33.5 -7.5l41 -8v-72q-278 19 -566 0v72l52 10
q24 4 34.5 6.5t23 14.5t16 25.5t7.5 48.5t4.5 74.5t0.5 112.5v832h-140v84h136q-6 72 -25 93.5t-72 29.5l-37 4v74q161 0 253 7t180 32l16 -19q-6 -88 -6 -221h409v-84h-411v-358q147 215 383 215q65 0 120.5 -19t102 -58.5t73.5 -109.5t27 -164v-338q0 -74 0.5 -114
t4.5 -75.5t7.5 -49t16.5 -25.5t23.5 -14t35.5 -6z" />
    <glyph glyph-name="Itilde" unicode="&#x128;" horiz-adv-x="778" 
d="M49 1583q57 326 219 326q58 0 147.5 -47t143.5 -47q79 0 129 122l45 -18q-56 -340 -221 -340q-47 0 -96.5 23.5t-99.5 47t-97 23.5q-83 0 -127 -108zM227 369v653q0 130 -5.5 185.5t-20 77.5t-49.5 28l-64 10v74q300 -17 600 0v-74l-61 -10q-27 -5 -41 -15t-23 -43
t-11.5 -83.5t-2.5 -149.5v-653q0 -99 2.5 -149.5t11.5 -83.5t23 -43t41 -15l61 -10v-72q-300 17 -600 0v72l64 10q35 6 49.5 28t20 77.5t5.5 185.5z" />
    <glyph glyph-name="itilde" unicode="&#x129;" horiz-adv-x="700" 
d="M8 1208q57 326 219 326q58 0 147.5 -47t143.5 -47q79 0 129 123l45 -19q-56 -340 -221 -340q-47 0 -97 23.5t-99.5 47t-96.5 23.5q-83 0 -127 -108zM207 360v207q0 143 -1.5 202.5t-14 103.5t-29.5 51.5t-58 13.5l-36 4v74q153 0 248 7.5t184 29.5l18 -17
q-8 -148 -8 -409v-267v-88.5t2.5 -66t3.5 -49t8 -32t10.5 -22t18 -11.5t23 -9t30.5 -6l43 -8v-72q-286 19 -581 0v72l51 8q25 4 35.5 6t23.5 14t16.5 25.5t7.5 49t4.5 75.5t0.5 114z" />
    <glyph glyph-name="Imacron" unicode="&#x12a;" horiz-adv-x="778" 
d="M74 1618v176h633v-176h-633zM227 369v653q0 130 -5.5 185.5t-20 77.5t-49.5 28l-64 10v74q300 -17 600 0v-74l-61 -10q-27 -5 -41 -15t-23 -43t-11.5 -83.5t-2.5 -149.5v-653q0 -99 2.5 -149.5t11.5 -83.5t23 -43t41 -15l61 -10v-72q-300 17 -600 0v72l64 10
q35 6 49.5 28t20 77.5t5.5 185.5z" />
    <glyph glyph-name="imacron" unicode="&#x12b;" horiz-adv-x="700" 
d="M33 1243v176h633v-176h-633zM207 360v207q0 143 -1.5 202.5t-14 103.5t-29.5 51.5t-58 13.5l-36 4v74q153 0 248 7.5t184 29.5l18 -17q-8 -148 -8 -409v-267v-88.5t2.5 -66t3.5 -49t8 -32t10.5 -22t18 -11.5t23 -9t30.5 -6l43 -8v-72q-286 19 -581 0v72l51 8q25 4 35.5 6
t23.5 14t16.5 25.5t7.5 49t4.5 75.5t0.5 114z" />
    <glyph glyph-name="Ibreve" unicode="&#x12c;" horiz-adv-x="778" 
d="M688 1946q0 -192 -74 -298t-223 -106q-150 0 -224.5 105.5t-74.5 298.5h51q29 -183 248 -183q105 0 168.5 48t77.5 135h51zM227 369v653q0 130 -5.5 185.5t-20 77.5t-49.5 28l-64 10v74q300 -17 600 0v-74l-61 -10q-27 -5 -41 -15t-23 -43t-11.5 -83.5t-2.5 -149.5v-653
q0 -99 2.5 -149.5t11.5 -83.5t23 -43t41 -15l61 -10v-72q-300 17 -600 0v72l64 10q35 6 49.5 28t20 77.5t5.5 185.5z" />
    <glyph glyph-name="ibreve" unicode="&#x12d;" horiz-adv-x="700" 
d="M647 1571q0 -192 -74 -298t-223 -106q-150 0 -224.5 105.5t-74.5 298.5h51q28 -182 248 -182q105 0 168.5 47.5t77.5 134.5h51zM207 360v207q0 143 -1.5 202.5t-14 103.5t-29.5 51.5t-58 13.5l-36 4v74q153 0 248 7.5t184 29.5l18 -17q-8 -148 -8 -409v-267v-88.5
t2.5 -66t3.5 -49t8 -32t10.5 -22t18 -11.5t23 -9t30.5 -6l43 -8v-72q-286 19 -581 0v72l51 8q25 4 35.5 6t23.5 14t16.5 25.5t7.5 49t4.5 75.5t0.5 114z" />
    <glyph glyph-name="Iogonek" unicode="&#x12e;" horiz-adv-x="778" 
d="M655 -367q-106 -188 -276 -188q-86 0 -145.5 52t-59.5 143q0 107 97 205.5t264 156.5q-243 6 -447 -6v72l64 10q35 6 49.5 28t20 77.5t5.5 185.5v653q0 130 -5.5 185.5t-20 77.5t-49.5 28l-64 10v74q300 -17 600 0v-74l-61 -10q-27 -5 -41 -15t-23 -43t-11.5 -83.5
t-2.5 -149.5v-653q0 -99 2.5 -149.5t11.5 -83.5t23 -43t41 -15l61 -10v-72q-115 4 -192.5 -73t-77.5 -187q0 -129 106 -129q54 0 101 53z" />
    <glyph glyph-name="iogonek" unicode="&#x12f;" horiz-adv-x="700" 
d="M535 1366q0 -78 -54 -131t-133 -53t-131.5 53t-52.5 131t52.5 131t131.5 53t133 -53t54 -131zM621 -367q-106 -188 -277 -188q-86 0 -145.5 52t-59.5 143q0 109 96.5 206t262.5 158q-232 3 -428 -8v72l51 8q25 4 35.5 6t23.5 14t16.5 25.5t7.5 49t4.5 75.5t0.5 114v207
q0 143 -1.5 202.5t-14 103.5t-29.5 51.5t-58 13.5l-36 4v74q153 0 248 7.5t184 29.5l18 -17q-8 -148 -8 -409v-267v-87t2 -65t3.5 -49t8 -32t11.5 -22.5t17.5 -13t22.5 -9.5t31 -6l43 -8v-72q-66 1 -119.5 -22.5t-84.5 -63t-47.5 -84.5t-16.5 -90q0 -129 106 -129
q54 0 101 53z" />
    <glyph glyph-name="Idotaccent" unicode="&#x130;" horiz-adv-x="778" 
d="M578 1741q0 -79 -53 -133t-132 -54t-132.5 54.5t-53.5 132.5t53.5 131t132.5 53t132 -53t53 -131zM227 369v653q0 130 -5.5 185.5t-20 77.5t-49.5 28l-64 10v74q300 -17 600 0v-74l-61 -10q-27 -5 -41 -15t-23 -43t-11.5 -83.5t-2.5 -149.5v-653q0 -99 2.5 -149.5
t11.5 -83.5t23 -43t41 -15l61 -10v-72q-300 17 -600 0v72l64 10q35 6 49.5 28t20 77.5t5.5 185.5z" />
    <glyph glyph-name="dotlessi" unicode="&#x131;" horiz-adv-x="698" 
d="M207 360v207q0 143 -1.5 202.5t-14 103.5t-29.5 51.5t-58 13.5l-36 4v74q153 0 248 7.5t184 29.5l18 -17q-8 -148 -8 -409v-267v-88.5t2.5 -66t3.5 -49t8 -32t10.5 -22t18 -11.5t23 -9t30.5 -6l43 -8v-72q-286 19 -581 0v72l51 8q25 4 35.5 6t23.5 14t16.5 25.5t7.5 49
t4.5 75.5t0.5 114z" />
    <glyph glyph-name="IJ" unicode="&#x132;" horiz-adv-x="1521" 
d="M227 369v653q0 130 -5.5 185.5t-20 77.5t-49.5 28l-64 10v74q300 -17 600 0v-74l-61 -10q-27 -5 -41 -15t-23 -43t-11.5 -83.5t-2.5 -149.5v-653q0 -99 2.5 -149.5t11.5 -83.5t23 -43t41 -15l61 -10v-72q-300 17 -600 0v72l64 10q35 6 49.5 28t20 77.5t5.5 185.5z
M983 1022q0 98 -2.5 149t-11.5 84t-22 43t-40 15l-61 10v74q297 -19 600 0v-74l-64 -10q-22 -4 -34 -12t-21.5 -23t-13 -50.5t-5 -80t-1.5 -125.5v-729q0 -226 -85.5 -347.5t-281.5 -154.5l-72 -12l-14 47l39 20q40 22 58.5 65t25 126t6.5 260v725z" />
    <glyph glyph-name="ij" unicode="&#x133;" horiz-adv-x="1331" 
d="M532 1366q0 -79 -52.5 -131.5t-133.5 -52.5q-79 0 -131.5 53t-52.5 131t52.5 131t131.5 53q81 0 133.5 -52.5t52.5 -131.5zM1198 1366q0 -78 -52.5 -131t-131.5 -53t-133 53t-54 131t54 131t133 53t131.5 -53t52.5 -131zM207 360v207q0 143 -1.5 202.5t-14 103.5
t-29.5 51.5t-58 13.5l-36 4v74q153 0 248 7.5t184 29.5l18 -17q-8 -148 -8 -409v-267v-87t2 -65t3.5 -49t8 -32t11.5 -22.5t17.5 -13t22.5 -9.5t31 -6l43 -8v-72q-286 19 -581 0v72l51 8q25 4 35.5 6t23.5 14t16.5 25.5t7.5 49t4.5 75.5t0.5 114zM870 51v512q0 246 -14 303
t-86 70l-39 6v74q162 0 252.5 7t181.5 30l17 -19q-8 -148 -8 -409v-580q0 -111 -18 -187t-61.5 -131t-108 -90t-165.5 -65l-71 -21l-21 50l35 20q45 28 66.5 69.5t30.5 122.5t9 238z" />
    <glyph glyph-name="Jcircumflex" unicode="&#x134;" horiz-adv-x="763" 
d="M377 1761l-303 -243l-31 32l219 392h227l220 -392l-31 -32zM227 1022q0 130 -5.5 185.5t-20 77.5t-49.5 28l-62 10v74q297 -19 600 0v-74l-63 -10q-27 -5 -40.5 -14.5t-22.5 -43.5t-11 -83.5t-2 -149.5v-729q0 -226 -85.5 -347.5t-281.5 -154.5l-71 -12l-15 47l39 20
q40 22 58.5 65t25 126t6.5 260v725z" />
    <glyph glyph-name="jcircumflex" unicode="&#x135;" horiz-adv-x="649" 
d="M330 1386l-303 -243l-31 33l219 391h227l220 -391l-31 -33zM190 51v512q0 246 -14 303t-86 70l-39 6v74q162 0 252.5 7t181.5 30l17 -19q-8 -148 -8 -409v-580q0 -111 -18 -187t-61.5 -131t-108 -90t-165.5 -65l-71 -21l-21 50l35 20q45 28 66.5 69.5t30.5 122.5t9 238z
" />
    <glyph glyph-name="Kcommaaccent" unicode="&#x136;" horiz-adv-x="1560" 
d="M549 1024v-657q0 -98 2.5 -148t11.5 -83t23 -43t41 -15l61 -10v-72q-298 17 -600 0v72l64 10q35 6 49.5 28t20 77t5.5 184v657q0 129 -5.5 184t-20 77t-49.5 28l-64 10v74q302 -17 600 0v-74l-61 -10q-27 -5 -41 -15t-23 -43t-11.5 -83t-2.5 -148zM1542 68v-72
q-222 14 -448 0l-519 698l369 412q169 185 31 211l-43 8v72q264 -18 536 0v-72l-43 -8q-93 -17 -190 -75.5t-231 -197.5l-164 -178l444 -594q96 -123 136.5 -157.5t90.5 -42.5zM657 -635l-28 45l53 47q76 68 69 145.5t-92 176.5l13 37q65 59 145 59q75 0 121.5 -48.5
t46.5 -113.5q0 -93 -79 -171.5t-249 -176.5z" />
    <glyph glyph-name="kcommaaccent" unicode="&#x137;" horiz-adv-x="1323" 
d="M500 344q0 -77 1.5 -116t5.5 -72t15 -46t25 -20t41 -12l51 -10v-72q-257 17 -580 0v72l52 10q22 4 35 8t23.5 17t15 26t8 47t4 68t0.5 100v703q0 233 -14.5 288t-86.5 64l-37 4v74q161 0 253 7t180 32l16 -19q-8 -151 -8 -418v-735zM1303 68v-72q-200 9 -400 0l-379 541
l201 194q106 97 106 150q0 51 -86 71v66q276 -16 506 0v-66l-57 -14q-42 -13 -70.5 -23.5t-77.5 -33.5t-102 -59.5t-110 -86.5l-64 -55l301 -428q70 -105 115 -138t117 -46zM516 -635l-29 45l54 47q76 68 69 145.5t-92 176.5l12 37q65 59 146 59q75 0 121.5 -48.5
t46.5 -113.5q0 -93 -79 -171.5t-249 -176.5z" />
    <glyph glyph-name="kgreenlandic" unicode="&#x138;" horiz-adv-x="1333" 
d="M510 344q0 -66 0.5 -100t4 -68t8 -47t15 -26t23.5 -17t35 -8l53 -10v-72q-259 17 -581 0v72l51 10q27 5 41 12t25 20t15 46t5.5 72t1.5 116v242q0 233 -14.5 289t-88.5 63l-36 4v74q156 0 249.5 7.5t182.5 31.5l18 -19q-8 -151 -8 -418v-274zM1313 68v-72q-202 9 -400 0
l-378 541l198 194q107 98 107 150q0 51 -86 71v66q276 -16 506 0v-66l-58 -14q-58 -18 -97 -33t-113.5 -60t-147.5 -110l-66 -55l301 -428q70 -105 115.5 -138t118.5 -46z" />
    <glyph glyph-name="Lacute" unicode="&#x139;" horiz-adv-x="1257" 
d="M768 1823q0 -75 -85 -138.5t-310 -160.5l-25 26l227 398l33 12q76 -15 118 -50t42 -87zM227 1022q0 130 -5.5 185.5t-20 77.5t-49.5 28l-64 10v74q300 -17 600 0v-74l-61 -10q-27 -5 -41 -15t-23 -43t-11.5 -83.5t-2.5 -149.5v-698q0 -149 29 -196.5t124 -47.5h37
q77 0 165.5 83.5t201.5 266.5l37 59l49 -20q-67 -244 -88 -473q-585 18 -1016 0v72l64 12q37 7 51.5 28t19 68.5t4.5 169.5v676z" />
    <glyph glyph-name="lacute" unicode="&#x13a;" horiz-adv-x="688" 
d="M678 1901q0 -75 -85 -138.5t-310 -160.5l-25 26l227 397l33 13q76 -15 118 -50t42 -87zM500 348q0 -78 1.5 -118t5.5 -73.5t15 -46.5t25 -20t41 -12l51 -10v-72q-258 16 -580 0v72l52 10q23 4 35.5 8t23.5 17t15 26t7.5 48t4 69.5t0.5 101.5v699q0 232 -14.5 287
t-86.5 65l-37 4v74q161 0 253 7t180 32l16 -19q-8 -151 -8 -418v-731z" />
    <glyph glyph-name="Lcommaaccent" unicode="&#x13b;" horiz-adv-x="1257" 
d="M227 1022q0 130 -5.5 185.5t-20 77.5t-49.5 28l-64 10v74q300 -17 600 0v-74l-61 -10q-27 -5 -41 -15t-23 -43t-11.5 -83.5t-2.5 -149.5v-698q0 -149 29 -196.5t124 -47.5h37q77 0 165.5 83.5t201.5 266.5l37 59l49 -20q-67 -244 -88 -473q-585 18 -1016 0v72l64 12
q37 7 51.5 28t19 68.5t4.5 169.5v676zM471 -635l-29 45l54 47q76 68 69 145.5t-92 176.5l12 37q65 59 146 59q75 0 121.5 -48.5t46.5 -113.5q0 -93 -79 -171.5t-249 -176.5z" />
    <glyph glyph-name="lcommaaccent" unicode="&#x13c;" horiz-adv-x="688" 
d="M500 348q0 -78 1.5 -118t5.5 -73.5t15 -46.5t25 -20t41 -12l51 -10v-72q-258 16 -580 0v72l52 10q23 4 35.5 8t23.5 17t15 26t7.5 48t4 69.5t0.5 101.5v699q0 232 -14.5 287t-86.5 65l-37 4v74q161 0 253 7t180 32l16 -19q-8 -151 -8 -418v-731zM180 -635l-28 45l53 47
q76 68 69 145.5t-92 176.5l13 37q65 59 145 59q75 0 121.5 -48.5t46.5 -113.5q0 -93 -79 -171.5t-249 -176.5z" />
    <glyph glyph-name="Lcaron" unicode="&#x13d;" horiz-adv-x="1257" 
d="M829 1391q50 26 95 26q58 0 91.5 -34t33.5 -93q0 -47 -22 -93.5t-51.5 -82t-71.5 -94.5t-70 -117l-35 8l6 447zM227 1022q0 130 -5.5 185.5t-20 77.5t-49.5 28l-64 10v74q300 -17 600 0v-74l-61 -10q-27 -5 -41 -15t-23 -43t-11.5 -83.5t-2.5 -149.5v-698
q0 -149 29 -196.5t124 -47.5h37q77 0 165.5 83.5t201.5 266.5l37 59l49 -20q-67 -244 -88 -473q-585 18 -1016 0v72l64 12q37 7 51.5 28t19 68.5t4.5 169.5v676z" />
    <glyph glyph-name="lcaron" unicode="&#x13e;" horiz-adv-x="880" 
d="M500 348q0 -78 1.5 -118t5.5 -73.5t15 -46.5t25 -20t41 -12l51 -10v-72q-258 16 -580 0v72l52 10q23 4 35.5 8t23.5 17t15 26t7.5 48t4 69.5t0.5 101.5v699q0 232 -14.5 287t-86.5 65l-37 4v74q161 0 253 7t180 32l16 -19q-8 -151 -8 -418v-731zM645 1479q50 26 94 26
q58 0 91.5 -34t33.5 -93q0 -47 -22 -93.5t-51.5 -82t-71.5 -94.5t-70 -117l-35 8l7 447z" />
    <glyph glyph-name="Ldot" unicode="&#x13f;" horiz-adv-x="1257" 
d="M227 1022q0 130 -5.5 185.5t-20 77.5t-49.5 28l-64 10v74q300 -17 600 0v-74l-61 -10q-27 -5 -41 -15t-23 -43t-11.5 -83.5t-2.5 -149.5v-698q0 -149 29 -196.5t124 -47.5h37q77 0 165.5 83.5t201.5 266.5l37 59l49 -20q-67 -244 -88 -473q-585 18 -1016 0v72l64 12
q37 7 51.5 28t19 68.5t4.5 169.5v676zM1186 797q0 -78 -53 -131.5t-132 -53.5t-132.5 53.5t-53.5 131.5t53.5 131t132.5 53t132 -53t53 -131z" />
    <glyph glyph-name="ldot" unicode="&#x140;" horiz-adv-x="856" 
d="M500 348q0 -78 1.5 -118t5.5 -73.5t15 -46.5t25 -20t41 -12l51 -10v-72q-258 16 -580 0v72l52 10q23 4 35.5 8t23.5 17t15 26t7.5 48t4 69.5t0.5 101.5v699q0 232 -14.5 287t-86.5 65l-37 4v74q161 0 253 7t180 32l16 -19q-8 -151 -8 -418v-731zM950 762
q0 -78 -52.5 -131t-131.5 -53t-132.5 53t-53.5 131t53.5 131t132.5 53t131.5 -53t52.5 -131z" />
    <glyph glyph-name="Lslash" unicode="&#x141;" horiz-adv-x="1257" 
d="M1192 469q-67 -244 -88 -473q-585 18 -1016 0v72l64 12q37 7 51.5 28t19 68.5t4.5 169.5v260l-164 -43v94l164 43v322q0 130 -5.5 185.5t-20 77.5t-49.5 28l-64 10v74q300 -17 600 0v-74l-61 -10q-27 -5 -41 -15t-23 -43t-11.5 -83.5t-2.5 -149.5v-236l246 66v-94
l-246 -66v-368q0 -149 29 -196.5t124 -47.5h37q77 0 165.5 83.5t201.5 266.5l37 59z" />
    <glyph glyph-name="lslash" unicode="&#x142;" horiz-adv-x="688" 
d="M639 68v-72q-258 16 -580 0v72l52 10q23 4 35.5 8t23.5 17t15 26t7.5 48t4 69.5t0.5 101.5v334l-140 -37v94l140 37v271q0 232 -14.5 287t-86.5 65l-37 4v74q161 0 253 7t180 32l16 -19q-8 -151 -8 -418v-223l139 37v-92l-139 -37v-416q0 -78 1.5 -118t5.5 -73.5
t15 -46.5t25 -20t41 -12z" />
    <glyph glyph-name="Nacute" unicode="&#x143;" horiz-adv-x="1499" 
d="M1122 1823q0 -75 -85 -138.5t-310 -160.5l-25 26l228 398l33 12q76 -15 117.5 -50t41.5 -87zM504 66v-70q-220 10 -436 0v70l55 14q38 8 59 36.5t32 98t11 195.5v696q0 84 -23 130.5t-75 66.5l-53 20v74q92 -7 219.5 -7t216.5 7l690 -989l-12 587q-3 177 -25.5 239
t-95.5 77l-51 12v74q211 -14 418 0v-74l-50 -14q-40 -10 -60 -38.5t-29 -91.5t-9 -184v-995q-110 3 -223 0l-750 1087l11 -679q1 -127 11.5 -192t35.5 -96.5t75 -41.5z" />
    <glyph glyph-name="nacute" unicode="&#x144;" horiz-adv-x="1396" 
d="M1038 1448q0 -75 -85 -138.5t-310 -160.5l-25 27l228 397l33 12q76 -15 117.5 -50t41.5 -87zM1356 68v-72q-287 19 -568 0v74l41 8q23 4 33.5 7t22.5 15t15.5 26t7.5 48.5t4.5 73.5t0.5 110v295q0 100 -46 148.5t-122 48.5q-132 0 -235 -80v-412q0 -73 0.5 -110t4 -73.5
t7 -49t15.5 -25.5t23 -16t34 -8l41 -8v-72q-280 19 -567 0v72l51 8q23 3 34.5 6.5t23.5 15t16.5 26.5t8.5 49.5t4.5 74.5t0.5 110v207q0 92 -1 144.5t-5.5 97.5t-9.5 64.5t-19 35.5t-27.5 20t-40.5 9l-36 6v74q153 0 248 7.5t184 29.5l18 -17q-2 -56 -6 -196
q149 209 379 209q65 0 121.5 -19t103.5 -58.5t74 -109.5t27 -164v-340q0 -71 0.5 -110t4.5 -74.5t8 -49.5t15.5 -26t23 -15.5t34.5 -6.5z" />
    <glyph glyph-name="Ncommaaccent" unicode="&#x145;" horiz-adv-x="1499" 
d="M504 66v-70q-220 10 -436 0v70l55 14q38 8 59 36.5t32 98t11 195.5v696q0 84 -23 130.5t-75 66.5l-53 20v74q92 -7 219.5 -7t216.5 7l690 -989l-12 587q-3 177 -25.5 239t-95.5 77l-51 12v74q211 -14 418 0v-74l-50 -14q-40 -10 -60 -38.5t-29 -91.5t-9 -184v-995
q-110 3 -223 0l-750 1087l11 -679q1 -127 11.5 -192t35.5 -96.5t75 -41.5zM600 -635l-29 45l54 47q76 68 69 145.5t-92 176.5l12 37q65 59 146 59q75 0 121.5 -48.5t46.5 -113.5q0 -93 -79 -171.5t-249 -176.5z" />
    <glyph glyph-name="ncommaaccent" unicode="&#x146;" horiz-adv-x="1396" 
d="M1356 68v-72q-287 19 -568 0v74l41 8q23 4 33.5 7t22.5 15t15.5 26t7.5 48.5t4.5 73.5t0.5 110v295q0 100 -46 148.5t-122 48.5q-132 0 -235 -80v-412q0 -73 0.5 -110t4 -73.5t7 -49t15.5 -25.5t23 -16t34 -8l41 -8v-72q-280 19 -567 0v72l51 8q23 3 34.5 6.5t23.5 15
t16.5 26.5t8.5 49.5t4.5 74.5t0.5 110v207q0 92 -1 144.5t-5.5 97.5t-9.5 64.5t-19 35.5t-27.5 20t-40.5 9l-36 6v74q153 0 248 7.5t184 29.5l18 -17q-2 -56 -6 -196q149 209 379 209q65 0 121.5 -19t103.5 -58.5t74 -109.5t27 -164v-340q0 -71 0.5 -110t4.5 -74.5t8 -49.5
t15.5 -26t23 -15.5t34.5 -6.5zM541 -635l-29 45l53 47q148 125 -22 322l12 37q65 59 145 59q75 0 121.5 -48.5t46.5 -113.5q0 -93 -78.5 -171.5t-248.5 -176.5z" />
    <glyph glyph-name="Ncaron" unicode="&#x147;" horiz-adv-x="1499" 
d="M784 1722l316 250l30 -33l-227 -391h-239l-228 391l31 33zM504 66v-70q-220 10 -436 0v70l55 14q38 8 59 36.5t32 98t11 195.5v696q0 84 -23 130.5t-75 66.5l-53 20v74q92 -7 219.5 -7t216.5 7l690 -989l-12 587q-3 177 -25.5 239t-95.5 77l-51 12v74q211 -14 418 0v-74
l-50 -14q-40 -10 -60 -38.5t-29 -91.5t-9 -184v-995q-110 3 -223 0l-750 1087l11 -679q1 -127 11.5 -192t35.5 -96.5t75 -41.5z" />
    <glyph glyph-name="ncaron" unicode="&#x148;" horiz-adv-x="1396" 
d="M721 1348l315 249l31 -32l-227 -391h-240l-227 391l30 32zM1356 68v-72q-287 19 -568 0v74l41 8q23 4 33.5 7t22.5 15t15.5 26t7.5 48.5t4.5 73.5t0.5 110v295q0 100 -46 148.5t-122 48.5q-132 0 -235 -80v-412q0 -73 0.5 -110t4 -73.5t7 -49t15.5 -25.5t23 -16t34 -8
l41 -8v-72q-280 19 -567 0v72l51 8q23 3 34.5 6.5t23.5 15t16.5 26.5t8.5 49.5t4.5 74.5t0.5 110v207q0 92 -1 144.5t-5.5 97.5t-9.5 64.5t-19 35.5t-27.5 20t-40.5 9l-36 6v74q153 0 248 7.5t184 29.5l18 -17q-2 -56 -6 -196q149 209 379 209q65 0 121.5 -19t103.5 -58.5
t74 -109.5t27 -164v-340q0 -71 0.5 -110t4.5 -74.5t8 -49.5t15.5 -26t23 -15.5t34.5 -6.5z" />
    <glyph glyph-name="napostrophe" unicode="&#x149;" horiz-adv-x="1396" 
d="M113 1133l-29 45l53 47q76 68 69.5 145t-91.5 176l12 37q65 59 145 59q75 0 121.5 -48t46.5 -113q0 -93 -78.5 -171.5t-248.5 -176.5zM1356 68v-72q-287 19 -568 0v74l41 8q23 4 33.5 7t22.5 15t15.5 26t7.5 48.5t4.5 73.5t0.5 110v295q0 100 -46 148.5t-122 48.5
q-132 0 -235 -80v-412q0 -73 0.5 -110t4 -73.5t7 -49t15.5 -25.5t23 -16t34 -8l41 -8v-72q-280 19 -567 0v72l51 8q23 3 34.5 6.5t23.5 15t16.5 26.5t8.5 49.5t4.5 74.5t0.5 110v207q0 92 -1 144.5t-5.5 97.5t-9.5 64.5t-19 35.5t-27.5 20t-40.5 9l-36 6v74q153 0 248 7.5
t184 29.5l18 -17q-2 -56 -6 -196q149 209 379 209q65 0 121.5 -19t103.5 -58.5t74 -109.5t27 -164v-340q0 -71 0.5 -110t4.5 -74.5t8 -49.5t15.5 -26t23 -15.5t34.5 -6.5z" />
    <glyph glyph-name="Eng" unicode="&#x14a;" horiz-adv-x="1499" 
d="M1382 1309q-39 -9 -58.5 -37.5t-28.5 -92t-9 -184.5v-950q0 -198 -85 -315t-271 -150l-72 -12l-12 53l39 21q53 30 69.5 107.5t16.5 291.5v92l-658 954l11 -679q1 -126 12 -192t36 -97t74 -41l58 -12v-70q-220 10 -436 0v70l55 14q38 8 59 36.5t32 98t11 195.5v696
q0 84 -23 130.5t-75 66.5l-53 20v74q92 -7 219.5 -7t216.5 7l690 -989l-12 587q-3 177 -25.5 239t-95.5 77l-51 12v74q211 -14 418 0v-74z" />
    <glyph glyph-name="eng" unicode="&#x14b;" horiz-adv-x="1361" 
d="M862 -426l-67 -20l-25 57l33 20q47 28 68 66t30.5 118.5t9.5 243.5v594q0 100 -46 148.5t-122 48.5q-131 0 -235 -80v-412q0 -73 0.5 -110t4 -73.5t7 -49t15.5 -25.5t23 -16t34 -8l41 -8v-72q-278 19 -565 0v72l51 8q27 4 39.5 10t24 19t15 46.5t5.5 78t2 128.5v207
q0 79 -1 127t-2.5 91t-7.5 65.5t-11.5 40.5t-18.5 26t-25 12.5t-35 8.5l-36 6v74q152 0 246.5 7.5t183.5 29.5l18 -17q-2 -56 -6 -200q146 213 381 213q64 0 119.5 -19t102 -58.5t73.5 -109.5t28 -164v-651q0 -147 -35.5 -237t-109 -143.5t-207.5 -92.5z" />
    <glyph glyph-name="Omacron" unicode="&#x14c;" horiz-adv-x="1605" 
d="M489 1618v176h633v-176h-633zM799 1425q141 0 268.5 -52.5t224 -146t153 -232.5t56.5 -302q0 -210 -89 -375.5t-247.5 -257.5t-359.5 -92q-141 0 -268.5 52.5t-223.5 146t-152.5 232.5t-56.5 302q0 210 88.5 375.5t247 257.5t359.5 92zM1159 535q0 174 -37 326t-98 254.5
t-139 161t-160 58.5q-132 0 -205.5 -125.5t-73.5 -351.5q0 -175 37 -327.5t98 -254.5t139.5 -160.5t160.5 -58.5q132 0 205 125.5t73 352.5z" />
    <glyph glyph-name="omacron" unicode="&#x14d;" horiz-adv-x="1263" 
d="M313 1243v176h633v-176h-633zM610 -33q-150 0 -268.5 61.5t-189 185.5t-70.5 292q0 162 78.5 287.5t207.5 190.5t283 65q150 0 269 -62.5t189.5 -187t70.5 -291.5q0 -162 -79 -287t-207.5 -189.5t-283.5 -64.5zM690 59q82 0 127 91.5t45 259.5q0 138 -38 263.5
t-104.5 203t-144.5 77.5q-83 0 -128.5 -91.5t-45.5 -258.5q0 -140 38 -265.5t105 -202.5t146 -77z" />
    <glyph glyph-name="Obreve" unicode="&#x14e;" horiz-adv-x="1605" 
d="M1104 1946q0 -192 -74 -298t-223 -106q-150 0 -224.5 105.5t-74.5 298.5h51q29 -183 248 -183q105 0 168.5 48t77.5 135h51zM799 1425q141 0 268.5 -52.5t224 -146t153 -232.5t56.5 -302q0 -210 -89 -375.5t-247.5 -257.5t-359.5 -92q-141 0 -268.5 52.5t-223.5 146
t-152.5 232.5t-56.5 302q0 210 88.5 375.5t247 257.5t359.5 92zM1159 535q0 174 -37 326t-98 254.5t-139 161t-160 58.5q-132 0 -205.5 -125.5t-73.5 -351.5q0 -175 37 -327.5t98 -254.5t139.5 -160.5t160.5 -58.5q132 0 205 125.5t73 352.5z" />
    <glyph glyph-name="obreve" unicode="&#x14f;" horiz-adv-x="1263" 
d="M928 1571q0 -192 -74 -298t-223 -106q-150 0 -224.5 105.5t-74.5 298.5h51q28 -182 248 -182q105 0 168.5 47.5t77.5 134.5h51zM610 -33q-150 0 -268.5 61.5t-189 185.5t-70.5 292q0 162 78.5 287.5t207.5 190.5t283 65q150 0 269 -62.5t189.5 -187t70.5 -291.5
q0 -162 -79 -287t-207.5 -189.5t-283.5 -64.5zM690 59q82 0 127 91.5t45 259.5q0 138 -38 263.5t-104.5 203t-144.5 77.5q-83 0 -128.5 -91.5t-45.5 -258.5q0 -140 38 -265.5t105 -202.5t146 -77z" />
    <glyph glyph-name="Ohungarumlaut" unicode="&#x150;" horiz-adv-x="1605" 
d="M909 1812q0 -63 -77 -132.5t-261 -155.5l-26 26l188 387l33 11q69 -12 106 -47.5t37 -88.5zM1272 1812q0 -63 -78 -131.5t-266 -156.5l-25 26l193 387l32 11q68 -12 106 -48t38 -88zM799 1425q141 0 268.5 -52.5t224 -146t153 -232.5t56.5 -302q0 -210 -89 -375.5
t-247.5 -257.5t-359.5 -92q-141 0 -268.5 52.5t-223.5 146t-152.5 232.5t-56.5 302q0 210 88.5 375.5t247 257.5t359.5 92zM1159 535q0 174 -37 326t-98 254.5t-139 161t-160 58.5q-132 0 -205.5 -125.5t-73.5 -351.5q0 -175 37 -327.5t98 -254.5t139.5 -160.5t160.5 -58.5
q132 0 205 125.5t73 352.5z" />
    <glyph glyph-name="ohungarumlaut" unicode="&#x151;" horiz-adv-x="1263" 
d="M713 1438q0 -63 -77 -133t-261 -156l-27 27l189 387l32 10q69 -12 106.5 -47t37.5 -88zM1075 1438q0 -63 -78 -132t-266 -157l-24 27l192 387l33 10q68 -12 105.5 -47.5t37.5 -87.5zM610 -33q-150 0 -268.5 61.5t-189 185.5t-70.5 292q0 162 78.5 287.5t207.5 190.5
t283 65q150 0 269 -62.5t189.5 -187t70.5 -291.5q0 -162 -79 -287t-207.5 -189.5t-283.5 -64.5zM690 59q82 0 127 91.5t45 259.5q0 138 -38 263.5t-104.5 203t-144.5 77.5q-83 0 -128.5 -91.5t-45.5 -258.5q0 -140 38 -265.5t105 -202.5t146 -77z" />
    <glyph glyph-name="OE" unicode="&#x152;" horiz-adv-x="2072" 
d="M1927 -4q-124 3 -581 0.5t-517 -2.5q-204 0 -367.5 83.5t-260.5 246t-97 376.5q0 316 209 506.5t555 190.5q89 0 288.5 -2.5t384 -2.5t360.5 5q-6 -180 4 -391l-50 -13q-48 134 -87.5 198t-92 90t-143.5 26h-217v-576l137 6q102 4 145.5 38.5t73.5 125.5l10 33h52
q-16 -264 0 -475h-52l-10 33q-29 88 -73.5 123.5t-145.5 39.5l-137 7v-338q0 -143 40.5 -194.5t157.5 -51.5h72q69 0 121.5 26t113 100.5t136.5 213.5l43 -17q-59 -260 -72 -405zM897 76q41 0 60 16.5t26.5 61t7.5 139.5v794q0 122 -36.5 176t-125.5 54q-84 0 -152.5 -30
t-121 -91.5t-81 -163t-28.5 -237.5q0 -159 40.5 -297.5t106 -229t145 -141.5t159.5 -51z" />
    <glyph glyph-name="oe" unicode="&#x153;" horiz-adv-x="1900" 
d="M1839 297q-84 -167 -197 -248.5t-266 -81.5q-116 0 -212 44t-163 124q-73 -82 -174 -125t-217 -43q-150 0 -268.5 61.5t-189 185.5t-70.5 292q0 162 78.5 287.5t207.5 190.5t283 65q108 0 202.5 -44t160.5 -124q72 80 171.5 124t207.5 44q98 0 178 -34.5t130 -92
t76.5 -128.5t26.5 -149q0 -41 -6 -88h-635q25 -159 121.5 -252.5t235.5 -93.5q161 0 286 113zM690 59q82 0 127 91.5t45 259.5q0 138 -38 263.5t-104.5 203t-144.5 77.5q-83 0 -128.5 -91.5t-45.5 -258.5q0 -140 38 -265.5t105 -202.5t146 -77zM1155 657v-28l381 30
q-15 141 -66.5 218t-128.5 77q-84 0 -135 -75.5t-51 -221.5z" />
    <glyph glyph-name="Racute" unicode="&#x154;" horiz-adv-x="1472" 
d="M1053 1823q0 -75 -85.5 -138.5t-310.5 -160.5l-24 26l227 398l33 12q76 -15 118 -50t42 -87zM688 68v-72q-315 18 -600 0v72l62 10q23 4 36 13.5t22 24.5t12.5 51.5t5 77.5t1.5 120v659q0 189 -11 234t-64 55l-64 10v74q83 -5 176 -5t201.5 2.5t161.5 2.5
q276 0 435 -90.5t159 -268.5q0 -242 -328 -327l319 -443q87 -120 119.5 -150.5t75.5 -39.5l41 -10v-70q-210 7 -420 0l-450 674q183 53 253 126t70 218q0 140 -91 218t-261 81v-950q0 -69 0.5 -105.5t3.5 -73t7.5 -51.5t14 -29.5t22 -19t32.5 -8.5z" />
    <glyph glyph-name="racute" unicode="&#x155;" horiz-adv-x="1001" 
d="M819 1448q0 -75 -85 -138.5t-310 -160.5l-25 27l228 397l32 12q76 -15 118 -50t42 -87zM674 68v-72q-303 18 -606 0v72l57 8q41 5 55 22.5t19.5 69.5t5.5 192v207q0 256 -14.5 309t-86.5 62l-36 4v74q152 0 245.5 7.5t182.5 29.5l18 -17q-8 -120 -8 -305
q61 166 129.5 243t169.5 77q76 0 113.5 -47t37.5 -113q0 -53 -24 -103l-33 -22q-50 17 -73 24t-53.5 13t-57.5 6q-144 0 -207 -150v-299q0 -70 0.5 -108t5.5 -73t10.5 -49.5t20.5 -27.5t30.5 -17t45.5 -9z" />
    <glyph glyph-name="Rcommaaccent" unicode="&#x156;" horiz-adv-x="1472" 
d="M688 68v-72q-315 18 -600 0v72l62 10q23 4 36 13.5t22 24.5t12.5 51.5t5 77.5t1.5 120v659q0 189 -11 234t-64 55l-64 10v74q83 -5 176 -5t201.5 2.5t161.5 2.5q276 0 435 -90.5t159 -268.5q0 -242 -328 -327l319 -443q87 -120 119.5 -150.5t75.5 -39.5l41 -10v-70
q-210 7 -420 0l-450 674q183 53 253 126t70 218q0 140 -91 218t-261 81v-950q0 -69 0.5 -105.5t3.5 -73t7.5 -51.5t14 -29.5t22 -19t32.5 -8.5zM618 -635l-28 45l53 47q148 125 -22 322l12 37q65 59 145 59q75 0 121.5 -48.5t46.5 -113.5q0 -93 -79 -171.5t-249 -176.5z" />
    <glyph glyph-name="rcommaaccent" unicode="&#x157;" horiz-adv-x="1001" 
d="M674 68v-72q-303 18 -606 0v72l57 8q41 5 55 22.5t19.5 69.5t5.5 192v207q0 256 -14.5 309t-86.5 62l-36 4v74q152 0 245.5 7.5t182.5 29.5l18 -17q-8 -120 -8 -305q61 166 129.5 243t169.5 77q76 0 113.5 -47t37.5 -113q0 -53 -24 -103l-33 -22q-50 17 -73 24t-53.5 13
t-57.5 6q-144 0 -207 -150v-299q0 -70 0.5 -108t5.5 -73t10.5 -49.5t20.5 -27.5t30.5 -17t45.5 -9zM203 -635l-29 45l53 47q148 125 -22 322l12 37q65 59 145 59q75 0 121.5 -48.5t46.5 -113.5q0 -93 -78.5 -171.5t-248.5 -176.5z" />
    <glyph glyph-name="Rcaron" unicode="&#x158;" horiz-adv-x="1472" 
d="M731 1722l316 250l30 -33l-227 -391h-240l-227 391l31 33zM688 68v-72q-315 18 -600 0v72l62 10q23 4 36 13.5t22 24.5t12.5 51.5t5 77.5t1.5 120v659q0 189 -11 234t-64 55l-64 10v74q83 -5 176 -5t201.5 2.5t161.5 2.5q276 0 435 -90.5t159 -268.5q0 -242 -328 -327
l319 -443q87 -120 119.5 -150.5t75.5 -39.5l41 -10v-70q-210 7 -420 0l-450 674q183 53 253 126t70 218q0 140 -91 218t-261 81v-950q0 -69 0.5 -105.5t3.5 -73t7.5 -51.5t14 -29.5t22 -19t32.5 -8.5z" />
    <glyph glyph-name="rcaron" unicode="&#x159;" horiz-adv-x="1001" 
d="M512 1348l315 249l31 -32l-227 -391h-240l-227 391l31 32zM674 68v-72q-303 18 -606 0v72l57 8q41 5 55 22.5t19.5 69.5t5.5 192v207q0 256 -14.5 309t-86.5 62l-36 4v74q152 0 245.5 7.5t182.5 29.5l18 -17q-8 -120 -8 -305q61 166 129.5 243t169.5 77q76 0 113.5 -47
t37.5 -113q0 -53 -24 -103l-33 -22q-50 17 -73 24t-53.5 13t-57.5 6q-144 0 -207 -150v-299q0 -70 0.5 -108t5.5 -73t10.5 -49.5t20.5 -27.5t30.5 -17t45.5 -9z" />
    <glyph glyph-name="Sacute" unicode="&#x15a;" horiz-adv-x="1212" 
d="M920 1823q0 -75 -85.5 -138.5t-310.5 -160.5l-24 26l227 398l33 12q76 -15 118 -50t42 -87zM621 57q100 0 163.5 50t63.5 141q0 72 -40 130t-104 97.5t-141 76t-154.5 77.5t-141.5 89.5t-104 123t-40 168.5q0 181 135.5 298t372.5 117q223 0 393 -110q-9 -153 -6 -336
l-55 -12q-66 188 -150.5 279t-202.5 91q-94 0 -147 -48.5t-53 -131.5q0 -56 24.5 -102t66.5 -79t96.5 -62.5t114.5 -57t119.5 -56t114 -66t96.5 -82.5t66.5 -108.5t24.5 -140.5q0 -194 -148 -315t-424 -121q-125 0 -241 31.5t-189 79.5q8 135 4 387l55 12q130 -420 431 -420
z" />
    <glyph glyph-name="sacute" unicode="&#x15b;" horiz-adv-x="972" 
d="M799 1448q0 -75 -85.5 -138.5t-310.5 -160.5l-24 27l227 397l33 12q76 -15 118 -50t42 -87zM508 51q70 0 106.5 35t36.5 90q0 50 -31 89.5t-80 67.5t-108.5 53.5t-119.5 56t-109 66.5t-80 93t-31 129q0 137 110.5 227.5t297.5 90.5q101 0 177.5 -23t156.5 -72
q0 -127 12 -262h-51q-85 145 -155 208t-157 63q-57 0 -90 -33t-33 -84q0 -50 31 -89t80 -65t108.5 -50.5t119 -53t108.5 -64t80 -92t31 -129.5q0 -152 -122.5 -244t-310.5 -92q-107 0 -211 25t-174 65q6 113 2 277h52q85 -159 171.5 -221t182.5 -62z" />
    <glyph glyph-name="Scircumflex" unicode="&#x15c;" horiz-adv-x="1212" 
d="M606 1761l-303 -243l-31 32l220 392h227l219 -392l-31 -32zM621 57q100 0 163.5 50t63.5 141q0 72 -40 130t-104 97.5t-141 76t-154.5 77.5t-141.5 89.5t-104 123t-40 168.5q0 181 135.5 298t372.5 117q223 0 393 -110q-9 -153 -6 -336l-55 -12q-66 188 -150.5 279
t-202.5 91q-94 0 -147 -48.5t-53 -131.5q0 -56 24.5 -102t66.5 -79t96.5 -62.5t114.5 -57t119.5 -56t114 -66t96.5 -82.5t66.5 -108.5t24.5 -140.5q0 -194 -148 -315t-424 -121q-125 0 -241 31.5t-189 79.5q8 135 4 387l55 12q130 -420 431 -420z" />
    <glyph glyph-name="scircumflex" unicode="&#x15d;" horiz-adv-x="972" 
d="M487 1386l-303 -243l-30 33l219 391h227l219 -391l-31 -33zM508 51q70 0 106.5 35t36.5 90q0 50 -31 89.5t-80 67.5t-108.5 53.5t-119.5 56t-109 66.5t-80 93t-31 129q0 137 110.5 227.5t297.5 90.5q101 0 177.5 -23t156.5 -72q0 -127 12 -262h-51q-85 145 -155 208
t-157 63q-57 0 -90 -33t-33 -84q0 -50 31 -89t80 -65t108.5 -50.5t119 -53t108.5 -64t80 -92t31 -129.5q0 -152 -122.5 -244t-310.5 -92q-107 0 -211 25t-174 65q6 113 2 277h52q85 -159 171.5 -221t182.5 -62z" />
    <glyph glyph-name="Scedilla" unicode="&#x15e;" horiz-adv-x="1212" 
d="M858 -332q0 -98 -68.5 -160.5t-179.5 -62.5q-140 0 -254 109l31 43q55 -39 123 -39q50 0 83.5 30.5t33.5 79.5q0 105 -133 125l-9 27l76 147q-125 0 -241 31.5t-189 79.5q8 135 4 387l55 12q130 -420 431 -420q100 0 163.5 50t63.5 141q0 72 -40 130t-104 97.5t-141 76
t-154.5 77.5t-141.5 89.5t-104 123t-40 168.5q0 181 135.5 298t372.5 117q223 0 393 -110q-9 -153 -6 -336l-55 -12q-66 188 -150.5 279t-202.5 91q-94 0 -147 -48.5t-53 -131.5q0 -56 24.5 -102t66.5 -79t96.5 -62.5t114.5 -57t119.5 -56t114 -66t96.5 -82.5t66.5 -108.5
t24.5 -140.5q0 -178 -127 -297t-365 -137l-66 -114q120 20 201.5 -35.5t81.5 -151.5z" />
    <glyph glyph-name="scedilla" unicode="&#x15f;" horiz-adv-x="972" 
d="M727 -332q0 -98 -68.5 -160.5t-179.5 -62.5q-140 0 -254 109l31 43q55 -39 123 -39q50 0 83.5 30.5t33.5 79.5q0 104 -134 125l-8 27l76 149q-195 12 -330 88q6 113 2 277h52q85 -159 171.5 -221t182.5 -62q70 0 106.5 35t36.5 90q0 50 -31 89.5t-80 67.5t-108.5 53.5
t-119.5 56t-109 66.5t-80 93t-31 129q0 137 110.5 227.5t297.5 90.5q101 0 177.5 -23t156.5 -72q0 -127 12 -262h-51q-85 145 -155 208t-157 63q-57 0 -90 -33t-33 -84q0 -50 31 -89t80 -65t108.5 -50.5t119 -53t108.5 -64t80 -92t31 -129.5q0 -148 -114.5 -239t-295.5 -97
l-64 -112q120 20 201.5 -35.5t81.5 -151.5z" />
    <glyph glyph-name="Scaron" unicode="&#x160;" horiz-adv-x="1212" 
d="M606 1722l316 250l30 -33l-227 -391h-240l-227 391l31 33zM621 57q100 0 163.5 50t63.5 141q0 72 -40 130t-104 97.5t-141 76t-154.5 77.5t-141.5 89.5t-104 123t-40 168.5q0 181 135.5 298t372.5 117q223 0 393 -110q-9 -153 -6 -336l-55 -12q-66 188 -150.5 279
t-202.5 91q-94 0 -147 -48.5t-53 -131.5q0 -56 24.5 -102t66.5 -79t96.5 -62.5t114.5 -57t119.5 -56t114 -66t96.5 -82.5t66.5 -108.5t24.5 -140.5q0 -194 -148 -315t-424 -121q-125 0 -241 31.5t-189 79.5q8 135 4 387l55 12q130 -420 431 -420z" />
    <glyph glyph-name="scaron" unicode="&#x161;" horiz-adv-x="972" 
d="M492 1348l315 249l31 -32l-228 -391h-239l-228 391l31 32zM508 51q70 0 106.5 35t36.5 90q0 50 -31 89.5t-80 67.5t-108.5 53.5t-119.5 56t-109 66.5t-80 93t-31 129q0 137 110.5 227.5t297.5 90.5q101 0 177.5 -23t156.5 -72q0 -127 12 -262h-51q-85 145 -155 208
t-157 63q-57 0 -90 -33t-33 -84q0 -50 31 -89t80 -65t108.5 -50.5t119 -53t108.5 -64t80 -92t31 -129.5q0 -152 -122.5 -244t-310.5 -92q-107 0 -211 25t-174 65q6 113 2 277h52q85 -159 171.5 -221t182.5 -62z" />
    <glyph glyph-name="uni0162" unicode="&#x162;" horiz-adv-x="1423" 
d="M551 369v950h-88q-84 0 -149 -72.5t-136 -242.5l-47 -115l-57 8q27 288 30 502q605 -16 1217 0q3 -227 29 -502l-58 -8l-47 115q-74 177 -139.5 246t-147.5 69h-86v-950q0 -60 0.5 -94t2 -69t5.5 -52t8.5 -33t14.5 -23t20.5 -12t28.5 -8l64 -10v-72q-306 16 -608 0v72
l61 10q21 4 33 8.5t22 18.5t14.5 30t8 52t4 74.5t0.5 107.5zM543 -635l-29 45l53 47q148 125 -22 322l12 37q65 59 145 59q75 0 121.5 -48.5t46.5 -113.5q0 -93 -78.5 -171.5t-248.5 -176.5z" />
    <glyph glyph-name="uni0163" unicode="&#x163;" horiz-adv-x="761" 
d="M47 1004q74 9 134.5 38.5t105 76t76 96.5t59.5 114l53 -12v-301h240v-103h-240v-557q0 -106 25.5 -150t81.5 -44q74 0 133 59l33 -35q-76 -120 -145 -169.5t-165 -49.5q-142 0 -204 91t-62 284v571h-125v91zM227 -635l-28 45l53 47q76 68 69 145.5t-92 176.5l13 37
q65 59 145 59q75 0 121.5 -48.5t46.5 -113.5q0 -93 -79 -171.5t-249 -176.5z" />
    <glyph glyph-name="Tcaron" unicode="&#x164;" horiz-adv-x="1423" 
d="M711 1722l315 250l31 -33l-228 -391h-239l-228 391l31 33zM551 369v950h-88q-84 0 -149 -72.5t-136 -242.5l-47 -115l-57 8q27 288 30 502q605 -16 1217 0q3 -227 29 -502l-58 -8l-47 115q-74 177 -139.5 246t-147.5 69h-86v-950q0 -60 0.5 -94t2 -69t5.5 -52t8.5 -33
t14.5 -23t20.5 -12t28.5 -8l64 -10v-72q-306 16 -608 0v72l61 10q21 4 33 8.5t22 18.5t14.5 30t8 52t4 74.5t0.5 107.5z" />
    <glyph glyph-name="tcaron" unicode="&#x165;" horiz-adv-x="806" 
d="M580 1597q52 27 94 27q58 0 91.5 -34t33.5 -93q0 -47 -22 -93.5t-51.5 -82t-71.5 -94.5t-70 -117l-35 8l6 447zM47 1004q74 9 134.5 38.5t105 76t76 96.5t59.5 114l53 -12v-301h240v-103h-240v-557q0 -106 25.5 -150t81.5 -44q74 0 133 59l33 -35q-76 -120 -145 -169.5
t-165 -49.5q-142 0 -204 91t-62 284v571h-125v91z" />
    <glyph glyph-name="Tbar" unicode="&#x166;" horiz-adv-x="1423" 
d="M1016 68v-72q-306 16 -608 0v72l61 10q21 4 33 8.5t22 18.5t14.5 30t8 52t4 74.5t0.5 107.5v254h-264v92h264v604h-88q-84 0 -149 -72.5t-136 -242.5l-47 -115l-57 8q27 288 30 502q605 -16 1217 0q3 -227 29 -502l-58 -8l-47 115q-74 177 -139.5 246t-147.5 69h-86v-604
h265v-92h-265v-254q0 -60 0.5 -94t2 -69t5.5 -52t8.5 -33t14.5 -23t20.5 -12t28.5 -8z" />
    <glyph glyph-name="tbar" unicode="&#x167;" horiz-adv-x="761" 
d="M748 186q-76 -120 -145 -169.5t-165 -49.5q-142 0 -204 91t-62 284v223h-125v92h125v256h-125v91q74 9 134.5 38.5t105 76t76 96.5t59.5 114l53 -12v-301h240v-103h-240v-256h240v-92h-240v-209q0 -106 25.5 -150t81.5 -44q74 0 133 59z" />
    <glyph glyph-name="Utilde" unicode="&#x168;" horiz-adv-x="1474" 
d="M449 1583q57 326 219 326q58 0 147 -47t143 -47q79 0 129 122l46 -18q-56 -340 -222 -340q-47 0 -97 23.5t-99.5 47t-96.5 23.5q-82 0 -126 -108zM213 1022q0 191 -11.5 235t-70.5 56l-57 10v74q305 -19 600 0v-74l-58 -10q-25 -5 -38 -13.5t-23 -23t-13.5 -51t-5 -78.5
t-1.5 -125v-549q0 -385 311 -385q325 0 319 453l-4 534q-1 98 -10.5 145t-28.5 65.5t-61 27.5l-49 10v74q205 -13 397 0v-74l-57 -12q-33 -8 -50 -25.5t-27.5 -67t-10.5 -141.5v-549q0 -152 -38 -262.5t-108.5 -174.5t-162 -94t-207.5 -30q-92 0 -170 16t-146.5 53
t-116 94.5t-75 145t-27.5 199.5v547z" />
    <glyph glyph-name="utilde" unicode="&#x169;" horiz-adv-x="1327" 
d="M338 1208q57 326 219 326q58 0 147.5 -47t143.5 -47q79 0 129 123l45 -19q-56 -340 -221 -340q-47 0 -97 23.5t-99.5 47t-96.5 23.5q-83 0 -127 -108zM1282 51q-205 -17 -405 -84q-24 81 -33 207q-43 -64 -87.5 -107t-112 -71.5t-148.5 -28.5q-68 0 -125.5 18.5
t-104.5 58t-73.5 109t-26.5 162.5v248q0 243 -14 301t-84 70l-39 6v76q160 0 251 7t179 30l18 -19q-8 -153 -8 -426v-254q0 -98 42.5 -144t117.5 -46q106 0 211 78v325q0 244 -12.5 301.5t-77.5 69.5l-35 4v74q151 0 240 7t175 30l21 -17q-8 -148 -8 -409v-252
q0 -71 1.5 -108.5t5 -68.5t13.5 -43t23 -18t37 -8l57 -4z" />
    <glyph glyph-name="Umacron" unicode="&#x16a;" horiz-adv-x="1474" 
d="M473 1618v176h633v-176h-633zM213 1022q0 191 -11.5 235t-70.5 56l-57 10v74q305 -19 600 0v-74l-58 -10q-25 -5 -38 -13.5t-23 -23t-13.5 -51t-5 -78.5t-1.5 -125v-549q0 -385 311 -385q325 0 319 453l-4 534q-1 98 -10.5 145t-28.5 65.5t-61 27.5l-49 10v74
q205 -13 397 0v-74l-57 -12q-33 -8 -50 -25.5t-27.5 -67t-10.5 -141.5v-549q0 -152 -38 -262.5t-108.5 -174.5t-162 -94t-207.5 -30q-92 0 -170 16t-146.5 53t-116 94.5t-75 145t-27.5 199.5v547z" />
    <glyph glyph-name="umacron" unicode="&#x16b;" horiz-adv-x="1327" 
d="M350 1243v176h633v-176h-633zM1282 51q-205 -17 -405 -84q-24 81 -33 207q-43 -64 -87.5 -107t-112 -71.5t-148.5 -28.5q-68 0 -125.5 18.5t-104.5 58t-73.5 109t-26.5 162.5v248q0 243 -14 301t-84 70l-39 6v76q160 0 251 7t179 30l18 -19q-8 -153 -8 -426v-254
q0 -98 42.5 -144t117.5 -46q106 0 211 78v325q0 244 -12.5 301.5t-77.5 69.5l-35 4v74q151 0 240 7t175 30l21 -17q-8 -148 -8 -409v-252q0 -71 1.5 -108.5t5 -68.5t13.5 -43t23 -18t37 -8l57 -4z" />
    <glyph glyph-name="Ubreve" unicode="&#x16c;" horiz-adv-x="1474" 
d="M1094 1946q0 -192 -74 -298t-223 -106q-150 0 -224.5 105.5t-74.5 298.5h51q29 -183 248 -183q105 0 168 48t77 135h52zM213 1022q0 191 -11.5 235t-70.5 56l-57 10v74q305 -19 600 0v-74l-58 -10q-25 -5 -38 -13.5t-23 -23t-13.5 -51t-5 -78.5t-1.5 -125v-549
q0 -385 311 -385q325 0 319 453l-4 534q-1 98 -10.5 145t-28.5 65.5t-61 27.5l-49 10v74q205 -13 397 0v-74l-57 -12q-33 -8 -50 -25.5t-27.5 -67t-10.5 -141.5v-549q0 -152 -38 -262.5t-108.5 -174.5t-162 -94t-207.5 -30q-92 0 -170 16t-146.5 53t-116 94.5t-75 145
t-27.5 199.5v547z" />
    <glyph glyph-name="ubreve" unicode="&#x16d;" horiz-adv-x="1327" 
d="M967 1571q0 -192 -74 -298t-223 -106q-150 0 -224.5 105.5t-74.5 298.5h51q28 -182 248 -182q105 0 168 47.5t77 134.5h52zM1282 51q-205 -17 -405 -84q-24 81 -33 207q-43 -64 -87.5 -107t-112 -71.5t-148.5 -28.5q-68 0 -125.5 18.5t-104.5 58t-73.5 109t-26.5 162.5
v248q0 243 -14 301t-84 70l-39 6v76q160 0 251 7t179 30l18 -19q-8 -153 -8 -426v-254q0 -98 42.5 -144t117.5 -46q106 0 211 78v325q0 244 -12.5 301.5t-77.5 69.5l-35 4v74q151 0 240 7t175 30l21 -17q-8 -148 -8 -409v-252q0 -71 1.5 -108.5t5 -68.5t13.5 -43t23 -18
t37 -8l57 -4z" />
    <glyph glyph-name="Uring" unicode="&#x16e;" horiz-adv-x="1474" 
d="M1071 1796q0 -112 -78.5 -190t-189.5 -78q-113 0 -192 78t-79 190t79 190t192 78q111 0 189.5 -78t78.5 -190zM637 1796q0 -75 47.5 -124.5t118.5 -49.5q68 0 116 50t48 124q0 71 -48.5 122.5t-115.5 51.5q-70 0 -118 -51.5t-48 -122.5zM213 1022q0 191 -11.5 235
t-70.5 56l-57 10v74q305 -19 600 0v-74l-58 -10q-25 -5 -38 -13.5t-23 -23t-13.5 -51t-5 -78.5t-1.5 -125v-549q0 -385 311 -385q325 0 319 453l-4 534q-1 98 -10.5 145t-28.5 65.5t-61 27.5l-49 10v74q205 -13 397 0v-74l-57 -12q-33 -8 -50 -25.5t-27.5 -67t-10.5 -141.5
v-549q0 -152 -38 -262.5t-108.5 -174.5t-162 -94t-207.5 -30q-92 0 -170 16t-146.5 53t-116 94.5t-75 145t-27.5 199.5v547z" />
    <glyph glyph-name="uring" unicode="&#x16f;" horiz-adv-x="1327" 
d="M942 1421q0 -112 -78.5 -190t-189.5 -78q-113 0 -192 78t-79 190t79 190.5t192 78.5q111 0 189.5 -78.5t78.5 -190.5zM508 1421q0 -75 47.5 -124.5t118.5 -49.5q68 0 116 50t48 124q0 71 -48.5 122.5t-115.5 51.5q-70 0 -118 -51.5t-48 -122.5zM1282 51
q-205 -17 -405 -84q-24 81 -33 207q-43 -64 -87.5 -107t-112 -71.5t-148.5 -28.5q-68 0 -125.5 18.5t-104.5 58t-73.5 109t-26.5 162.5v248q0 243 -14 301t-84 70l-39 6v76q160 0 251 7t179 30l18 -19q-8 -153 -8 -426v-254q0 -98 42.5 -144t117.5 -46q106 0 211 78v325
q0 244 -12.5 301.5t-77.5 69.5l-35 4v74q151 0 240 7t175 30l21 -17q-8 -148 -8 -409v-252q0 -71 1.5 -108.5t5 -68.5t13.5 -43t23 -18t37 -8l57 -4z" />
    <glyph glyph-name="Uhungarumlaut" unicode="&#x170;" horiz-adv-x="1474" 
d="M895 1812q0 -63 -77 -132.5t-261 -155.5l-27 26l189 387l33 11q69 -12 106 -47.5t37 -88.5zM1257 1812q0 -63 -78 -131.5t-266 -156.5l-24 26l192 387l33 11q68 -12 105.5 -48t37.5 -88zM213 1022q0 191 -11.5 235t-70.5 56l-57 10v74q305 -19 600 0v-74l-58 -10
q-25 -5 -38 -13.5t-23 -23t-13.5 -51t-5 -78.5t-1.5 -125v-549q0 -385 311 -385q325 0 319 453l-4 534q-1 98 -10.5 145t-28.5 65.5t-61 27.5l-49 10v74q205 -13 397 0v-74l-57 -12q-33 -8 -50 -25.5t-27.5 -67t-10.5 -141.5v-549q0 -152 -38 -262.5t-108.5 -174.5t-162 -94
t-207.5 -30q-92 0 -170 16t-146.5 53t-116 94.5t-75 145t-27.5 199.5v547z" />
    <glyph glyph-name="uhungarumlaut" unicode="&#x171;" horiz-adv-x="1327" 
d="M772 1438q0 -63 -77 -133t-261 -156l-26 27l188 387l33 10q69 -12 106 -47t37 -88zM1135 1438q0 -63 -78 -132t-266 -157l-25 27l192 387l33 10q68 -12 106 -47.5t38 -87.5zM1282 51q-205 -17 -405 -84q-24 81 -33 207q-43 -64 -87.5 -107t-112 -71.5t-148.5 -28.5
q-68 0 -125.5 18.5t-104.5 58t-73.5 109t-26.5 162.5v248q0 243 -14 301t-84 70l-39 6v76q160 0 251 7t179 30l18 -19q-8 -153 -8 -426v-254q0 -98 42.5 -144t117.5 -46q106 0 211 78v325q0 244 -12.5 301.5t-77.5 69.5l-35 4v74q151 0 240 7t175 30l21 -17q-8 -148 -8 -409
v-252q0 -71 1.5 -108.5t5 -68.5t13.5 -43t23 -18t37 -8l57 -4z" />
    <glyph glyph-name="Uogonek" unicode="&#x172;" horiz-adv-x="1474" 
d="M1053 -367q-106 -188 -277 -188q-86 0 -145.5 52t-59.5 143q0 94 75.5 181t211.5 154q-70 -8 -110 -8q-92 0 -170 16t-146.5 53t-116 94.5t-75 145t-27.5 199.5v547q0 191 -11.5 235t-70.5 56l-57 10v74q305 -19 600 0v-74l-58 -10q-25 -5 -38 -13.5t-23 -23t-13.5 -51
t-5 -78.5t-1.5 -125v-549q0 -385 311 -385q325 0 319 453l-4 534q-1 98 -10.5 145t-28.5 65.5t-61 27.5l-49 10v74q205 -13 397 0v-74l-57 -12q-33 -8 -50 -25.5t-27.5 -67t-10.5 -141.5v-549q0 -107 -16.5 -188.5t-50.5 -140.5t-74.5 -99.5t-98.5 -79.5q-111 -71 -160 -137
t-49 -151q0 -125 107 -125q31 0 53 12.5t47 40.5z" />
    <glyph glyph-name="uogonek" unicode="&#x173;" horiz-adv-x="1327" 
d="M1262 -367q-106 -188 -277 -188q-86 0 -145.5 52t-59.5 143q0 116 104.5 223t278.5 174q-167 -27 -286 -70q-24 81 -33 207q-43 -64 -87.5 -107t-112 -71.5t-148.5 -28.5q-68 0 -125.5 18.5t-104.5 58t-73.5 109t-26.5 162.5v248q0 243 -14 301t-84 70l-39 6v76
q160 0 251 7t179 30l18 -19q-8 -153 -8 -426v-254q0 -98 42.5 -144t117.5 -46q106 0 211 78v325q0 244 -12.5 301.5t-77.5 69.5l-35 4v74q151 0 240 7t175 30l21 -17q-8 -148 -8 -409v-252q0 -71 1.5 -108.5t5 -68.5t13.5 -43t23 -18t37 -8l57 -4l2 -74
q-90 -34 -149.5 -86.5t-84 -108.5t-24.5 -118q0 -131 106 -131q54 0 101 53z" />
    <glyph glyph-name="Wcircumflex" unicode="&#x174;" horiz-adv-x="2174" 
d="M1133 1761l-304 -243l-30 32l219 392h227l219 -392l-30 -32zM1952 1112l-377 -1114q-98 6 -191 0l-280 811l-297 -811q-104 6 -205 0l-409 1124q-40 112 -68 150t-64 45l-38 6v74q319 -18 581 0v-74l-39 -8q-27 -6 -41 -20.5t-12.5 -54t25.5 -103.5l303 -820l221 617
l-66 190q-29 81 -47.5 120t-34.5 53.5t-41 19.5l-38 6v74q329 -18 598 0v-74l-46 -8q-41 -9 -56.5 -22.5t-14.5 -49.5t24 -106l263 -801l245 794q26 90 8 131.5t-81 53.5l-35 8v74q184 -16 413 0v-74l-34 -8q-56 -12 -95.5 -60.5t-70.5 -142.5z" />
    <glyph glyph-name="wcircumflex" unicode="&#x175;" horiz-adv-x="1849" 
d="M965 1386l-303 -243l-31 33l219 391h227l219 -391l-30 -33zM1612 674l-248 -676q-97 6 -190 0l-246 647l-230 -647q-103 6 -202 0l-306 758q-43 103 -68 139t-63 43l-41 8v74q278 -15 576 0v-74l-49 -14q-43 -11 -47 -43t28 -121l189 -518l172 506q-38 100 -59.5 135.5
t-51.5 44.5l-37 10v74q260 -15 533 0v-74l-39 -12q-49 -13 -54.5 -42.5t25.5 -121.5l176 -520l146 444q38 125 30 176t-65 66l-39 10v74q191 -15 379 0v-74l-33 -10q-53 -16 -94.5 -71.5t-91.5 -190.5z" />
    <glyph glyph-name="Ycircumflex" unicode="&#x176;" horiz-adv-x="1382" 
d="M745 1761l-303 -243l-30 32l219 392h227l219 -392l-30 -32zM997 68v-72q-302 17 -604 0v72l66 8q19 3 30.5 7t21 18.5t13.5 30t7 53.5t3.5 75.5t0.5 108.5v219l-299 516q-54 93 -83.5 136t-48.5 57.5t-47 19.5l-34 6v74q263 -17 647 0v-74l-41 -8q-50 -10 -72.5 -28
t-18.5 -58t42 -105l239 -407l199 397q26 50 32 88.5t-5 61t-29.5 34.5t-44.5 17l-41 8v74q94 -9 215 -9t215 9v-74l-43 -10q-43 -9 -86.5 -54.5t-106.5 -154.5l-266 -473v-262q0 -71 0.5 -108.5t3.5 -75.5t7 -53.5t13.5 -30t21 -18.5t30.5 -7z" />
    <glyph glyph-name="ycircumflex" unicode="&#x177;" horiz-adv-x="1193" 
d="M641 1386l-303 -243l-31 33l219 391h228l219 -391l-31 -33zM674 25q-64 -152 -118 -250t-102.5 -149t-90.5 -70t-93 -19q-149 0 -153 193l14 32q65 2 111.5 6t96 13.5t85 26.5t69.5 44t60 66.5t47 93.5l4 8h-88l-326 728q-54 121 -82.5 154.5t-89.5 43.5v74
q280 -15 570 0v-74l-47 -12q-53 -13 -56 -52t35 -126l191 -457l143 373q36 94 44 149.5t-5 78.5t-47 34l-43 12v74q197 -12 373 0v-74l-33 -8q-50 -11 -94.5 -70.5t-116.5 -228.5z" />
    <glyph glyph-name="Ydieresis" unicode="&#x178;" horiz-adv-x="1382" 
d="M696 1729q0 -65 -45.5 -110.5t-113.5 -45.5q-70 0 -116 45.5t-46 110.5q0 68 46 112.5t116 44.5q68 0 113.5 -45t45.5 -112zM1135 1729q0 -66 -45.5 -111t-116.5 -45q-67 0 -113.5 45.5t-46.5 110.5q0 67 46 112t114 45q70 0 116 -44.5t46 -112.5zM997 68v-72
q-302 17 -604 0v72l66 8q19 3 30.5 7t21 18.5t13.5 30t7 53.5t3.5 75.5t0.5 108.5v219l-299 516q-54 93 -83.5 136t-48.5 57.5t-47 19.5l-34 6v74q263 -17 647 0v-74l-41 -8q-50 -10 -72.5 -28t-18.5 -58t42 -105l239 -407l199 397q26 50 32 88.5t-5 61t-29.5 34.5t-44.5 17
l-41 8v74q94 -9 215 -9t215 9v-74l-43 -10q-43 -9 -86.5 -54.5t-106.5 -154.5l-266 -473v-262q0 -71 0.5 -108.5t3.5 -75.5t7 -53.5t13.5 -30t21 -18.5t30.5 -7z" />
    <glyph glyph-name="Zacute" unicode="&#x179;" horiz-adv-x="1323" 
d="M997 1823q0 -75 -85 -138.5t-310 -160.5l-24 26l227 398l33 12q76 -15 117.5 -50t41.5 -87zM1163 -6q-536 15 -1075 0v35l741 1282l-194 -6q-164 -6 -258.5 -78.5t-169.5 -239.5l-31 -65l-49 12q27 152 47 463q517 -19 1028 0v-37l-739 -1278l221 8q176 3 279.5 72
t177.5 231l35 80l57 -14q-51 -225 -70 -465z" />
    <glyph glyph-name="zacute" unicode="&#x17a;" horiz-adv-x="1093" 
d="M889 1448q0 -75 -85 -138.5t-310 -160.5l-25 27l227 397l33 12q76 -15 118 -50t42 -87zM1018 367q-25 -227 -25 -371q-451 16 -915 0v59l551 879q-98 -2 -160.5 -10t-110.5 -23.5t-82 -49t-60 -74t-58 -111.5l-54 8q23 154 33 346q423 -18 840 0v-62l-561 -880
q99 2 163 6.5t121 17.5t91.5 32t67.5 54.5t56 78.5t50 110z" />
    <glyph glyph-name="Zdotaccent" unicode="&#x17b;" horiz-adv-x="1323" 
d="M858 1741q0 -79 -52.5 -133t-131.5 -54t-133 54.5t-54 132.5t54 131t133 53t131.5 -53t52.5 -131zM1163 -6q-536 15 -1075 0v35l741 1282l-194 -6q-164 -6 -258.5 -78.5t-169.5 -239.5l-31 -65l-49 12q27 152 47 463q517 -19 1028 0v-37l-739 -1278l221 8q176 3 279.5 72
t177.5 231l35 80l57 -14q-51 -225 -70 -465z" />
    <glyph glyph-name="zdotaccent" unicode="&#x17c;" horiz-adv-x="1093" 
d="M748 1366q0 -78 -53 -132t-132 -54t-132.5 54t-53.5 132t53.5 131t132.5 53t132 -53t53 -131zM1018 367q-25 -227 -25 -371q-451 16 -915 0v59l551 879q-98 -2 -160.5 -10t-110.5 -23.5t-82 -49t-60 -74t-58 -111.5l-54 8q23 154 33 346q423 -18 840 0v-62l-561 -880
q99 2 163 6.5t121 17.5t91.5 32t67.5 54.5t56 78.5t50 110z" />
    <glyph glyph-name="Zcaron" unicode="&#x17d;" horiz-adv-x="1323" 
d="M674 1722l315 250l31 -33l-227 -391h-240l-227 391l30 33zM1163 -6q-536 15 -1075 0v35l741 1282l-194 -6q-164 -6 -258.5 -78.5t-169.5 -239.5l-31 -65l-49 12q27 152 47 463q517 -19 1028 0v-37l-739 -1278l221 8q176 3 279.5 72t177.5 231l35 80l57 -14
q-51 -225 -70 -465z" />
    <glyph glyph-name="zcaron" unicode="&#x17e;" horiz-adv-x="1093" 
d="M561 1348l316 249l30 -32l-227 -391h-240l-227 391l31 32zM1018 367q-25 -227 -25 -371q-451 16 -915 0v59l551 879q-98 -2 -160.5 -10t-110.5 -23.5t-82 -49t-60 -74t-58 -111.5l-54 8q23 154 33 346q423 -18 840 0v-62l-561 -880q99 2 163 6.5t121 17.5t91.5 32
t67.5 54.5t56 78.5t50 110z" />
    <glyph glyph-name="uni0191" unicode="&#x191;" horiz-adv-x="1202" 
d="M184 -201l-69 -12l-15 45l37 21q42 22 61 65t25 125t6 262v742q-1 92 -3 136t-11 75.5t-22.5 40.5t-40.5 14l-62 10v74q419 -17 1006 0q-6 -177 4 -389l-43 -13q-56 184 -121 247t-203 63h-182v-576l117 6q102 3 145 37.5t68 124.5l10 35h53q-16 -266 0 -475h-53l-10 32
q-24 86 -68.5 123t-144.5 41l-117 4v-356q0 -228 -85 -348.5t-282 -153.5z" />
    <glyph glyph-name="uni0192" unicode="&#x192;" horiz-adv-x="768" 
d="M137 -428l-67 -21l-23 50l35 20q45 28 66.5 69.5t30.5 122.5t9 238v864h-125v89l125 12v8q0 211 112.5 349t301.5 138q130 0 215.5 -60.5t85.5 -135.5q0 -60 -36 -91t-97 -34l-37 8q-18 48 -27.5 72t-24 58t-25 50t-24.5 33.5t-29 24t-32 6.5q-44 0 -61.5 -48.5
t-17.5 -152.5v-225h219v-101h-219v-870q0 -111 -18.5 -187t-62.5 -131t-108.5 -90t-165.5 -65z" />
    <glyph glyph-name="uni0218" unicode="&#x218;" horiz-adv-x="1212" 
d="M621 57q100 0 163.5 50t63.5 141q0 72 -40 130t-104 97.5t-141 76t-154.5 77.5t-141.5 89.5t-104 123t-40 168.5q0 181 135.5 298t372.5 117q223 0 393 -110q-9 -153 -6 -336l-55 -12q-66 188 -150.5 279t-202.5 91q-94 0 -147 -48.5t-53 -131.5q0 -56 24.5 -102
t66.5 -79t96.5 -62.5t114.5 -57t119.5 -56t114 -66t96.5 -82.5t66.5 -108.5t24.5 -140.5q0 -194 -148 -315t-424 -121q-125 0 -241 31.5t-189 79.5q8 135 4 387l55 12q130 -420 431 -420zM440 -635l-28 45l53 47q76 68 69 145.5t-92 176.5l13 37q65 59 145 59
q75 0 121.5 -48.5t46.5 -113.5q0 -93 -79 -171.5t-249 -176.5z" />
    <glyph glyph-name="uni0219" unicode="&#x219;" horiz-adv-x="972" 
d="M508 51q70 0 106.5 35t36.5 90q0 50 -31 89.5t-80 67.5t-108.5 53.5t-119.5 56t-109 66.5t-80 93t-31 129q0 137 110.5 227.5t297.5 90.5q101 0 177.5 -23t156.5 -72q0 -127 12 -262h-51q-85 145 -155 208t-157 63q-57 0 -90 -33t-33 -84q0 -50 31 -89t80 -65
t108.5 -50.5t119 -53t108.5 -64t80 -92t31 -129.5q0 -152 -122.5 -244t-310.5 -92q-107 0 -211 25t-174 65q6 113 2 277h52q85 -159 171.5 -221t182.5 -62zM328 -635l-29 45l53 47q148 125 -22 322l12 37q65 59 145 59q75 0 121.5 -48.5t46.5 -113.5q0 -93 -78.5 -171.5
t-248.5 -176.5z" />
    <glyph glyph-name="uni021A" unicode="&#x21a;" horiz-adv-x="1423" 
d="M551 369v950h-88q-84 0 -149 -72.5t-136 -242.5l-47 -115l-57 8q27 288 30 502q605 -16 1217 0q3 -227 29 -502l-58 -8l-47 115q-74 177 -139.5 246t-147.5 69h-86v-950q0 -60 0.5 -94t2 -69t5.5 -52t8.5 -33t14.5 -23t20.5 -12t28.5 -8l64 -10v-72q-306 16 -608 0v72
l61 10q21 4 33 8.5t22 18.5t14.5 30t8 52t4 74.5t0.5 107.5zM543 -635l-29 45l53 47q148 125 -22 322l12 37q65 59 145 59q75 0 121.5 -48.5t46.5 -113.5q0 -93 -78.5 -171.5t-248.5 -176.5z" />
    <glyph glyph-name="uni021B" unicode="&#x21b;" horiz-adv-x="761" 
d="M47 1004q74 9 134.5 38.5t105 76t76 96.5t59.5 114l53 -12v-301h240v-103h-240v-557q0 -106 25.5 -150t81.5 -44q74 0 133 59l33 -35q-76 -120 -145 -169.5t-165 -49.5q-142 0 -204 91t-62 284v571h-125v91zM227 -635l-28 45l53 47q76 68 69 145.5t-92 176.5l13 37
q65 59 145 59q75 0 121.5 -48.5t46.5 -113.5q0 -93 -79 -171.5t-249 -176.5z" />
    <glyph glyph-name="dotlessj" unicode="&#x237;" horiz-adv-x="649" 
d="M190 51v512q0 246 -14 303t-86 70l-39 6v74q162 0 252.5 7t181.5 30l17 -19q-8 -148 -8 -409v-580q0 -111 -18 -187t-61.5 -131t-108 -90t-165.5 -65l-71 -21l-21 50l35 20q45 28 66.5 69.5t30.5 122.5t9 238z" />
    <glyph glyph-name="circumflex" unicode="&#x2c6;" 
d="M512 1386l-303 -243l-31 33l219 391h228l219 -391l-31 -33z" />
    <glyph glyph-name="caron" unicode="&#x2c7;" 
d="M512 1348l315 249l31 -32l-227 -391h-240l-227 391l31 32z" />
    <glyph glyph-name="breve" unicode="&#x2d8;" 
d="M809 1571q0 -192 -74 -298t-223 -106q-150 0 -224.5 105.5t-74.5 298.5h51q28 -182 248 -182q105 0 168.5 47.5t77.5 134.5h51z" />
    <glyph glyph-name="dotaccent" unicode="&#x2d9;" 
d="M696 1366q0 -79 -52.5 -132.5t-131.5 -53.5t-132.5 54t-53.5 132t53.5 131t132.5 53t131.5 -53t52.5 -131z" />
    <glyph glyph-name="ring" unicode="&#x2da;" 
d="M780 1421q0 -112 -78.5 -190t-189.5 -78q-113 0 -191.5 78t-78.5 190t78.5 190.5t191.5 78.5q111 0 189.5 -78.5t78.5 -190.5zM346 1421q0 -75 47.5 -124.5t118.5 -49.5q68 0 116 50t48 124q0 71 -48.5 122.5t-115.5 51.5q-70 0 -118 -51.5t-48 -122.5z" />
    <glyph glyph-name="ogonek" unicode="&#x2db;" 
d="M702 39l9 -12q-217 -117 -217 -295q0 -125 108 -125q51 0 98 53l31 -27q-106 -188 -274 -188q-88 0 -147.5 52t-59.5 143q0 121 122 227.5t330 171.5z" />
    <glyph glyph-name="tilde" unicode="&#x2dc;" 
d="M170 1208q57 326 219 326q58 0 147.5 -47t143.5 -47q79 0 129 123l45 -19q-56 -340 -221 -340q-47 0 -97 23.5t-99.5 47t-96.5 23.5q-83 0 -127 -108z" />
    <glyph glyph-name="hungarumlaut" unicode="&#x2dd;" 
d="M578 1438q0 -63 -77 -133t-261 -156l-27 27l188 387l33 10q69 -12 106.5 -47t37.5 -88zM940 1438q0 -63 -78 -132t-266 -157l-25 27l193 387l33 10q68 -12 105.5 -47.5t37.5 -87.5z" />
    <glyph glyph-name="Delta" unicode="&#x394;" horiz-adv-x="1409" 
d="M31 0l-4 55l565 1338h219l571 -1338l-4 -55h-1347zM180 180h772l-385 936z" />
    <glyph glyph-name="mu" unicode="&#x3bc;" horiz-adv-x="1339" 
d="M375 -250q0 -82 -39.5 -139t-118.5 -57q-72 0 -119 53t-47 143q0 53 18.5 117t41 117.5t41 138t18.5 172.5v721h305v-637q0 -104 42 -156.5t114 -52.5q90 0 153 63v783h306v-744q0 -58 16.5 -82t60.5 -24q55 0 103 53l33 -26q-97 -226 -295 -226q-187 0 -217 199
q-46 -93 -118.5 -146t-164.5 -53q-102 0 -161.5 65.5t-84.5 223.5h-31q0 -82 22.5 -158.5t49.5 -125t49.5 -109t22.5 -113.5z" />
    <glyph glyph-name="uni0400" unicode="&#x400;" horiz-adv-x="1302" 
d="M365 1823q0 51 41.5 87t115.5 50l33 -12l229 -398l-26 -26q-224 96 -308.5 159.5t-84.5 139.5zM1235 401q-57 -236 -72 -405q-620 15 -1075 0v72l64 10q35 6 49.5 27.5t20 75t5.5 179.5v668q0 127 -5.5 181t-20 76t-49.5 28l-64 10v74q424 -16 1049 0q-6 -180 4 -391
l-49 -13q-69 194 -130.5 254t-193.5 60h-219v-576l139 6q103 4 145.5 38.5t71.5 125.5l13 33h51q-16 -264 0 -475h-51l-13 33q-28 88 -71.5 123.5t-145.5 39.5l-139 7v-338q0 -142 43 -194t162 -52h67q69 0 121 26t112.5 100.5t135.5 213.5z" />
    <glyph glyph-name="afii10023" unicode="&#x401;" horiz-adv-x="1302" 
d="M590 1729q0 -65 -46 -110.5t-114 -45.5q-70 0 -116 45.5t-46 110.5q0 68 46 112.5t116 44.5q68 0 114 -45t46 -112zM1028 1729q0 -66 -45.5 -111t-116.5 -45q-67 0 -113 45.5t-46 110.5q0 67 45.5 112t113.5 45q70 0 116 -44.5t46 -112.5zM1235 401q-57 -236 -72 -405
q-620 15 -1075 0v72l64 10q35 6 49.5 27.5t20 75t5.5 179.5v668q0 127 -5.5 181t-20 76t-49.5 28l-64 10v74q424 -16 1049 0q-6 -180 4 -391l-49 -13q-69 194 -130.5 254t-193.5 60h-219v-576l139 6q103 4 145.5 38.5t71.5 125.5l13 33h51q-16 -264 0 -475h-51l-13 33
q-28 88 -71.5 123.5t-145.5 39.5l-139 7v-338q0 -142 43 -194t162 -52h67q69 0 121 26t112.5 100.5t135.5 213.5z" />
    <glyph glyph-name="afii10051" unicode="&#x402;" horiz-adv-x="1718" 
d="M1221 -252l-80 -29l-25 41l37 31q49 44 78.5 89.5t50.5 132.5t21 212v160q0 143 -59 208.5t-159 65.5q-134 0 -247 -86v-204q0 -193 10.5 -240t58.5 -53l64 -8v-72q-297 16 -594 0v72l61 10q20 3 31.5 7.5t21.5 19t14 30t7 52.5t3.5 74.5t0.5 107.5v950h-47
q-104 0 -186.5 -84t-155.5 -277l-53 9q26 266 28 432q522 -14 1153 0q2 -142 29 -400l-57 -6q-66 181 -150.5 253.5t-191.5 72.5h-47v-666q68 90 174 146.5t235 56.5q55 0 107.5 -14t103 -47t88.5 -82.5t61 -126.5t23 -172v-135q0 -204 -107 -340t-302 -191z" />
    <glyph glyph-name="afii10052" unicode="&#x403;" horiz-adv-x="1226" 
d="M977 1823q0 -75 -85 -138.5t-310 -160.5l-25 26l227 398l33 12q76 -15 118 -50t42 -87zM88 68l62 10q36 6 51 28t20.5 77.5t5.5 185.5v661q0 126 -5.5 180t-20.5 75.5t-51 27.5l-62 10v74q488 -15 1057 0q0 -192 22 -500l-53 -8q-59 168 -115 260.5t-111 126t-132 33.5
h-207v-940q0 -69 0.5 -107.5t4 -74.5t8.5 -51.5t16 -29.5t24 -18.5t35 -7.5l78 -12v-72q-329 17 -627 0v72z" />
    <glyph glyph-name="afii10053" unicode="&#x404;" horiz-adv-x="1380" 
d="M1219 51q-147 -84 -373 -84q-213 0 -380.5 89.5t-264.5 261.5t-97 401q0 199 82.5 358.5t241.5 253.5t369 94q118 0 221.5 -27t173.5 -71q2 -109 27 -395l-54 -12l-49 90q-93 170 -182 244.5t-201 74.5q-134 0 -210.5 -122.5t-76.5 -348.5q0 -18 5 -96l200 4
q101 3 144.5 37t70.5 125l8 33h54q-16 -264 0 -476h-54l-8 33q-24 86 -69.5 122.5t-145.5 39.5l-194 4q35 -269 158 -443.5t274 -174.5q45 0 80 16.5t70.5 60.5t67 99.5t79.5 154.5l43 88l49 -16q-25 -144 -59 -418z" />
    <glyph glyph-name="afii10054" unicode="&#x405;" horiz-adv-x="1216" 
d="M621 57q100 0 163.5 50t63.5 141q0 72 -40 130t-104 97.5t-141 76t-154.5 77.5t-141.5 89.5t-104 123t-40 168.5q0 181 135.5 298t372.5 117q223 0 393 -110q-9 -153 -6 -336l-55 -12q-66 188 -150.5 279t-202.5 91q-94 0 -147 -48.5t-53 -131.5q0 -56 24.5 -102
t66.5 -79t96.5 -62.5t114.5 -57t119.5 -56t114 -66t96.5 -82.5t66.5 -108.5t24.5 -140.5q0 -194 -148 -315t-424 -121q-125 0 -241 31.5t-189 79.5q8 135 4 387l55 12q130 -420 431 -420z" />
    <glyph glyph-name="afii10055" unicode="&#x406;" horiz-adv-x="778" 
d="M227 369v653q0 130 -5.5 185.5t-20 77.5t-49.5 28l-64 10v74q300 -17 600 0v-74l-61 -10q-27 -5 -41 -15t-23 -43t-11.5 -83.5t-2.5 -149.5v-653q0 -99 2.5 -149.5t11.5 -83.5t23 -43t41 -15l61 -10v-72q-300 17 -600 0v72l64 10q35 6 49.5 28t20 77.5t5.5 185.5z" />
    <glyph glyph-name="afii10056" unicode="&#x407;" horiz-adv-x="778" 
d="M332 1729q0 -65 -46 -110.5t-114 -45.5q-70 0 -116 45.5t-46 110.5q0 68 46 112.5t116 44.5q68 0 114 -45t46 -112zM770 1729q0 -66 -45.5 -111t-116.5 -45q-67 0 -113 45.5t-46 110.5q0 67 45.5 112t113.5 45q70 0 116 -44.5t46 -112.5zM227 369v653q0 130 -5.5 185.5
t-20 77.5t-49.5 28l-64 10v74q300 -17 600 0v-74l-61 -10q-27 -5 -41 -15t-23 -43t-11.5 -83.5t-2.5 -149.5v-653q0 -99 2.5 -149.5t11.5 -83.5t23 -43t41 -15l61 -10v-72q-300 17 -600 0v72l64 10q35 6 49.5 28t20 77.5t5.5 185.5z" />
    <glyph glyph-name="afii10057" unicode="&#x408;" horiz-adv-x="763" 
d="M227 1022q0 130 -5.5 185.5t-20 77.5t-49.5 28l-62 10v74q297 -19 600 0v-74l-63 -10q-27 -5 -40.5 -14.5t-22.5 -43.5t-11 -83.5t-2 -149.5v-729q0 -226 -85.5 -347.5t-281.5 -154.5l-71 -12l-15 47l39 20q40 22 58.5 65t25 126t6.5 260v725z" />
    <glyph glyph-name="afii10058" unicode="&#x409;" horiz-adv-x="2113" 
d="M887 78q39 5 56 25.5t23.5 75t6.5 179.5v940h-359l-28 -376q-12 -160 -26.5 -284.5t-36 -235t-49.5 -188.5t-65 -135t-85 -84.5t-107 -27.5q-97 0 -142 70.5t-32 177.5l39 21q66 -17 117 -17q45 0 77.5 11t63.5 42.5t52.5 88t41 146t33.5 218t25 303.5q9 132 -13 196
t-82 81l-63 16v76q549 -14 1100 0v-74l-62 -12q-36 -7 -51 -28t-21 -76t-6 -183v-186h172q276 0 427 -102.5t151 -307.5q0 -201 -182 -320t-492 -112q-420 6 -543 0v72zM1294 748v-420q0 -145 31.5 -198.5t120.5 -53.5q119 0 190.5 75.5t71.5 219.5q0 165 -104.5 271
t-272.5 106h-37z" />
    <glyph glyph-name="afii10059" unicode="&#x40a;" horiz-adv-x="2236" 
d="M2169 428q0 -200 -183 -319.5t-493 -112.5q-414 6 -535 0v72l60 10q36 4 51.5 24.5t22 76t6.5 179.5v355h-549v-344q0 -99 2.5 -149.5t11.5 -83.5t23 -43t41 -15l61 -10v-72q-298 17 -600 0v72l64 10q35 6 49.5 28t20 77.5t5.5 185.5v653q0 130 -5.5 185.5t-20 77.5
t-49.5 28l-64 10v74q300 -17 600 0v-74l-61 -10q-27 -5 -41 -15t-23 -43t-11.5 -83.5t-2.5 -149.5v-213h549v213q0 99 -2.5 149.5t-11.5 83.5t-23 43t-41 15l-62 10v74q300 -17 601 0v-74l-62 -10q-27 -5 -41 -15t-23 -43t-11.5 -83.5t-2.5 -149.5v-213h172q276 0 427 -95.5
t151 -285.5zM1419 719v-391q0 -145 30.5 -198.5t121.5 -53.5q118 0 190 75.5t72 219.5q0 152 -104.5 250t-274.5 98h-35z" />
    <glyph glyph-name="afii10060" unicode="&#x40b;" horiz-adv-x="1769" 
d="M1718 68v-72q-227 13 -454 0v481q0 99 -51 148t-138 49q-144 0 -237 -68v-237q0 -192 10.5 -239t58.5 -54l51 -8v-72q-289 16 -581 0v72l61 10q20 3 31.5 7.5t21.5 19t14 30t7 52.5t3.5 74.5t0.5 107.5v950h-47q-104 0 -186.5 -84t-155.5 -277l-53 9q26 266 28 432
q522 -14 1153 0q2 -142 29 -400l-57 -6q-66 181 -150.5 253.5t-191.5 72.5h-47v-639q65 74 171 125t224 51q69 0 129.5 -18t111 -55.5t80 -105t29.5 -157.5v-151q0 -202 11.5 -243.5t68.5 -49.5z" />
    <glyph glyph-name="afii10061" unicode="&#x40c;" horiz-adv-x="1548" 
d="M1114 1823q0 -75 -85 -138.5t-310 -160.5l-25 26l228 398l32 12q76 -15 118 -50t42 -87zM549 1024v-657q0 -98 2.5 -148t11.5 -83t23 -43t41 -15l61 -10v-72q-298 17 -600 0v72l64 10q35 6 49.5 28t20 77t5.5 184v657q0 129 -5.5 184t-20 77t-49.5 28l-64 10v74
q302 -17 600 0v-74l-61 -10q-27 -5 -41 -15t-23 -43t-11.5 -83t-2.5 -148zM1542 68v-72q-222 14 -448 0l-519 698l369 412q169 185 31 211l-43 8v72q264 -18 536 0v-72l-43 -8q-93 -17 -190 -75.5t-231 -197.5l-164 -178l444 -594q96 -123 136.5 -157.5t90.5 -42.5z" />
    <glyph glyph-name="uni040D" unicode="&#x40d;" horiz-adv-x="1669" 
d="M612 1823q0 51 42 87t116 50l33 -12l229 -398l-26 -26q-224 97 -309 160.5t-85 138.5zM1579 68v-72q-298 17 -600 0v72l61 10q27 5 41 15t23 43t11.5 83.5t2.5 149.5v684l-565 -854q6 -68 21.5 -91.5t52.5 -29.5l61 -10v-72q-298 17 -600 0v72l64 10q35 6 49.5 28
t20 77.5t5.5 185.5v653q0 130 -5.5 185.5t-20 77.5t-49.5 28l-64 10v74q300 -17 600 0v-74l-61 -10q-27 -5 -41 -15t-23 -43t-11.5 -83.5t-2.5 -149.5v-672l565 852q-6 61 -22 83t-52 28l-61 10v74q300 -17 600 0v-74l-61 -10q-27 -5 -41 -15t-23 -43t-11.5 -83.5
t-2.5 -149.5v-653q0 -99 2.5 -149.5t11.5 -83.5t23 -43t41 -15z" />
    <glyph glyph-name="afii10062" unicode="&#x40e;" horiz-adv-x="1382" 
d="M584 1855l34 -20q-29 -229 144 -229q82 0 119 57t20 172l37 20q104 0 161.5 -31t57.5 -85q0 -78 -117 -138.5t-278 -60.5q-162 0 -279.5 60.5t-117.5 138.5q0 54 57 85t162 31zM838 444q-64 -143 -108.5 -226.5t-92.5 -144t-95.5 -83.5t-109.5 -23q-84 0 -128.5 76
t-22.5 174l43 21q77 -32 157 -25q81 3 136.5 38t105.5 126h-105l-393 762q-50 97 -78.5 128.5t-68.5 41.5l-55 14v74q306 -16 622 0v-74l-39 -8q-29 -7 -42.5 -21.5t-9 -51t33.5 -95.5l250 -502l176 430q25 60 34.5 103t8 66.5t-15.5 39t-27 20t-35 9.5l-55 10v74
q219 -17 434 0v-74l-45 -12q-42 -10 -68 -30.5t-59 -76t-86 -172.5z" />
    <glyph glyph-name="afii10145" unicode="&#x40f;" horiz-adv-x="1593" 
d="M834 -354l-9 -49h-61l-6 49q-13 86 -25 138.5t-30.5 98t-46 68.5t-66.5 35.5t-96 13.5q-289 0 -414 -4v70l61 10q36 6 51 27.5t21 77t6 186.5v655q0 131 -6 186.5t-21 77t-51 27.5l-61 10v74q300 -17 600 0v-74l-62 -10q-36 -6 -51 -27.5t-20.5 -77t-5.5 -186.5v-924h510
v924q0 131 -6 186.5t-21 77t-51 27.5l-62 10v74q300 -17 600 0v-74l-61 -10q-36 -6 -51 -27.5t-21 -77t-6 -186.5v-655q0 -129 6.5 -186t21.5 -78t50 -27l61 -10v-70q-119 4 -417 4q-56 0 -95 -13t-65.5 -36t-45 -69t-30 -98t-24.5 -138z" />
    <glyph glyph-name="afii10017" unicode="&#x410;" horiz-adv-x="1458" 
d="M1434 68v-72q-316 13 -625 0v72l37 8q48 12 67.5 28.5t18.5 52t-27 103.5l-57 160h-459l-51 -150q-17 -51 -20 -84t11 -54.5t35.5 -33t61.5 -22.5l35 -8v-72q-216 13 -438 0v72l40 12q59 15 98 56.5t81 156.5l198 534q92 238 92 349q0 65 -59 92l-39 14v66q84 -3 191 22
t166 60h38l433 -1158q43 -116 71 -152t70 -44zM418 510h397l-205 567z" />
    <glyph glyph-name="afii10018" unicode="&#x411;" horiz-adv-x="1400" 
d="M688 1309h-139v-500h158q170 0 299.5 -42t208.5 -134t79 -225q0 -191 -174 -303t-458 -109q-47 0 -169 2t-226 2t-179 -4v72l62 12q35 6 50 27.5t21 77.5t6 184v671q0 120 -5.5 172t-20 73.5t-49.5 27.5l-64 10v74q518 -15 1079 0q-3 -231 9 -453l-58 -6l-18 51
q-33 99 -72.5 162t-91.5 97.5t-109 47.5t-139 13zM954 367q0 157 -95 252.5t-247 103.5h-63v-430q0 -126 33 -173.5t127 -47.5q116 0 180.5 79.5t64.5 215.5z" />
    <glyph glyph-name="afii10019" unicode="&#x412;" horiz-adv-x="1413" 
d="M1298 410q0 -190 -168 -302t-473 -112q-55 0 -173.5 2t-217.5 2t-178 -4v72l64 10q35 6 49.5 27t20 73t5.5 174v686q0 123 -5.5 175.5t-20 73.5t-49.5 26l-64 10v74q77 -4 169.5 -4t205 2t168.5 2q128 0 229 -18.5t179.5 -57.5t120.5 -105t42 -157q0 -115 -74 -188.5
t-243 -116.5q201 -23 307 -115t106 -229zM629 770q113 0 183.5 71t70.5 193q0 133 -86.5 207t-247.5 74v-545h80zM698 72q126 0 197.5 82t71.5 221q0 142 -90.5 230.5t-233.5 88.5h-94v-430q0 -108 32.5 -150t116.5 -42z" />
    <glyph glyph-name="afii10020" unicode="&#x413;" horiz-adv-x="1241" 
d="M88 68l62 10q36 6 51 28t20.5 77.5t5.5 185.5v661q0 126 -5.5 180t-20.5 75.5t-51 27.5l-62 10v74q488 -15 1057 0q0 -192 22 -500l-53 -8q-59 168 -115 260.5t-111 126t-132 33.5h-207v-940q0 -69 0.5 -107.5t4 -74.5t8.5 -51.5t16 -29.5t24 -18.5t35 -7.5l78 -12v-72
q-329 17 -627 0v72z" />
    <glyph glyph-name="afii10021" unicode="&#x414;" horiz-adv-x="1492" 
d="M1452 -397l-66 -9l-14 56q-47 181 -121.5 265.5t-185.5 84.5h-619q-115 0 -192.5 -84.5t-130.5 -265.5l-17 -56l-63 9q18 240 12 487h154q100 189 137.5 395t54.5 535q6 150 -12.5 209.5t-83.5 77.5l-63 16v74q559 -16 1118 0v-72l-62 -10q-37 -6 -52 -28.5t-20 -76.5
t-5 -186v-934h221q-7 -290 10 -487zM512 1030q-18 -606 -176 -940h561v1208h-377z" />
    <glyph glyph-name="afii10022" unicode="&#x415;" horiz-adv-x="1302" 
d="M1235 401q-57 -236 -72 -405q-620 15 -1075 0v72l64 10q35 6 49.5 27.5t20 75t5.5 179.5v668q0 127 -5.5 181t-20 76t-49.5 28l-64 10v74q424 -16 1049 0q-6 -180 4 -391l-49 -13q-69 194 -130.5 254t-193.5 60h-219v-576l139 6q103 4 145.5 38.5t71.5 125.5l13 33h51
q-16 -264 0 -475h-51l-13 33q-28 88 -71.5 123.5t-145.5 39.5l-139 7v-338q0 -142 43 -194t162 -52h67q69 0 121 26t112.5 100.5t135.5 213.5z" />
    <glyph glyph-name="afii10024" unicode="&#x416;" horiz-adv-x="2289" 
d="M2259 68v-72q-217 14 -438 0l-465 709l313 401q37 48 55 87t16 64t-15.5 40t-36.5 20l-52 8v72q284 -18 568 0v-72l-45 -8q-35 -8 -52.5 -12.5t-52.5 -15.5t-58 -22.5t-58.5 -32.5t-65 -46t-65.5 -62t-72 -82l-127 -159l391 -590q63 -94 107.5 -142.5t66.5 -60t57 -18.5z
M934 705l-465 -709q-219 14 -438 0v72l28 6q28 6 44.5 12.5t45 27.5t64 65t84.5 116l389 586l-131 163q-50 63 -101 110t-87.5 72.5t-86.5 46t-74.5 27t-74.5 17.5l-45 8v72q285 -18 567 0v-72l-51 -8q-22 -5 -35.5 -20t-15.5 -40t15.5 -64t54.5 -87zM983 367v655
q0 100 -2 149.5t-11 83.5t-22.5 43.5t-40.5 14.5l-61 10v74q299 -17 598 0v-74l-62 -10q-22 -4 -34 -12t-21.5 -23t-13 -50.5t-5 -80t-1.5 -125.5v-655q0 -67 0.5 -106.5t4 -74.5t7.5 -51.5t13.5 -30t20.5 -18.5t29 -8l62 -10v-72q-299 17 -598 0v72l61 10q27 5 40.5 14.5
t22.5 43t11 83t2 148.5z" />
    <glyph glyph-name="afii10025" unicode="&#x417;" horiz-adv-x="1239" 
d="M567 57q113 0 181.5 74t68.5 209q0 66 -21.5 124t-66 107.5t-121.5 78t-178 28.5h-88v92h111q301 0 301 272q0 120 -61 206.5t-158 86.5q-99 0 -170.5 -74.5t-139.5 -238.5l-30 -76l-64 15q32 227 41 372q184 92 399 92q106 0 197 -20.5t163 -61t113 -108t41 -154.5
q0 -133 -99 -229t-310 -121q218 -7 344.5 -105.5t126.5 -250.5q0 -85 -37 -155t-96.5 -116t-137.5 -77.5t-157.5 -45.5t-159.5 -14q-237 0 -440 99q3 184 -19 385l60 12l26 -55q95 -196 183 -273.5t198 -77.5z" />
    <glyph glyph-name="afii10026" unicode="&#x418;" horiz-adv-x="1669" 
d="M1579 68v-72q-298 17 -600 0v72l61 10q27 5 41 15t23 43t11.5 83.5t2.5 149.5v684l-565 -854q6 -68 21.5 -91.5t52.5 -29.5l61 -10v-72q-298 17 -600 0v72l64 10q35 6 49.5 28t20 77.5t5.5 185.5v653q0 130 -5.5 185.5t-20 77.5t-49.5 28l-64 10v74q300 -17 600 0v-74
l-61 -10q-27 -5 -41 -15t-23 -43t-11.5 -83.5t-2.5 -149.5v-672l565 852q-6 61 -22 83t-52 28l-61 10v74q300 -17 600 0v-74l-61 -10q-27 -5 -41 -15t-23 -43t-11.5 -83.5t-2.5 -149.5v-653q0 -99 2.5 -149.5t11.5 -83.5t23 -43t41 -15z" />
    <glyph glyph-name="afii10027" unicode="&#x419;" horiz-adv-x="1669" 
d="M659 1853l37 -20q-23 -229 156 -229q172 0 152 229l36 20q104 0 162 -29.5t58 -80.5q0 -79 -121.5 -141t-286.5 -62q-167 0 -288.5 62t-121.5 141q0 51 57 80.5t160 29.5zM1579 68v-72q-298 17 -600 0v72l61 10q27 5 41 15t23 43t11.5 83.5t2.5 149.5v684l-565 -854
q6 -68 21.5 -91.5t52.5 -29.5l61 -10v-72q-298 17 -600 0v72l64 10q35 6 49.5 28t20 77.5t5.5 185.5v653q0 130 -5.5 185.5t-20 77.5t-49.5 28l-64 10v74q300 -17 600 0v-74l-61 -10q-27 -5 -41 -15t-23 -43t-11.5 -83.5t-2.5 -149.5v-672l565 852q-6 61 -22 83t-52 28
l-61 10v74q300 -17 600 0v-74l-61 -10q-27 -5 -41 -15t-23 -43t-11.5 -83.5t-2.5 -149.5v-653q0 -99 2.5 -149.5t11.5 -83.5t23 -43t41 -15z" />
    <glyph glyph-name="afii10028" unicode="&#x41a;" horiz-adv-x="1548" 
d="M549 1024v-657q0 -98 2.5 -148t11.5 -83t23 -43t41 -15l61 -10v-72q-298 17 -600 0v72l64 10q35 6 49.5 28t20 77t5.5 184v657q0 129 -5.5 184t-20 77t-49.5 28l-64 10v74q302 -17 600 0v-74l-61 -10q-27 -5 -41 -15t-23 -43t-11.5 -83t-2.5 -148zM1542 68v-72
q-222 14 -448 0l-519 698l369 412q169 185 31 211l-43 8v72q264 -18 536 0v-72l-43 -8q-93 -17 -190 -75.5t-231 -197.5l-164 -178l444 -594q96 -123 136.5 -157.5t90.5 -42.5z" />
    <glyph glyph-name="afii10029" unicode="&#x41b;" horiz-adv-x="1515" 
d="M1286 369q0 -129 6 -184.5t21 -76.5t51 -28l61 -12v-72q-300 17 -600 0v72l62 12q36 7 51 28t21 76.5t6 184.5v929h-359l-28 -376q-12 -160 -26.5 -284.5t-36 -235t-49.5 -188.5t-65 -135t-85 -84.5t-107 -27.5q-97 0 -142.5 71.5t-31.5 176.5l39 21q66 -17 114 -17
q55 0 92.5 16.5t72 65t57.5 138.5t41.5 234t31.5 355q9 132 -12.5 196t-81.5 81l-63 16v76q498 -15 1099 0v-74l-61 -12q-36 -7 -51 -28t-21 -76t-6 -183v-655z" />
    <glyph glyph-name="afii10030" unicode="&#x41c;" horiz-adv-x="1939" 
d="M1849 68v-72q-303 17 -596 0v72l56 10q25 5 38.5 13.5t24 23.5t14.5 50t5.5 79t1.5 125v755l-426 -1020q-91 3 -181 0l-471 1000l9 -770q1 -97 14.5 -149.5t39 -74t73.5 -32.5l41 -10v-72q-218 14 -433 0v72l54 12q42 10 64.5 30t36 74.5t13.5 153.5v772q0 44 -2.5 69.5
t-12 53t-29.5 45t-54 29.5l-49 16v74q208 -17 457 0l464 -983l406 983q216 -18 442 0v-74l-65 -10q-18 -3 -29 -8t-20 -19t-13 -29.5t-6.5 -51.5t-3 -72.5t-0.5 -104.5v-659q0 -82 1.5 -125.5t5 -79.5t12.5 -51t21 -23t34 -12z" />
    <glyph glyph-name="afii10031" unicode="&#x41d;" horiz-adv-x="1648" 
d="M1559 68v-72q-299 17 -601 0v72l62 10q27 5 41 15t23 43t11.5 83.5t2.5 149.5v313h-549v-313q0 -99 2.5 -149.5t11.5 -83.5t23 -43t41 -15l61 -10v-72q-298 17 -600 0v72l64 10q35 6 49.5 28t20 77.5t5.5 185.5v653q0 130 -5.5 185.5t-20 77.5t-49.5 28l-64 10v74
q300 -17 600 0v-74l-61 -10q-27 -5 -41 -15t-23 -43t-11.5 -83.5t-2.5 -149.5v-244h549v244q0 99 -2.5 149.5t-11.5 83.5t-23 43t-41 15l-62 10v74q300 -17 601 0v-74l-62 -10q-27 -5 -41 -15t-23 -43t-11.5 -83.5t-2.5 -149.5v-653q0 -99 2.5 -149.5t11.5 -83.5t23 -43
t41 -15z" />
    <glyph glyph-name="afii10032" unicode="&#x41e;" horiz-adv-x="1605" 
d="M799 1425q141 0 268.5 -52.5t224 -146t153 -232.5t56.5 -302q0 -210 -89 -375.5t-247.5 -257.5t-359.5 -92q-141 0 -268.5 52.5t-223.5 146t-152.5 232.5t-56.5 302q0 210 88.5 375.5t247 257.5t359.5 92zM1159 535q0 174 -37 326t-98 254.5t-139 161t-160 58.5
q-132 0 -205.5 -125.5t-73.5 -351.5q0 -175 37 -327.5t98 -254.5t139.5 -160.5t160.5 -58.5q132 0 205 125.5t73 352.5z" />
    <glyph glyph-name="afii10033" unicode="&#x41f;" horiz-adv-x="1632" 
d="M229 369v653q0 128 -6 183.5t-21 77t-50 28.5l-64 12v74q728 -15 1454 0v-74l-61 -12q-36 -7 -51.5 -28t-22 -76t-6.5 -179v-659q0 -99 2.5 -149.5t11.5 -83.5t23 -43t41 -15l61 -10v-72q-300 17 -600 0v72l61 10q27 5 41 15t23 43t11.5 83.5t2.5 149.5v929h-528v-929
q0 -99 2.5 -149.5t11.5 -83.5t23 -43t41 -15l61 -10v-72q-300 17 -600 0v72l62 10q36 6 51 28t20.5 77.5t5.5 185.5z" />
    <glyph glyph-name="afii10034" unicode="&#x420;" horiz-adv-x="1353" 
d="M88 -4v72l62 10q23 4 36 13.5t22 24.5t12.5 51.5t5 77.5t1.5 120v659q0 189 -11 234t-64 55l-64 10v74q84 -5 180 -5t207.5 2.5t165.5 2.5q138 0 247.5 -24t190 -72.5t123.5 -128t43 -185.5q0 -218 -171.5 -335t-524.5 -117v-170q0 -65 1 -103.5t5.5 -72t10.5 -50t19 -30
t28.5 -19t41.5 -10.5l74 -12v-72q-337 18 -641 0zM549 1315v-699q181 0 279 88t98 248q0 169 -97 264.5t-280 98.5z" />
    <glyph glyph-name="afii10035" unicode="&#x421;" horiz-adv-x="1386" 
d="M733 1329q-134 0 -210.5 -122.5t-76.5 -348.5q0 -164 37 -312.5t98 -252.5t141.5 -165.5t166.5 -61.5q45 0 80 16.5t70.5 60.5t67 99.5t79.5 154.5l43 88l49 -16q-25 -144 -59 -418q-147 -84 -373 -84q-213 0 -380.5 89.5t-264.5 261.5t-97 401q0 199 82.5 358.5
t241.5 253.5t369 94q118 0 221.5 -27t173.5 -71q2 -109 27 -395l-54 -12l-49 90q-93 170 -182 244.5t-201 74.5z" />
    <glyph glyph-name="afii10036" unicode="&#x422;" horiz-adv-x="1423" 
d="M551 369v950h-88q-84 0 -149 -72.5t-136 -242.5l-47 -115l-57 8q27 288 30 502q605 -16 1217 0q3 -227 29 -502l-58 -8l-47 115q-74 177 -139.5 246t-147.5 69h-86v-950q0 -60 0.5 -94t2 -69t5.5 -52t8.5 -33t14.5 -23t20.5 -12t28.5 -8l64 -10v-72q-306 16 -608 0v72
l61 10q21 4 33 8.5t22 18.5t14.5 30t8 52t4 74.5t0.5 107.5z" />
    <glyph glyph-name="afii10037" unicode="&#x423;" horiz-adv-x="1382" 
d="M838 444q-64 -143 -108.5 -226.5t-92.5 -144t-95.5 -83.5t-109.5 -23q-84 0 -128.5 76t-22.5 174l43 21q77 -32 157 -25q81 3 136.5 38t105.5 126h-105l-393 762q-50 97 -78.5 128.5t-68.5 41.5l-55 14v74q306 -16 622 0v-74l-39 -8q-29 -7 -42.5 -21.5t-9 -51
t33.5 -95.5l250 -502l176 430q25 60 34.5 103t8 66.5t-15.5 39t-27 20t-35 9.5l-55 10v74q219 -17 434 0v-74l-45 -12q-42 -10 -68 -30.5t-59 -76t-86 -172.5z" />
    <glyph glyph-name="afii10038" unicode="&#x424;" horiz-adv-x="1902" 
d="M1245 68v-72q-261 15 -592 0v72l62 10q41 8 56.5 35t19.5 114q-341 3 -526 128t-185 368q0 245 190 380t518 140q-4 77 -19.5 103t-53.5 32l-62 11v73q298 -17 592 0v-73l-61 -11q-39 -6 -54.5 -32.5t-19.5 -102.5q333 -5 522 -129.5t189 -357.5q0 -236 -193.5 -380.5
t-517.5 -148.5q3 -86 18 -113.5t56 -35.5zM414 774q0 -97 31 -181.5t84 -144t121 -97.5t143 -48v868q-170 -8 -274.5 -116t-104.5 -281zM1108 1169v-868q164 6 271.5 112t107.5 283q0 189 -109 320.5t-270 152.5z" />
    <glyph glyph-name="afii10039" unicode="&#x425;" horiz-adv-x="1501" 
d="M1468 68v-72q-310 16 -628 0v72l47 8q14 3 23 10.5t12.5 22.5t-0.5 36t-18.5 53t-39.5 70l-209 322l-211 -320q-38 -57 -43.5 -100.5t13 -65.5t53.5 -28l45 -8v-72q-100 6 -241.5 6t-239.5 -6v72l49 12q119 24 252 207l276 375l-297 454q-82 126 -114.5 158.5t-77.5 40.5
l-47 8v74q313 -20 626 0v-74l-49 -8q-13 -3 -22 -9.5t-13 -20.5t-1 -33.5t17 -49.5t38 -67l180 -275l174 256q117 175 -21 199l-45 8v74q100 -6 242 -6t240 6v-74l-52 -12q-118 -21 -258 -207l-237 -311l344 -525q77 -119 110 -151.5t74 -40.5z" />
    <glyph glyph-name="afii10040" unicode="&#x426;" horiz-adv-x="1656" 
d="M1391 1022v-930h225q-7 -266 10 -489l-63 -9l-15 56q-47 180 -122.5 265t-186.5 85h-674q-348 0 -477 -4v72l64 8q37 5 53 27t22 79t6 187v653q0 130 -5.5 185.5t-20.5 77.5t-51 28l-62 10v74q300 -17 600 0v-74l-61 -10q-27 -5 -41 -15t-23 -43t-11.5 -83.5t-2.5 -149.5
v-928h512v928q0 100 -2 149.5t-11 83.5t-22.5 43.5t-40.5 14.5l-61 10v74q300 -17 600 0v-74l-64 -10q-35 -6 -49.5 -28t-20 -77.5t-5.5 -185.5z" />
    <glyph glyph-name="afii10041" unicode="&#x427;" horiz-adv-x="1583" 
d="M1479 68v-72q-300 17 -600 0v72l63 10q27 5 40 15t22 43t11.5 84t2.5 149v235q-174 -72 -332 -72q-113 0 -197 21t-147 68.5t-95 127.5t-32 193v90q0 126 -6.5 180.5t-22.5 73.5t-55 27l-55 10v74q300 -16 600 0v-74l-58 -10q-39 -8 -54 -27.5t-21 -72.5t-6 -181v-92
q0 -154 56.5 -223.5t188.5 -69.5q58 0 124.5 12.5t111.5 32.5v330q0 98 -2.5 149t-11.5 84t-22 43t-40 15l-63 10v74q300 -17 600 0v-74l-62 -10q-27 -5 -41 -15t-23 -43t-11.5 -83.5t-2.5 -149.5v-653q0 -99 2.5 -149.5t11.5 -83.5t23 -43t41 -15z" />
    <glyph glyph-name="afii10042" unicode="&#x428;" horiz-adv-x="2285" 
d="M2044 1022v-653q0 -69 0.5 -108.5t3.5 -76t7.5 -53t14 -30t21.5 -18t31 -7.5l61 -8v-72q-143 4 -452 4h-1180q-308 0 -449 -4v72l62 8q19 3 31 7.5t21.5 18t14 30t7.5 53t3.5 76t0.5 108.5v653q0 99 -2.5 149.5t-11.5 83.5t-23 43t-41 15l-62 10v74q300 -17 600 0v-74
l-61 -10q-27 -5 -41 -15t-23 -43t-11.5 -83.5t-2.5 -149.5v-930h418v930q0 100 -2 149.5t-11 83.5t-22.5 43.5t-40.5 14.5l-61 10v74q301 -17 598 0v-74l-62 -10q-22 -4 -34 -12t-21.5 -23t-13 -50.5t-5 -80t-1.5 -125.5v-930h417v930q0 130 -5.5 185.5t-20.5 77.5t-51 28
l-62 10v74q300 -17 600 0v-74l-61 -10q-27 -5 -41 -15t-23 -43t-11.5 -83.5t-2.5 -149.5z" />
    <glyph glyph-name="afii10043" unicode="&#x429;" horiz-adv-x="2310" 
d="M1913 0h-1362q-308 0 -449 -4v72l62 8q19 3 31 7.5t21.5 18t14 30t7.5 53t3.5 76t0.5 108.5v653q0 99 -2.5 149.5t-11.5 83.5t-23 43t-41 15l-62 10v74q300 -17 600 0v-74l-61 -10q-27 -5 -41 -15t-23 -43t-11.5 -83.5t-2.5 -149.5v-930h418v930q0 100 -2 149.5t-11 83.5
t-22.5 43.5t-40.5 14.5l-61 10v74q301 -17 598 0v-74l-62 -10q-22 -4 -34 -12t-21.5 -23t-13 -50.5t-5 -80t-1.5 -125.5v-930h417v930q0 130 -5.5 185.5t-20.5 77.5t-51 28l-62 10v74q300 -17 600 0v-74l-61 -10q-27 -5 -41 -15t-23 -43t-11.5 -83.5t-2.5 -149.5v-930h227
q-8 -222 8 -489l-63 -9l-14 56q-47 182 -114 266t-175 84z" />
    <glyph glyph-name="afii10044" unicode="&#x42a;" horiz-adv-x="1648" 
d="M915 1313q-38 -6 -54.5 -27.5t-23 -77t-6.5 -182.5v-188h173q275 0 426 -102.5t151 -307.5q0 -200 -183 -319.5t-493 -112.5q-414 6 -543 0v72l62 10q39 5 55.5 25.5t23.5 76t7 178.5v959h-47q-104 0 -184.5 -98t-161.5 -328l-49 8q26 308 28 498q481 -13 881 0v-74z
M831 748v-420q0 -145 30.5 -198.5t121.5 -53.5q117 0 188.5 75.5t71.5 219.5q0 165 -103.5 271t-273.5 106h-35z" />
    <glyph glyph-name="afii10045" unicode="&#x42b;" horiz-adv-x="2093" 
d="M1542 369v653q0 98 -2.5 149t-11.5 84t-22 43t-40 15l-63 10v74q300 -17 600 0v-74l-61 -10q-27 -5 -41 -15t-23 -43t-11.5 -83.5t-2.5 -149.5v-653q0 -99 2.5 -149.5t11.5 -83.5t23 -43t41 -15l61 -10v-72q-300 17 -600 0v72l63 10q27 5 40 15t22 43t11.5 84t2.5 149z
M557 1022v-184h172q276 0 427 -102.5t151 -307.5q0 -201 -182 -320t-492 -112q-385 6 -537 0v72l62 10q36 4 51 25t21 75t6 180v664q0 98 -2.5 149t-11.5 84t-22 43t-40 15l-64 10v74q300 -17 600 0v-74l-61 -10q-27 -5 -41 -15t-23 -43t-11.5 -83.5t-2.5 -149.5zM557 748
v-420q0 -145 31.5 -198.5t120.5 -53.5q119 0 190.5 75.5t71.5 219.5q0 165 -103.5 271t-273.5 106h-37z" />
    <glyph glyph-name="afii10046" unicode="&#x42c;" horiz-adv-x="1368" 
d="M549 1022v-184h172q276 0 426.5 -102.5t150.5 -307.5q0 -201 -181.5 -320t-491.5 -112q-385 6 -537 0v72l62 10q36 4 51 25t20.5 75t5.5 180v664q0 130 -5.5 185.5t-20 77.5t-49.5 28l-64 10v74q300 -17 600 0v-74l-61 -10q-27 -5 -41 -15t-23 -43t-11.5 -83.5
t-2.5 -149.5zM549 748v-420q0 -145 31 -198.5t120 -53.5q119 0 191 75.5t72 219.5q0 165 -103.5 271t-273.5 106h-37z" />
    <glyph glyph-name="afii10047" unicode="&#x42d;" horiz-adv-x="1363" 
d="M1257 694q0 -326 -192 -526.5t-512 -200.5q-256 0 -428 88q3 185 -16 387l59 13l22 -47q101 -201 179 -277t176 -76q72 0 135 32t114.5 96t81 171t29.5 246q0 53 -2 78l-215 -4q-69 -2 -110.5 -20.5t-64 -51t-38.5 -90.5l-10 -33h-53q16 211 0 475h53l10 -32
q17 -61 39.5 -93.5t63.5 -49.5t110 -19l207 -4q-20 158 -75 288t-139.5 208.5t-182.5 78.5q-89 0 -155.5 -78t-139.5 -249l-27 -62l-63 14q31 246 41 381q184 88 393 88q152 0 281 -49t225 -140t150 -230.5t54 -311.5z" />
    <glyph glyph-name="afii10048" unicode="&#x42e;" horiz-adv-x="2263" 
d="M2157 692q0 -210 -88 -375.5t-246 -257.5t-357 -92q-183 0 -338 86.5t-252 251.5t-102 377h-225v-313q0 -99 2.5 -149.5t11.5 -83.5t23 -43t41 -15l61 -10v-72q-300 17 -600 0v72l64 10q35 6 49.5 28t20 77.5t5.5 185.5v653q0 130 -5.5 185.5t-20 77.5t-49.5 28l-64 10
v74q300 -17 600 0v-74l-61 -10q-27 -5 -41 -15t-23 -43t-11.5 -83.5t-2.5 -149.5v-246h229q15 191 105.5 338.5t241 229t337.5 81.5q139 0 265 -52.5t221.5 -146t152 -232.5t56.5 -302zM1815 535q0 174 -36.5 326t-96.5 254.5t-137.5 161t-158.5 58.5q-128 0 -199 -125.5
t-71 -351.5q0 -175 36.5 -327t96 -254.5t137 -161t158.5 -58.5q128 0 199.5 125.5t71.5 352.5z" />
    <glyph glyph-name="afii10049" unicode="&#x42f;" horiz-adv-x="1536" 
d="M1446 68v-72q-300 17 -600 0v72l61 12q22 4 34.5 11.5t22 23t13.5 49.5t6 80t2 125v256h-70l-454 -629q-219 12 -438 0v72l61 12q43 7 77.5 35.5t82.5 91.5l350 442q-79 18 -142 46t-114 70t-79 101.5t-28 132.5q0 137 79.5 228.5t214 131.5t319.5 38q39 0 142 -2
t166 -2.5t148.5 0.5t145.5 4v-74l-62 -10q-36 -6 -51 -28t-20.5 -77.5t-5.5 -185.5v-653q0 -130 5.5 -185t20.5 -76.5t51 -27.5zM985 1313h-65q-179 0 -265 -84t-86 -223t103.5 -219t277.5 -80h35v606z" />
    <glyph glyph-name="afii10065" unicode="&#x430;" horiz-adv-x="1173" 
d="M1157 127q-119 -160 -289 -160q-77 0 -124.5 40.5t-47.5 117.5q-95 -158 -293 -158q-140 0 -225.5 82t-85.5 209q0 112 82.5 183t249.5 91l264 31v35q0 157 -51 252.5t-137 95.5q-156 0 -129 -319l-37 -15q-39 2 -68 8t-55.5 18.5t-40.5 36.5t-14 58q0 75 71.5 149
t183.5 120.5t224 46.5q178 0 269 -97t91 -288v-443q0 -55 11.5 -74.5t44.5 -19.5q37 0 82 33zM555 125q86 0 133 47v309h-98q-119 0 -166 -41.5t-47 -117.5q0 -89 51 -143t127 -54z" />
    <glyph glyph-name="afii10066" unicode="&#x431;" horiz-adv-x="1288" 
d="M1204 537q0 -131 -44.5 -239.5t-120.5 -180t-176.5 -111t-213.5 -39.5q-116 0 -215.5 44.5t-174 128t-117 213t-42.5 290.5q0 129 29.5 245t92.5 216.5t154.5 175t221.5 120t287 52.5l47 2q84 4 125.5 22.5t79.5 65.5l45 -20q-73 -207 -170 -271.5t-242 -31.5l-164 24
q-118 20 -176.5 -35.5t-58.5 -220.5q0 -127 12 -262q108 285 403 285q190 0 304 -129.5t114 -343.5zM629 862q-85 0 -136 -80t-51 -209q0 -130 32 -248.5t93 -195t135 -76.5q91 0 138 83.5t47 244.5q0 129 -34 239.5t-93.5 176t-130.5 65.5z" />
    <glyph glyph-name="afii10067" unicode="&#x432;" horiz-adv-x="1265" 
d="M68 68l51 10q24 4 34 7t23 14t16.5 26t8.5 49.5t5.5 77t0.5 115.5v307q0 65 -0.5 103.5t-5 69.5t-8.5 45t-17 24.5t-23 13.5t-34 8l-51 8v74q68 -3 155.5 -4t153 -0.5t171 2.5t154.5 2q231 4 332 -59t101 -173q0 -94 -90 -156t-230 -91q176 -6 274.5 -65.5t98.5 -176.5
q0 -135 -163 -219t-456 -84q-35 0 -140.5 1.5t-199 1.5t-161.5 -3v72zM510 567h80q105 0 167 47.5t62 128.5q0 83 -69 138t-197 55h-43v-369zM510 496v-256q0 -90 37.5 -129t111.5 -39q82 0 139.5 45.5t57.5 132.5q0 104 -76 175t-219 71h-51z" />
    <glyph glyph-name="afii10068" unicode="&#x433;" horiz-adv-x="1062" 
d="M645 930l-135 2v-567q0 -80 3 -127.5t9 -80t20.5 -48t31 -22t47.5 -11.5l49 -8v-72q-300 15 -602 0v72l51 10q24 4 34 7t23 14t16.5 26t8.5 49t5.5 76.5t0.5 114.5v286q0 73 -0.5 115.5t-5.5 77t-8.5 49.5t-16.5 26t-23 14t-34 7l-51 10v70q459 -14 919 0
q-11 -240 4 -432l-59 -8l-17 45q-58 166 -119.5 234.5t-150.5 70.5z" />
    <glyph glyph-name="afii10069" unicode="&#x434;" horiz-adv-x="1251" 
d="M1210 -352l-61 -8l-16 51q-58 175 -118.5 242t-180.5 67h-441q-58 0 -98 -16t-72.5 -58t-55.5 -93t-56 -142l-19 -51l-59 8q15 237 10 442h139q123 283 146 621q7 112 -16 161.5t-68 59.5l-49 12v76q489 -11 972 0v-74l-49 -8q-26 -5 -39 -11.5t-24.5 -21.5t-16 -47.5
t-6.5 -78.5t-2 -126v-563h168q-6 -215 12 -442zM436 713q-24 -345 -133 -623h424v832h-278z" />
    <glyph glyph-name="afii10070" unicode="&#x435;" horiz-adv-x="1107" 
d="M1049 297q-84 -166 -198 -248t-267 -82q-218 0 -360 150.5t-142 382.5q0 121 42.5 225t114 174.5t165.5 110t196 39.5q99 0 179.5 -34.5t130.5 -92t77 -128.5t27 -149q0 -41 -6 -88h-637q25 -159 121 -252.5t237 -93.5q160 0 285 113zM362 657v-28l381 30
q-13 141 -64 218t-128 77q-86 0 -137.5 -75t-51.5 -222z" />
    <glyph glyph-name="afii10072" unicode="&#x436;" horiz-adv-x="1951" 
d="M1245 946l-43 -8q-32 -5 -46.5 -23.5t-22 -76.5t-7.5 -181v-292q0 -125 8.5 -184.5t25 -78.5t52.5 -26l43 -8v-72q-279 16 -561 0v72l45 8q36 7 52 26t24 78t8 185v292q0 124 -6.5 181t-20 76t-44.5 24l-45 8v74q271 -17 538 0v-74zM1921 68v-72q-176 14 -399 0l-348 506
l223 250q42 47 59 81t9 55t-25.5 32.5t-50.5 21.5l-21 4v74q265 -16 524 0v-74l-57 -10q-60 -12 -108.5 -31t-119 -71t-141.5 -136l-53 -61l238 -328q100 -139 149 -183.5t92 -51.5zM776 502l-348 -506q-222 14 -397 0v72l26 6q23 5 41 13t48 30.5t70 70t93 121.5l232 322
l-58 67q-103 121 -189 170.5t-179 67.5l-58 10v74q259 -16 527 0v-74l-21 -4q-34 -10 -52 -21.5t-25.5 -32.5t10 -55t59.5 -81z" />
    <glyph glyph-name="afii10073" unicode="&#x437;" horiz-adv-x="1077" 
d="M309 492v88h90q119 0 173.5 50t54.5 136q0 82 -48.5 139.5t-132.5 57.5q-76 0 -126.5 -55t-106.5 -183l-29 -66l-57 17q20 139 29 311q165 62 374 62q190 0 303 -69.5t113 -180.5q0 -208 -311 -254q371 -38 371 -258q0 -81 -45 -144.5t-120.5 -100.5t-165.5 -56t-188 -19
q-191 0 -309.5 68.5t-118.5 183.5q0 59 47.5 95t120.5 42l37 -12q16 -155 79 -225t153 -70q79 0 127.5 51.5t48.5 145.5q0 246 -295 246h-68z" />
    <glyph glyph-name="afii10074" unicode="&#x438;" horiz-adv-x="1435" 
d="M1368 68v-72q-284 17 -567 0v72l51 10q20 4 29 6.5t19.5 13.5t13.5 26t7 49.5t4.5 77t0.5 114.5v337l-412 -509q3 -49 11.5 -73t20 -30.5t38.5 -11.5l51 -10v-72q-285 17 -567 0v72l51 10q24 4 34 7t23 14t16.5 26t8.5 49t5.5 76.5t0.5 114.5v284q0 71 -0.5 113.5t-5 77
t-9 49.5t-16.5 27t-23 15t-34 7l-51 8v74q282 -17 567 0v-74l-51 -8q-20 -4 -29 -7t-19.5 -14.5t-13.5 -26.5t-7 -49.5t-4.5 -77t-0.5 -114.5v-332l412 512q-3 46 -12 68.5t-20 28.5t-38 12l-51 8v74q283 -17 567 0v-74l-53 -8q-28 -5 -39 -10t-23.5 -18.5t-15.5 -46.5
t-5.5 -80t-2.5 -134v-284q0 -86 2.5 -133t5.5 -79.5t15.5 -46t23.5 -18.5t39 -10z" />
    <glyph glyph-name="afii10075" unicode="&#x439;" horiz-adv-x="1435" 
d="M539 1481l34 -21q-29 -229 144 -229q82 0 119 57t20 172l37 21q103 0 161 -31.5t58 -85.5q0 -78 -117 -138.5t-278 -60.5q-162 0 -280 60.5t-118 138.5q0 55 57.5 86t162.5 31zM1368 68v-72q-284 17 -567 0v72l51 10q20 4 29 6.5t19.5 13.5t13.5 26t7 49.5t4.5 77
t0.5 114.5v337l-412 -509q3 -49 11.5 -73t20 -30.5t38.5 -11.5l51 -10v-72q-285 17 -567 0v72l51 10q24 4 34 7t23 14t16.5 26t8.5 49t5.5 76.5t0.5 114.5v284q0 71 -0.5 113.5t-5 77t-9 49.5t-16.5 27t-23 15t-34 7l-51 8v74q282 -17 567 0v-74l-51 -8q-20 -4 -29 -7
t-19.5 -14.5t-13.5 -26.5t-7 -49.5t-4.5 -77t-0.5 -114.5v-332l412 512q-3 46 -12 68.5t-20 28.5t-38 12l-51 8v74q283 -17 567 0v-74l-53 -8q-28 -5 -39 -10t-23.5 -18.5t-15.5 -46.5t-5.5 -80t-2.5 -134v-284q0 -86 2.5 -133t5.5 -79.5t15.5 -46t23.5 -18.5t39 -10z" />
    <glyph glyph-name="afii10076" unicode="&#x43a;" horiz-adv-x="1355" 
d="M635 946l-51 -8q-20 -4 -28.5 -7t-19.5 -14.5t-14 -26t-7 -49t-4.5 -77t-0.5 -115.5v-284q0 -72 0.5 -114.5t4.5 -77t7 -49.5t13.5 -26t19.5 -13.5t29 -6.5l51 -10v-72q-284 17 -567 0v72l51 10q24 4 34 7t23 14t16.5 26t8.5 49t5.5 76.5t0.5 114.5v284q0 73 -0.5 115.5
t-5.5 77t-8.5 49.5t-16.5 26t-23 14t-34 7l-51 8v74q283 -17 567 0v-74zM1315 68v-72q-180 14 -404 0l-376 510l247 244q60 59 77.5 97t0.5 59t-67 34l-27 6v74q298 -17 530 0v-74l-57 -12q-174 -33 -397 -236l-58 -51l260 -336q109 -143 155 -186t89 -53z" />
    <glyph glyph-name="afii10077" unicode="&#x43b;" horiz-adv-x="1286" 
d="M526 922l-14 -232q-24 -376 -105 -549.5t-219 -173.5q-83 0 -122 66.5t-25 167.5l37 22q51 -17 106 -14q72 2 115 40.5t72.5 150.5t40.5 317q4 77 -8.5 124t-32.5 65t-54 28l-45 12v74q477 -17 945 0v-74l-58 -10q-26 -5 -37 -10.5t-22.5 -19.5t-15 -47.5t-5.5 -81
t-2 -134.5v-274q0 -69 0.5 -107.5t4 -74.5t8.5 -52t16 -29.5t24 -18.5t35 -9l52 -10v-72q-292 10 -580 0v72l49 10q20 4 31.5 9t22.5 11.5t16 23t9.5 32.5t6 51.5t2 69t0.5 94.5v553h-248z" />
    <glyph glyph-name="afii10078" unicode="&#x43c;" horiz-adv-x="1624" 
d="M1554 68v-72q-286 17 -571 0v72l59 12q34 6 47 23.5t19 74.5t6 191v483l-326 -721q-74 3 -147 0l-350 711l6 -469q1 -122 10 -180.5t29.5 -83.5t64.5 -33l39 -8v-72q-189 17 -372 0v72l51 12q36 8 53 30t26 83t9 182v350q0 45 -2.5 72t-11 56t-28 48t-50.5 31l-47 14v74
q240 -17 467 0l294 -594l267 594q229 -16 458 0v-74l-57 -8q-38 -4 -53.5 -22.5t-22 -76.5t-6.5 -196v-274q0 -71 1 -115t5 -77.5t8.5 -50t16 -27.5t22 -14t31.5 -7z" />
    <glyph glyph-name="afii10079" unicode="&#x43d;" horiz-adv-x="1425" 
d="M1358 68v-72q-284 17 -567 0v72l51 10q20 4 29 6.5t19 14t13.5 26t7 49.5t4 76.5t0.5 114.5v127h-405v-127q0 -72 0.5 -114.5t4.5 -77t7 -49.5t13.5 -26t19.5 -13.5t29 -6.5l51 -10v-72q-285 17 -567 0v72l51 10q24 4 34 7t23 14t16.5 26t8.5 49t5.5 76.5t0.5 114.5v284
q0 71 -0.5 113.5t-5 77t-9 49.5t-16.5 27t-23 15t-34 7l-51 8v74q282 -17 567 0v-74l-51 -8q-20 -4 -29 -7t-19.5 -14.5t-13.5 -26.5t-7 -49.5t-4.5 -77t-0.5 -114.5v-67h405v67q0 73 -0.5 115t-4 77t-6.5 49.5t-14 26t-19.5 14.5t-28.5 7l-51 8v74q283 -17 567 0v-74
l-53 -8q-28 -5 -39 -10t-23.5 -18.5t-15.5 -46.5t-5.5 -80t-2.5 -134v-284q0 -86 2.5 -133t5.5 -79.5t15.5 -46t23.5 -18.5t39 -10z" />
    <glyph glyph-name="afii10080" unicode="&#x43e;" horiz-adv-x="1263" 
d="M610 -33q-150 0 -268.5 61.5t-189 185.5t-70.5 292q0 162 78.5 287.5t207.5 190.5t283 65q150 0 269 -62.5t189.5 -187t70.5 -291.5q0 -162 -79 -287t-207.5 -189.5t-283.5 -64.5zM690 59q82 0 127 91.5t45 259.5q0 138 -38 263.5t-104.5 203t-144.5 77.5
q-83 0 -128.5 -91.5t-45.5 -258.5q0 -140 38 -265.5t105 -202.5t146 -77z" />
    </font>
</defs>
</svg>
