<?xml version="1.0" standalone="no"?>
<!DOCTYPE svg PUBLIC "-//W3C//DTD SVG 1.1//EN" "http://www.w3.org/Graphics/SVG/1.1/DTD/svg11.dtd" >
<svg xmlns="http://www.w3.org/2000/svg" xmlns:xlink="http://www.w3.org/1999/xlink" version="1.1">
<metadata>
Created by FontForge 20170731 at Sun Jan 23 22:06:58 2022
 By Aleksey,,,
Copyright 2017 BlackFoundry
</metadata>
<defs>
<font id="TRYVesterbro-Regular" horiz-adv-x="1024" >
  <font-face 
    font-family="TRY Vesterbro"
    font-weight="400"
    font-stretch="normal"
    units-per-em="2048"
    panose-1="2 0 5 0 6 0 0 2 0 4"
    ascent="1597"
    descent="-451"
    x-height="983"
    cap-height="1397"
    bbox="-399 -616 2576 2054"
    underline-thickness="81"
    underline-position="-265"
    unicode-range="U+0020-FB04"
  />
<missing-glyph horiz-adv-x="1060" 
d="M123 0v1393h815v-1393h-815zM190 70h680v1253h-680v-1253z" />
    <glyph glyph-name="ff" unicode="ff" horiz-adv-x="1394" 
d="M1300 59v-63q-255 18 -569 0v63l76 15q21 4 33 12t21 22.5t12 50t4.5 79t1.5 124.5v527h-445v-527q0 -60 0.5 -92.5t2 -67t5.5 -50.5t9.5 -32.5t16 -23t22 -12t30.5 -10.5l60 -15v-63q-228 18 -508 0v63l73 15q21 4 33.5 8.5t22.5 18.5t14.5 29t7.5 52t3.5 73.5
t0.5 106.5v527h-131v78l131 12v59q0 213 94.5 340t249.5 127q105 0 173.5 -59t68.5 -121q0 -45 -25.5 -69t-66.5 -27l-33 8q-40 109 -69.5 153t-79.5 44q-105 0 -105 -246v-209h445v51q0 216 96.5 345.5t255.5 129.5q113 0 189.5 -59.5t76.5 -124.5q0 -48 -27.5 -73.5
t-72.5 -28.5l-35 10q-43 112 -76.5 158.5t-89.5 46.5q-111 0 -111 -246v-209h246v-90h-246v-527q0 -51 0.5 -82t3 -62.5t5.5 -48t10.5 -34t15.5 -25t23 -15.5t30.5 -12t40.5 -9z" />
    <glyph glyph-name="fi" unicode="fi" horiz-adv-x="1294" 
d="M434 1206v-227h289q212 0 352 37l19 -17q-9 -159 -9 -393v-264q0 -70 0.5 -105.5t5 -70t8.5 -46.5t18.5 -24.5t27 -15.5t41.5 -8l55 -13v-63q-252 18 -510 0v63l60 13q18 3 27.5 5t21 8.5t16 12t10 21t7.5 31.5t4 46.5t2 62v83.5v207q0 84 -1 130.5t-5.5 90.5t-11.5 63
t-22 34t-33.5 18.5t-49.5 3.5h-322v-527q0 -71 0.5 -107.5t4.5 -73t9 -51t18 -29t27.5 -20t41.5 -11.5l45 -11v-63q-198 16 -508 0v63l59 11q25 4 39.5 9t26.5 19.5t17 29t8.5 52t4 74t0.5 108.5v527h-123v78l123 12v43q0 224 112.5 353.5t291.5 129.5q131 0 217 -65
t86 -137q0 -51 -29 -76t-82 -35l-35 10q-51 123 -95.5 177.5t-108.5 54.5q-72 0 -111 -59.5t-39 -168.5z" />
    <glyph glyph-name="fl" unicode="fl" horiz-adv-x="1294" 
d="M1241 59v-63q-229 17 -510 0v63l60 13q23 4 35 7.5t24 15t16 25t8 46.5t4.5 69.5t0.5 102.5v856q-40 122 -102.5 180t-155.5 58q-90 0 -138.5 -73.5t-48.5 -217.5v-162h244v-90h-244v-527q0 -71 0.5 -107.5t4.5 -73t9 -51t18 -29t27.5 -20t41.5 -11.5l45 -11v-63
q-227 19 -508 0v63l59 11q25 4 39.5 9t26.5 19.5t17 29t8.5 52t4 74t0.5 108.5v527h-131v78l131 12v27q0 229 116 364t314 135q157 0 252 -78q69 18 162 80l23 -18q-9 -169 -9 -418v-733q0 -68 0.5 -103t4.5 -68.5t8.5 -46t18 -25t26.5 -15.5t39 -8z" />
    <glyph glyph-name="ffi" unicode="ffi" horiz-adv-x="1943" 
d="M1085 1206v-227h287q211 0 354 37l17 -17q-8 -141 -8 -393v-264q0 -69 0.5 -105.5t5 -70t8.5 -46t18.5 -25t27 -15.5t40.5 -8l55 -13v-63q-249 18 -508 0v63l58 13q18 3 27.5 5t21 8.5t16 12t10 21t7.5 31.5t4 46.5t2 62v83.5v207q0 84 -1 130.5t-5.5 90.5t-11.5 63
t-21.5 34t-33 18.5t-48.5 3.5h-322v-527q0 -71 0.5 -107.5t4.5 -73t9 -51t18 -29t27.5 -20t41.5 -11.5l45 -11v-63q-223 18 -500 0v63l62 11q63 11 74.5 50t11.5 211v31v527h-445v-527q0 -60 0.5 -92.5t2 -67t5.5 -50.5t9.5 -32.5t16 -23t22 -12t30.5 -10.5l60 -15v-63
q-226 18 -508 0v63l73 15q21 4 33.5 8.5t22.5 18.5t14.5 29t7.5 52t3.5 73.5t0.5 106.5v527h-131v78l131 12v59q0 213 94.5 340t249.5 127q105 0 173.5 -59t68.5 -121q0 -45 -25.5 -69t-66.5 -27l-33 8q-40 109 -69.5 153t-79.5 44q-105 0 -105 -246v-209h445v43
q0 224 111.5 353.5t289.5 129.5q131 0 217 -65t86 -137q0 -52 -28.5 -76.5t-81.5 -34.5l-33 10q-54 124 -98.5 178t-108.5 54q-72 0 -110 -59.5t-38 -168.5z" />
    <glyph glyph-name="f_f_l" unicode="ffl" horiz-adv-x="1943" 
d="M1890 59v-63q-228 17 -508 0v63l58 13q23 4 35 7.5t24 15t16 25t8 46.5t4.5 69.5t0.5 102.5v856q-40 122 -102.5 180t-155.5 58q-90 0 -137.5 -73t-47.5 -218v-162h242v-90h-242v-527q0 -71 0.5 -107.5t4.5 -73t9 -51t18 -29t27.5 -20t41.5 -11.5l45 -11v-63
q-224 18 -500 0v63l62 11q63 11 74.5 48t11.5 201v43v527h-445v-527q0 -60 0.5 -92.5t2 -67t5.5 -50.5t9.5 -32.5t16 -23t22 -12t30.5 -10.5l60 -15v-63q-249 17 -508 0v63l73 15q21 4 33.5 8.5t22.5 18.5t14.5 29t7.5 52t3.5 73.5t0.5 106.5v527h-131v78l131 12v59
q0 213 94.5 340t249.5 127q105 0 173.5 -59t68.5 -121q0 -45 -25.5 -69t-66.5 -27l-33 8q-40 109 -69.5 153t-79.5 44q-105 0 -105 -246v-209h445v27q0 229 115 364t313 135q155 0 254 -78q71 18 159 80l23 -18q-8 -151 -8 -418v-733q0 -67 0.5 -102.5t5 -69t9 -46.5
t17.5 -25t26.5 -15t39.5 -8z" />
    <glyph glyph-name="fj" unicode="fj" horiz-adv-x="1257" 
d="M434 1206v-227h287q214 0 354 37l19 -17q-9 -159 -9 -393v-590q0 -113 -13 -184.5t-48 -122t-86 -79.5t-139 -58l-60 -18l-18 47l37 20q51 28 75 66t35 118.5t11 239.5v510q0 81 -1 126.5t-5.5 88.5t-11.5 62t-21 34.5t-32.5 19t-47.5 3.5h-326v-527q0 -53 0.5 -83.5
t3.5 -63t5.5 -47.5t12.5 -33t18 -24.5t27.5 -15.5t36 -13.5t48.5 -11.5l45 -11v-63q-249 19 -559 0v63l59 11q25 4 39.5 9t26.5 19.5t17 29t8.5 52t4 74t0.5 108.5v527h-123v78l123 12v43q0 224 112.5 353.5t291.5 129.5q131 0 217 -65t86 -137q0 -51 -29 -76t-82 -35
l-35 10q-51 123 -95.5 177.5t-108.5 54.5q-72 0 -111 -59.5t-39 -168.5z" />
    <glyph glyph-name="f_b" unicode="fb" horiz-adv-x="1914" 
d="M1323 -29q-189 0 -317 101l-91 -105l-36 10v1217q-40 122 -102.5 180t-155.5 58q-90 0 -138.5 -73.5t-48.5 -217.5v-162h244v-90h-244v-527v-83.5t3 -63.5t6.5 -49.5t13 -33.5t19 -25.5t29.5 -15.5t40 -13t53 -10l49 -9v-63q-258 19 -575 0v63l59 11q25 4 39.5 9
t26.5 19.5t17 29t8.5 52t4 74t0.5 108.5v527h-131v78l131 12v27q0 229 116 364t314 135q157 0 252 -78q69 18 162 80l23 -18q-9 -169 -9 -418v-219q112 158 320 158q125 0 219 -65t142.5 -175.5t48.5 -249.5q0 -131 -41 -237t-110.5 -173t-157 -103t-183.5 -36zM1085 385
q0 -78 14.5 -138t38.5 -97t58 -61t68.5 -33t74.5 -9q114 0 187 94.5t73 282.5q0 210 -81.5 328t-221.5 118q-135 0 -211 -98v-387z" />
    <glyph glyph-name="f_h" unicode="fh" horiz-adv-x="1976" 
d="M1925 59v-63q-254 18 -514 0v65l55 11q26 5 38.5 8t26 15t18 25.5t9 46.5t5 70t0.5 105v293q0 111 -57 165t-148 54q-72 0 -146 -27.5t-127 -72.5v-412q0 -69 0.5 -105t4.5 -70t8.5 -47t18 -25t26 -15t39.5 -8l55 -13v-63q-249 18 -506 0v63l60 13q65 12 76.5 45.5
t11.5 208.5v16v852q-40 122 -102.5 180t-155.5 58q-90 0 -138.5 -73.5t-48.5 -217.5v-162h244v-90h-244v-527q0 -71 0.5 -107.5t4.5 -73t9 -51t18 -29t27.5 -20t41.5 -11.5l45 -11v-63q-227 19 -508 0v63l59 11q25 4 39.5 9t26.5 19.5t17 29t8.5 52t4 74t0.5 108.5v527h-131
v78l131 12v27q0 229 116 364t314 135q157 0 252 -78q69 18 162 80l23 -18q-9 -169 -9 -410v-264q160 195 388 195q59 0 110 -18.5t94 -56.5t67.5 -105.5t24.5 -157.5v-330q0 -68 0.5 -105.5t5 -70.5t9 -46.5t18.5 -25t26.5 -14.5t39.5 -8z" />
    <glyph glyph-name="f_k" unicode="fk" horiz-adv-x="1892" 
d="M1241 59v-63q-227 16 -510 0v63l60 13q65 12 76.5 45.5t11.5 197.5v15v864q-40 122 -102.5 180t-155.5 58q-90 0 -138.5 -73.5t-48.5 -217.5v-162h244v-90h-244v-527q0 -71 0.5 -107.5t4.5 -73t9 -51t18 -29t27.5 -20t41.5 -11.5l45 -11v-63q-227 19 -508 0v63l59 11
q25 4 39.5 9t26.5 19.5t17 29t8.5 52t4 74t0.5 108.5v527h-131v78l131 12v27q0 229 116 364t314 135q157 0 252 -78q69 18 162 80l23 -18q-9 -169 -9 -410v-749q0 -65 0.5 -98.5t4.5 -66t8.5 -45t17.5 -24.5t26.5 -15.5t39.5 -8.5zM1874 59v-63q-166 9 -332 0l-432 547
l199 178q56 51 80 80t24 53q0 26 -19.5 40.5t-66.5 25.5v61q263 -17 479 0v-61l-53 -15q-55 -16 -94.5 -31.5t-113 -59t-154.5 -109.5l-97 -76l326 -404q64 -83 120.5 -118t133.5 -48z" />
    <glyph glyph-name="f_f_f" unicode="fff" horiz-adv-x="2043" 
d="M1950 59v-63q-255 18 -568 0v63l72 15q19 3 30 7.5t20 18.5t13 29.5t7 52t3.5 74t0.5 106.5v527h-443v-527q0 -69 0.5 -105.5t3.5 -72.5t7.5 -50.5t15 -29t23 -20t34.5 -10.5l62 -15v-63q-194 16 -500 0v63l74 15q19 3 30 7.5t20 18.5t13 29.5t7 52t3.5 74t0.5 106.5v527
h-445v-527q0 -60 0.5 -92.5t2 -67t5.5 -50.5t9.5 -32.5t16 -23t22 -12t30.5 -10.5l60 -15v-63q-228 18 -508 0v63l73 15q21 4 33.5 8.5t22.5 18.5t14.5 29t7.5 52t3.5 73.5t0.5 106.5v527h-131v78l131 12v59q0 213 94.5 340t249.5 127q105 0 173.5 -59t68.5 -121
q0 -45 -25.5 -69t-66.5 -27l-33 8q-40 109 -69.5 153t-79.5 44q-105 0 -105 -246v-209h445v59q0 213 94 340t250 127q103 0 171 -59t68 -121q0 -45 -25.5 -69t-66.5 -27l-31 8q-42 110 -71.5 153.5t-77.5 43.5q-105 0 -105 -246v-209h443v51q0 216 97 345.5t255 129.5
q114 0 190 -59t76 -125q0 -48 -27.5 -73.5t-72.5 -28.5l-35 10q-43 112 -76.5 158.5t-89.5 46.5t-83 -59.5t-27 -186.5v-209h245v-90h-245v-527q0 -68 1 -105t6 -72.5t12 -50t23.5 -29t35.5 -20t53 -11.5z" />
    <glyph glyph-name="f_f_j" unicode="ffj" horiz-adv-x="1906" 
d="M1085 1206v-227h287q211 0 354 37l17 -17q-8 -141 -8 -393v-590q0 -113 -13 -184.5t-48.5 -122t-86.5 -79.5t-139 -58l-57 -18l-21 47l39 20q51 28 74.5 66t34 118.5t10.5 239.5v504q0 84 -1 130.5t-5.5 90.5t-11.5 63t-21.5 34t-33 18.5t-48.5 3.5h-322v-527
q0 -51 0.5 -83.5t4 -63t6.5 -47.5t13 -34t18.5 -24.5t27.5 -16t35.5 -12.5t46.5 -11l45 -11v-63q-247 19 -551 0v63l62 11q63 11 74.5 50t11.5 211v31v527h-445v-527q0 -60 0.5 -92.5t2 -67t5.5 -50.5t9.5 -32.5t16 -23t22 -12t30.5 -10.5l60 -15v-63q-226 18 -508 0v63
l73 15q21 4 33.5 8.5t22.5 18.5t14.5 29t7.5 52t3.5 73.5t0.5 106.5v527h-131v78l131 12v59q0 213 94.5 340t249.5 127q105 0 173.5 -59t68.5 -121q0 -45 -25.5 -69t-66.5 -27l-33 8q-40 109 -69.5 153t-79.5 44q-105 0 -105 -246v-209h445v43q0 224 111.5 353.5
t289.5 129.5q131 0 217 -65t86 -137q0 -52 -28.5 -76.5t-81.5 -34.5l-33 10q-54 124 -98.5 178t-108.5 54q-72 0 -110 -59.5t-38 -168.5z" />
    <glyph glyph-name="f_f_b" unicode="ffb" horiz-adv-x="2566" 
d="M1974 -29q-192 0 -317 101l-92 -105l-37 10v1217q-40 122 -102.5 180t-155.5 58q-90 0 -137.5 -73t-47.5 -218v-162h242v-90h-242v-527v-84t3 -63t6 -49.5t12.5 -33.5t19 -26t29 -15.5t39.5 -13t53 -9.5l51 -9v-63q-280 17 -567 0v63l62 11q22 4 35 8.5t23.5 19
t15.5 29.5t8 52.5t3.5 74.5t0.5 108v527h-445v-527q0 -60 0.5 -92.5t2 -67t5.5 -50.5t9.5 -32.5t16 -23t22 -12t30.5 -10.5l60 -15v-63q-228 18 -508 0v63l73 15q21 4 33.5 8.5t22.5 18.5t14.5 29t7.5 52t3.5 73.5t0.5 106.5v527h-131v78l131 12v59q0 213 94.5 340
t249.5 127q105 0 173.5 -59t68.5 -121q0 -45 -25.5 -69t-66.5 -27l-33 8q-40 109 -69.5 153t-79.5 44q-105 0 -105 -246v-209h445v27q0 229 115 364t313 135q155 0 254 -78q71 18 159 80l23 -18q-8 -151 -8 -418v-219q112 158 319 158q125 0 219 -65t142.5 -175.5
t48.5 -249.5q0 -130 -41 -236.5t-110.5 -173.5t-156.5 -103t-182 -36zM1735 385q0 -78 14.5 -138t38.5 -97t58 -61t68.5 -33t74.5 -9q115 0 187.5 94.5t72.5 282.5q0 210 -81.5 328t-221.5 118q-135 0 -211 -98v-387z" />
    <glyph glyph-name="f_f_h" unicode="ffh" horiz-adv-x="2627" 
d="M2576 59v-63q-255 18 -516 0v65l56 11q27 5 39.5 8t26 15t18 25t9 47t5 70t0.5 105v293q0 111 -57 165t-148 54q-74 0 -147 -27.5t-127 -72.5v-412q0 -68 0.5 -104.5t5 -70.5t8.5 -47t17.5 -25t26 -15t38.5 -8l55 -13v-63q-249 18 -504 0v63l58 13q65 12 76.5 45
t11.5 209v16v852q-40 122 -102.5 180t-155.5 58q-90 0 -137.5 -73t-47.5 -218v-162h242v-90h-242v-527q0 -71 0.5 -107.5t4.5 -73t9 -51t18 -29t27.5 -20t41.5 -11.5l45 -11v-63q-224 18 -500 0v63l62 11q63 11 74.5 48t11.5 201v43v527h-445v-527q0 -60 0.5 -92.5t2 -67
t5.5 -50.5t9.5 -32.5t16 -23t22 -12t30.5 -10.5l60 -15v-63q-249 17 -508 0v63l73 15q21 4 33.5 8.5t22.5 18.5t14.5 29t7.5 52t3.5 73.5t0.5 106.5v527h-131v78l131 12v59q0 213 94.5 340t249.5 127q105 0 173.5 -59t68.5 -121q0 -45 -25.5 -69t-66.5 -27l-33 8
q-40 109 -69.5 153t-79.5 44q-105 0 -105 -246v-209h445v27q0 229 115 364t313 135q155 0 254 -78q71 18 159 80l23 -18q-8 -151 -8 -410v-266q158 197 387 197q59 0 110.5 -18.5t95 -56.5t68.5 -105.5t25 -157.5v-330v-82.5t2.5 -61.5t4 -46.5t8 -31t11.5 -21.5t17.5 -12.5
t22.5 -8.5l30 -6z" />
    <glyph glyph-name="f_f_k" unicode="ffk" horiz-adv-x="2541" 
d="M1890 59v-63q-251 15 -508 0v63l58 13q65 12 76.5 45.5t11.5 197.5v15v864q-40 122 -102.5 180t-155.5 58q-90 0 -137.5 -73t-47.5 -218v-162h242v-90h-242v-527q0 -71 0.5 -107.5t4.5 -73t9 -51t18 -29t27.5 -20t41.5 -11.5l45 -11v-63q-224 18 -500 0v63l62 11
q63 11 74.5 48t11.5 201v43v527h-445v-527q0 -60 0.5 -92.5t2 -67t5.5 -50.5t9.5 -32.5t16 -23t22 -12t30.5 -10.5l60 -15v-63q-249 17 -508 0v63l73 15q21 4 33.5 8.5t22.5 18.5t14.5 29t7.5 52t3.5 73.5t0.5 106.5v527h-131v78l131 12v59q0 213 94.5 340t249.5 127
q105 0 173.5 -59t68.5 -121q0 -45 -25.5 -69t-66.5 -27l-33 8q-40 109 -69.5 153t-79.5 44q-105 0 -105 -246v-209h445v27q0 229 115 364t313 135q155 0 254 -78q71 18 159 80l23 -18q-8 -151 -8 -410v-749q0 -64 0.5 -98t4.5 -66.5t9 -45t18 -24.5t26.5 -15.5t39.5 -8.5z
M2525 59v-63q-169 9 -334 0l-432 547l199 178q56 49 80 79t24 54q0 26 -19.5 40.5t-66.5 25.5v61q263 -17 482 0v-61l-56 -15q-41 -12 -69 -22.5t-75 -33t-101.5 -58.5t-116.5 -86l-96 -76l327 -404q64 -83 120.5 -118t133.5 -48z" />
    <glyph glyph-name=".notdef" horiz-adv-x="1060" 
d="M123 0v1393h815v-1393h-815zM190 70h680v1253h-680v-1253z" />
    <glyph glyph-name=".null" horiz-adv-x="0" 
 />
    <glyph glyph-name="nonmarkingreturn" horiz-adv-x="682" 
 />
    <glyph glyph-name="space" unicode=" " horiz-adv-x="460" 
 />
    <glyph glyph-name="exclam" unicode="!" horiz-adv-x="649" 
d="M467 1231q0 -58 -16 -127.5t-36.5 -137t-40 -214t-24.5 -338.5h-53q-5 192 -24.5 338.5t-40 214t-36.5 137t-16 127.5q0 86 37 138t107 52t106.5 -52t36.5 -138zM467 111q0 -60 -41 -101t-102 -41t-102.5 41t-41.5 101q0 61 41 102t103 41t102.5 -41t40.5 -102z" />
    <glyph glyph-name="quotedbl" unicode="&#x22;" horiz-adv-x="880" 
d="M219 799q-5 102 -20.5 181.5t-31 117t-28 80.5t-12.5 84q0 80 34 119.5t87 39.5t86 -38.5t33 -116.5q0 -42 -12.5 -86t-28.5 -82t-31.5 -117.5t-20.5 -181.5h-55zM602 799q-5 102 -20.5 181.5t-31 117t-28 80.5t-12.5 84q0 80 34 119.5t87 39.5t86 -38.5t33 -116.5
q0 -42 -12.5 -86t-28.5 -82t-31.5 -117.5t-20.5 -181.5h-55z" />
    <glyph glyph-name="numbersign" unicode="#" horiz-adv-x="1259" 
d="M680 0l72 367h-375l-72 -367h-96l72 367h-230v92h248l90 465h-213v92h232l73 377h97l-74 -377h375l73 377h97l-74 -377h233v-92h-252l-90 -465h217v-92h-235l-72 -367h-96zM395 459h375l90 465h-375z" />
    <glyph glyph-name="dollar" unicode="$" horiz-adv-x="1191" 
d="M573 -29q-36 0 -102 4l-49 -219h-78l51 230q-153 30 -245 100q8 119 4 371l55 12q55 -277 213 -369l115 512q-47 21 -73 33t-69.5 34t-68.5 40t-58.5 44t-53 53t-38 60t-27 72.5t-8.5 83.5q0 169 122.5 280t336.5 111q43 0 117 -8l41 180h78l-45 -196q104 -27 192 -92
q-9 -136 -6 -320l-55 -12q-59 212 -158 301l-102 -459h1l1 -1h1l1 -1h1l1 -1h1h1l1 -1h1l1 -1l2 -1q166 -71 237 -121q165 -115 171 -301v-14q0 -182 -131.5 -293t-378.5 -111zM346 1120q0 -50 18 -91.5t54.5 -73.5t75.5 -55.5t96 -49.5l106 469q-55 22 -116 22
q-107 0 -170.5 -62.5t-63.5 -158.5zM879 279q0 56 -20.5 102t-62 82.5t-84.5 62t-106 54.5l-114 -510q63 -17 120 -17q119 0 193 63.5t74 162.5z" />
    <glyph glyph-name="percent" unicode="%" horiz-adv-x="1611" 
d="M406 733q-145 0 -242.5 100t-97.5 244t97.5 244t242.5 100t242 -100t97 -244t-97 -244t-242 -100zM188 0l1110 1393h123l-1108 -1393h-125zM406 1319q-98 0 -163 -69t-65 -173q0 -101 65.5 -171t162.5 -70q100 0 163.5 69.5t63.5 171.5q0 105 -63.5 173.5t-163.5 68.5z
M1204 -29q-145 0 -242.5 99t-97.5 243t97.5 244t242.5 100t242.5 -100t97.5 -244t-97.5 -243t-242.5 -99zM1204 555q-98 0 -162.5 -69.5t-64.5 -172.5q0 -101 65 -171t162 -70q100 0 164 70t64 171q0 104 -64 173t-164 69z" />
    <glyph glyph-name="ampersand" unicode="&#x26;" horiz-adv-x="1554" 
d="M1147 -4l-227 268q-151 -293 -410 -293q-98 0 -178 31t-129.5 83.5t-76 117.5t-26.5 135q0 88 26.5 158.5t80 123.5t119 92t157.5 76q-125 168 -125 308q0 146 103 236.5t272 90.5q157 0 257 -71.5t100 -202.5q0 -205 -357 -328l266 -319q69 146 138.5 224.5t156.5 78.5
q67 0 109.5 -44.5t42.5 -107.5q0 -101 -86 -159l-35 8q-45 69 -72 94t-63 25q-41 0 -75.5 -39.5t-78.5 -126.5l90 -109q210 -258 326 -287l25 -8v-55q-162 6 -330 0zM666 905l39 -47q122 73 169.5 138.5t47.5 150.5q0 86 -52.5 140t-134.5 54q-87 0 -136.5 -47t-49.5 -125
q0 -125 117 -264zM299 446q0 -140 86.5 -223.5t224.5 -83.5q92 0 155.5 43t117.5 127l-330 389q-6 7 -18.5 22.5t-18.5 22.5q-111 -62 -164 -130.5t-53 -166.5z" />
    <glyph glyph-name="quotesingle" unicode="'" horiz-adv-x="495" 
d="M219 799q-5 102 -20.5 181.5t-31 117t-28 80.5t-12.5 84q0 80 34 119.5t87 39.5t86 -38.5t33 -116.5q0 -42 -12.5 -86t-28.5 -82t-31.5 -117.5t-20.5 -181.5h-55z" />
    <glyph glyph-name="parenleft" unicode="(" horiz-adv-x="845" 
d="M135 596q0 306 171.5 550t465.5 398l25 -43q-432 -337 -432 -905q0 -270 103.5 -491.5t328.5 -411.5l-25 -43q-294 143 -465.5 390t-171.5 556z" />
    <glyph glyph-name="parenright" unicode=")" horiz-adv-x="845" 
d="M72 1544q294 -154 465.5 -398t171.5 -550q0 -309 -171.5 -556t-465.5 -390l-25 43q226 190 330 411t104 492q0 566 -434 905z" />
    <glyph glyph-name="asterisk" unicode="*" horiz-adv-x="1054" 
d="M526 975q-36 -63 -63 -170t-49 -139q-36 -48 -82.5 -53.5t-79.5 24.5q-42 28 -52 69.5t23 92.5q22 30 68 59.5t101.5 66.5t94.5 81q-71 16 -185.5 8.5t-145.5 5.5q-57 19 -75.5 59t-2.5 84q14 49 52.5 71.5t94.5 4.5q39 -14 125 -85.5t152 -100.5q-6 73 -47 176t-41 143
q0 60 31.5 90.5t80.5 30.5q50 0 82.5 -30t32.5 -89q0 -41 -41 -144.5t-47 -176.5q54 23 105.5 64t94 75.5t76.5 46.5q56 18 95 -4.5t53 -69.5q15 -46 -4 -86t-74 -59q-39 -13 -147 -5.5t-185 -8.5q48 -54 143 -113t119 -94q23 -33 25 -64t-11.5 -55t-39.5 -43
q-33 -30 -80 -24.5t-80 53.5q-24 33 -52.5 140.5t-64.5 168.5z" />
    <glyph glyph-name="plus" unicode="+" 
d="M899 639h-342v-365h-92v365h-342v88h342v365h92v-365h342v-88z" />
    <glyph glyph-name="comma" unicode="," horiz-adv-x="544" 
d="M74 -346l-25 41q39 34 62 57.5t46 56.5t30 66t7 78.5t-16.5 101.5t-46.5 127l19 29q57 47 112 47q71 0 108.5 -49.5t37.5 -116.5q0 -232 -334 -438z" />
    <glyph glyph-name="hyphen" unicode="-" horiz-adv-x="712" 
d="M88 565v156h535v-156h-535z" />
    <glyph glyph-name="period" unicode="." horiz-adv-x="544" 
d="M420 115q0 -60 -43 -102t-105 -42q-61 0 -104 42t-43 102q0 61 42.5 103t104.5 42t105 -42t43 -103z" />
    <glyph glyph-name="slash" unicode="/" horiz-adv-x="868" 
d="M16 -184l715 1761h119l-715 -1761h-119z" />
    <glyph glyph-name="zero" unicode="0" horiz-adv-x="1239" 
d="M616 1421q143 0 256.5 -99t174.5 -265t61 -365q0 -333 -138 -527t-347 -194q-109 0 -202 57.5t-156.5 156.5t-99.5 232t-36 283q0 167 38 304t104 227.5t155 140t190 49.5zM588 1346q-52 0 -91 -29t-69 -94t-45.5 -178t-15.5 -273q0 -350 75.5 -538.5t202.5 -188.5
q54 0 94 28.5t70.5 92.5t46.5 176t16 270q0 341 -86 537.5t-198 196.5z" />
    <glyph glyph-name="one" unicode="1" horiz-adv-x="757" 
d="M289 358v613q0 160 -19 201t-110 34l-56 -4l-6 66q129 27 218.5 62t170.5 91l29 -26q-8 -148 -8 -408v-629q0 -69 0.5 -107t4.5 -74t9 -51.5t16.5 -29t25.5 -18t38 -8.5l72 -13v-63q-278 13 -555 0v63l71 13q25 4 39.5 8.5t27 18t18 29t9.5 51.5t4.5 74t0.5 107z" />
    <glyph glyph-name="two" unicode="2" horiz-adv-x="1077" 
d="M981 403q-64 -228 -76 -411q-406 15 -833 0v61q84 94 126.5 141.5t111 126t102.5 121.5t84 108t74.5 106t55 96t43.5 97t23 89.5t10 93.5q0 145 -63 227t-166 82q-76 0 -119 -48.5t-50.5 -133t9.5 -198.5l-34 -19q-83 3 -131 36.5t-48 98.5q0 58 32 118.5t87.5 111
t140.5 82.5t181 32q173 0 283 -108t110 -285q0 -88 -33 -173t-83.5 -152t-126 -142t-145.5 -134t-157 -137.5t-147 -142.5l254 11q97 5 167 18.5t108.5 27t69 46.5t40 51t29.5 66l3 6l19 45z" />
    <glyph glyph-name="three" unicode="3" horiz-adv-x="1036" 
d="M952 428q0 -124 -55 -227t-164.5 -166.5t-253.5 -63.5q-79 0 -153 24t-126 62t-83 85.5t-31 93.5q0 51 35.5 82.5t89.5 39.5l35 -10q56 -161 114.5 -233t153.5 -72q100 0 157.5 72t57.5 200q0 173 -81 280t-247 157l-45 12l396 467l-129 -4q-122 -2 -196.5 -11
t-116.5 -29t-58.5 -44t-26.5 -66l-18 -71h-53q9 75 10 192t-6 199q354 -14 729 0v-156l-406 -436q215 10 343 -93.5t128 -283.5z" />
    <glyph glyph-name="four" unicode="4" horiz-adv-x="1171" 
d="M625 350q-268 3 -574 -8v84l649 977q65 -16 134 -19q-9 -170 -9 -417v-459q96 4 145 44t83 116l10 26l47 -12q-60 -190 -68 -340q-38 1 -105 3t-112 3q0 -68 1 -107.5t5 -73.5t9 -49t17.5 -27t25.5 -15.5t37 -7.5l71 -11v-63q-274 13 -551 0v63l90 11q24 3 37 6.5
t25.5 16t17.5 27.5t9 49t5 74t1 109zM623 498v639l-430 -641z" />
    <glyph glyph-name="five" unicode="5" horiz-adv-x="1013" 
d="M934 436q0 -207 -129.5 -336t-339.5 -129q-160 0 -278.5 84.5t-118.5 180.5q0 51 35.5 81.5t89.5 40.5l34 -12q57 -159 117.5 -230t157.5 -71q96 0 152.5 76t56.5 209q0 213 -136 336.5t-366 138.5l-35 2l88 584q322 -8 438.5 5.5t167.5 69.5l39 -20q-42 -120 -53 -266
q-227 30 -532 8l-62 -322q296 46 485 -79.5t189 -350.5z" />
    <glyph glyph-name="six" unicode="6" horiz-adv-x="1150" 
d="M1051 449q0 -212 -129.5 -345t-331.5 -133q-98 0 -185.5 40t-153 113t-104 182.5t-38.5 240.5q0 114 27.5 224t89.5 217t152.5 192t227 147t303.5 84l6 -72q-128 -29 -225 -80t-163 -122.5t-109 -151t-74 -180.5q110 82 260 82q121 0 221.5 -51t163 -152.5t62.5 -234.5z
M547 809q-99 0 -157 -76t-58 -244q0 -199 80 -323.5t198 -124.5q93 0 153 83t60 243q0 201 -78.5 321.5t-197.5 120.5z" />
    <glyph glyph-name="seven" unicode="7" horiz-adv-x="985" 
d="M930 1323q-163 -281 -274 -626.5t-173 -696.5h-268l-16 25l589 1196h-215q-104 0 -175.5 -8t-117 -21.5t-74.5 -40t-43.5 -54.5t-29.5 -75l-16 -53h-51q8 84 9.5 209t-5.5 219q418 -16 860 0v-74z" />
    <glyph glyph-name="eight" unicode="8" horiz-adv-x="1126" 
d="M1034 383q0 -187 -137 -299.5t-344 -112.5q-209 0 -334 103.5t-125 273.5q0 71 27.5 133.5t74 108.5t99.5 79t113 56q-54 37 -92.5 69.5t-74 75t-53.5 92t-18 105.5q0 153 111.5 253.5t310.5 100.5q169 0 275 -86.5t106 -216.5q0 -116 -72.5 -201t-202.5 -137
q48 -28 72.5 -43t66.5 -43t64.5 -48.5t52 -52t44 -61.5t25.5 -68.5t11 -80.5zM371 1161q0 -60 20.5 -111t61.5 -93.5t82.5 -73.5t103.5 -68q72 53 104.5 124.5t32.5 170.5q0 113 -62 176.5t-155 63.5q-76 0 -132 -52t-56 -137zM301 367q0 -144 78.5 -235t206.5 -91
q104 0 177 59t73 166q0 68 -23.5 123.5t-85 110.5t-95.5 79t-126 82q-30 19 -45 29q-81 -69 -120.5 -141t-39.5 -182z" />
    <glyph glyph-name="nine" unicode="9" horiz-adv-x="1150" 
d="M1040 844q0 -115 -27 -226.5t-88.5 -220t-152 -194.5t-227.5 -148t-305 -82l-7 68q127 29 225 81.5t164 125.5t109 154t74 184q-110 -82 -258 -82q-121 0 -222 51t-164 152.5t-63 234.5q0 213 130 346t333 133t341 -157.5t138 -419.5zM602 582q215 0 215 319
q0 197 -79.5 321t-196.5 124q-94 0 -153.5 -81.5t-59.5 -240.5q0 -201 78 -321.5t196 -120.5z" />
    <glyph glyph-name="colon" unicode=":" horiz-adv-x="581" 
d="M436 856q0 -60 -42.5 -101.5t-104.5 -41.5t-105 41.5t-43 101.5q0 61 43 103t105 42t104.5 -42t42.5 -103zM436 115q0 -60 -43 -102t-104 -42q-62 0 -105 42t-43 102q0 61 43 103t105 42t104.5 -42t42.5 -103z" />
    <glyph glyph-name="semicolon" unicode=";" horiz-adv-x="581" 
d="M436 856q0 -60 -42.5 -101.5t-104.5 -41.5t-105 41.5t-43 101.5q0 61 43 103t105 42t104.5 -42t42.5 -103zM90 -346l-24 41q47 41 73 68.5t48.5 70t24 87.5t-13.5 110.5t-51 150.5l19 29q57 47 113 47q71 0 108 -49.5t37 -116.5q0 -232 -334 -438z" />
    <glyph glyph-name="less" unicode="&#x3c;" 
d="M899 330v-99l-776 412v84l776 410v-97l-678 -354z" />
    <glyph glyph-name="equal" unicode="=" 
d="M899 803h-776v88h776v-88zM899 473h-776v88h776v-88z" />
    <glyph glyph-name="greater" unicode="&#x3e;" 
d="M899 643l-776 -412v99l678 356l-678 354v97l776 -410v-84z" />
    <glyph glyph-name="question" unicode="?" horiz-adv-x="1015" 
d="M528 412q-82 0 -143 47t-61 135q0 47 19.5 88t50.5 72t69 61.5t76 63t69 68t50.5 85.5t19.5 109q0 97 -58 149.5t-153 52.5q-124 0 -171 -87.5t-17 -276.5l-37 -6q-83 2 -129.5 33.5t-46.5 95.5q0 51 35 107t95 103t150 78t189 31q190 0 291.5 -83.5t101.5 -211.5
q0 -63 -21 -113.5t-55.5 -83t-79 -61t-90.5 -48t-90.5 -43t-79 -46.5t-55.5 -58.5t-21 -78.5q0 -47 27.5 -79t77.5 -32q99 0 157 127l68 -37q-89 -161 -238 -161zM666 111q0 -60 -41.5 -101t-102.5 -41t-102 41t-41 101q0 61 40.5 102t102.5 41t103 -41t41 -102z" />
    <glyph glyph-name="at" unicode="@" horiz-adv-x="1964" 
d="M1311 289q-30 -113 -13 -156t84 -43q45 0 95 23.5t100.5 72.5t90.5 116t65.5 163.5t25.5 204.5q0 276 -166 443t-473 167q-172 0 -321.5 -52t-257 -141.5t-184.5 -206.5t-114.5 -249.5t-37.5 -268.5q0 -171 54 -302.5t149.5 -211.5t219 -120.5t269.5 -40.5q308 0 496 110
l34 -41q-239 -162 -561 -162q-129 0 -243.5 29.5t-212.5 90.5t-169 150t-111 214t-40 276q0 135 34 264t96 242t155 208.5t206.5 163.5t254 106t294.5 38q164 0 304 -53.5t236 -146t150 -220t54 -272.5q0 -153 -48.5 -287t-126.5 -223t-175.5 -140.5t-196.5 -51.5
q-151 0 -198.5 88.5t10.5 261.5l125 373q-109 -223 -190 -362.5t-151.5 -220t-129 -110.5t-129.5 -30q-87 0 -136 62t-49 179q0 139 51 275.5t132.5 238.5t190 165t218.5 63q82 0 145 -38.5t101 -97.5q97 41 149 123h33zM678 332q0 -108 27 -147.5t71 -39.5q30 0 60.5 15.5
t64 52.5t63.5 78t71.5 113.5t76 136t88.5 166.5q-6 71 -59 124.5t-123 53.5q-75 0 -140.5 -51.5t-108 -133t-67 -178.5t-24.5 -190z" />
    <glyph glyph-name="A" unicode="A" horiz-adv-x="1419" 
d="M1393 59v-63q-284 9 -543 0v63l47 11q33 7 48.5 12.5t30.5 17t16 30.5t-4.5 49.5t-22.5 76.5l-68 197h-491l-64 -193q-28 -97 -7.5 -134.5t101.5 -55.5l43 -11v-63q-213 13 -452 0v63l39 11q41 11 68 28.5t57 62t57 120.5l180 497q67 186 94 277t27 135q0 32 -13 49
t-42 25l-54 14v55q85 3 170 26.5t140 57.5h30l426 -1149q30 -82 52.5 -122.5t42 -54.5t51.5 -21zM432 537h434l-223 645z" />
    <glyph glyph-name="B" unicode="B" horiz-adv-x="1314" 
d="M1190 410q0 -189 -158.5 -301.5t-449.5 -112.5q-51 0 -150 2t-180.5 2t-151.5 -4v63l74 15q21 3 33 7.5t22 18t14.5 29t8 50.5t4 72.5t0.5 104.5v678q0 67 -0.5 105t-4 73t-8 51t-14.5 30t-22.5 18.5t-32.5 7.5l-74 12v66q68 -4 138.5 -4t157.5 2t139 2q125 0 224 -17.5
t178 -55t122 -103.5t43 -156q0 -238 -297 -313q189 -26 287 -115.5t98 -226.5zM565 766q138 0 221.5 71.5t83.5 204.5q0 136 -99 204.5t-290 68.5v-549h84zM647 74q147 0 226 80.5t79 230.5q0 144 -102.5 224.5t-271.5 80.5h-97v-426q0 -111 35.5 -150.5t130.5 -39.5z" />
    <glyph glyph-name="C" unicode="C" horiz-adv-x="1390" 
d="M717 1325q-160 0 -259.5 -132t-99.5 -359q0 -215 68.5 -393t185 -279t254.5 -101q104 0 172 67.5t160 264.5l35 74l51 -14q-22 -111 -59 -396q-145 -86 -371 -86q-156 0 -290.5 51t-233 145t-155 234.5t-56.5 311.5q0 206 84.5 367t240.5 251t359 90q230 0 385 -106
q2 -144 31 -377l-54 -12l-45 92q-82 169 -175 238t-228 69z" />
    <glyph glyph-name="D" unicode="D" horiz-adv-x="1499" 
d="M537 1397q259 0 446 -74t292 -229t105 -379q0 -344 -203 -531.5t-575 -187.5q-35 0 -137 2t-195.5 2t-169.5 -4v63l74 13q20 3 32.5 7.5t22.5 17.5t14.5 28t8 48.5t4 69.5t0.5 99v713q0 74 -1.5 113t-5.5 72t-14 46.5t-23.5 21t-37.5 11.5l-74 12v66q71 -5 154 -5
t169 2.5t114 2.5zM1141 682q0 309 -171.5 469t-488.5 168v-1000q0 -139 38 -191t147 -52q219 0 347 155t128 451z" />
    <glyph glyph-name="E" unicode="E" horiz-adv-x="1275" 
d="M1188 375q-61 -241 -74 -379q-621 15 -1014 0v63l74 13q20 3 32.5 7.5t22.5 17.5t14.5 28t8 48.5t4 69.5t0.5 99v707q0 63 -0.5 99t-4 69.5t-8 48.5t-14.5 28t-22.5 17.5t-32.5 7.5l-74 12v66q386 -17 985 0q-5 -162 5 -383l-46 -10q-22 71 -37 112.5t-35 80t-38.5 56.5
t-48.5 32t-64 18t-86 4h-254v-580l168 6q102 4 141.5 35t69.5 123l12 35h48q-16 -259 0 -463h-48l-12 35q-30 91 -70 122t-141 35l-168 7v-345q0 -141 44 -191t173 -50h82q60 0 101 11t85 44.5t85.5 94.5t93.5 163z" />
    <glyph glyph-name="F" unicode="F" horiz-adv-x="1185" 
d="M674 59v-63q-289 16 -574 0v63l74 13q20 3 32.5 7.5t22.5 18t14.5 29.5t8 51t4 73t0.5 105v699q0 74 -1.5 113t-5.5 72t-14 46.5t-23.5 21t-37.5 11.5l-74 12v66q445 -20 973 0q-6 -176 4 -381l-45 -12q-25 100 -46.5 154t-56.5 90.5t-81.5 47.5t-124.5 11h-242v-580
l162 6q71 3 109.5 18.5t60 45.5t43.5 94l10 35h49q-19 -254 0 -463h-49l-10 35q-22 63 -43 93t-60 45.5t-110 18.5l-162 7v-306q0 -69 0.5 -105t3.5 -73t8 -52t15 -29t23 -18t34 -7z" />
    <glyph glyph-name="G" unicode="G" horiz-adv-x="1501" 
d="M1311 -20l-49 -9q-40 77 -56 101q-76 -51 -158 -76t-204 -25q-151 0 -283.5 51.5t-230.5 145t-154.5 233.5t-56.5 308q0 136 36.5 252.5t101 200t151 143t187 88t208.5 28.5q241 0 401 -112q-2 -140 23 -379l-53 -12l-29 63q-42 90 -81 150.5t-88 106.5t-109 67.5
t-136 21.5q-168 0 -270.5 -130t-102.5 -374q0 -172 45 -319t120 -244.5t172.5 -152t203.5 -54.5q108 0 157.5 58.5t49.5 195.5v135q0 73 -18 96t-72 31l-74 9v63q212 -14 469 0v-63q-26 -3 -41 -7t-27.5 -17t-18 -26t-9 -46.5t-4 -66t-0.5 -96.5v-339z" />
    <glyph glyph-name="H" unicode="H" horiz-adv-x="1624" 
d="M1522 59v-63q-265 16 -537 0v63l76 13q20 3 32.5 7.5t22.5 18.5t14.5 30t8 51.5t4 74t0.5 106.5v326h-662v-326q0 -70 0.5 -107t3.5 -73.5t7.5 -52t14.5 -29.5t22.5 -18.5t33.5 -7.5l74 -13v-63q-267 16 -537 0v63l74 13q20 3 32.5 7.5t22.5 18.5t14.5 30t8 51.5t4 74
t0.5 106.5v670q0 68 -0.5 106.5t-4 74.5t-8 52t-14.5 30t-22.5 18.5t-32.5 7.5l-74 12v66q268 -16 537 0v-66l-74 -12q-21 -3 -33.5 -7.5t-22.5 -19t-14.5 -29.5t-7.5 -52t-3.5 -74t-0.5 -107v-256h662v256q0 68 -0.5 106.5t-4 74.5t-8 52t-14.5 30t-22.5 18.5t-32.5 7.5
l-76 12v66q272 -16 537 0v-66l-74 -12q-20 -3 -32.5 -7.5t-22.5 -18.5t-14.5 -30t-8 -52t-4 -74.5t-0.5 -106.5v-670q0 -68 0.5 -106.5t4 -74t8 -51.5t14.5 -30t22.5 -18.5t32.5 -7.5z" />
    <glyph glyph-name="I" unicode="I" horiz-adv-x="737" 
d="M256 360v670q0 68 -0.5 106.5t-4 74.5t-8 52t-14.5 30t-22.5 18.5t-32.5 7.5l-74 12v66q267 -16 537 0v-66l-74 -12q-21 -3 -33.5 -7.5t-22.5 -19t-14.5 -29.5t-7.5 -52t-3.5 -74t-0.5 -107v-670q0 -70 0.5 -107t3.5 -73.5t7.5 -52t14.5 -29.5t22.5 -18.5t33.5 -7.5
l74 -13v-63q-270 16 -537 0v63l74 13q20 3 32.5 7.5t22.5 18.5t14.5 30t8 51.5t4 74t0.5 106.5z" />
    <glyph glyph-name="J" unicode="J" horiz-adv-x="724" 
d="M258 1030q0 67 -1 106.5t-4 74.5t-8 52t-15 30t-22 18t-32 8l-74 12v66q267 -19 537 0v-66l-76 -12q-20 -3 -32 -8t-22 -18t-15 -30t-8 -52t-4 -74.5t-1 -106.5v-739q0 -227 -71 -348.5t-236 -153.5l-61 -12l-13 55l45 21q38 17 59 39.5t34 75t16.5 125t3.5 204.5v733z
" />
    <glyph glyph-name="K" unicode="K" horiz-adv-x="1476" 
d="M481 1030v-676q0 -69 0.5 -105t3.5 -72t7.5 -51t14.5 -28.5t22.5 -18t33.5 -7.5l74 -13v-63q-268 17 -537 0v63l74 13q21 3 33 7.5t22 18t14.5 29t8 50.5t4 72.5t0.5 104.5v676q0 68 -0.5 106.5t-4 74.5t-8 52t-14.5 30t-22.5 18.5t-32.5 7.5l-74 12v66q268 -17 537 0
v-66l-74 -12q-21 -3 -33.5 -7.5t-22.5 -19t-14.5 -29.5t-7.5 -52t-3.5 -74t-0.5 -107zM1450 59v-63q-172 13 -356 0l-580 717l369 393q40 42 63 77.5t29 60t-0.5 42.5t-22 28.5t-39.5 14.5l-43 8v60q245 -17 508 0v-60l-43 -8q-69 -13 -157 -75t-238 -210l-227 -231
l438 -530q106 -127 157 -169t99 -48z" />
    <glyph glyph-name="L" unicode="L" horiz-adv-x="1216" 
d="M256 1030q0 68 -0.5 106.5t-4 74.5t-8 52t-14.5 30t-22.5 18.5t-32.5 7.5l-74 12v66q270 -16 537 0v-66l-74 -12q-21 -3 -33.5 -7.5t-22.5 -19t-14.5 -29.5t-7.5 -52t-3.5 -74t-0.5 -107v-727q0 -139 36.5 -183t148.5 -44h61q87 0 162 76.5t180 259.5l33 55l45 -18
q-73 -264 -92 -453q-585 18 -955 0v63l74 13q20 3 32.5 7.5t22.5 17.5t14.5 27.5t8 47.5t4 68.5t0.5 97.5v692z" />
    <glyph glyph-name="M" unicode="M" horiz-adv-x="1906" 
d="M1804 59v-63q-266 17 -528 0v63l67 13q42 7 59 28.5t23.5 76t6.5 183.5v797l-469 -1053q-62 3 -121 0l-500 1039l10 -840q1 -88 13 -133.5t35 -65t73 -32.5l45 -13v-63q-218 14 -426 0v63l53 15q42 10 63 27t34.5 66.5t13.5 141.5v805q0 89 -19 133.5t-85 65.5l-54 18v66
q166 -17 371 0l508 -1061l463 1061q176 -18 364 0v-66l-75 -12q-20 -3 -32.5 -7.5t-22 -19t-14 -30t-7.5 -52t-3.5 -73t-0.5 -105.5v-672q0 -79 2 -124t6 -79t15 -49.5t24.5 -23t38.5 -12.5z" />
    <glyph glyph-name="N" unicode="N" horiz-adv-x="1517" 
d="M526 59v-63q-221 10 -436 0v63l66 17q35 9 55 32t31.5 80.5t11.5 157.5v766q0 90 -24 139t-76 64l-62 16v66q67 -7 165 -7t165 7l772 -1090l-16 742q-3 141 -25 196t-90 72l-51 14v66q213 -14 422 0v-66l-56 -16q-38 -11 -59.5 -35t-33 -79t-11.5 -150v-1051
q-74 3 -152 0l-786 1110l10 -766q1 -101 12 -153.5t36.5 -78t76.5 -38.5z" />
    <glyph glyph-name="O" unicode="O" horiz-adv-x="1615" 
d="M809 1421q137 0 262 -53t219 -146.5t149.5 -231.5t55.5 -298q0 -158 -53 -293.5t-144.5 -229t-219 -146t-273.5 -52.5q-109 0 -212 33t-188.5 97t-149.5 151.5t-100 203t-36 244.5q0 158 53 293.5t144.5 229t219 146t273.5 52.5zM1255 594q0 324 -148 529.5t-364 205.5
q-174 0 -279.5 -142t-105.5 -388q0 -162 40.5 -301t109.5 -234t163 -149t199 -54q174 0 279.5 143t105.5 390z" />
    <glyph glyph-name="P" unicode="P" horiz-adv-x="1259" 
d="M100 -4v63l74 13q21 3 33.5 7.5t22.5 19t14.5 29.5t7.5 51.5t3.5 72.5t0.5 104v674q0 70 -0.5 107t-3.5 74t-7.5 52t-14.5 29.5t-22.5 19t-33.5 7.5l-74 12v66q81 -5 156 -5t154.5 2.5t121.5 2.5q291 0 450 -100t159 -306q0 -215 -168 -333.5t-492 -118.5v-183
q0 -69 0.5 -105t4 -72.5t8 -51t16 -28.5t25 -18.5t36.5 -8.5l93 -13v-63q-298 18 -564 0zM481 1315v-694q216 1 321 86t105 256q0 174 -105 261.5t-321 90.5z" />
    <glyph glyph-name="Q" unicode="Q" horiz-adv-x="1615" 
d="M1380 -305q-67 -24 -131.5 -65t-105.5 -89q-46 83 -91 134.5t-110.5 82.5t-148.5 31q-69 0 -128.5 -11t-154.5 -38l-23 63l351 168h-33q-109 0 -212 33t-188.5 97t-149.5 151.5t-100 203t-36 244.5q0 158 53 293.5t144.5 229t219 146t273.5 52.5q137 0 262 -53
t219 -146.5t149.5 -231.5t55.5 -298q0 -472 -428 -678l-375 -180q128 33 236 39t191.5 -13t147 -53t119.5 -86zM1255 594q0 324 -148 529.5t-364 205.5q-174 0 -279.5 -142t-105.5 -388q0 -162 40.5 -301t109.5 -234t163 -149t199 -54q174 0 279.5 142t105.5 391z" />
    <glyph glyph-name="R" unicode="R" horiz-adv-x="1357" 
d="M637 59v-63q-282 18 -537 0v63l74 13q21 3 33.5 7.5t22.5 19t14.5 29.5t7.5 51.5t3.5 72.5t0.5 104v674q0 70 -0.5 107t-3.5 74t-7.5 52t-14.5 29.5t-22.5 19t-33.5 7.5l-74 12v66q81 -5 155.5 -5t153 2.5t119.5 2.5q274 0 426 -88t152 -267q0 -126 -90 -212t-262 -128
l323 -442q62 -85 92 -119t51 -46.5t58 -20.5l47 -13v-63q-165 6 -330 0l-477 688q194 50 274 126.5t80 217.5q0 144 -96 213t-295 72v-959q0 -69 0.5 -105t3.5 -72.5t7.5 -51.5t14.5 -29t22.5 -18.5t33.5 -7.5z" />
    <glyph glyph-name="S" unicode="S" horiz-adv-x="1185" 
d="M612 53q119 0 193 63.5t74 162.5q0 60 -25 110t-68 85t-98.5 65.5t-116.5 57.5t-122 55t-116.5 63.5t-98.5 78t-68 103.5t-25 135q0 169 122.5 280t336.5 111q227 0 383 -116q-9 -136 -6 -320l-55 -12q-52 187 -133.5 276.5t-208.5 89.5q-107 0 -170.5 -62.5
t-63.5 -158.5q0 -57 25 -104t68 -80t98 -61.5t116 -54t122.5 -53t116.5 -64t98 -80t68 -107t25 -141.5q0 -182 -131.5 -293t-378.5 -111q-272 0 -423 115q8 119 4 371l55 12q80 -416 403 -416z" />
    <glyph glyph-name="T" unicode="T" horiz-adv-x="1374" 
d="M573 360v963h-139q-83 0 -144 -68t-122 -231l-37 -98l-53 8q29 252 35 463q355 -7 573 -7t576 7q5 -208 32 -463l-51 -8l-37 98q-61 163 -125 231t-145 68h-137v-963q0 -70 0.5 -107t3.5 -73.5t7.5 -52t14.5 -29.5t22.5 -18.5t33.5 -7.5l75 -13v-63q-270 16 -540 0v63
l76 13q57 9 69 54t12 234z" />
    <glyph glyph-name="U" unicode="U" horiz-adv-x="1484" 
d="M238 1030q0 70 -0.5 107t-3.5 74t-7.5 52t-15 29.5t-23.5 19t-34 7.5l-72 12v66q270 -19 536 0v-66l-73 -12q-25 -4 -39 -12t-24 -22.5t-14 -51t-5.5 -79t-1.5 -124.5v-510q0 -222 87 -328t265 -106q349 0 346 463l-4 526q-1 99 -10 146.5t-31.5 69.5t-71.5 30l-47 10v66
q220 -15 416 0v-66l-63 -14q-34 -7 -52.5 -25t-30.5 -70.5t-12 -146.5v-532q0 -155 -37 -267.5t-106 -178t-157 -96t-199 -30.5q-516 0 -516 512v547z" />
    <glyph glyph-name="V" unicode="V" horiz-adv-x="1409" 
d="M1171 1112l-391 -1114q-72 6 -143 0l-424 1126q-44 117 -71 153.5t-72 45.5l-43 8v66q271 -11 534 0v-66l-45 -12q-29 -7 -43 -12.5t-29 -17.5t-17 -30t3 -49t21 -75l331 -908l281 899q27 94 7.5 134.5t-89.5 58.5l-45 12v66q187 -14 446 0v-66l-41 -14
q-60 -19 -99 -65.5t-71 -139.5z" />
    <glyph glyph-name="W" unicode="W" horiz-adv-x="2084" 
d="M1849 1116l-370 -1118q-72 6 -140 0l-274 809l-297 -809q-74 6 -147 0l-410 1128q-43 115 -71.5 152.5t-67.5 44.5l-45 8v66q287 -16 514 0v-66l-54 -10q-33 -6 -49 -20.5t-16 -54t24 -105.5l332 -905l246 686l-70 206q-28 82 -50 124t-40.5 56t-46.5 17l-45 8v64
q297 -16 531 0v-66l-58 -10q-43 -7 -61 -20t-18.5 -50.5t22.5 -109.5l291 -891l272 885q27 89 5.5 132.5t-97.5 57.5l-35 6v66q195 -16 434 0v-66l-47 -12q-104 -22 -162 -203z" />
    <glyph glyph-name="X" unicode="X" horiz-adv-x="1454" 
d="M1419 59v-63q-269 13 -542 0v63l61 7q26 3 36.5 21t-1.5 60t-53 103l-250 366l-230 -356q-29 -44 -40 -80.5t-4.5 -59.5t24 -36.5t43.5 -17.5l53 -7v-63q-100 6 -242.5 6t-240.5 -6v63l51 11q55 12 112.5 57t135.5 152l293 403l-301 442q-82 121 -113 154t-64 41l-67 12
v66q275 -17 543 0v-66l-66 -8q-28 -5 -39.5 -19t-1 -52.5t52.5 -100.5l217 -317l195 296q110 170 -20 193l-56 8v66q100 -6 243 -6t241 6v-66l-52 -10q-54 -11 -114 -58t-140 -151l-256 -340l357 -520q74 -111 104.5 -142.5t63.5 -37.5z" />
    <glyph glyph-name="Y" unicode="Y" horiz-adv-x="1300" 
d="M924 59v-63q-265 17 -537 0v63l76 9q21 2 33.5 5.5t22.5 18t14.5 30t7.5 53.5t3.5 76t0.5 109v222l-295 514q-62 105 -90.5 147t-48 58t-50.5 22l-34 8v66q215 -14 544 0v-66l-43 -8q-88 -17 -98.5 -56.5t43.5 -131.5l256 -443l211 426q85 173 -61 205l-41 8v66
q89 -9 217 -9t217 9v-66l-39 -8q-45 -10 -89 -56t-104 -155l-272 -491v-261q0 -71 0.5 -109t3.5 -76t7.5 -53.5t14.5 -30t22.5 -18t33.5 -5.5z" />
    <glyph glyph-name="Z" unicode="Z" horiz-adv-x="1271" 
d="M1112 -4q-504 13 -1012 0v35l774 1282l-239 -2q-175 -2 -264.5 -61.5t-159.5 -225.5l-29 -66l-47 13q24 164 43 426q528 -18 965 0v-37l-776 -1282l237 2q108 1 178 12.5t127.5 43.5t97 85.5t76.5 140.5l33 78l53 -12q-36 -183 -57 -432z" />
    <glyph glyph-name="bracketleft" unicode="[" horiz-adv-x="806" 
d="M248 -346v1894h459v-82h-250v-1730h250v-82h-459z" />
    <glyph glyph-name="backslash" unicode="\" horiz-adv-x="868" 
d="M850 -184h-119l-715 1761h119z" />
    <glyph glyph-name="bracketright" unicode="]" horiz-adv-x="806" 
d="M559 1548v-1894h-459v82h250v1730h-250v82h459z" />
    <glyph glyph-name="asciicircum" unicode="^" 
d="M813 627l-303 686l-301 -686h-90l348 766h84l350 -766h-88z" />
    <glyph glyph-name="underscore" unicode="_" horiz-adv-x="909" 
d="M35 -299v129h837v-129h-837z" />
    <glyph glyph-name="grave" unicode="`" 
d="M297 1419q0 41 32.5 72t88.5 43l28 -12l230 -361l-21 -24q-206 98 -282 156.5t-76 125.5z" />
    <glyph glyph-name="a" unicode="a" horiz-adv-x="1097" 
d="M1075 117q-111 -146 -244 -146q-64 0 -102.5 37.5t-38.5 108.5v6q-54 -75 -122 -113.5t-175 -38.5q-132 0 -212.5 72t-80.5 190q0 120 83 192t241 89l258 27v61q0 148 -51.5 235t-149.5 87q-174 0 -151 -291l-35 -10q-139 4 -139 96q0 65 60 133t157 113t194 45
q164 0 243 -90.5t79 -270.5v-454q0 -54 11.5 -74.5t43.5 -20.5q53 0 103 47zM496 98q117 0 186 78v283h-150q-120 0 -174.5 -43t-54.5 -131q0 -83 54 -135t139 -52z" />
    <glyph glyph-name="b" unicode="b" horiz-adv-x="1218" 
d="M627 -29q-190 0 -318 101l-92 -105l-37 10v1049q0 237 -10 292q-11 62 -50 79q-17 7 -48 10l-47 4v66q127 0 204 7.5t150 31.5l16 -23q-8 -172 -8 -477v-166q111 160 320 160q126 0 220.5 -65t142.5 -175.5t48 -249.5q0 -131 -41 -237t-110 -173t-156.5 -103t-183.5 -36z
M387 385q0 -96 21.5 -165t59.5 -105t81 -52t94 -16q114 0 187 94.5t73 282.5q0 210 -81.5 328t-221.5 118q-138 0 -213 -100v-385z" />
    <glyph glyph-name="c" unicode="c" horiz-adv-x="1019" 
d="M518 924q-98 0 -158.5 -79.5t-60.5 -223.5q0 -224 102.5 -352t272.5 -128q150 0 260 133l33 -26q-68 -137 -169.5 -207t-224.5 -70q-206 0 -339.5 143t-133.5 365q0 119 39 220.5t104.5 168.5t151 104.5t178.5 37.5q151 0 252 -79t101 -175q0 -54 -31.5 -84.5
t-85.5 -36.5l-33 12q-42 140 -102 208.5t-156 68.5z" />
    <glyph glyph-name="d" unicode="d" horiz-adv-x="1239" 
d="M1190 55q-157 -20 -328 -84q-18 70 -26 158q-115 -158 -306 -158t-310.5 138t-119.5 356q0 102 30 191.5t81.5 153t119 109.5t142.5 68.5t152 22.5q112 0 202 -49v67q0 235 -10 290q-11 62 -50 79q-17 7 -48 10l-47 4v66q123 0 200.5 8t153.5 31l16 -19q-8 -151 -8 -418
v-708q0 -112 5.5 -158.5t21.5 -65.5t55 -22l74 -6v-64zM311 549q0 -203 89.5 -321.5t240.5 -118.5q109 0 188 88q-2 25 -2 77v424q0 108 -64.5 168t-168.5 60q-125 0 -204 -98.5t-79 -278.5z" />
    <glyph glyph-name="e" unicode="e" horiz-adv-x="1067" 
d="M991 242q-140 -271 -416 -271q-212 0 -343.5 144.5t-131.5 363.5q0 119 39 220.5t104 168.5t149.5 104.5t176.5 37.5q122 0 212 -58.5t132.5 -146.5t42.5 -191q0 -53 -4 -82h-651q19 -178 117 -283.5t248 -105.5q168 0 290 125zM297 608v-8l461 29q-15 146 -78 219.5
t-162 73.5q-96 0 -158.5 -77.5t-62.5 -236.5z" />
    <glyph glyph-name="f" unicode="f" horiz-adv-x="743" 
d="M651 59v-63q-262 18 -579 0v63l73 13q21 4 33.5 8.5t22.5 18.5t14.5 29t7.5 52.5t3.5 74.5t0.5 107v527h-131v78l131 12v59q0 212 98 339.5t257 127.5q113 0 188.5 -59t75.5 -125q0 -48 -28 -73.5t-73 -28.5l-32 10q-43 111 -77 158t-89 47q-113 0 -113 -246v-209h248
v-90h-248v-527q0 -67 1 -105t6.5 -72.5t12.5 -50t23.5 -29.5t35.5 -19.5t52 -11.5z" />
    <glyph glyph-name="g" unicode="g" horiz-adv-x="1099" 
d="M1047 -84q0 -96 -70 -181t-195 -137.5t-272 -52.5q-208 0 -325 70.5t-117 175.5q0 79 61.5 132t167.5 79q-160 55 -160 182q0 132 174 213q-84 43 -132 115t-48 160q0 141 114 239.5t281 98.5q97 0 179 -31q48 124 95.5 186t114.5 62q57 0 92 -41.5t37 -104.5l-12 -37
q-82 12 -161.5 -6.5t-131.5 -72.5q89 -40 141 -114.5t52 -166.5q0 -142 -112 -241t-279 -99q-89 0 -174 29q-86 -44 -86 -103q0 -50 39 -76t124 -30l283 -12q154 -7 237 -69t83 -167zM557 418q76 0 122 60.5t46 162.5q0 126 -63 211.5t-154 85.5q-77 0 -122.5 -60.5
t-45.5 -164.5q0 -130 62 -212.5t155 -82.5zM248 -174q0 -87 80.5 -144t210.5 -57q144 0 236.5 61t92.5 162q0 58 -40.5 84t-125.5 29l-249 12q-34 2 -107 15q-98 -52 -98 -162z" />
    <glyph glyph-name="h" unicode="h" horiz-adv-x="1323" 
d="M1272 59v-63q-254 18 -514 0v65l55 11q26 5 38.5 8t26 15t17.5 25t8.5 47t5 70.5t0.5 104.5v293q0 111 -56.5 165t-147.5 54q-72 0 -146 -27.5t-127 -72.5v-412q0 -71 0.5 -106t4.5 -70t8 -47t17.5 -24.5t26 -15t39.5 -7.5l56 -13v-63q-255 18 -516 0v63l59 13
q27 5 39.5 8t26 15t18 25t9 47t5 70t0.5 105v684q0 254 -15.5 311.5t-94.5 67.5l-47 6v66q124 0 202 8t152 31l18 -19q-8 -151 -8 -418v-264q160 195 387 195q59 0 110 -18.5t94 -56.5t68 -105.5t25 -157.5v-330q0 -69 0.5 -105.5t5 -70.5t8.5 -46.5t18 -24.5t26.5 -15
t39.5 -8z" />
    <glyph glyph-name="i" unicode="i" horiz-adv-x="651" 
d="M467 1333q0 -60 -41 -101.5t-102 -41.5q-60 0 -101 41.5t-41 101.5t41 101t101 41q61 0 102 -41t41 -101zM233 342v211v8q0 235 -14.5 286.5t-93.5 61.5l-47 6v64q214 0 354 37l17 -17q-9 -159 -9 -393v-264q0 -69 0.5 -105.5t5.5 -70t9 -46.5t19 -24.5t27.5 -15
t41.5 -8.5l55 -13v-63q-257 18 -520 0v63l59 13q27 5 39 7.5t25.5 14.5t17.5 24.5t8.5 46.5t5 71t0.5 106z" />
    <glyph glyph-name="j" unicode="j" horiz-adv-x="589" 
d="M446 1333q0 -60 -40.5 -101.5t-100.5 -41.5q-61 0 -102 41.5t-41 101.5t41 101t102 41q60 0 100.5 -41t40.5 -101zM211 45v500q0 241 -15 296.5t-94 67.5l-47 6v64q129 0 202.5 7t152.5 30l16 -19q-8 -141 -8 -399v-582q0 -113 -13 -184.5t-48.5 -122t-86.5 -79.5
t-139 -58l-57 -18l-21 47l39 20q51 28 74.5 66t34 118.5t10.5 239.5z" />
    <glyph glyph-name="k" unicode="k" horiz-adv-x="1239" 
d="M432 330q0 -65 0.5 -98t4.5 -66.5t8.5 -45.5t17 -24.5t26 -15.5t39.5 -8l60 -13v-63q-232 17 -520 0v63l59 13q26 5 39.5 8.5t26.5 15.5t18 24.5t9 45t4.5 66.5t0.5 98v704v8q0 242 -15.5 300t-94.5 65l-47 4v66q124 0 202 8t152 31l18 -19q-8 -151 -8 -418v-749z
M1221 59v-63q-166 9 -332 0l-432 547l198 178q57 51 81 80.5t24 52.5q0 26 -19.5 40.5t-66.5 25.5v61q262 -17 481 0v-61l-55 -15q-55 -17 -94.5 -32t-113.5 -59t-155 -109l-96 -76l326 -404q64 -83 120.5 -118t133.5 -48z" />
    <glyph glyph-name="l" unicode="l" horiz-adv-x="641" 
d="M432 338v-80t2 -60t4 -45.5t8 -31t11 -22t17 -12.5t23 -9.5t31 -5.5l60 -13v-63q-233 16 -520 0v63l59 13q26 5 39.5 8t26.5 15t17.5 25t9 46.5t5 69t0.5 102.5v696v8q0 240 -15.5 296.5t-94.5 66.5l-47 6v66q124 0 202 8t152 31l18 -19q-8 -151 -8 -418v-741z" />
    <glyph glyph-name="m" unicode="m" horiz-adv-x="1951" 
d="M1901 59v-63q-252 18 -510 0v63l55 11q25 5 37 8.5t24.5 15.5t17 25.5t8.5 47.5t4.5 70.5t0.5 104.5v291q0 114 -53 168.5t-139 54.5q-123 0 -259 -104q7 -44 7 -78v-332q0 -69 0.5 -103.5t4.5 -69.5t8 -47.5t17 -25.5t25.5 -16t38.5 -8l53 -13v-63q-247 18 -504 0v63
l58 13q25 5 37 8.5t24.5 15.5t17 25.5t8.5 47t4.5 70t0.5 103.5v291q0 113 -54 168t-139 55q-120 0 -252 -102q-2 -57 -2 -150v-262q0 -67 0.5 -103.5t5 -70t9 -47t17 -26t25.5 -16.5t38 -9l55 -11v-63q-253 18 -512 0v63l59 13q26 5 39.5 8t26 16t17 25.5t8.5 47.5
t4.5 69.5t0.5 103.5v209v8q0 232 -15 286.5t-93 63.5l-47 6v64q214 0 354 37l17 -17q-6 -147 -7 -180q67 82 161.5 137.5t205.5 55.5q93 0 165.5 -49.5t102.5 -153.5q71 85 171.5 144t213.5 59q56 0 104.5 -18.5t89.5 -56.5t65 -105.5t24 -157.5v-332q0 -67 0.5 -103.5
t4.5 -70t9 -47t18 -25.5t26.5 -15.5t39.5 -8.5z" />
    <glyph glyph-name="n" unicode="n" horiz-adv-x="1333" 
d="M1282 59v-63q-255 18 -514 0v65l55 11q26 5 38.5 8t26 15t18 25.5t9 46.5t5 70t0.5 105v293q0 111 -57 165t-148 54q-72 0 -146 -27.5t-127 -72.5q-2 -57 -2 -150v-262q0 -68 0.5 -105t5 -70.5t9 -46.5t18.5 -25t26.5 -15t39.5 -8l55 -13v-63q-255 18 -516 0v63l59 13
q26 5 38.5 8t26 15t17.5 25t8.5 47t5 70.5t0.5 104.5v209q0 240 -15 294t-93 64l-47 6v64q214 0 354 37l17 -17q-6 -139 -7 -184q160 195 385 195q60 0 111.5 -18t94.5 -56.5t68 -106t25 -157.5v-330q0 -68 0.5 -105t5 -70.5t9 -46.5t18.5 -25t26.5 -15t39.5 -8z" />
    <glyph glyph-name="o" unicode="o" horiz-adv-x="1214" 
d="M596 -29q-97 0 -185 33.5t-158 96t-111.5 163t-41.5 225.5q0 152 70.5 272.5t187.5 184.5t258 64q97 0 185.5 -34t158.5 -97.5t112 -165t42 -226.5q0 -152 -70.5 -271t-188 -182t-259.5 -63zM657 55q109 0 171.5 95.5t62.5 259.5q0 144 -43.5 262t-120 185t-170.5 67
q-109 0 -171 -96.5t-62 -262.5q0 -221 95 -365.5t238 -144.5z" />
    <glyph glyph-name="p" unicode="p" horiz-adv-x="1253" 
d="M600 -371v-65q-274 18 -541 0v65l60 11q26 6 38.5 10t26 16.5t18 25.5t8.5 47t4.5 70t0.5 103v633q0 237 -16 294.5t-93 69.5l-47 6v64q227 0 355 37l16 -17q-2 -39 -6 -145q118 156 311 156q194 0 306 -137.5t112 -354.5q0 -129 -39.5 -234t-107 -172.5t-155.5 -104
t-187 -36.5q-139 0 -242 47v-114q0 -64 1 -100.5t6.5 -68t11 -45t22 -25.5t31.5 -15.5t47 -9.5zM422 326q0 -74 22.5 -130t60.5 -87.5t82.5 -46.5t94.5 -15q111 0 183.5 92t72.5 277q0 217 -83 336.5t-226 119.5q-133 0 -205 -100q-2 -66 -2 -174v-272z" />
    <glyph glyph-name="q" unicode="q" horiz-adv-x="1206" 
d="M1188 -371v-65q-260 18 -539 0v65l60 11q36 7 52 13.5t32 20.5t21 44.5t8 73.5t3 120v201q-117 -142 -295 -142q-125 0 -224 65.5t-152.5 175.5t-53.5 243q0 130 49 238t127.5 175.5t173.5 104.5t191 37q167 0 295 -86l61 86l35 -9v-1089q0 -79 2 -120.5t6 -73.5t17 -45
t27.5 -20t45.5 -13zM311 559q0 -211 90 -333t246 -122q100 0 178 78v500q0 125 -67 184.5t-170 59.5q-55 0 -103.5 -21.5t-88 -64t-62.5 -115t-23 -166.5z" />
    <glyph glyph-name="r" unicode="r" horiz-adv-x="919" 
d="M618 59v-63q-279 18 -540 0v63l74 13q58 7 69.5 48t11.5 222v211v8q0 235 -14.5 286.5t-93.5 61.5l-47 6v64q203 0 348 37l16 -17q-4 -90 -4 -268q64 146 133 215.5t160 69.5q65 0 99 -38.5t34 -90.5q0 -42 -22 -78l-31 -21q-46 16 -65 22.5t-47 12.5t-52 6
q-132 0 -207 -172v-315q0 -80 1.5 -118t5.5 -73t15 -47.5t26 -20t44 -11.5z" />
    <glyph glyph-name="s" unicode="s" horiz-adv-x="923" 
d="M489 49q83 0 128 40t45 104q0 52 -30.5 92t-79.5 67t-108.5 51t-119 52t-108.5 62t-79.5 88.5t-30.5 125.5q0 120 96 199.5t261 79.5t311 -78q0 -110 12 -248h-51q-79 136 -145.5 191t-155.5 55q-66 0 -102.5 -37t-36.5 -94q0 -49 30.5 -86.5t79.5 -62.5t107.5 -48
t117.5 -50.5t108 -61.5t79.5 -90t30.5 -128q0 -132 -110 -216.5t-279 -84.5q-100 0 -195 24.5t-151 61.5q7 133 4 254h45q110 -262 327 -262z" />
    <glyph glyph-name="t" unicode="t" horiz-adv-x="716" 
d="M63 967q120 14 184.5 89t108.5 218l52 -6v-289h251v-90h-251v-574q0 -106 27.5 -154t86.5 -48q68 0 135 71l35 -34q-71 -98 -133 -138.5t-135 -40.5q-124 0 -173.5 83t-49.5 251v584h-138v78z" />
    <glyph glyph-name="u" unicode="u" horiz-adv-x="1257" 
d="M1208 55q-154 -19 -327 -84q-23 87 -31 181q-148 -181 -348 -181q-141 0 -227.5 80t-86.5 256v244q0 239 -14 295t-86 63l-47 4v66q218 0 346 37l16 -19q-8 -153 -8 -424v-245q0 -104 51.5 -153.5t139.5 -49.5q71 0 130.5 21.5t129.5 66.5q-2 20 -2 61v279q0 236 -16 291
t-99 65l-37 6v64q220 0 350 37l17 -17q-8 -141 -8 -395v-233q0 -113 5.5 -159.5t22 -65t56.5 -21.5l71 -6z" />
    <glyph glyph-name="v" unicode="v" horiz-adv-x="1150" 
d="M887 600l-234 -602q-65 6 -133 0l-311 717q-51 116 -73.5 150t-63.5 42l-49 13v63q273 -14 495 0v-63l-55 -15q-49 -13 -56.5 -46.5t29.5 -131.5l221 -541l152 430q47 132 44.5 205t-58.5 86l-50 13v63q189 -12 381 0v-63l-32 -11q-48 -13 -97 -81.5t-110 -227.5z" />
    <glyph glyph-name="w" unicode="w" horiz-adv-x="1728" 
d="M1475 616l-242 -618q-65 6 -123 0l-240 631l-241 -631q-63 6 -127 0l-293 721q-44 107 -69.5 144t-67.5 46l-49 11v63q269 -14 489 0v-63l-49 -13q-52 -11 -58.5 -46t27.5 -130l205 -547l199 543q-39 105 -60 138t-57 42l-47 13v63q254 -14 463 0v-63l-45 -13
q-61 -17 -67.5 -44.5t26.5 -125.5l192 -553l156 451q47 133 43 194t-68 78l-49 13v63q192 -12 381 0v-63l-33 -11q-49 -16 -92.5 -78.5t-103.5 -214.5z" />
    <glyph glyph-name="x" unicode="x" horiz-adv-x="1210" 
d="M1186 57v-61q-290 12 -557 0v61l59 13q62 12 64 47.5t-62 122.5l-145 188l-133 -166q-127 -160 -35 -188l53 -15v-63q-200 14 -397 0v63q83 27 137.5 66t153.5 151l182 203l-182 236q-70 90 -102.5 123.5t-63.5 49t-95 30.5v63q240 -13 523 0v-63l-39 -7q-38 -6 -55 -18
t-14 -35.5t21 -54.5t56 -82l98 -129l107 133q45 55 62 95.5t8 62.5t-39 28l-39 9v63q202 -14 403 0v-63q-155 -52 -313 -215l-152 -160l215 -281q101 -131 144 -163t137 -44z" />
    <glyph glyph-name="y" unicode="y" horiz-adv-x="1136" 
d="M633 6q-58 -144 -109.5 -238t-98 -142.5t-85.5 -66.5t-86 -18q-69 0 -102 44.5t-33 109.5l16 31q74 3 122.5 9.5t99 23.5t85.5 46.5t67.5 78t59.5 118.5l6 18h-63l-303 697q-53 120 -84.5 155.5t-101.5 47.5v63q267 -14 487 0v-63l-51 -13q-59 -15 -64 -52t33 -126
l219 -518l156 416q52 145 49.5 204.5t-55.5 73.5l-54 15v63q188 -12 369 0v-63l-33 -9q-48 -13 -91 -75.5t-111 -229.5z" />
    <glyph glyph-name="z" unicode="z" horiz-adv-x="1017" 
d="M938 342q-23 -186 -23 -346q-362 14 -829 0v57l576 854q-93 -1 -154.5 -4t-112 -15t-80 -26t-58 -45t-46.5 -63t-45 -88l-51 8q23 128 30 309q381 -15 760 0v-61l-581 -850q103 0 169.5 3.5t126 15t95.5 29t69.5 51t55.5 75.5t47 106z" />
    <glyph glyph-name="braceleft" unicode="{" horiz-adv-x="888" 
d="M125 553h-29v84h29q111 0 168 61t57 181q0 74 -33.5 196.5t-33.5 192.5q0 124 64 200t194 76q146 0 260 -117l-27 -38q-69 32 -129 32q-76 0 -111.5 -33.5t-35.5 -111.5q0 -41 22.5 -159.5t22.5 -190.5q0 -150 -88.5 -240t-270.5 -90q93 0 163 -25t112 -70.5t63 -104
t21 -130.5q0 -73 -22.5 -191t-22.5 -157q0 -78 35.5 -111.5t111.5 -33.5q56 0 129 30l27 -39q-114 -114 -260 -114q-130 0 -194 75.5t-64 198.5q0 68 33.5 191t33.5 198q0 240 -225 240z" />
    <glyph glyph-name="bar" unicode="|" horiz-adv-x="552" 
d="M199 1679h153v-1966h-153v1966z" />
    <glyph glyph-name="braceright" unicode="}" horiz-adv-x="888" 
d="M344 266q0 149 88.5 239.5t269.5 90.5q-182 0 -270 90t-88 240q0 72 22.5 190.5t22.5 159.5q0 78 -35.5 111.5t-111.5 33.5q-60 0 -129 -32l-27 38q114 117 260 117q130 0 194 -76t64 -200q0 -70 -32.5 -192.5t-32.5 -196.5q0 -120 57 -181t166 -61h29v-84h-29
q-109 0 -166 -60.5t-57 -179.5q0 -75 32.5 -198t32.5 -191q0 -123 -64 -198.5t-194 -75.5q-146 0 -260 114l27 39q73 -30 129 -30q76 0 111.5 33.5t35.5 111.5q0 39 -22.5 157t-22.5 191z" />
    <glyph glyph-name="asciitilde" unicode="~" 
d="M899 670q-100 -64 -188 -64q-65 0 -188.5 39t-178.5 39q-100 0 -221 -66v89q128 65 225 65q68 0 188.5 -39t174.5 -39q38 0 72 9.5t56 20.5t60 34v-88z" />
    <glyph glyph-name="uni00A0" unicode="&#xa0;" horiz-adv-x="460" 
 />
    <glyph glyph-name="exclamdown" unicode="&#xa1;" horiz-adv-x="649" 
d="M324 1010q61 0 102 -42t41 -102q0 -62 -40.5 -102.5t-102.5 -40.5t-103 41t-41 102q0 60 41.5 102t102.5 42zM350 563q5 -191 24.5 -337.5t40 -213.5t36.5 -136.5t16 -127.5q0 -86 -36.5 -138t-106.5 -52t-107 52t-37 138q0 58 16 127.5t36.5 136.5t40 213.5t24.5 337.5
h53z" />
    <glyph glyph-name="cent" unicode="&#xa2;" horiz-adv-x="1030" 
d="M573 -29q-51 0 -108 13l-51 -228h-76l55 248q-134 55 -213.5 181t-79.5 294q0 119 39 220.5t104.5 168.5t151 104.5t178.5 37.5q34 0 48 -2l63 276h76l-66 -291q103 -27 167.5 -95t64.5 -142q0 -54 -31.5 -84.5t-85.5 -36.5l-33 12q-46 156 -110 217l-156 -684
q68 -39 164 -39q150 0 260 133l33 -26q-68 -137 -169.5 -207t-224.5 -70zM299 621q0 -272 145 -398l154 686q-34 15 -80 15q-98 0 -158.5 -79.5t-60.5 -223.5z" />
    <glyph glyph-name="sterling" unicode="&#xa3;" horiz-adv-x="1269" 
d="M1227 324q-46 -192 -126 -284.5t-235 -92.5q-64 0 -126.5 25t-98.5 51t-94 75q-100 -127 -250 -127q-96 0 -150.5 49.5t-54.5 124.5q0 73 53 123.5t160 50.5q87 0 209 -45q2 10 2 33q0 60 -19 122.5t-40.5 103.5t-59.5 104h-284v84h233q-47 82 -73.5 157t-26.5 162
q0 161 120.5 271t329.5 110q159 0 271 -86t112 -190q0 -122 -129 -133l-37 12q-54 171 -112.5 249.5t-149.5 78.5q-168 0 -168 -250q0 -77 13.5 -151.5t27 -115.5t41.5 -114h387v-84h-358q41 -132 41 -252q0 -73 -21 -152q61 -27 96.5 -40.5t88.5 -27t98 -13.5
q108 0 173 42.5t118 147.5zM176 145q0 -40 29.5 -70t93.5 -30q57 0 105 28.5t77 80.5q-104 86 -194 86q-58 0 -84.5 -27t-26.5 -68z" />
    <glyph glyph-name="currency" unicode="&#xa4;" horiz-adv-x="940" 
d="M842 369l-58 -56l-114 113q-87 -68 -197 -68q-115 0 -203 72l-116 -117l-58 56l119 118q-63 86 -63 193q0 111 67 197l-123 122l58 58l122 -123q86 67 197 67q104 0 193 -63l118 119l58 -58l-119 -118q72 -88 72 -201t-68 -197zM473 446q96 0 165 69t69 165
q0 95 -69.5 164t-164.5 69t-164 -69t-69 -164q0 -96 69 -165t164 -69z" />
    <glyph glyph-name="yen" unicode="&#xa5;" horiz-adv-x="1343" 
d="M944 59v-63q-265 17 -536 0v63l75 9q39 3 55 23.5t21.5 70.5t5.5 170h-358v84h358v166l-20 36h-338v84h289l-226 394q-87 149 -116 183.5t-72 43.5l-35 8v66q216 -14 545 0v-66l-43 -8q-88 -17 -98.5 -56.5t43.5 -131.5l249 -433h11l207 416q85 173 -62 205l-41 8v66
q89 -9 217 -9t217 9v-66l-39 -8q-44 -10 -88 -56t-104 -155l-227 -410h280v-84h-326v-202h326v-84h-326q0 -120 5.5 -170t21.5 -70.5t55 -23.5z" />
    <glyph glyph-name="brokenbar" unicode="&#xa6;" horiz-adv-x="552" 
d="M199 881v798h153v-798h-153zM199 -287v799h153v-799h-153z" />
    <glyph glyph-name="section" unicode="&#xa7;" horiz-adv-x="962" 
d="M831 -14q0 -127 -103.5 -215t-264.5 -88q-151 0 -249.5 70t-98.5 141q0 39 24 63.5t72 24.5l41 -9q69 -123 123 -171t129 -48q67 0 106 43t39 113q0 34 -7 62t-25.5 52t-37 41.5t-56 38.5t-68 36t-86.5 40q-69 31 -118.5 61.5t-91 71.5t-62.5 93.5t-21 117.5
q0 81 30.5 143.5t76 100.5t116.5 76q-81 50 -125.5 115.5t-44.5 158.5q0 127 104 215t267 88q149 0 245.5 -70.5t96.5 -142.5q0 -38 -23.5 -62t-73.5 -24l-38 8q-69 123 -123 171.5t-127 48.5q-67 0 -105.5 -43t-38.5 -113q0 -42 12.5 -75t31 -57t58.5 -49.5t75 -43
t102 -47.5q69 -31 118.5 -61.5t91 -71.5t62.5 -93.5t21 -117.5q0 -82 -30.5 -144.5t-75.5 -100t-117 -75.5q81 -51 125 -115t44 -157zM528 330q34 -14 93 -47q94 83 94 204q0 34 -7.5 62.5t-24.5 53.5t-38 45t-56 42t-69 39.5t-86 42.5q-17 7 -94 47q-92 -82 -92 -207
q0 -51 16 -89t55 -71.5t84.5 -59t124.5 -62.5z" />
    <glyph glyph-name="dieresis" unicode="&#xa8;" 
d="M446 1333q0 -53 -37 -90t-92 -37q-57 0 -94 37t-37 90q0 55 36.5 91t94.5 36q54 0 91.5 -36.5t37.5 -90.5zM836 1333q0 -54 -36 -90.5t-95 -36.5q-54 0 -92 37t-38 90q0 54 38 90.5t92 36.5q58 0 94.5 -36t36.5 -91z" />
    <glyph glyph-name="copyright" unicode="&#xa9;" horiz-adv-x="1835" 
d="M915 -141q-163 0 -312.5 59.5t-262.5 164t-180.5 260t-67.5 335.5q0 153 46 290t125.5 239t183.5 177t224.5 113.5t243.5 38.5q164 0 314 -59.5t263.5 -164t181 -260t67.5 -335.5q0 -153 -45.5 -290t-124.5 -239t-183.5 -177t-225.5 -113.5t-247 -38.5zM915 1450
q-112 0 -219 -35.5t-197.5 -103.5t-159 -159.5t-107.5 -211.5t-39 -252q0 -164 57.5 -304.5t156 -236t230 -149t278.5 -53.5q148 0 280 54.5t230.5 151.5t156.5 241.5t58 314.5q0 215 -99 386.5t-264 264t-362 92.5zM895 1155q-115 0 -181.5 -96.5t-66.5 -267.5
q0 -246 107 -398.5t270 -152.5q75 0 124 57t99 199l17 45l45 -13q-38 -275 -41 -295q-112 -69 -267 -69q-243 0 -399 147t-156 394q0 228 138 378t374 150q80 0 155.5 -18t123.5 -48q2 -119 20 -301l-40 -8l-23 55q-88 242 -299 242z" />
    <glyph glyph-name="ordfeminine" unicode="&#xaa;" horiz-adv-x="827" 
d="M801 754q-78 -109 -172 -109q-50 0 -81 30t-38 85q-38 -54 -95.5 -84.5t-127.5 -30.5q-97 0 -159 54.5t-62 144.5q0 174 251 209l189 22v74q0 205 -131 205q-110 0 -133 -199l-31 -8q-44 0 -72 18t-28 49q0 52 51.5 101t126.5 77.5t145 28.5q117 0 178.5 -63.5
t61.5 -186.5v-333q0 -49 9.5 -68.5t31.5 -19.5q33 0 65 32zM365 754q86 0 141 55v195h-111q-81 -1 -118 -31t-37 -92q0 -55 34.5 -91t90.5 -36zM72 438v90h684v-90h-684z" />
    <glyph glyph-name="guillemotleft" unicode="&#xab;" horiz-adv-x="1138" 
d="M1038 37l-39 -27l-436 416v139l436 418l39 -27l-272 -460zM557 37l-39 -27l-436 416v139l436 418l39 -27l-272 -460z" />
    <glyph glyph-name="logicalnot" unicode="&#xac;" 
d="M123 889h776v-408h-92v320h-684v88z" />
    <glyph glyph-name="uni00AD" unicode="&#xad;" horiz-adv-x="0" 
 />
    <glyph glyph-name="registered" unicode="&#xae;" horiz-adv-x="1720" 
d="M76 930q0 122 31 234t85 200.5t128.5 161t161 121t183 74.5t193.5 26q156 0 298 -56.5t250 -156t172 -247t64 -318.5q0 -182 -66.5 -338t-176 -259t-250.5 -161.5t-291 -58.5q-155 0 -297 56.5t-249.5 156t-171.5 247t-64 318.5zM1542 958q0 153 -54.5 285.5
t-147.5 223.5t-218 142.5t-264 51.5q-131 0 -255 -53.5t-218.5 -146.5t-151.5 -229.5t-57 -291.5q0 -206 93.5 -368.5t248 -249t340.5 -86.5q132 0 256 52.5t219 145t152 229.5t57 295zM1264 602v-47q-105 3 -205 0l-264 420q104 22 152 66t48 124q0 90 -57.5 132t-175.5 44
v-565q0 -108 7 -135t38 -31l53 -8v-47q-177 9 -340 0v47l45 8q33 4 40 30.5t7 135.5v393q0 114 -7.5 142t-43.5 32l-41 7v49q50 -3 96.5 -3t95 1.5t74.5 1.5q172 0 266.5 -55t94.5 -168q0 -149 -191 -209l162 -242q47 -69 66 -88.5t51 -26.5z" />
    <glyph glyph-name="macron" unicode="&#xaf;" 
d="M225 1229v151h572v-151h-572z" />
    <glyph glyph-name="degree" unicode="&#xb0;" horiz-adv-x="747" 
d="M373 805q-128 0 -216.5 89t-88.5 218q0 130 88.5 219.5t216.5 89.5q129 0 217 -89t88 -220q0 -129 -88 -218t-217 -89zM373 1329q-87 0 -144 -62.5t-57 -154.5q0 -90 57 -152.5t144 -62.5q90 0 146 62t56 153q0 93 -56 155t-146 62z" />
    <glyph glyph-name="plusminus" unicode="&#xb1;" 
d="M899 639h-342v-365h-92v365h-342v88h342v365h92v-365h342v-88zM899 0h-776v88h776v-88z" />
    <glyph glyph-name="twosuperior" unicode="&#xb2;" horiz-adv-x="712" 
d="M647 1147q-46 -140 -55 -252q-258 13 -531 0v51q210 190 284.5 297t74.5 215q0 63 -34 99t-87 36q-113 0 -86 -209l-27 -12q-114 0 -114 90q0 25 18.5 57t51.5 63t90 52t124 21q115 0 181.5 -60t66.5 -151q0 -28 -5.5 -53t-19 -50.5t-26.5 -45t-40 -45.5t-45.5 -42.5
t-56.5 -45t-60.5 -44.5t-70.5 -49t-73 -51l141 6q85 4 130.5 16.5t66.5 31.5t49 63l14 26z" />
    <glyph glyph-name="threesuperior" unicode="&#xb3;" horiz-adv-x="669" 
d="M604 1120q0 -115 -81 -182.5t-214 -67.5q-110 0 -179 49t-69 113q0 35 25 55t61 25l27 -10q32 -97 60.5 -137.5t82.5 -40.5q50 0 78.5 37.5t28.5 105.5q0 83 -40 143t-112 80l-14 4l195 207l-99 -2q-80 -3 -124 -15.5t-57 -29t-19 -45.5l-9 -41h-45q15 121 4 260
q195 -11 459 0v-104l-211 -201q109 5 180.5 -51.5t71.5 -151.5z" />
    <glyph glyph-name="acute" unicode="&#xb4;" 
d="M735 1419q0 -67 -76.5 -125.5t-283.5 -156.5l-21 24l230 361l28 12q56 -12 89.5 -43t33.5 -72z" />
    <glyph glyph-name="paragraph" unicode="&#xb6;" horiz-adv-x="1218" 
d="M559 -459q-157 0 -261.5 59t-104.5 152q0 48 33.5 75.5t84.5 27.5l29 -17q55 -130 108.5 -181.5t131.5 -51.5q192 0 192 291v1431h-18q-25 0 -39 -4.5t-24.5 -14.5t-15 -36t-6 -59.5t-1.5 -94.5v-1317q-8 -3 -16.5 -8.5t-13 -10.5t-13.5 -14.5t-13 -13.5l-26 13v909
q-237 1 -361.5 96t-124.5 272q0 180 125 265.5t346 85.5q52 0 164.5 -3t165.5 -3q136 0 232 8v-66l-68 -8q-39 -4 -56 -25.5t-23.5 -77.5t-6.5 -184v-1069q0 -199 -116.5 -312.5t-303.5 -113.5z" />
    <glyph glyph-name="periodcentered" unicode="&#xb7;" 
d="M655 754q0 -60 -41 -102t-102 -42q-62 0 -103.5 41.5t-41.5 102.5q0 62 41 102.5t104 40.5q62 0 102.5 -40.5t40.5 -102.5z" />
    <glyph glyph-name="cedilla" unicode="&#xb8;" 
d="M500 0l71 4l-79 -154q112 17 184 -35t72 -147t-66.5 -155t-173.5 -60q-124 0 -225 101l30 43q60 -48 136 -48q50 0 84 31t34 80q0 113 -149 135l-10 23z" />
    <glyph glyph-name="onesuperior" unicode="&#xb9;" horiz-adv-x="563" 
d="M211 1122v238q0 91 -12.5 115t-67.5 20l-63 -2l-5 53q199 32 308 109l18 -17q-4 -122 -4 -235v-281q0 -49 1.5 -72.5t5 -44t15.5 -28t25.5 -13t42.5 -10.5l31 -6v-53q-208 12 -416 0v53l31 6q24 5 35.5 8t24 11t16.5 16.5t8.5 28.5t5 42.5t0.5 61.5z" />
    <glyph glyph-name="ordmasculine" unicode="&#xba;" horiz-adv-x="899" 
d="M446 1421q76 0 145 -26t123.5 -74t87 -123.5t32.5 -167.5q0 -169 -108 -277t-271 -108q-76 0 -145 26t-124 74t-87.5 124.5t-32.5 170.5q0 166 108 273.5t272 107.5zM485 713q72 0 118 74.5t46 193.5q0 157 -67.5 264t-165.5 107q-72 0 -118 -74t-46 -191
q0 -156 67.5 -265t165.5 -109zM96 528h719v-90h-719v90z" />
    <glyph glyph-name="guillemotright" unicode="&#xbb;" horiz-adv-x="1138" 
d="M575 426l-438 -416l-39 27l273 459l-273 460l39 27l438 -418v-139zM1057 426l-439 -416l-38 27l272 459l-272 460l38 27l439 -418v-139z" />
    <glyph glyph-name="onequarter" unicode="&#xbc;" horiz-adv-x="1492" 
d="M211 889v237q0 91 -12.5 115.5t-67.5 20.5l-63 -2l-5 53q201 32 308 108l18 -16q-4 -122 -4 -236v-280q0 -49 1.5 -72.5t5 -44t15.5 -28t25.5 -13t42.5 -10.5l31 -6v-53q-208 12 -416 0v53l31 6q24 5 35.5 8t24 11t16.5 16.5t8.5 28.5t5 42.5t0.5 61.5zM229 0l973 1393
h105l-971 -1393h-107zM1397 51v-51q-180 12 -363 0v51l31 4q48 8 60.5 27.5t13.5 93.5q-231 0 -348 -4v51l385 514q68 -10 122 -10q-6 -95 -6 -240v-200q71 10 100 25.5t40 43.5l10 23l31 -8q-37 -113 -46 -199q-23 1 -68 2t-67 2q1 -72 14.5 -92t59.5 -29zM1139 594
l-246 -330l246 12v318z" />
    <glyph glyph-name="onehalf" unicode="&#xbd;" horiz-adv-x="1558" 
d="M211 889v237q0 91 -12.5 115.5t-67.5 20.5l-63 -2l-5 53q201 32 308 108l18 -16q-4 -122 -4 -236v-280q0 -49 1.5 -72.5t5 -44t15.5 -28t25.5 -13t42.5 -10.5l31 -6v-53q-208 12 -416 0v53l31 6q24 5 35.5 8t24 11t16.5 16.5t8.5 28.5t5 42.5t0.5 61.5zM209 0l973 1393
h104l-971 -1393h-106zM1491 250q-46 -140 -55 -252q-258 13 -531 0v51q210 190 284.5 297t74.5 215q0 63 -34 99t-87 36q-113 0 -86 -209l-27 -12q-115 0 -115 90q0 25 18.5 57t52 63t90.5 52t124 21q115 0 181.5 -60t66.5 -151q0 -28 -5.5 -53t-19 -50.5t-26.5 -45
t-40 -45.5t-45.5 -42.5t-56.5 -45t-60.5 -44.5t-70.5 -49t-73 -51l141 6q85 4 130.5 16.5t66.5 31.5t49 63l14 26z" />
    <glyph glyph-name="threequarters" unicode="&#xbe;" horiz-adv-x="1540" 
d="M604 887q0 -115 -81 -182.5t-214 -67.5q-110 0 -179 49t-69 113q0 35 25 55t61 25l27 -11q32 -97 60.5 -137.5t82.5 -40.5q50 0 78.5 38t28.5 106q0 83 -40 143t-112 80l-14 4l195 207l-99 -2q-80 -3 -124 -15.5t-57 -29t-19 -45.5l-9 -41h-45q15 121 4 260
q195 -11 459 0v-105l-211 -200q109 5 180.5 -51.5t71.5 -151.5zM281 0l972 1393h105l-971 -1393h-106zM1444 51v-51q-180 12 -363 0v51l31 4q48 8 60.5 27.5t13.5 93.5q-231 0 -348 -4v51l385 514q68 -10 123 -10q-7 -110 -7 -240v-200q71 10 100 25.5t40 43.5l10 23l31 -8
q-35 -108 -45 -199q-23 1 -68 2t-68 2q1 -72 14.5 -92t59.5 -29zM1186 594l-246 -330l246 12v318z" />
    <glyph glyph-name="questiondown" unicode="&#xbf;" horiz-adv-x="1015" 
d="M350 866q0 60 41.5 102t102.5 42t102 -42t41 -102q0 -62 -40.5 -102.5t-102.5 -40.5t-103 41t-41 102zM487 565q52 0 97 -18.5t76.5 -61.5t31.5 -102q0 -48 -19.5 -89t-50.5 -72.5t-69 -61.5t-76 -62t-69 -67.5t-50.5 -85t-19.5 -107.5q0 -97 58 -150t153 -53
q122 0 170 88.5t18 276.5l37 4q174 -3 174 -127q0 -51 -35 -107t-94.5 -103t-149.5 -78t-190 -31q-189 0 -291 83.5t-102 211.5q0 62 21 112.5t56 83t79.5 61t90.5 47.5t90.5 42.5t79.5 46.5t56 58.5t21 78.5q0 47 -27.5 79t-77.5 32q-100 0 -158 -127l-67 36
q89 162 237 162z" />
    <glyph glyph-name="Agrave" unicode="&#xc0;" horiz-adv-x="1419" 
d="M383 1827q0 41 32.5 72t88.5 43l28 -13l230 -360l-21 -25q-206 97 -282 156t-76 127zM1393 59v-63q-284 9 -543 0v63l47 11q33 7 48.5 12.5t30.5 17t16 30.5t-4.5 49.5t-22.5 76.5l-68 197h-491l-64 -193q-28 -97 -7.5 -134.5t101.5 -55.5l43 -11v-63q-213 13 -452 0v63
l39 11q41 11 68 28.5t57 62t57 120.5l180 497q67 186 94 277t27 135q0 32 -13 49t-42 25l-54 14v55q85 3 170 26.5t140 57.5h30l426 -1149q30 -82 52.5 -122.5t42 -54.5t51.5 -21zM432 537h434l-223 645z" />
    <glyph glyph-name="Aacute" unicode="&#xc1;" horiz-adv-x="1419" 
d="M1026 1827q0 -67 -76.5 -126t-283.5 -157l-21 25l229 360l29 13q56 -12 89.5 -43t33.5 -72zM1393 59v-63q-284 9 -543 0v63l47 11q33 7 48.5 12.5t30.5 17t16 30.5t-4.5 49.5t-22.5 76.5l-68 197h-491l-64 -193q-28 -97 -7.5 -134.5t101.5 -55.5l43 -11v-63
q-213 13 -452 0v63l39 11q41 11 68 28.5t57 62t57 120.5l180 497q67 186 94 277t27 135q0 32 -13 49t-42 25l-54 14v55q85 3 170 26.5t140 57.5h30l426 -1149q30 -82 52.5 -122.5t42 -54.5t51.5 -21zM432 537h434l-223 645z" />
    <glyph glyph-name="Acircumflex" unicode="&#xc2;" horiz-adv-x="1419" 
d="M700 1763l-274 -223l-27 29l224 362h153l223 -362l-26 -29zM1393 59v-63q-284 9 -543 0v63l47 11q33 7 48.5 12.5t30.5 17t16 30.5t-4.5 49.5t-22.5 76.5l-68 197h-491l-64 -193q-28 -97 -7.5 -134.5t101.5 -55.5l43 -11v-63q-213 13 -452 0v63l39 11q41 11 68 28.5
t57 62t57 120.5l180 497q67 186 94 277t27 135q0 32 -13 49t-42 25l-54 14v55q85 3 170 26.5t140 57.5h30l426 -1149q30 -82 52.5 -122.5t42 -54.5t51.5 -21zM432 537h434l-223 645z" />
    <glyph glyph-name="Atilde" unicode="&#xc3;" horiz-adv-x="1419" 
d="M383 1602q31 139 84 207.5t121 68.5q54 0 137 -47t131 -47q79 0 129 123l43 -17q-58 -282 -203 -282q-51 0 -137 47t-135 47q-84 0 -131 -115zM1393 59v-63q-284 9 -543 0v63l47 11q33 7 48.5 12.5t30.5 17t16 30.5t-4.5 49.5t-22.5 76.5l-68 197h-491l-64 -193
q-28 -97 -7.5 -134.5t101.5 -55.5l43 -11v-63q-213 13 -452 0v63l39 11q41 11 68 28.5t57 62t57 120.5l180 497q67 186 94 277t27 135q0 32 -13 49t-42 25l-54 14v55q85 3 170 26.5t140 57.5h30l426 -1149q30 -82 52.5 -122.5t42 -54.5t51.5 -21zM432 537h434l-223 645z" />
    <glyph glyph-name="Adieresis" unicode="&#xc4;" horiz-adv-x="1419" 
d="M631 1741q0 -53 -37 -90t-92 -37q-58 0 -94.5 37t-36.5 90q0 55 36.5 91t94.5 36q54 0 91.5 -36.5t37.5 -90.5zM1020 1741q0 -54 -36 -90.5t-95 -36.5q-54 0 -91.5 37t-37.5 90q0 54 37.5 90.5t91.5 36.5q58 0 94.5 -36t36.5 -91zM1393 59v-63q-284 9 -543 0v63l47 11
q33 7 48.5 12.5t30.5 17t16 30.5t-4.5 49.5t-22.5 76.5l-68 197h-491l-64 -193q-28 -97 -7.5 -134.5t101.5 -55.5l43 -11v-63q-213 13 -452 0v63l39 11q41 11 68 28.5t57 62t57 120.5l180 497q67 186 94 277t27 135q0 32 -13 49t-42 25l-54 14v55q85 3 170 26.5t140 57.5h30
l426 -1149q30 -82 52.5 -122.5t42 -54.5t51.5 -21zM432 537h434l-223 645z" />
    <glyph glyph-name="Aring" unicode="&#xc5;" horiz-adv-x="1419" 
d="M934 1782q0 -106 -74 -180t-180 -74t-181 74t-75 180q0 107 75 181.5t181 74.5t180 -74.5t74 -181.5zM522 1782q0 -71 44 -117.5t114 -46.5q67 0 111.5 46.5t44.5 117.5q0 69 -44.5 117.5t-111.5 48.5q-69 0 -113.5 -48.5t-44.5 -117.5zM1393 59v-63q-284 9 -543 0v63
l47 11q33 7 48.5 12.5t30.5 17t16 30.5t-4.5 49.5t-22.5 76.5l-68 197h-491l-64 -193q-28 -97 -7.5 -134.5t101.5 -55.5l43 -11v-63q-213 13 -452 0v63l39 11q41 11 68 28.5t57 62t57 120.5l180 497q67 186 94 277t27 135q0 32 -13 49t-42 25l-54 14v55q85 3 170 26.5
t140 57.5h30l426 -1149q30 -82 52.5 -122.5t42 -54.5t51.5 -21zM432 537h434l-223 645z" />
    <glyph glyph-name="AE" unicode="&#xc6;" horiz-adv-x="1933" 
d="M1845 375q-59 -235 -73 -379q-622 15 -1014 0v63l73 13q21 3 33.5 7t22.5 17.5t14.5 27.5t7.5 48t3.5 67.5t0.5 98.5v121h-430l-114 -205q-34 -58 -30.5 -98t26 -60t61.5 -28l45 -9v-63q-211 13 -448 0v63l43 11q55 14 97 54.5t107 149.5l514 871q53 91 51 130t-57 48
l-39 8v66q470 -19 1004 0q-6 -175 4 -383l-45 -10q-22 71 -37 112.5t-35 80t-38.5 56.5t-48.5 32t-64 18t-86 4h-254v-580l168 6q102 4 141.5 35t69.5 123l12 35h47q-16 -259 0 -463h-47l-12 35q-30 91 -70 122t-141 35l-168 7v-345q0 -141 41 -191t161 -50h97q59 0 100 11
t84.5 44.5t85.5 95t94 162.5zM913 1225l-381 -680h381v680z" />
    <glyph glyph-name="Ccedilla" unicode="&#xc7;" horiz-adv-x="1390" 
d="M975 -332q0 -95 -66.5 -155t-173.5 -60q-124 0 -225 101l31 43q60 -48 135 -48q50 0 84.5 31t34.5 80q0 113 -150 135l-10 23l82 164q-267 42 -432.5 236t-165.5 495q0 206 84.5 367t240.5 251t359 90q230 0 385 -106q2 -144 31 -377l-54 -12l-45 92q-82 169 -175 238
t-228 69q-160 0 -259.5 -132t-99.5 -359q0 -215 68.5 -393t185 -279t254.5 -101q104 0 172 67.5t160 264.5l35 74l51 -14q-22 -111 -59 -396q-145 -86 -371 -86q-47 0 -72 2l-63 -123q112 17 184 -35t72 -147z" />
    <glyph glyph-name="Egrave" unicode="&#xc8;" horiz-adv-x="1275" 
d="M381 1827q0 41 32.5 72t88.5 43l28 -13l230 -360l-21 -25q-206 97 -282 156t-76 127zM1188 375q-61 -241 -74 -379q-621 15 -1014 0v63l74 13q20 3 32.5 7.5t22.5 17.5t14.5 28t8 48.5t4 69.5t0.5 99v707q0 63 -0.5 99t-4 69.5t-8 48.5t-14.5 28t-22.5 17.5t-32.5 7.5
l-74 12v66q386 -17 985 0q-5 -162 5 -383l-46 -10q-22 71 -37 112.5t-35 80t-38.5 56.5t-48.5 32t-64 18t-86 4h-254v-580l168 6q102 4 141.5 35t69.5 123l12 35h48q-16 -259 0 -463h-48l-12 35q-30 91 -70 122t-141 35l-168 7v-345q0 -141 44 -191t173 -50h82q60 0 101 11
t85 44.5t85.5 94.5t93.5 163z" />
    <glyph glyph-name="Eacute" unicode="&#xc9;" horiz-adv-x="1275" 
d="M971 1825q0 -67 -77 -126t-284 -157l-20 25l229 360l29 12q56 -12 89.5 -42.5t33.5 -71.5zM1188 375q-61 -241 -74 -379q-621 15 -1014 0v63l74 13q20 3 32.5 7.5t22.5 17.5t14.5 28t8 48.5t4 69.5t0.5 99v707q0 63 -0.5 99t-4 69.5t-8 48.5t-14.5 28t-22.5 17.5
t-32.5 7.5l-74 12v66q386 -17 985 0q-5 -162 5 -383l-46 -10q-22 71 -37 112.5t-35 80t-38.5 56.5t-48.5 32t-64 18t-86 4h-254v-580l168 6q102 4 141.5 35t69.5 123l12 35h48q-16 -259 0 -463h-48l-12 35q-30 91 -70 122t-141 35l-168 7v-345q0 -141 44 -191t173 -50h82
q60 0 101 11t85 44.5t85.5 94.5t93.5 163z" />
    <glyph glyph-name="Ecircumflex" unicode="&#xca;" horiz-adv-x="1275" 
d="M641 1763l-274 -223l-27 29l223 362h154l223 -362l-27 -29zM1188 375q-61 -241 -74 -379q-621 15 -1014 0v63l74 13q20 3 32.5 7.5t22.5 17.5t14.5 28t8 48.5t4 69.5t0.5 99v707q0 63 -0.5 99t-4 69.5t-8 48.5t-14.5 28t-22.5 17.5t-32.5 7.5l-74 12v66q386 -17 985 0
q-5 -162 5 -383l-46 -10q-22 71 -37 112.5t-35 80t-38.5 56.5t-48.5 32t-64 18t-86 4h-254v-580l168 6q102 4 141.5 35t69.5 123l12 35h48q-16 -259 0 -463h-48l-12 35q-30 91 -70 122t-141 35l-168 7v-345q0 -141 44 -191t173 -50h82q60 0 101 11t85 44.5t85.5 94.5
t93.5 163z" />
    <glyph glyph-name="Edieresis" unicode="&#xcb;" horiz-adv-x="1275" 
d="M569 1741q0 -53 -37 -90t-92 -37q-58 0 -94.5 37t-36.5 90q0 55 36.5 91t94.5 36q54 0 91.5 -36.5t37.5 -90.5zM958 1741q0 -54 -36 -90.5t-95 -36.5q-54 0 -91.5 37t-37.5 90q0 54 37.5 90.5t91.5 36.5q58 0 94.5 -36t36.5 -91zM1188 375q-61 -241 -74 -379
q-621 15 -1014 0v63l74 13q20 3 32.5 7.5t22.5 17.5t14.5 28t8 48.5t4 69.5t0.5 99v707q0 63 -0.5 99t-4 69.5t-8 48.5t-14.5 28t-22.5 17.5t-32.5 7.5l-74 12v66q386 -17 985 0q-5 -162 5 -383l-46 -10q-22 71 -37 112.5t-35 80t-38.5 56.5t-48.5 32t-64 18t-86 4h-254
v-580l168 6q102 4 141.5 35t69.5 123l12 35h48q-16 -259 0 -463h-48l-12 35q-30 91 -70 122t-141 35l-168 7v-345q0 -141 44 -191t173 -50h82q60 0 101 11t85 44.5t85.5 94.5t93.5 163z" />
    <glyph glyph-name="Igrave" unicode="&#xcc;" horiz-adv-x="737" 
d="M115 1827q0 41 32.5 72t88.5 43l28 -13l230 -360l-21 -25q-206 97 -282 156t-76 127zM256 360v670q0 68 -0.5 106.5t-4 74.5t-8 52t-14.5 30t-22.5 18.5t-32.5 7.5l-74 12v66q267 -16 537 0v-66l-74 -12q-21 -3 -33.5 -7.5t-22.5 -19t-14.5 -29.5t-7.5 -52t-3.5 -74
t-0.5 -107v-670q0 -70 0.5 -107t3.5 -73.5t7.5 -52t14.5 -29.5t22.5 -18.5t33.5 -7.5l74 -13v-63q-270 16 -537 0v63l74 13q20 3 32.5 7.5t22.5 18.5t14.5 30t8 51.5t4 74t0.5 106.5z" />
    <glyph glyph-name="Iacute" unicode="&#xcd;" horiz-adv-x="737" 
d="M690 1827q0 -67 -76.5 -126t-283.5 -157l-21 25l230 360l28 13q56 -12 89.5 -43t33.5 -72zM256 360v670q0 68 -0.5 106.5t-4 74.5t-8 52t-14.5 30t-22.5 18.5t-32.5 7.5l-74 12v66q267 -16 537 0v-66l-74 -12q-21 -3 -33.5 -7.5t-22.5 -19t-14.5 -29.5t-7.5 -52t-3.5 -74
t-0.5 -107v-670q0 -70 0.5 -107t3.5 -73.5t7.5 -52t14.5 -29.5t22.5 -18.5t33.5 -7.5l74 -13v-63q-270 16 -537 0v63l74 13q20 3 32.5 7.5t22.5 18.5t14.5 30t8 51.5t4 74t0.5 106.5z" />
    <glyph glyph-name="Icircumflex" unicode="&#xce;" horiz-adv-x="737" 
d="M371 1763l-275 -223l-26 29l223 362h153l224 -362l-27 -29zM256 360v670q0 68 -0.5 106.5t-4 74.5t-8 52t-14.5 30t-22.5 18.5t-32.5 7.5l-74 12v66q267 -16 537 0v-66l-74 -12q-21 -3 -33.5 -7.5t-22.5 -19t-14.5 -29.5t-7.5 -52t-3.5 -74t-0.5 -107v-670
q0 -70 0.5 -107t3.5 -73.5t7.5 -52t14.5 -29.5t22.5 -18.5t33.5 -7.5l74 -13v-63q-270 16 -537 0v63l74 13q20 3 32.5 7.5t22.5 18.5t14.5 30t8 51.5t4 74t0.5 106.5z" />
    <glyph glyph-name="Idieresis" unicode="&#xcf;" horiz-adv-x="737" 
d="M305 1741q0 -53 -37 -90t-92 -37q-58 0 -94.5 37t-36.5 90q0 55 36.5 91t94.5 36q54 0 91.5 -36.5t37.5 -90.5zM694 1741q0 -54 -36 -90.5t-95 -36.5q-54 0 -91.5 37t-37.5 90q0 54 37.5 90.5t91.5 36.5q58 0 94.5 -36t36.5 -91zM256 360v670q0 68 -0.5 106.5t-4 74.5
t-8 52t-14.5 30t-22.5 18.5t-32.5 7.5l-74 12v66q267 -16 537 0v-66l-74 -12q-21 -3 -33.5 -7.5t-22.5 -19t-14.5 -29.5t-7.5 -52t-3.5 -74t-0.5 -107v-670q0 -70 0.5 -107t3.5 -73.5t7.5 -52t14.5 -29.5t22.5 -18.5t33.5 -7.5l74 -13v-63q-270 16 -537 0v63l74 13
q20 3 32.5 7.5t22.5 18.5t14.5 30t8 51.5t4 74t0.5 106.5z" />
    <glyph glyph-name="Eth" unicode="&#xd0;" horiz-adv-x="1499" 
d="M1380 715q0 -344 -203 -531.5t-575 -187.5q-35 0 -137 2t-195.5 2t-169.5 -4v63l74 13q20 3 32.5 7.5t22.5 17.5t14.5 28t8 48.5t4 69.5t0.5 99v342h-139v86h139v285q0 74 -1.5 113t-5.5 72t-14 46.5t-23.5 21t-37.5 11.5l-74 12v66q71 -5 154 -5t169 2.5t114 2.5
q259 0 446 -74t292 -229t105 -379zM481 319q0 -139 38 -191t147 -52q219 0 347 155t128 451q0 309 -171.5 469t-488.5 168v-549h310v-86h-310v-365z" />
    <glyph glyph-name="Ntilde" unicode="&#xd1;" horiz-adv-x="1517" 
d="M465 1602q31 139 84 207.5t121 68.5q54 0 137 -47t131 -47q79 0 129 123l43 -17q-58 -282 -203 -282q-51 0 -137 47t-135 47q-84 0 -131 -115zM526 59v-63q-221 10 -436 0v63l66 17q35 9 55 32t31.5 80.5t11.5 157.5v766q0 90 -24 139t-76 64l-62 16v66q67 -7 165 -7
t165 7l772 -1090l-16 742q-3 141 -25 196t-90 72l-51 14v66q213 -14 422 0v-66l-56 -16q-38 -11 -59.5 -35t-33 -79t-11.5 -150v-1051q-74 3 -152 0l-786 1110l10 -766q1 -101 12 -153.5t36.5 -78t76.5 -38.5z" />
    <glyph glyph-name="Ograve" unicode="&#xd2;" horiz-adv-x="1615" 
d="M496 1827q0 41 32 72t88 43l29 -13l229 -360l-20 -25q-206 97 -282 156t-76 127zM809 1421q137 0 262 -53t219 -146.5t149.5 -231.5t55.5 -298q0 -158 -53 -293.5t-144.5 -229t-219 -146t-273.5 -52.5q-109 0 -212 33t-188.5 97t-149.5 151.5t-100 203t-36 244.5
q0 158 53 293.5t144.5 229t219 146t273.5 52.5zM1255 594q0 324 -148 529.5t-364 205.5q-174 0 -279.5 -142t-105.5 -388q0 -162 40.5 -301t109.5 -234t163 -149t199 -54q174 0 279.5 143t105.5 390z" />
    <glyph glyph-name="Oacute" unicode="&#xd3;" horiz-adv-x="1615" 
d="M1106 1827q0 -67 -77 -126t-284 -157l-20 25l229 360l29 13q56 -12 89.5 -43t33.5 -72zM809 1421q137 0 262 -53t219 -146.5t149.5 -231.5t55.5 -298q0 -158 -53 -293.5t-144.5 -229t-219 -146t-273.5 -52.5q-109 0 -212 33t-188.5 97t-149.5 151.5t-100 203t-36 244.5
q0 158 53 293.5t144.5 229t219 146t273.5 52.5zM1255 594q0 324 -148 529.5t-364 205.5q-174 0 -279.5 -142t-105.5 -388q0 -162 40.5 -301t109.5 -234t163 -149t199 -54q174 0 279.5 143t105.5 390z" />
    <glyph glyph-name="Ocircumflex" unicode="&#xd4;" horiz-adv-x="1615" 
d="M807 1763l-275 -223l-26 29l223 362h154l223 -362l-27 -29zM809 1421q137 0 262 -53t219 -146.5t149.5 -231.5t55.5 -298q0 -158 -53 -293.5t-144.5 -229t-219 -146t-273.5 -52.5q-109 0 -212 33t-188.5 97t-149.5 151.5t-100 203t-36 244.5q0 158 53 293.5t144.5 229
t219 146t273.5 52.5zM1255 594q0 324 -148 529.5t-364 205.5q-174 0 -279.5 -142t-105.5 -388q0 -162 40.5 -301t109.5 -234t163 -149t199 -54q174 0 279.5 143t105.5 390z" />
    <glyph glyph-name="Otilde" unicode="&#xd5;" horiz-adv-x="1615" 
d="M485 1602q31 139 84 207.5t121 68.5q54 0 137 -47t131 -47q79 0 129 123l43 -17q-58 -282 -202 -282q-52 0 -138 47t-135 47q-84 0 -131 -115zM809 1421q137 0 262 -53t219 -146.5t149.5 -231.5t55.5 -298q0 -158 -53 -293.5t-144.5 -229t-219 -146t-273.5 -52.5
q-109 0 -212 33t-188.5 97t-149.5 151.5t-100 203t-36 244.5q0 158 53 293.5t144.5 229t219 146t273.5 52.5zM1255 594q0 324 -148 529.5t-364 205.5q-174 0 -279.5 -142t-105.5 -388q0 -162 40.5 -301t109.5 -234t163 -149t199 -54q174 0 279.5 143t105.5 390z" />
    <glyph glyph-name="Odieresis" unicode="&#xd6;" horiz-adv-x="1615" 
d="M741 1741q0 -53 -37 -90t-92 -37q-58 0 -94.5 37t-36.5 90q0 55 36.5 91t94.5 36q54 0 91.5 -36.5t37.5 -90.5zM1130 1741q0 -54 -36 -90.5t-95 -36.5q-54 0 -91.5 37t-37.5 90q0 54 37.5 90.5t91.5 36.5q58 0 94.5 -36t36.5 -91zM809 1421q137 0 262 -53t219 -146.5
t149.5 -231.5t55.5 -298q0 -158 -53 -293.5t-144.5 -229t-219 -146t-273.5 -52.5q-109 0 -212 33t-188.5 97t-149.5 151.5t-100 203t-36 244.5q0 158 53 293.5t144.5 229t219 146t273.5 52.5zM1255 594q0 324 -148 529.5t-364 205.5q-174 0 -279.5 -142t-105.5 -388
q0 -162 40.5 -301t109.5 -234t163 -149t199 -54q174 0 279.5 143t105.5 390z" />
    <glyph glyph-name="multiply" unicode="&#xd7;" 
d="M860 389l-63 -63l-285 286l-287 -286l-63 63l287 287l-287 285l63 63l287 -285l285 285l63 -63l-285 -285z" />
    <glyph glyph-name="Oslash" unicode="&#xd8;" horiz-adv-x="1615" 
d="M805 -29q-238 0 -422 148l-154 -185h-108l198 242q-200 207 -200 524q0 158 53 293.5t144.5 229t219 146t273.5 52.5q236 0 420 -145l151 182h111l-199 -239q96 -98 149.5 -233t53.5 -294q0 -158 -53 -293.5t-144.5 -229t-219 -146t-273.5 -52.5zM358 799
q0 -261 101 -455l647 782q-69 97 -163.5 150t-199.5 53q-174 0 -279.5 -142t-105.5 -388zM1255 594q0 261 -102 457l-647 -783q70 -99 164 -153t200 -54q174 0 279.5 143t105.5 390z" />
    <glyph glyph-name="Ugrave" unicode="&#xd9;" horiz-adv-x="1484" 
d="M487 1827q0 41 32.5 72t88.5 43l29 -13l229 -360l-20 -25q-206 98 -282.5 157t-76.5 126zM238 1030q0 70 -0.5 107t-3.5 74t-7.5 52t-15 29.5t-23.5 19t-34 7.5l-72 12v66q270 -19 536 0v-66l-73 -12q-25 -4 -39 -12t-24 -22.5t-14 -51t-5.5 -79t-1.5 -124.5v-510
q0 -222 87 -328t265 -106q349 0 346 463l-4 526q-1 99 -10 146.5t-31.5 69.5t-71.5 30l-47 10v66q220 -15 416 0v-66l-63 -14q-34 -7 -52.5 -25t-30.5 -70.5t-12 -146.5v-532q0 -155 -37 -267.5t-106 -178t-157 -96t-199 -30.5q-516 0 -516 512v547z" />
    <glyph glyph-name="Uacute" unicode="&#xda;" horiz-adv-x="1484" 
d="M1124 1827q0 -67 -76.5 -126t-283.5 -157l-21 25l230 360l28 13q56 -12 89.5 -43t33.5 -72zM238 1030q0 70 -0.5 107t-3.5 74t-7.5 52t-15 29.5t-23.5 19t-34 7.5l-72 12v66q270 -19 536 0v-66l-73 -12q-25 -4 -39 -12t-24 -22.5t-14 -51t-5.5 -79t-1.5 -124.5v-510
q0 -222 87 -328t265 -106q349 0 346 463l-4 526q-1 99 -10 146.5t-31.5 69.5t-71.5 30l-47 10v66q220 -15 416 0v-66l-63 -14q-34 -7 -52.5 -25t-30.5 -70.5t-12 -146.5v-532q0 -155 -37 -267.5t-106 -178t-157 -96t-199 -30.5q-516 0 -516 512v547z" />
    <glyph glyph-name="Ucircumflex" unicode="&#xdb;" horiz-adv-x="1484" 
d="M782 1763l-274 -223l-27 29l224 362h153l223 -362l-26 -29zM238 1030q0 70 -0.5 107t-3.5 74t-7.5 52t-15 29.5t-23.5 19t-34 7.5l-72 12v66q270 -19 536 0v-66l-73 -12q-25 -4 -39 -12t-24 -22.5t-14 -51t-5.5 -79t-1.5 -124.5v-510q0 -222 87 -328t265 -106
q349 0 346 463l-4 526q-1 99 -10 146.5t-31.5 69.5t-71.5 30l-47 10v66q220 -15 416 0v-66l-63 -14q-34 -7 -52.5 -25t-30.5 -70.5t-12 -146.5v-532q0 -155 -37 -267.5t-106 -178t-157 -96t-199 -30.5q-516 0 -516 512v547z" />
    <glyph glyph-name="Udieresis" unicode="&#xdc;" horiz-adv-x="1484" 
d="M723 1741q0 -53 -37 -90t-92 -37q-58 0 -94.5 37t-36.5 90q0 55 36.5 91t94.5 36q54 0 91.5 -36.5t37.5 -90.5zM1112 1741q0 -54 -36 -90.5t-95 -36.5q-54 0 -91.5 37t-37.5 90q0 54 37.5 90.5t91.5 36.5q58 0 94.5 -36t36.5 -91zM238 1030q0 70 -0.5 107t-3.5 74
t-7.5 52t-15 29.5t-23.5 19t-34 7.5l-72 12v66q270 -19 536 0v-66l-73 -12q-25 -4 -39 -12t-24 -22.5t-14 -51t-5.5 -79t-1.5 -124.5v-510q0 -222 87 -328t265 -106q349 0 346 463l-4 526q-1 99 -10 146.5t-31.5 69.5t-71.5 30l-47 10v66q220 -15 416 0v-66l-63 -14
q-34 -7 -52.5 -25t-30.5 -70.5t-12 -146.5v-532q0 -155 -37 -267.5t-106 -178t-157 -96t-199 -30.5q-516 0 -516 512v547z" />
    <glyph glyph-name="Yacute" unicode="&#xdd;" horiz-adv-x="1300" 
d="M1018 1827q0 -67 -77 -126t-284 -157l-20 25l229 360l29 13q56 -12 89.5 -43t33.5 -72zM924 59v-63q-265 17 -537 0v63l76 9q21 2 33.5 5.5t22.5 18t14.5 30t7.5 53.5t3.5 76t0.5 109v222l-295 514q-62 105 -90.5 147t-48 58t-50.5 22l-34 8v66q215 -14 544 0v-66l-43 -8
q-88 -17 -98.5 -56.5t43.5 -131.5l256 -443l211 426q85 173 -61 205l-41 8v66q89 -9 217 -9t217 9v-66l-39 -8q-45 -10 -89 -56t-104 -155l-272 -491v-261q0 -71 0.5 -109t3.5 -76t7.5 -53.5t14.5 -30t22.5 -18t33.5 -5.5z" />
    <glyph glyph-name="Thorn" unicode="&#xde;" horiz-adv-x="1236" 
d="M637 59v-63q-270 16 -537 0v63l74 13q20 3 32.5 7.5t22.5 18.5t14.5 30t8 51.5t4 74t0.5 106.5v670q0 68 -0.5 106.5t-4 74.5t-8 52t-14.5 30t-22.5 18.5t-32.5 7.5l-74 12v66q267 -16 537 0v-66l-74 -12q-33 -5 -48 -18t-23 -46t-9 -100h27q293 0 455.5 -100t162.5 -307
q0 -215 -165.5 -333t-481.5 -118q1 -99 7.5 -141.5t22 -60.5t52.5 -23zM481 1075v-700q414 6 414 342q0 352 -414 358z" />
    <glyph glyph-name="germandbls" unicode="&#xdf;" horiz-adv-x="1372" 
d="M1315 297q0 -143 -98.5 -234.5t-255.5 -91.5q-192 0 -322 82q7 134 4 252h53l25 -53q57 -115 120 -162t150 -47q66 0 102.5 45.5t36.5 120.5q0 64 -27.5 118t-71 93.5t-96 75.5t-105.5 72t-96.5 75t-71 92.5t-27.5 116.5q0 49 17.5 90.5t42 72t49 62t42 76t17.5 98.5
q0 81 -46 131t-130 50q-87 0 -140 -60.5t-53 -163.5v-846q0 -69 0.5 -106t3.5 -73t6.5 -50.5t13 -29t20.5 -19.5t30 -10l55 -15v-63q-273 15 -491 0v63l73 15q21 4 33.5 8.5t22.5 18.5t14.5 29t7.5 52t3.5 73.5t0.5 106.5v531h-123v74l123 12v59q0 213 113.5 340t314.5 127
q162 0 251 -68t89 -171q0 -46 -23 -81.5t-55.5 -58.5t-64.5 -44.5t-55 -49.5t-23 -63q0 -47 30 -89.5t77.5 -77t105 -70t115.5 -77.5t105.5 -90t77.5 -117.5t30 -150.5z" />
    <glyph glyph-name="agrave" unicode="&#xe0;" horiz-adv-x="1097" 
d="M293 1419q0 41 32.5 72t88.5 43l28 -12l230 -361l-21 -24q-206 98 -282 156.5t-76 125.5zM1075 117q-111 -146 -244 -146q-64 0 -102.5 37.5t-38.5 108.5v6q-54 -75 -122 -113.5t-175 -38.5q-132 0 -212.5 72t-80.5 190q0 120 83 192t241 89l258 27v61q0 148 -51.5 235
t-149.5 87q-174 0 -151 -291l-35 -10q-139 4 -139 96q0 65 60 133t157 113t194 45q164 0 243 -90.5t79 -270.5v-454q0 -54 11.5 -74.5t43.5 -20.5q53 0 103 47zM496 98q117 0 186 78v283h-150q-120 0 -174.5 -43t-54.5 -131q0 -83 54 -135t139 -52z" />
    <glyph glyph-name="aacute" unicode="&#xe1;" horiz-adv-x="1097" 
d="M840 1419q0 -67 -76.5 -125.5t-284.5 -156.5l-20 24l229 361l29 12q56 -12 89.5 -43t33.5 -72zM1075 117q-111 -146 -244 -146q-64 0 -102.5 37.5t-38.5 108.5v6q-54 -75 -122 -113.5t-175 -38.5q-132 0 -212.5 72t-80.5 190q0 120 83 192t241 89l258 27v61
q0 148 -51.5 235t-149.5 87q-174 0 -151 -291l-35 -10q-139 4 -139 96q0 65 60 133t157 113t194 45q164 0 243 -90.5t79 -270.5v-454q0 -54 11.5 -74.5t43.5 -20.5q53 0 103 47zM496 98q117 0 186 78v283h-150q-120 0 -174.5 -43t-54.5 -131q0 -83 54 -135t139 -52z" />
    <glyph glyph-name="acircumflex" unicode="&#xe2;" horiz-adv-x="1097" 
d="M547 1356l-275 -223l-26 28l223 363h154l223 -363l-27 -28zM1075 117q-111 -146 -244 -146q-64 0 -102.5 37.5t-38.5 108.5v6q-54 -75 -122 -113.5t-175 -38.5q-132 0 -212.5 72t-80.5 190q0 120 83 192t241 89l258 27v61q0 148 -51.5 235t-149.5 87q-174 0 -151 -291
l-35 -10q-139 4 -139 96q0 65 60 133t157 113t194 45q164 0 243 -90.5t79 -270.5v-454q0 -54 11.5 -74.5t43.5 -20.5q53 0 103 47zM496 98q117 0 186 78v283h-150q-120 0 -174.5 -43t-54.5 -131q0 -83 54 -135t139 -52z" />
    <glyph glyph-name="atilde" unicode="&#xe3;" horiz-adv-x="1097" 
d="M219 1194q31 139 84 207.5t121 68.5q54 0 137 -47t131 -47q79 0 129 123l43 -16q-58 -283 -202 -283q-43 0 -90.5 23.5t-94.5 47t-88 23.5q-85 0 -131 -114zM1075 117q-111 -146 -244 -146q-64 0 -102.5 37.5t-38.5 108.5v6q-54 -75 -122 -113.5t-175 -38.5
q-132 0 -212.5 72t-80.5 190q0 120 83 192t241 89l258 27v61q0 148 -51.5 235t-149.5 87q-174 0 -151 -291l-35 -10q-139 4 -139 96q0 65 60 133t157 113t194 45q164 0 243 -90.5t79 -270.5v-454q0 -54 11.5 -74.5t43.5 -20.5q53 0 103 47zM496 98q117 0 186 78v283h-150
q-120 0 -174.5 -43t-54.5 -131q0 -83 54 -135t139 -52z" />
    <glyph glyph-name="adieresis" unicode="&#xe4;" horiz-adv-x="1097" 
d="M479 1333q0 -53 -37 -90t-92 -37q-58 0 -94.5 37t-36.5 90q0 55 36.5 91t94.5 36q54 0 91.5 -36.5t37.5 -90.5zM868 1333q0 -54 -36 -90.5t-95 -36.5q-54 0 -91.5 37t-37.5 90q0 54 37.5 90.5t91.5 36.5q58 0 94.5 -36t36.5 -91zM1075 117q-111 -146 -244 -146
q-64 0 -102.5 37.5t-38.5 108.5v6q-54 -75 -122 -113.5t-175 -38.5q-132 0 -212.5 72t-80.5 190q0 120 83 192t241 89l258 27v61q0 148 -51.5 235t-149.5 87q-174 0 -151 -291l-35 -10q-139 4 -139 96q0 65 60 133t157 113t194 45q164 0 243 -90.5t79 -270.5v-454
q0 -54 11.5 -74.5t43.5 -20.5q53 0 103 47zM496 98q117 0 186 78v283h-150q-120 0 -174.5 -43t-54.5 -131q0 -83 54 -135t139 -52z" />
    <glyph glyph-name="aring" unicode="&#xe5;" horiz-adv-x="1097" 
d="M788 1391q0 -106 -73.5 -180t-179.5 -74t-181 74t-75 180q0 107 75 181.5t181 74.5t179.5 -74.5t73.5 -181.5zM377 1391q0 -71 44 -117.5t114 -46.5q67 0 111 46.5t44 117.5q0 69 -44 117t-111 48q-69 0 -113.5 -48t-44.5 -117zM1075 117q-111 -146 -244 -146
q-64 0 -102.5 37.5t-38.5 108.5v6q-54 -75 -122 -113.5t-175 -38.5q-132 0 -212.5 72t-80.5 190q0 120 83 192t241 89l258 27v61q0 148 -51.5 235t-149.5 87q-174 0 -151 -291l-35 -10q-139 4 -139 96q0 65 60 133t157 113t194 45q164 0 243 -90.5t79 -270.5v-454
q0 -54 11.5 -74.5t43.5 -20.5q53 0 103 47zM496 98q117 0 186 78v283h-150q-120 0 -174.5 -43t-54.5 -131q0 -83 54 -135t139 -52z" />
    <glyph glyph-name="ae" unicode="&#xe6;" horiz-adv-x="1642" 
d="M1567 242q-140 -271 -416 -271q-125 0 -225.5 53.5t-163.5 149.5q-71 -98 -158.5 -150.5t-212.5 -52.5q-134 0 -215.5 72.5t-81.5 192.5q0 237 326 278l256 31v92q0 287 -187 287q-84 0 -126 -70t-33 -211l-37 -12q-56 2 -96.5 29.5t-40.5 76.5q0 64 65.5 128t167 104.5
t199.5 40.5q173 0 241 -133q63 64 145.5 98.5t170.5 34.5q122 0 212 -58.5t132.5 -146.5t42.5 -191q0 -53 -4 -82h-651q19 -178 116.5 -283.5t247.5 -105.5q83 0 158.5 33.5t132.5 91.5zM872 608v-8l461 29q-15 146 -77 219.5t-160 73.5q-97 0 -160.5 -77.5t-63.5 -236.5z
M492 98q143 0 241 127q-51 102 -57 234h-148q-120 0 -175.5 -43t-55.5 -131q0 -83 55 -135t140 -52z" />
    <glyph glyph-name="ccedilla" unicode="&#xe7;" horiz-adv-x="1019" 
d="M752 -332q0 -95 -66.5 -155t-173.5 -60q-124 0 -225 101l30 43q60 -48 136 -48q50 0 84 31t34 80q0 113 -149 135l-10 23l80 159q-174 28 -283 166t-109 336q0 119 39 220.5t104.5 168.5t151 104.5t178.5 37.5q151 0 252 -79t101 -175q0 -54 -31.5 -84.5t-85.5 -36.5
l-33 12q-42 140 -102 208.5t-156 68.5q-98 0 -158.5 -79.5t-60.5 -223.5q0 -224 102.5 -352t272.5 -128q150 0 260 133l33 -26q-68 -137 -169.5 -207t-224.5 -70h-14l-63 -121q112 17 184 -35t72 -147z" />
    <glyph glyph-name="egrave" unicode="&#xe8;" horiz-adv-x="1067" 
d="M279 1419q0 41 32 72t88 43l29 -12l229 -361l-20 -24q-206 98 -282 156.5t-76 125.5zM991 242q-140 -271 -416 -271q-212 0 -343.5 144.5t-131.5 363.5q0 119 39 220.5t104 168.5t149.5 104.5t176.5 37.5q122 0 212 -58.5t132.5 -146.5t42.5 -191q0 -53 -4 -82h-651
q19 -178 117 -283.5t248 -105.5q168 0 290 125zM297 608v-8l461 29q-15 146 -78 219.5t-162 73.5q-96 0 -158.5 -77.5t-62.5 -236.5z" />
    <glyph glyph-name="eacute" unicode="&#xe9;" horiz-adv-x="1067" 
d="M858 1419q0 -67 -76.5 -125.5t-283.5 -156.5l-21 24l230 361l28 12q56 -12 89.5 -43t33.5 -72zM991 242q-140 -271 -416 -271q-212 0 -343.5 144.5t-131.5 363.5q0 119 39 220.5t104 168.5t149.5 104.5t176.5 37.5q122 0 212 -58.5t132.5 -146.5t42.5 -191q0 -53 -4 -82
h-651q19 -178 117 -283.5t248 -105.5q168 0 290 125zM297 608v-8l461 29q-15 146 -78 219.5t-162 73.5q-96 0 -158.5 -77.5t-62.5 -236.5z" />
    <glyph glyph-name="ecircumflex" unicode="&#xea;" horiz-adv-x="1067" 
d="M555 1356l-274 -223l-27 28l223 363h154l223 -363l-27 -28zM991 242q-140 -271 -416 -271q-212 0 -343.5 144.5t-131.5 363.5q0 119 39 220.5t104 168.5t149.5 104.5t176.5 37.5q122 0 212 -58.5t132.5 -146.5t42.5 -191q0 -53 -4 -82h-651q19 -178 117 -283.5
t248 -105.5q168 0 290 125zM297 608v-8l461 29q-15 146 -78 219.5t-162 73.5q-96 0 -158.5 -77.5t-62.5 -236.5z" />
    <glyph glyph-name="edieresis" unicode="&#xeb;" horiz-adv-x="1067" 
d="M487 1333q0 -53 -37 -90t-92 -37q-58 0 -94.5 37t-36.5 90q0 55 36.5 91t94.5 36q54 0 91.5 -36.5t37.5 -90.5zM877 1333q0 -54 -36.5 -90.5t-95.5 -36.5q-54 0 -91.5 37t-37.5 90q0 54 37.5 90.5t91.5 36.5q58 0 95 -36t37 -91zM991 242q-140 -271 -416 -271
q-212 0 -343.5 144.5t-131.5 363.5q0 119 39 220.5t104 168.5t149.5 104.5t176.5 37.5q122 0 212 -58.5t132.5 -146.5t42.5 -191q0 -53 -4 -82h-651q19 -178 117 -283.5t248 -105.5q168 0 290 125zM297 608v-8l461 29q-15 146 -78 219.5t-162 73.5q-96 0 -158.5 -77.5
t-62.5 -236.5z" />
    <glyph glyph-name="igrave" unicode="&#xec;" horiz-adv-x="655" 
d="M88 1419q0 41 32.5 72t88.5 43l29 -12l229 -361l-21 -24q-206 98 -282 156.5t-76 125.5zM238 342v211q0 241 -15 293.5t-94 62.5l-47 6v64q214 0 354 37l17 -17q-9 -159 -9 -393v-264q0 -69 0.5 -106t5.5 -70.5t9 -46t19 -24.5t27.5 -14.5t41.5 -8.5l55 -13v-63
q-257 18 -520 0v63l59 13q27 5 39 7.5t26 14.5t18 25t8.5 46t5 70.5t0.5 106.5z" />
    <glyph glyph-name="iacute" unicode="&#xed;" horiz-adv-x="655" 
d="M590 1419q0 -67 -76.5 -125.5t-284.5 -156.5l-20 24l229 361l29 12q56 -12 89.5 -43t33.5 -72zM238 342v211q0 241 -15 293.5t-94 62.5l-47 6v64q214 0 354 37l17 -17q-9 -159 -9 -393v-264q0 -69 0.5 -106t5.5 -70.5t9 -46t19 -24.5t27.5 -14.5t41.5 -8.5l55 -13v-63
q-257 18 -520 0v63l59 13q27 5 39 7.5t26 14.5t18 25t8.5 46t5 70.5t0.5 106.5z" />
    <glyph glyph-name="icircumflex" unicode="&#xee;" horiz-adv-x="655" 
d="M328 1356l-275 -223l-26 28l223 363h153l224 -363l-27 -28zM238 342v211q0 241 -15 293.5t-94 62.5l-47 6v64q214 0 354 37l17 -17q-9 -159 -9 -393v-264q0 -69 0.5 -106t5.5 -70.5t9 -46t19 -24.5t27.5 -14.5t41.5 -8.5l55 -13v-63q-257 18 -520 0v63l59 13q27 5 39 7.5
t26 14.5t18 25t8.5 46t5 70.5t0.5 106.5z" />
    <glyph glyph-name="idieresis" unicode="&#xef;" horiz-adv-x="655" 
d="M264 1333q0 -53 -37 -90t-92 -37q-57 0 -94 37t-37 90q0 55 36.5 91t94.5 36q54 0 91.5 -36.5t37.5 -90.5zM653 1333q0 -54 -36 -90.5t-95 -36.5q-54 0 -91.5 37t-37.5 90q0 54 37.5 90.5t91.5 36.5q58 0 94.5 -36t36.5 -91zM238 342v211q0 241 -15 293.5t-94 62.5l-47 6
v64q214 0 354 37l17 -17q-9 -159 -9 -393v-264q0 -69 0.5 -106t5.5 -70.5t9 -46t19 -24.5t27.5 -14.5t41.5 -8.5l55 -13v-63q-257 18 -520 0v63l59 13q27 5 39 7.5t26 14.5t18 25t8.5 46t5 70.5t0.5 106.5z" />
    <glyph glyph-name="eth" unicode="&#xf0;" horiz-adv-x="1212" 
d="M1112 545q0 -255 -135.5 -414.5t-353.5 -159.5q-101 0 -194 34t-167 98t-118 166t-44 227q0 111 39.5 207.5t107 163.5t159 105t192.5 38q102 0 221 -54q-101 199 -252 324l-186 -143l-47 59l170 131q-103 69 -221 105l26 61q134 -39 271 -109l165 127l46 -61l-142 -109
q122 -77 214 -176.5t145 -205t78.5 -209t25.5 -205.5zM319 557q0 -212 98 -358t240 -146q108 0 176 99.5t68 265.5q0 216 -97.5 361t-240.5 145q-108 0 -176 -100t-68 -267z" />
    <glyph glyph-name="ntilde" unicode="&#xf1;" horiz-adv-x="1333" 
d="M356 1194q31 139 84 207.5t121 68.5q54 0 137 -47t131 -47q79 0 129 123l43 -16q-58 -283 -202 -283q-51 0 -138 47t-135 47q-85 0 -131 -114zM1282 59v-63q-255 18 -514 0v65l55 11q26 5 38.5 8t26 15t18 25.5t9 46.5t5 70t0.5 105v293q0 111 -57 165t-148 54
q-72 0 -146 -27.5t-127 -72.5q-2 -57 -2 -150v-262q0 -68 0.5 -105t5 -70.5t9 -46.5t18.5 -25t26.5 -15t39.5 -8l55 -13v-63q-255 18 -516 0v63l59 13q26 5 38.5 8t26 15t17.5 25t8.5 47t5 70.5t0.5 104.5v209q0 240 -15 294t-93 64l-47 6v64q214 0 354 37l17 -17
q-6 -139 -7 -184q160 195 385 195q60 0 111.5 -18t94.5 -56.5t68 -106t25 -157.5v-330q0 -68 0.5 -105t5 -70.5t9 -46.5t18.5 -25t26.5 -15t39.5 -8z" />
    <glyph glyph-name="ograve" unicode="&#xf2;" horiz-adv-x="1214" 
d="M326 1419q0 41 32 72t88 43l29 -12l230 -361l-21 -24q-206 98 -282 156.5t-76 125.5zM596 -29q-97 0 -185 33.5t-158 96t-111.5 163t-41.5 225.5q0 152 70.5 272.5t187.5 184.5t258 64q97 0 185.5 -34t158.5 -97.5t112 -165t42 -226.5q0 -152 -70.5 -271t-188 -182
t-259.5 -63zM657 55q109 0 171.5 95.5t62.5 259.5q0 144 -43.5 262t-120 185t-170.5 67q-109 0 -171 -96.5t-62 -262.5q0 -221 95 -365.5t238 -144.5z" />
    <glyph glyph-name="oacute" unicode="&#xf3;" horiz-adv-x="1214" 
d="M889 1419q0 -67 -76.5 -125.5t-284.5 -156.5l-20 24l229 361l29 12q56 -12 89.5 -43t33.5 -72zM596 -29q-97 0 -185 33.5t-158 96t-111.5 163t-41.5 225.5q0 152 70.5 272.5t187.5 184.5t258 64q97 0 185.5 -34t158.5 -97.5t112 -165t42 -226.5q0 -152 -70.5 -271
t-188 -182t-259.5 -63zM657 55q109 0 171.5 95.5t62.5 259.5q0 144 -43.5 262t-120 185t-170.5 67q-109 0 -171 -96.5t-62 -262.5q0 -221 95 -365.5t238 -144.5z" />
    <glyph glyph-name="ocircumflex" unicode="&#xf4;" horiz-adv-x="1214" 
d="M606 1356l-274 -223l-27 28l223 363h154l223 -363l-26 -28zM596 -29q-97 0 -185 33.5t-158 96t-111.5 163t-41.5 225.5q0 152 70.5 272.5t187.5 184.5t258 64q97 0 185.5 -34t158.5 -97.5t112 -165t42 -226.5q0 -152 -70.5 -271t-188 -182t-259.5 -63zM657 55
q109 0 171.5 95.5t62.5 259.5q0 144 -43.5 262t-120 185t-170.5 67q-109 0 -171 -96.5t-62 -262.5q0 -221 95 -365.5t238 -144.5z" />
    <glyph glyph-name="otilde" unicode="&#xf5;" horiz-adv-x="1214" 
d="M285 1194q31 139 83.5 207.5t120.5 68.5q54 0 137.5 -47t131.5 -47q79 0 129 123l43 -16q-58 -283 -203 -283q-51 0 -137.5 47t-134.5 47q-85 0 -131 -114zM596 -29q-97 0 -185 33.5t-158 96t-111.5 163t-41.5 225.5q0 152 70.5 272.5t187.5 184.5t258 64q97 0 185.5 -34
t158.5 -97.5t112 -165t42 -226.5q0 -152 -70.5 -271t-188 -182t-259.5 -63zM657 55q109 0 171.5 95.5t62.5 259.5q0 144 -43.5 262t-120 185t-170.5 67q-109 0 -171 -96.5t-62 -262.5q0 -221 95 -365.5t238 -144.5z" />
    <glyph glyph-name="odieresis" unicode="&#xf6;" horiz-adv-x="1214" 
d="M541 1333q0 -53 -37 -90t-92 -37q-58 0 -94.5 37t-36.5 90q0 55 36.5 91t94.5 36q54 0 91.5 -36.5t37.5 -90.5zM930 1333q0 -54 -36 -90.5t-95 -36.5q-54 0 -91.5 37t-37.5 90q0 54 37.5 90.5t91.5 36.5q58 0 94.5 -36t36.5 -91zM596 -29q-97 0 -185 33.5t-158 96
t-111.5 163t-41.5 225.5q0 152 70.5 272.5t187.5 184.5t258 64q97 0 185.5 -34t158.5 -97.5t112 -165t42 -226.5q0 -152 -70.5 -271t-188 -182t-259.5 -63zM657 55q109 0 171.5 95.5t62.5 259.5q0 144 -43.5 262t-120 185t-170.5 67q-109 0 -171 -96.5t-62 -262.5
q0 -221 95 -365.5t238 -144.5z" />
    <glyph glyph-name="divide" unicode="&#xf7;" 
d="M616 999q0 -45 -29.5 -74.5t-74.5 -29.5q-46 0 -76 30t-30 74q0 46 30 75.5t76 29.5t75 -29.5t29 -75.5zM899 639h-776v88h776v-88zM616 369q0 -45 -29.5 -75t-74.5 -30q-46 0 -76 30t-30 75q0 46 30 75t76 29t75 -29t29 -75z" />
    <glyph glyph-name="oslash" unicode="&#xf8;" horiz-adv-x="1214" 
d="M596 -29q-166 0 -291 88l-100 -120h-103l142 172q-144 141 -144 378q0 152 70.5 272.5t187.5 184.5t258 64q161 0 291 -88l99 118h102l-139 -170q145 -145 145 -383q0 -152 -70.5 -271t-188 -182t-259.5 -63zM324 565q0 -162 55 -291l414 506q-45 69 -106 106.5
t-130 37.5q-109 0 -171 -96.5t-62 -262.5zM891 410q0 169 -57 295l-414 -504q94 -146 237 -146q109 0 171.5 95.5t62.5 259.5z" />
    <glyph glyph-name="ugrave" unicode="&#xf9;" horiz-adv-x="1257" 
d="M340 1419q0 41 32.5 72t88.5 43l28 -12l230 -361l-21 -24q-206 98 -282 156.5t-76 125.5zM1208 55q-154 -19 -327 -84q-23 87 -31 181q-148 -181 -348 -181q-141 0 -227.5 80t-86.5 256v244q0 239 -14 295t-86 63l-47 4v66q218 0 346 37l16 -19q-8 -153 -8 -424v-245
q0 -104 51.5 -153.5t139.5 -49.5q71 0 130.5 21.5t129.5 66.5q-2 20 -2 61v279q0 236 -16 291t-99 65l-37 6v64q220 0 350 37l17 -17q-8 -141 -8 -395v-233q0 -113 5.5 -159.5t22 -65t56.5 -21.5l71 -6z" />
    <glyph glyph-name="uacute" unicode="&#xfa;" horiz-adv-x="1257" 
d="M936 1419q0 -67 -76.5 -125.5t-284.5 -156.5l-20 24l229 361l29 12q56 -12 89.5 -43t33.5 -72zM1208 55q-154 -19 -327 -84q-23 87 -31 181q-148 -181 -348 -181q-141 0 -227.5 80t-86.5 256v244q0 239 -14 295t-86 63l-47 4v66q218 0 346 37l16 -19q-8 -153 -8 -424
v-245q0 -104 51.5 -153.5t139.5 -49.5q71 0 130.5 21.5t129.5 66.5q-2 20 -2 61v279q0 236 -16 291t-99 65l-37 6v64q220 0 350 37l17 -17q-8 -141 -8 -395v-233q0 -113 5.5 -159.5t22 -65t56.5 -21.5l71 -6z" />
    <glyph glyph-name="ucircumflex" unicode="&#xfb;" horiz-adv-x="1257" 
d="M637 1356l-275 -223l-26 28l223 363h154l223 -363l-27 -28zM1208 55q-154 -19 -327 -84q-23 87 -31 181q-148 -181 -348 -181q-141 0 -227.5 80t-86.5 256v244q0 239 -14 295t-86 63l-47 4v66q218 0 346 37l16 -19q-8 -153 -8 -424v-245q0 -104 51.5 -153.5t139.5 -49.5
q71 0 130.5 21.5t129.5 66.5q-2 20 -2 61v279q0 236 -16 291t-99 65l-37 6v64q220 0 350 37l17 -17q-8 -141 -8 -395v-233q0 -113 5.5 -159.5t22 -65t56.5 -21.5l71 -6z" />
    <glyph glyph-name="udieresis" unicode="&#xfc;" horiz-adv-x="1257" 
d="M569 1333q0 -53 -37 -90t-92 -37q-58 0 -94.5 37t-36.5 90q0 55 36.5 91t94.5 36q54 0 91.5 -36.5t37.5 -90.5zM958 1333q0 -54 -36 -90.5t-95 -36.5q-54 0 -91.5 37t-37.5 90q0 54 37.5 90.5t91.5 36.5q58 0 94.5 -36t36.5 -91zM1208 55q-154 -19 -327 -84
q-23 87 -31 181q-148 -181 -348 -181q-141 0 -227.5 80t-86.5 256v244q0 239 -14 295t-86 63l-47 4v66q218 0 346 37l16 -19q-8 -153 -8 -424v-245q0 -104 51.5 -153.5t139.5 -49.5q71 0 130.5 21.5t129.5 66.5q-2 20 -2 61v279q0 236 -16 291t-99 65l-37 6v64q220 0 350 37
l17 -17q-8 -141 -8 -395v-233q0 -113 5.5 -159.5t22 -65t56.5 -21.5l71 -6z" />
    <glyph glyph-name="yacute" unicode="&#xfd;" horiz-adv-x="1136" 
d="M938 1419q0 -67 -76.5 -125.5t-283.5 -156.5l-21 24l229 361l29 12q56 -12 89.5 -43t33.5 -72zM633 6q-58 -144 -109.5 -238t-98 -142.5t-85.5 -66.5t-86 -18q-69 0 -102 44.5t-33 109.5l16 31q74 3 122.5 9.5t99 23.5t85.5 46.5t67.5 78t59.5 118.5l6 18h-63l-303 697
q-53 120 -84.5 155.5t-101.5 47.5v63q267 -14 487 0v-63l-51 -13q-59 -15 -64 -52t33 -126l219 -518l156 416q52 145 49.5 204.5t-55.5 73.5l-54 15v63q188 -12 369 0v-63l-33 -9q-48 -13 -91 -75.5t-111 -229.5z" />
    <glyph glyph-name="thorn" unicode="&#xfe;" horiz-adv-x="1216" 
d="M547 -371v-65q-264 18 -522 0v65l57 11q27 6 40 10t26 16.5t17.5 25.5t9 47t5 70t0.5 103v1128q0 66 -0.5 103.5t-2 80t-4 63t-8.5 44.5t-13 33.5t-19 20t-26 14t-35 6.5l-47 6v66q128 0 205 7t149 29l16 -16q-8 -145 -8 -403v-242q116 158 307 158q195 0 308.5 -137.5
t113.5 -354.5q0 -129 -39.5 -234t-107 -172.5t-155 -104t-185.5 -36.5q-133 0 -242 56v-115q0 -66 0.5 -103.5t5 -70.5t9.5 -46.5t19 -26t27.5 -16.5t40.5 -9zM387 375q0 -88 22 -154t59.5 -103t82 -55t94.5 -18q111 0 183.5 92.5t72.5 278.5q0 214 -85.5 335t-221.5 121
q-130 0 -207 -102v-395z" />
    <glyph glyph-name="ydieresis" unicode="&#xff;" horiz-adv-x="1136" 
d="M553 1333q0 -53 -37 -90t-92 -37q-58 0 -94.5 37t-36.5 90q0 55 36.5 91t94.5 36q54 0 91.5 -36.5t37.5 -90.5zM942 1333q0 -54 -36 -90.5t-95 -36.5q-54 0 -91.5 37t-37.5 90q0 54 37.5 90.5t91.5 36.5q58 0 94.5 -36t36.5 -91zM633 6q-58 -144 -109.5 -238t-98 -142.5
t-85.5 -66.5t-86 -18q-69 0 -102 44.5t-33 109.5l16 31q74 3 122.5 9.5t99 23.5t85.5 46.5t67.5 78t59.5 118.5l6 18h-63l-303 697q-53 120 -84.5 155.5t-101.5 47.5v63q267 -14 487 0v-63l-51 -13q-59 -15 -64 -52t33 -126l219 -518l156 416q52 145 49.5 204.5t-55.5 73.5
l-54 15v63q188 -12 369 0v-63l-33 -9q-48 -13 -91 -75.5t-111 -229.5z" />
    <glyph glyph-name="Amacron" unicode="&#x100;" horiz-adv-x="1419" 
d="M403 1636v152h572v-152h-572zM1393 59v-63q-284 9 -543 0v63l47 11q33 7 48.5 12.5t30.5 17t16 30.5t-4.5 49.5t-22.5 76.5l-68 197h-491l-64 -193q-28 -97 -7.5 -134.5t101.5 -55.5l43 -11v-63q-213 13 -452 0v63l39 11q41 11 68 28.5t57 62t57 120.5l180 497
q67 186 94 277t27 135q0 32 -13 49t-42 25l-54 14v55q85 3 170 26.5t140 57.5h30l426 -1149q30 -82 52.5 -122.5t42 -54.5t51.5 -21zM432 537h434l-223 645z" />
    <glyph glyph-name="amacron" unicode="&#x101;" horiz-adv-x="1097" 
d="M256 1229v151h571v-151h-571zM1075 117q-111 -146 -244 -146q-64 0 -102.5 37.5t-38.5 108.5v6q-54 -75 -122 -113.5t-175 -38.5q-132 0 -212.5 72t-80.5 190q0 120 83 192t241 89l258 27v61q0 148 -51.5 235t-149.5 87q-174 0 -151 -291l-35 -10q-139 4 -139 96
q0 65 60 133t157 113t194 45q164 0 243 -90.5t79 -270.5v-454q0 -54 11.5 -74.5t43.5 -20.5q53 0 103 47zM496 98q117 0 186 78v283h-150q-120 0 -174.5 -43t-54.5 -131q0 -83 54 -135t139 -52z" />
    <glyph glyph-name="Abreve" unicode="&#x102;" horiz-adv-x="1419" 
d="M985 1923q0 -172 -74 -269.5t-211 -97.5q-138 0 -212 97.5t-74 269.5h47q11 -86 71 -138t168 -52q102 0 163.5 52.5t74.5 137.5h47zM1393 59v-63q-284 9 -543 0v63l47 11q33 7 48.5 12.5t30.5 17t16 30.5t-4.5 49.5t-22.5 76.5l-68 197h-491l-64 -193
q-28 -97 -7.5 -134.5t101.5 -55.5l43 -11v-63q-213 13 -452 0v63l39 11q41 11 68 28.5t57 62t57 120.5l180 497q67 186 94 277t27 135q0 32 -13 49t-42 25l-54 14v55q85 3 170 26.5t140 57.5h30l426 -1149q30 -82 52.5 -122.5t42 -54.5t51.5 -21zM432 537h434l-223 645z" />
    <glyph glyph-name="abreve" unicode="&#x103;" horiz-adv-x="1097" 
d="M821 1516q0 -172 -74 -269.5t-210 -97.5q-138 0 -212.5 97.5t-74.5 269.5h47q11 -86 71.5 -138.5t168.5 -52.5q102 0 163 52.5t74 138.5h47zM1075 117q-111 -146 -244 -146q-64 0 -102.5 37.5t-38.5 108.5v6q-54 -75 -122 -113.5t-175 -38.5q-132 0 -212.5 72t-80.5 190
q0 120 83 192t241 89l258 27v61q0 148 -51.5 235t-149.5 87q-174 0 -151 -291l-35 -10q-139 4 -139 96q0 65 60 133t157 113t194 45q164 0 243 -90.5t79 -270.5v-454q0 -54 11.5 -74.5t43.5 -20.5q53 0 103 47zM496 98q117 0 186 78v283h-150q-120 0 -174.5 -43t-54.5 -131
q0 -83 54 -135t139 -52z" />
    <glyph glyph-name="Aogonek" unicode="&#x104;" horiz-adv-x="1419" 
d="M1206 268q30 -82 52.5 -122.5t42 -54.5t51.5 -21l41 -11v-63q-72 2 -135.5 -43t-98.5 -112t-35 -132q0 -63 28.5 -96t82.5 -33q34 0 58.5 14t52.5 44l36 -27q-107 -158 -243 -158q-89 0 -146 49.5t-57 137.5q0 98 86 194.5t235 165.5q-182 3 -407 -4v63l47 11
q33 7 48.5 12.5t30.5 17t16 30.5t-4.5 49.5t-22.5 76.5l-68 197h-491l-64 -193q-28 -97 -7.5 -134.5t101.5 -55.5l43 -11v-63q-213 13 -452 0v63l39 11q41 11 68 28.5t57 62t57 120.5l180 497q67 186 94 277t27 135q0 32 -13 49t-42 25l-54 14v55q85 3 170 26.5t140 57.5h30
zM432 537h434l-223 641z" />
    <glyph glyph-name="aogonek" unicode="&#x105;" horiz-adv-x="1097" 
d="M997 -389q-107 -158 -243 -158q-89 0 -146 49.5t-57 137.5t72 174.5t200 156.5q-56 3 -94.5 40.5t-38.5 105.5v6q-55 -75 -122.5 -113.5t-174.5 -38.5q-132 0 -212.5 72t-80.5 190q0 120 83 192t241 89l258 27v61q0 148 -51.5 235t-149.5 87q-174 0 -151 -291l-35 -10
q-139 4 -139 96q0 48 36 100.5t93 94.5t132.5 69t149.5 27q322 0 322 -361v-454q0 -54 11.5 -74.5t43.5 -20.5q53 0 103 47l28 -30q-58 -78 -151 -133q-99 -62 -142 -128.5t-43 -146.5q0 -63 28.5 -96t82.5 -33q34 0 58.5 14t52.5 44zM496 98q111 0 186 78v283h-150
q-120 0 -174.5 -43t-54.5 -131q0 -83 54 -135t139 -52z" />
    <glyph glyph-name="Cacute" unicode="&#x106;" horiz-adv-x="1390" 
d="M1057 1827q0 -67 -77 -126t-284 -157l-20 25l229 360l29 13q56 -12 89.5 -43t33.5 -72zM717 1325q-160 0 -259.5 -132t-99.5 -359q0 -215 68.5 -393t185 -279t254.5 -101q104 0 172 67.5t160 264.5l35 74l51 -14q-22 -111 -59 -396q-145 -86 -371 -86q-156 0 -290.5 51
t-233 145t-155 234.5t-56.5 311.5q0 206 84.5 367t240.5 251t359 90q230 0 385 -106q2 -144 31 -377l-54 -12l-45 92q-82 169 -175 238t-228 69z" />
    <glyph glyph-name="cacute" unicode="&#x107;" horiz-adv-x="1019" 
d="M836 1419q0 -67 -76.5 -125.5t-284.5 -156.5l-20 24l229 361l29 12q56 -12 89.5 -43t33.5 -72zM518 924q-98 0 -158.5 -79.5t-60.5 -223.5q0 -224 102.5 -352t272.5 -128q150 0 260 133l33 -26q-68 -137 -169.5 -207t-224.5 -70q-206 0 -339.5 143t-133.5 365
q0 119 39 220.5t104.5 168.5t151 104.5t178.5 37.5q151 0 252 -79t101 -175q0 -54 -31.5 -84.5t-85.5 -36.5l-33 12q-42 140 -102 208.5t-156 68.5z" />
    <glyph glyph-name="Ccircumflex" unicode="&#x108;" horiz-adv-x="1390" 
d="M748 1763l-275 -223l-27 29l224 362h153l224 -362l-27 -29zM717 1325q-160 0 -259.5 -132t-99.5 -359q0 -215 68.5 -393t185 -279t254.5 -101q104 0 172 67.5t160 264.5l35 74l51 -14q-22 -111 -59 -396q-145 -86 -371 -86q-156 0 -290.5 51t-233 145t-155 234.5
t-56.5 311.5q0 206 84.5 367t240.5 251t359 90q230 0 385 -106q2 -144 31 -377l-54 -12l-45 92q-82 169 -175 238t-228 69z" />
    <glyph glyph-name="ccircumflex" unicode="&#x109;" horiz-adv-x="1019" 
d="M551 1356l-275 -223l-26 28l223 363h154l223 -363l-27 -28zM518 924q-98 0 -158.5 -79.5t-60.5 -223.5q0 -224 102.5 -352t272.5 -128q150 0 260 133l33 -26q-68 -137 -169.5 -207t-224.5 -70q-206 0 -339.5 143t-133.5 365q0 119 39 220.5t104.5 168.5t151 104.5
t178.5 37.5q151 0 252 -79t101 -175q0 -54 -31.5 -84.5t-85.5 -36.5l-33 12q-42 140 -102 208.5t-156 68.5z" />
    <glyph glyph-name="Cdotaccent" unicode="&#x10a;" horiz-adv-x="1390" 
d="M913 1741q0 -62 -41 -103t-102 -41q-63 0 -104 41t-41 103t41 102.5t104 40.5q62 0 102.5 -41t40.5 -102zM717 1325q-160 0 -259.5 -132t-99.5 -359q0 -215 68.5 -393t185 -279t254.5 -101q104 0 172 67.5t160 264.5l35 74l51 -14q-22 -111 -59 -396q-145 -86 -371 -86
q-156 0 -290.5 51t-233 145t-155 234.5t-56.5 311.5q0 206 84.5 367t240.5 251t359 90q230 0 385 -106q2 -144 31 -377l-54 -12l-45 92q-82 169 -175 238t-228 69z" />
    <glyph glyph-name="cdotaccent" unicode="&#x10b;" horiz-adv-x="1019" 
d="M698 1333q0 -61 -41 -102t-102 -41q-63 0 -104 40.5t-41 102.5t41 103t104 41q61 0 102 -41t41 -103zM518 924q-98 0 -158.5 -79.5t-60.5 -223.5q0 -224 102.5 -352t272.5 -128q150 0 260 133l33 -26q-68 -137 -169.5 -207t-224.5 -70q-206 0 -339.5 143t-133.5 365
q0 119 39 220.5t104.5 168.5t151 104.5t178.5 37.5q151 0 252 -79t101 -175q0 -54 -31.5 -84.5t-85.5 -36.5l-33 12q-42 140 -102 208.5t-156 68.5z" />
    <glyph glyph-name="Ccaron" unicode="&#x10c;" horiz-adv-x="1390" 
d="M754 1722l276 226l29 -29l-228 -360h-157l-228 360l29 29zM717 1325q-160 0 -259.5 -132t-99.5 -359q0 -215 68.5 -393t185 -279t254.5 -101q104 0 172 67.5t160 264.5l35 74l51 -14q-22 -111 -59 -396q-145 -86 -371 -86q-156 0 -290.5 51t-233 145t-155 234.5
t-56.5 311.5q0 206 84.5 367t240.5 251t359 90q230 0 385 -106q2 -144 31 -377l-54 -12l-45 92q-82 169 -175 238t-228 69z" />
    <glyph glyph-name="ccaron" unicode="&#x10d;" horiz-adv-x="1019" 
d="M555 1315l276 225l29 -29l-227 -360h-158l-227 360l28 29zM518 924q-98 0 -158.5 -79.5t-60.5 -223.5q0 -224 102.5 -352t272.5 -128q150 0 260 133l33 -26q-68 -137 -169.5 -207t-224.5 -70q-206 0 -339.5 143t-133.5 365q0 119 39 220.5t104.5 168.5t151 104.5
t178.5 37.5q151 0 252 -79t101 -175q0 -54 -31.5 -84.5t-85.5 -36.5l-33 12q-42 140 -102 208.5t-156 68.5z" />
    <glyph glyph-name="Dcaron" unicode="&#x10e;" horiz-adv-x="1499" 
d="M756 1722l276 226l29 -29l-227 -360h-158l-227 360l28 29zM537 1397q259 0 446 -74t292 -229t105 -379q0 -344 -203 -531.5t-575 -187.5q-35 0 -137 2t-195.5 2t-169.5 -4v63l74 13q20 3 32.5 7.5t22.5 17.5t14.5 28t8 48.5t4 69.5t0.5 99v713q0 74 -1.5 113t-5.5 72
t-14 46.5t-23.5 21t-37.5 11.5l-74 12v66q71 -5 154 -5t169 2.5t114 2.5zM1141 682q0 309 -171.5 469t-488.5 168v-1000q0 -139 38 -191t147 -52q219 0 347 155t128 451z" />
    <glyph glyph-name="dcaron" unicode="&#x10f;" horiz-adv-x="1376" 
d="M1190 55q-157 -20 -328 -84q-18 70 -26 158q-115 -158 -306 -158t-310.5 138t-119.5 356q0 102 30 191.5t81.5 153t119 109.5t142.5 68.5t152 22.5q112 0 202 -49v67q0 235 -10 290q-11 62 -50 79q-17 7 -48 10l-47 4v66q123 0 200.5 8t153.5 31l16 -19q-8 -151 -8 -418
v-708q0 -112 5.5 -158.5t21.5 -65.5t55 -22l74 -6v-64zM1180 1481q46 24 84 24q43 0 70.5 -28t27.5 -80t-27.5 -105t-73 -126t-71.5 -142l-33 8l4 420zM311 549q0 -203 89.5 -321.5t240.5 -118.5q109 0 188 88q-2 25 -2 77v424q0 108 -64.5 168t-168.5 60q-125 0 -204 -98.5
t-79 -278.5z" />
    <glyph glyph-name="Dcroat" unicode="&#x110;" horiz-adv-x="1499" 
d="M1380 715q0 -344 -203 -531.5t-575 -187.5q-35 0 -137 2t-195.5 2t-169.5 -4v63l74 13q20 3 32.5 7.5t22.5 17.5t14.5 28t8 48.5t4 69.5t0.5 99v342h-139v86h139v285q0 74 -1.5 113t-5.5 72t-14 46.5t-23.5 21t-37.5 11.5l-74 12v66q71 -5 154 -5t169 2.5t114 2.5
q259 0 446 -74t292 -229t105 -379zM481 319q0 -139 38 -191t147 -52q219 0 347 155t128 451q0 309 -171.5 469t-488.5 168v-549h310v-86h-310v-365z" />
    <glyph glyph-name="dcroat" unicode="&#x111;" horiz-adv-x="1239" 
d="M1190 55q-157 -20 -328 -84q-18 70 -26 158q-115 -158 -306 -158t-310.5 138t-119.5 356q0 102 30 191.5t81.5 153t119 109.5t142.5 68.5t152 22.5q112 0 202 -49v221h-438v84h434q-6 81 -27.5 108.5t-76.5 32.5l-47 4v66q123 0 200.5 8t153.5 31l16 -19q-6 -92 -6 -231
h140v-84h-142v-811q0 -112 5.5 -158.5t21.5 -65.5t55 -22l74 -6v-64zM311 549q0 -203 89.5 -321.5t240.5 -118.5q109 0 188 88q-2 25 -2 77v424q0 108 -64.5 168t-168.5 60q-125 0 -204 -98.5t-79 -278.5z" />
    <glyph glyph-name="Emacron" unicode="&#x112;" horiz-adv-x="1275" 
d="M352 1636v152h572v-152h-572zM1188 375q-61 -241 -74 -379q-621 15 -1014 0v63l74 13q20 3 32.5 7.5t22.5 17.5t14.5 28t8 48.5t4 69.5t0.5 99v707q0 63 -0.5 99t-4 69.5t-8 48.5t-14.5 28t-22.5 17.5t-32.5 7.5l-74 12v66q386 -17 985 0q-5 -162 5 -383l-46 -10
q-22 71 -37 112.5t-35 80t-38.5 56.5t-48.5 32t-64 18t-86 4h-254v-580l168 6q102 4 141.5 35t69.5 123l12 35h48q-16 -259 0 -463h-48l-12 35q-30 91 -70 122t-141 35l-168 7v-345q0 -141 44 -191t173 -50h82q60 0 101 11t85 44.5t85.5 94.5t93.5 163z" />
    <glyph glyph-name="emacron" unicode="&#x113;" horiz-adv-x="1067" 
d="M264 1229v151h572v-151h-572zM991 242q-140 -271 -416 -271q-212 0 -343.5 144.5t-131.5 363.5q0 119 39 220.5t104 168.5t149.5 104.5t176.5 37.5q122 0 212 -58.5t132.5 -146.5t42.5 -191q0 -53 -4 -82h-651q19 -178 117 -283.5t248 -105.5q168 0 290 125zM297 608v-8
l461 29q-15 146 -78 219.5t-162 73.5q-96 0 -158.5 -77.5t-62.5 -236.5z" />
    <glyph glyph-name="Ebreve" unicode="&#x114;" horiz-adv-x="1275" 
d="M932 1923q0 -172 -74 -269.5t-211 -97.5q-138 0 -212.5 97.5t-74.5 269.5h48q11 -86 71 -138t168 -52q102 0 163.5 52.5t74.5 137.5h47zM1188 375q-61 -241 -74 -379q-621 15 -1014 0v63l74 13q20 3 32.5 7.5t22.5 17.5t14.5 28t8 48.5t4 69.5t0.5 99v707q0 63 -0.5 99
t-4 69.5t-8 48.5t-14.5 28t-22.5 17.5t-32.5 7.5l-74 12v66q386 -17 985 0q-5 -162 5 -383l-46 -10q-22 71 -37 112.5t-35 80t-38.5 56.5t-48.5 32t-64 18t-86 4h-254v-580l168 6q102 4 141.5 35t69.5 123l12 35h48q-16 -259 0 -463h-48l-12 35q-30 91 -70 122t-141 35
l-168 7v-345q0 -141 44 -191t173 -50h82q60 0 101 11t85 44.5t85.5 94.5t93.5 163z" />
    <glyph glyph-name="ebreve" unicode="&#x115;" horiz-adv-x="1067" 
d="M834 1516q0 -172 -74 -269.5t-211 -97.5q-138 0 -212.5 97.5t-74.5 269.5h47q11 -86 71.5 -138.5t168.5 -52.5q102 0 163 52.5t74 138.5h48zM991 242q-140 -271 -416 -271q-212 0 -343.5 144.5t-131.5 363.5q0 119 39 220.5t104 168.5t149.5 104.5t176.5 37.5
q122 0 212 -58.5t132.5 -146.5t42.5 -191q0 -53 -4 -82h-651q19 -178 117 -283.5t248 -105.5q168 0 290 125zM297 608v-8l461 29q-15 146 -78 219.5t-162 73.5q-96 0 -158.5 -77.5t-62.5 -236.5z" />
    <glyph glyph-name="Edotaccent" unicode="&#x116;" horiz-adv-x="1275" 
d="M776 1741q0 -62 -41 -103t-102 -41q-63 0 -104.5 41t-41.5 103t41.5 102.5t104.5 40.5q61 0 102 -41t41 -102zM1188 375q-61 -241 -74 -379q-621 15 -1014 0v63l74 13q20 3 32.5 7.5t22.5 17.5t14.5 28t8 48.5t4 69.5t0.5 99v707q0 63 -0.5 99t-4 69.5t-8 48.5t-14.5 28
t-22.5 17.5t-32.5 7.5l-74 12v66q386 -17 985 0q-5 -162 5 -383l-46 -10q-22 71 -37 112.5t-35 80t-38.5 56.5t-48.5 32t-64 18t-86 4h-254v-580l168 6q102 4 141.5 35t69.5 123l12 35h48q-16 -259 0 -463h-48l-12 35q-30 91 -70 122t-141 35l-168 7v-345q0 -141 44 -191
t173 -50h82q60 0 101 11t85 44.5t85.5 94.5t93.5 163z" />
    <glyph glyph-name="edotaccent" unicode="&#x117;" horiz-adv-x="1067" 
d="M698 1333q0 -61 -41 -102t-102 -41q-63 0 -104 40.5t-41 102.5t41 103t104 41q61 0 102 -41t41 -103zM991 242q-140 -271 -416 -271q-212 0 -343.5 144.5t-131.5 363.5q0 119 39 220.5t104 168.5t149.5 104.5t176.5 37.5q122 0 212 -58.5t132.5 -146.5t42.5 -191
q0 -53 -4 -82h-651q19 -178 117 -283.5t248 -105.5q168 0 290 125zM297 608v-8l461 29q-15 146 -78 219.5t-162 73.5q-96 0 -158.5 -77.5t-62.5 -236.5z" />
    <glyph glyph-name="Eogonek" unicode="&#x118;" horiz-adv-x="1275" 
d="M995 -389q-104 -158 -243 -158q-88 0 -145.5 49.5t-57.5 137.5q0 99 89.5 194.5t242.5 167.5q-476 6 -781 -6v63l74 13q20 3 32.5 7.5t22.5 17.5t14.5 28t8 48.5t4 69.5t0.5 99v707q0 63 -0.5 99t-4 69.5t-8 48.5t-14.5 28t-22.5 17.5t-32.5 7.5l-74 12v66q386 -17 985 0
q-5 -162 5 -383l-46 -10q-22 71 -37 112.5t-35 80t-38.5 56.5t-48.5 32t-64 18t-86 4h-254v-580l168 6q102 4 141.5 35t69.5 123l12 35h48q-16 -259 0 -463h-48l-12 35q-30 91 -70 122t-141 35l-168 7v-345q0 -142 43.5 -191.5t173.5 -49.5h82q60 0 101 11t85 44.5
t85.5 94.5t93.5 163l43 -14q-61 -241 -74 -379q-125 7 -196 -23q-81 -33 -131 -108t-50 -158q0 -62 28.5 -94.5t82.5 -32.5q58 0 113 58z" />
    <glyph glyph-name="eogonek" unicode="&#x119;" horiz-adv-x="1067" 
d="M811 -389q-104 -158 -244 -158q-88 0 -145 49.5t-57 137.5q0 89 73 176t203 159q-40 -4 -66 -4q-212 0 -343.5 144.5t-131.5 363.5q0 119 39 220.5t104 168.5t149.5 104.5t176.5 37.5q122 0 212 -58.5t132.5 -146.5t42.5 -191q0 -53 -4 -82h-651q19 -178 117 -283.5
t248 -105.5q168 0 290 125l35 -26q-77 -148 -203 -224q-127 -73 -181 -147.5t-54 -163.5q0 -62 29 -94.5t84 -32.5q33 0 57.5 14.5t52.5 43.5zM297 608v-8l461 29q-15 146 -78 219.5t-162 73.5q-96 0 -158.5 -77.5t-62.5 -236.5z" />
    <glyph glyph-name="Ecaron" unicode="&#x11a;" horiz-adv-x="1275" 
d="M664 1722l276 226l29 -29l-228 -360h-157l-228 360l29 29zM1188 375q-61 -241 -74 -379q-621 15 -1014 0v63l74 13q20 3 32.5 7.5t22.5 17.5t14.5 28t8 48.5t4 69.5t0.5 99v707q0 63 -0.5 99t-4 69.5t-8 48.5t-14.5 28t-22.5 17.5t-32.5 7.5l-74 12v66q386 -17 985 0
q-5 -162 5 -383l-46 -10q-22 71 -37 112.5t-35 80t-38.5 56.5t-48.5 32t-64 18t-86 4h-254v-580l168 6q102 4 141.5 35t69.5 123l12 35h48q-16 -259 0 -463h-48l-12 35q-30 91 -70 122t-141 35l-168 7v-345q0 -141 44 -191t173 -50h82q60 0 101 11t85 44.5t85.5 94.5
t93.5 163z" />
    <glyph glyph-name="ecaron" unicode="&#x11b;" horiz-adv-x="1067" 
d="M551 1315l276 225l29 -29l-227 -360h-158l-227 360l28 29zM991 242q-140 -271 -416 -271q-212 0 -343.5 144.5t-131.5 363.5q0 119 39 220.5t104 168.5t149.5 104.5t176.5 37.5q122 0 212 -58.5t132.5 -146.5t42.5 -191q0 -53 -4 -82h-651q19 -178 117 -283.5t248 -105.5
q168 0 290 125zM297 608v-8l461 29q-15 146 -78 219.5t-162 73.5q-96 0 -158.5 -77.5t-62.5 -236.5z" />
    <glyph glyph-name="Gcircumflex" unicode="&#x11c;" horiz-adv-x="1501" 
d="M770 1763l-274 -223l-27 29l223 362h154l223 -362l-27 -29zM1311 -20l-49 -9q-40 77 -56 101q-76 -51 -158 -76t-204 -25q-151 0 -283.5 51.5t-230.5 145t-154.5 233.5t-56.5 308q0 136 36.5 252.5t101 200t151 143t187 88t208.5 28.5q241 0 401 -112q-2 -140 23 -379
l-53 -12l-29 63q-42 90 -81 150.5t-88 106.5t-109 67.5t-136 21.5q-168 0 -270.5 -130t-102.5 -374q0 -172 45 -319t120 -244.5t172.5 -152t203.5 -54.5q108 0 157.5 58.5t49.5 195.5v135q0 73 -18 96t-72 31l-74 9v63q212 -14 469 0v-63q-26 -3 -41 -7t-27.5 -17t-18 -26
t-9 -46.5t-4 -66t-0.5 -96.5v-339z" />
    <glyph glyph-name="gcircumflex" unicode="&#x11d;" horiz-adv-x="1099" 
d="M510 1356l-272 -223l-29 28l223 363h156l198 -328l-30 -33zM1047 -84q0 -96 -70 -181t-195 -137.5t-272 -52.5q-208 0 -325 70.5t-117 175.5q0 79 61.5 132t167.5 79q-160 55 -160 182q0 132 174 213q-84 43 -132 115t-48 160q0 141 114 239.5t281 98.5q97 0 179 -31
q48 124 95.5 186t114.5 62q57 0 92 -41.5t37 -104.5l-12 -37q-83 11 -162 -7t-131 -72q89 -40 141 -114.5t52 -166.5q0 -142 -112 -241t-279 -99q-89 0 -174 29q-86 -44 -86 -103q0 -50 39 -76t124 -30l283 -12q154 -7 237 -69t83 -167zM557 418q76 0 122 60.5t46 162.5
q0 126 -63 211.5t-154 85.5q-77 0 -122.5 -60.5t-45.5 -164.5q0 -130 62 -212.5t155 -82.5zM248 -174q0 -87 80 -144t211 -57q144 0 236.5 61t92.5 162q0 58 -40.5 84t-125.5 29l-249 12q-34 2 -107 15q-98 -52 -98 -162z" />
    <glyph glyph-name="Gbreve" unicode="&#x11e;" horiz-adv-x="1501" 
d="M1057 1923q0 -172 -74 -269.5t-211 -97.5q-138 0 -212.5 97.5t-74.5 269.5h47q11 -86 71.5 -138t168.5 -52q102 0 163.5 52.5t74.5 137.5h47zM1311 -20l-49 -9q-40 77 -56 101q-76 -51 -158 -76t-204 -25q-151 0 -283.5 51.5t-230.5 145t-154.5 233.5t-56.5 308
q0 136 36.5 252.5t101 200t151 143t187 88t208.5 28.5q241 0 401 -112q-2 -140 23 -379l-53 -12l-29 63q-42 90 -81 150.5t-88 106.5t-109 67.5t-136 21.5q-168 0 -270.5 -130t-102.5 -374q0 -172 45 -319t120 -244.5t172.5 -152t203.5 -54.5q108 0 157.5 58.5t49.5 195.5
v135q0 73 -18 96t-72 31l-74 9v63q212 -14 469 0v-63q-26 -3 -41 -7t-27.5 -17t-18 -26t-9 -46.5t-4 -66t-0.5 -96.5v-339z" />
    <glyph glyph-name="gbreve" unicode="&#x11f;" horiz-adv-x="1099" 
d="M815 1516q0 -172 -74 -269.5t-211 -97.5q-138 0 -212 97.5t-74 269.5h47q11 -86 71 -138.5t168 -52.5q102 0 163.5 53t74.5 138h47zM1047 -84q0 -96 -70 -181t-195 -137.5t-272 -52.5q-208 0 -325 70.5t-117 175.5q0 79 61.5 132t167.5 79q-160 55 -160 182
q0 132 174 213q-84 43 -132 115t-48 160q0 141 114 239.5t281 98.5q97 0 179 -31q48 124 95.5 186t114.5 62q57 0 92 -41.5t37 -104.5l-12 -37q-82 12 -161.5 -6.5t-131.5 -72.5q89 -40 141 -114.5t52 -166.5q0 -142 -112 -241t-279 -99q-89 0 -174 29q-86 -44 -86 -103
q0 -50 39 -76t124 -30l283 -12q154 -7 237 -69t83 -167zM557 418q76 0 122 60.5t46 162.5q0 126 -63 211.5t-154 85.5q-77 0 -122.5 -60.5t-45.5 -164.5q0 -130 62 -212.5t155 -82.5zM248 -174q0 -87 80.5 -144t210.5 -57q144 0 236.5 61t92.5 162q0 58 -40.5 84t-125.5 29
l-249 12q-34 2 -107 15q-98 -52 -98 -162z" />
    <glyph glyph-name="Gdotaccent" unicode="&#x120;" horiz-adv-x="1501" 
d="M913 1741q0 -62 -41 -103t-102 -41q-63 0 -104 41t-41 103t41 102.5t104 40.5q62 0 102.5 -41t40.5 -102zM1311 -20l-49 -9q-40 77 -56 101q-76 -51 -158 -76t-204 -25q-151 0 -283.5 51.5t-230.5 145t-154.5 233.5t-56.5 308q0 136 36.5 252.5t101 200t151 143t187 88
t208.5 28.5q241 0 401 -112q-2 -140 23 -379l-53 -12l-29 63q-42 90 -81 150.5t-88 106.5t-109 67.5t-136 21.5q-168 0 -270.5 -130t-102.5 -374q0 -172 45 -319t120 -244.5t172.5 -152t203.5 -54.5q108 0 157.5 58.5t49.5 195.5v135q0 73 -18 96t-72 31l-74 9v63
q212 -14 469 0v-63q-26 -3 -41 -7t-27.5 -17t-18 -26t-9 -46.5t-4 -66t-0.5 -96.5v-339z" />
    <glyph glyph-name="gdotaccent" unicode="&#x121;" horiz-adv-x="1099" 
d="M670 1333q0 -61 -41 -102t-103 -41q-63 0 -104 40.5t-41 102.5t41 103t104 41q62 0 103 -41.5t41 -102.5zM1047 -84q0 -96 -70 -181t-195 -137.5t-272 -52.5q-208 0 -325 70.5t-117 175.5q0 79 61.5 132t167.5 79q-160 55 -160 182q0 132 174 213q-84 43 -132 115
t-48 160q0 141 114 239.5t281 98.5q97 0 179 -31q48 124 95.5 186t114.5 62q57 0 92 -41.5t37 -104.5l-12 -37q-82 12 -161.5 -6.5t-131.5 -72.5q89 -40 141 -114.5t52 -166.5q0 -142 -112 -241t-279 -99q-89 0 -174 29q-86 -44 -86 -103q0 -50 39 -76t124 -30l283 -12
q154 -7 237 -69t83 -167zM557 418q76 0 122 60.5t46 162.5q0 126 -63 211.5t-154 85.5q-77 0 -122.5 -60.5t-45.5 -164.5q0 -130 62 -212.5t155 -82.5zM248 -174q0 -87 80.5 -144t210.5 -57q144 0 236.5 61t92.5 162q0 58 -40.5 84t-125.5 29l-249 12q-34 2 -107 15
q-98 -52 -98 -162z" />
    <glyph glyph-name="Gcommaaccent" unicode="&#x122;" horiz-adv-x="1501" 
d="M1311 -20l-49 -9q-40 77 -56 101q-76 -51 -158 -76t-204 -25q-151 0 -283.5 51.5t-230.5 145t-154.5 233.5t-56.5 308q0 136 36.5 252.5t101 200t151 143t187 88t208.5 28.5q241 0 401 -112q-2 -140 23 -379l-53 -12l-29 63q-42 90 -81 150.5t-88 106.5t-109 67.5
t-136 21.5q-168 0 -270.5 -130t-102.5 -374q0 -172 45 -319t120 -244.5t172.5 -152t203.5 -54.5q108 0 157.5 58.5t49.5 195.5v135q0 73 -18 96t-72 31l-74 9v63q212 -14 469 0v-63q-26 -3 -41 -7t-27.5 -17t-18 -26t-9 -46.5t-4 -66t-0.5 -96.5v-339zM631 -616l-27 41
l51 45q72 63 68.5 136t-84.5 169l6 28q52 52 119 52q66 0 104.5 -45t38.5 -103q0 -90 -63 -160.5t-213 -162.5z" />
    <glyph glyph-name="gcommaaccent" unicode="&#x123;" horiz-adv-x="1099" 
d="M664 1616l24 -41l-51 -45q-72 -62 -68.5 -131.5t86.5 -165.5l-8 -31q-49 -49 -117 -49q-66 0 -104.5 45t-38.5 102q0 90 61.5 156.5t215.5 159.5zM1047 -84q0 -96 -70 -181t-195 -137.5t-272 -52.5q-208 0 -325 70.5t-117 175.5q0 79 61.5 132t167.5 79q-160 55 -160 182
q0 132 174 213q-84 43 -132 115t-48 160q0 141 114 239.5t281 98.5q97 0 179 -31q48 124 95.5 186t114.5 62q57 0 92 -41.5t37 -104.5l-12 -37q-82 12 -161.5 -6.5t-131.5 -72.5q89 -40 141 -114.5t52 -166.5q0 -142 -112 -241t-279 -99q-89 0 -174 29q-86 -44 -86 -103
q0 -50 39 -76t124 -30l283 -12q154 -7 237 -69t83 -167zM557 418q76 0 122 60.5t46 162.5q0 126 -63 211.5t-154 85.5q-77 0 -122.5 -60.5t-45.5 -164.5q0 -130 62 -212.5t155 -82.5zM248 -174q0 -87 80.5 -144t210.5 -57q144 0 236.5 61t92.5 162q0 58 -40.5 84t-125.5 29
l-249 12q-34 2 -107 15q-98 -52 -98 -162z" />
    <glyph glyph-name="Hcircumflex" unicode="&#x124;" horiz-adv-x="1624" 
d="M811 1763l-274 -223l-27 29l223 362h154l223 -362l-27 -29zM1522 59v-63q-265 16 -537 0v63l76 13q20 3 32.5 7.5t22.5 18.5t14.5 30t8 51.5t4 74t0.5 106.5v326h-662v-326q0 -70 0.5 -107t3.5 -73.5t7.5 -52t14.5 -29.5t22.5 -18.5t33.5 -7.5l74 -13v-63q-267 16 -537 0
v63l74 13q20 3 32.5 7.5t22.5 18.5t14.5 30t8 51.5t4 74t0.5 106.5v670q0 68 -0.5 106.5t-4 74.5t-8 52t-14.5 30t-22.5 18.5t-32.5 7.5l-74 12v66q268 -16 537 0v-66l-74 -12q-21 -3 -33.5 -7.5t-22.5 -19t-14.5 -29.5t-7.5 -52t-3.5 -74t-0.5 -107v-256h662v256
q0 68 -0.5 106.5t-4 74.5t-8 52t-14.5 30t-22.5 18.5t-32.5 7.5l-76 12v66q272 -16 537 0v-66l-74 -12q-20 -3 -32.5 -7.5t-22.5 -18.5t-14.5 -30t-8 -52t-4 -74.5t-0.5 -106.5v-670q0 -68 0.5 -106.5t4 -74t8 -51.5t14.5 -30t22.5 -18.5t32.5 -7.5z" />
    <glyph glyph-name="hcircumflex" unicode="&#x125;" horiz-adv-x="1323" 
d="M680 1845l-274 -223l-27 29l223 362h154l223 -362l-27 -29zM1272 59v-63q-254 18 -514 0v65l55 11q26 5 38.5 8t26 15t17.5 25t8.5 47t5 70.5t0.5 104.5v293q0 111 -56.5 165t-147.5 54q-72 0 -146 -27.5t-127 -72.5v-412q0 -71 0.5 -106t4.5 -70t8 -47t17.5 -24.5
t26 -15t39.5 -7.5l56 -13v-63q-255 18 -516 0v63l59 13q27 5 39.5 8t26 15t18 25t9 47t5 70t0.5 105v684q0 254 -15.5 311.5t-94.5 67.5l-47 6v66q124 0 202 8t152 31l18 -19q-8 -151 -8 -418v-264q160 195 387 195q59 0 110 -18.5t94 -56.5t68 -105.5t25 -157.5v-330
q0 -69 0.5 -105.5t5 -70.5t8.5 -46.5t18 -24.5t26.5 -15t39.5 -8z" />
    <glyph glyph-name="Hbar" unicode="&#x126;" horiz-adv-x="1624" 
d="M1522 59v-63q-265 16 -537 0v63l76 13q20 3 32.5 7.5t22.5 18.5t14.5 30t8 51.5t4 74t0.5 106.5v326h-662v-326q0 -70 0.5 -107t3.5 -73.5t7.5 -52t14.5 -29.5t22.5 -18.5t33.5 -7.5l74 -13v-63q-267 16 -537 0v63l74 13q20 3 32.5 7.5t22.5 18.5t14.5 30t8 51.5t4 74
t0.5 106.5v648h-147v84h147q-1 100 -7.5 143t-22 61t-52.5 23l-74 12v66q268 -16 537 0v-66l-74 -12q-54 -7 -67 -45t-15 -182h662q-1 100 -7.5 143t-22 61t-52.5 23l-76 12v66q272 -16 537 0v-66l-74 -12q-37 -5 -52.5 -23t-22 -61t-7.5 -143h147v-84h-147v-648
q0 -68 0.5 -106.5t4 -74t8 -51.5t14.5 -30t22.5 -18.5t32.5 -7.5zM481 774h662v234h-662v-234z" />
    <glyph glyph-name="hbar" unicode="&#x127;" horiz-adv-x="1323" 
d="M1272 59v-63q-254 18 -514 0v65l55 11q26 5 38.5 8t26 15t17.5 25t8.5 47t5 70.5t0.5 104.5v293q0 111 -56.5 165t-147.5 54q-72 0 -146 -27.5t-127 -72.5v-412q0 -71 0.5 -106t4.5 -70t8 -47t17.5 -24.5t26 -15t39.5 -7.5l56 -13v-63q-255 18 -516 0v63l59 13
q27 5 39.5 8t26 15t18 25t9 47t5 70t0.5 105v840h-162v84h158q-6 80 -27.5 105.5t-78.5 33.5l-47 6v66q124 0 202 8t152 31l18 -19q-6 -92 -6 -231h416v-84h-418v-367q160 195 387 195q59 0 110 -18.5t94 -56.5t68 -105.5t25 -157.5v-330q0 -69 0.5 -105.5t5 -70.5
t8.5 -46.5t18 -24.5t26.5 -15t39.5 -8z" />
    <glyph glyph-name="Itilde" unicode="&#x128;" horiz-adv-x="737" 
d="M49 1602q31 139 84 207.5t121 68.5q54 0 137 -47t131 -47q79 0 129 123l43 -17q-58 -282 -202 -282q-52 0 -138 47t-135 47q-84 0 -131 -115zM256 360v670q0 68 -0.5 106.5t-4 74.5t-8 52t-14.5 30t-22.5 18.5t-32.5 7.5l-74 12v66q267 -16 537 0v-66l-74 -12
q-21 -3 -33.5 -7.5t-22.5 -19t-14.5 -29.5t-7.5 -52t-3.5 -74t-0.5 -107v-670q0 -70 0.5 -107t3.5 -73.5t7.5 -52t14.5 -29.5t22.5 -18.5t33.5 -7.5l74 -13v-63q-270 16 -537 0v63l74 13q20 3 32.5 7.5t22.5 18.5t14.5 30t8 51.5t4 74t0.5 106.5z" />
    <glyph glyph-name="itilde" unicode="&#x129;" horiz-adv-x="655" 
d="M4 1194q31 139 84 207.5t121 68.5q54 0 137 -47t131 -47q79 0 129 123l43 -16q-58 -283 -203 -283q-43 0 -90.5 23.5t-94 47t-87.5 23.5q-85 0 -131 -114zM238 342v211q0 241 -15 293.5t-94 62.5l-47 6v64q214 0 354 37l17 -17q-9 -159 -9 -393v-264q0 -69 0.5 -106
t5.5 -70.5t9 -46t19 -24.5t27.5 -14.5t41.5 -8.5l55 -13v-63q-257 18 -520 0v63l59 13q27 5 39 7.5t26 14.5t18 25t8.5 46t5 70.5t0.5 106.5z" />
    <glyph glyph-name="Imacron" unicode="&#x12a;" horiz-adv-x="737" 
d="M84 1636v152h571v-152h-571zM256 360v670q0 68 -0.5 106.5t-4 74.5t-8 52t-14.5 30t-22.5 18.5t-32.5 7.5l-74 12v66q267 -16 537 0v-66l-74 -12q-21 -3 -33.5 -7.5t-22.5 -19t-14.5 -29.5t-7.5 -52t-3.5 -74t-0.5 -107v-670q0 -70 0.5 -107t3.5 -73.5t7.5 -52
t14.5 -29.5t22.5 -18.5t33.5 -7.5l74 -13v-63q-270 16 -537 0v63l74 13q20 3 32.5 7.5t22.5 18.5t14.5 30t8 51.5t4 74t0.5 106.5z" />
    <glyph glyph-name="imacron" unicode="&#x12b;" horiz-adv-x="655" 
d="M41 1229v151h571v-151h-571zM238 342v211q0 241 -15 293.5t-94 62.5l-47 6v64q214 0 354 37l17 -17q-9 -159 -9 -393v-264q0 -69 0.5 -106t5.5 -70.5t9 -46t19 -24.5t27.5 -14.5t41.5 -8.5l55 -13v-63q-257 18 -520 0v63l59 13q27 5 39 7.5t26 14.5t18 25t8.5 46t5 70.5
t0.5 106.5z" />
    <glyph glyph-name="Ibreve" unicode="&#x12c;" horiz-adv-x="737" 
d="M655 1923q0 -172 -74 -269.5t-210 -97.5q-138 0 -212.5 97.5t-74.5 269.5h47q11 -86 71.5 -138t168.5 -52q102 0 163 52.5t74 137.5h47zM256 360v670q0 68 -0.5 106.5t-4 74.5t-8 52t-14.5 30t-22.5 18.5t-32.5 7.5l-74 12v66q267 -16 537 0v-66l-74 -12
q-21 -3 -33.5 -7.5t-22.5 -19t-14.5 -29.5t-7.5 -52t-3.5 -74t-0.5 -107v-670q0 -70 0.5 -107t3.5 -73.5t7.5 -52t14.5 -29.5t22.5 -18.5t33.5 -7.5l74 -13v-63q-270 16 -537 0v63l74 13q20 3 32.5 7.5t22.5 18.5t14.5 30t8 51.5t4 74t0.5 106.5z" />
    <glyph glyph-name="ibreve" unicode="&#x12d;" horiz-adv-x="655" 
d="M612 1516q0 -172 -74 -269.5t-210 -97.5q-138 0 -212.5 97.5t-74.5 269.5h47q11 -86 71.5 -138.5t168.5 -52.5q102 0 163 52.5t74 138.5h47zM238 342v211q0 241 -15 293.5t-94 62.5l-47 6v64q214 0 354 37l17 -17q-9 -159 -9 -393v-264q0 -69 0.5 -106t5.5 -70.5t9 -46
t19 -24.5t27.5 -14.5t41.5 -8.5l55 -13v-63q-257 18 -520 0v63l59 13q27 5 39 7.5t26 14.5t18 25t8.5 46t5 70.5t0.5 106.5z" />
    <glyph glyph-name="Iogonek" unicode="&#x12e;" horiz-adv-x="737" 
d="M604 -389q-104 -158 -244 -158q-88 0 -144 49.5t-56 137.5q0 99 89 197t243 165q-209 6 -392 -6v63l74 13q20 3 32.5 7.5t22.5 18.5t14.5 30t8 51.5t4 74t0.5 106.5v670q0 68 -0.5 106.5t-4 74.5t-8 52t-14.5 30t-22.5 18.5t-32.5 7.5l-74 12v66q267 -16 537 0v-66
l-74 -12q-21 -3 -33.5 -7.5t-22.5 -19t-14.5 -29.5t-7.5 -52t-3.5 -74t-0.5 -107v-670q0 -70 0.5 -107t3.5 -73.5t7.5 -52t14.5 -29.5t22.5 -18.5t33.5 -7.5l74 -13v-63q-118 4 -203.5 -87.5t-85.5 -199.5q0 -63 28.5 -96t82.5 -33q34 0 58 14t52 44z" />
    <glyph glyph-name="iogonek" unicode="&#x12f;" horiz-adv-x="655" 
d="M471 1333q0 -60 -40.5 -101.5t-100.5 -41.5q-61 0 -102.5 41.5t-41.5 101.5t41.5 101t102.5 41q60 0 100.5 -41t40.5 -101zM575 -389q-104 -158 -243 -158q-88 0 -145.5 49.5t-57.5 137.5q0 102 90.5 201.5t241.5 162.5q-202 3 -377 -8v63l57 13q28 5 40 7.5t26 14.5
t18.5 25t9 46t5 70.5t0.5 106.5v211q0 239 -15.5 292.5t-95.5 63.5l-45 6v64q211 0 354 37l17 -17q-9 -159 -9 -393v-264q0 -68 0.5 -105t5.5 -70.5t9 -46.5t18.5 -24.5t27 -15t40.5 -8.5l55 -13v-63q-81 2 -148 -44t-101 -111.5t-34 -131.5q0 -129 111 -129q56 0 111 58z
" />
    <glyph glyph-name="Idotaccent" unicode="&#x130;" horiz-adv-x="737" 
d="M520 1741q0 -62 -41 -103t-102 -41q-63 0 -104.5 41t-41.5 103t41.5 102.5t104.5 40.5q61 0 102 -41t41 -102zM256 360v670q0 68 -0.5 106.5t-4 74.5t-8 52t-14.5 30t-22.5 18.5t-32.5 7.5l-74 12v66q267 -16 537 0v-66l-74 -12q-21 -3 -33.5 -7.5t-22.5 -19t-14.5 -29.5
t-7.5 -52t-3.5 -74t-0.5 -107v-670q0 -70 0.5 -107t3.5 -73.5t7.5 -52t14.5 -29.5t22.5 -18.5t33.5 -7.5l74 -13v-63q-270 16 -537 0v63l74 13q20 3 32.5 7.5t22.5 18.5t14.5 30t8 51.5t4 74t0.5 106.5z" />
    <glyph glyph-name="dotlessi" unicode="&#x131;" horiz-adv-x="651" 
d="M233 342v211v8q0 235 -14.5 286.5t-93.5 61.5l-47 6v64q214 0 354 37l17 -17q-9 -159 -9 -393v-264q0 -69 0.5 -106t5.5 -70.5t9 -46t19 -24.5t27.5 -14.5t41.5 -8.5l55 -13v-63q-257 18 -520 0v63l59 13q27 5 39 7.5t25.5 14.5t17.5 24.5t8.5 46.5t5 71t0.5 106z" />
    <glyph glyph-name="IJ" unicode="&#x132;" horiz-adv-x="1437" 
d="M256 360v670q0 68 -0.5 106.5t-4 74.5t-8 52t-14.5 30t-22.5 18.5t-32.5 7.5l-74 12v66q267 -16 537 0v-66l-74 -12q-21 -3 -33.5 -7.5t-22.5 -19t-14.5 -29.5t-7.5 -52t-3.5 -74t-0.5 -107v-670q0 -70 0.5 -107t3.5 -73.5t7.5 -52t14.5 -29.5t22.5 -18.5t33.5 -7.5
l74 -13v-63q-270 16 -537 0v63l74 13q20 3 32.5 7.5t22.5 18.5t14.5 30t8 51.5t4 74t0.5 106.5zM969 1030q0 67 -1 106.5t-4 74.5t-8 52t-15 30t-22 18t-32 8l-74 12v66q267 -19 537 0v-66l-76 -12q-20 -3 -32 -8t-22 -18t-15 -30t-8 -52t-4 -74.5t-1 -106.5v-739
q0 -227 -71 -348.5t-236 -153.5l-62 -12l-12 55l45 21q38 17 59 39.5t34 75t16.5 125t3.5 204.5v733z" />
    <glyph glyph-name="ij" unicode="&#x133;" horiz-adv-x="1214" 
d="M467 1333q0 -60 -41 -101.5t-102 -41.5q-60 0 -101 41.5t-41 101.5t41 101t101 41q61 0 102 -41t41 -101zM1069 1333q0 -60 -40.5 -101.5t-100.5 -41.5q-61 0 -102.5 41.5t-41.5 101.5t41.5 101t102.5 41q60 0 100.5 -41t40.5 -101zM233 342v211v8q0 235 -14.5 286.5
t-93.5 61.5l-47 6v64q214 0 354 37l17 -17q-9 -159 -9 -393v-264q0 -69 0.5 -105.5t5.5 -70t9 -46.5t19 -24.5t27.5 -15t41.5 -8.5l55 -13v-63q-257 18 -520 0v63l59 13q27 5 39 7.5t25.5 14.5t17.5 24.5t8.5 46.5t5 71t0.5 106zM834 45v500q0 241 -15 296.5t-94 67.5l-47 6
v64q129 0 202 7t152 30l17 -19q-9 -159 -9 -399v-582q0 -113 -13 -184.5t-48 -122t-86 -79.5t-139 -58l-58 -18l-20 47l39 20q51 28 74.5 66t34 118.5t10.5 239.5z" />
    <glyph glyph-name="Jcircumflex" unicode="&#x134;" horiz-adv-x="724" 
d="M362 1763l-274 -223l-27 29l224 362h153l224 -362l-27 -29zM258 1030q0 67 -1 106.5t-4 74.5t-8 52t-15 30t-22 18t-32 8l-74 12v66q267 -19 537 0v-66l-76 -12q-20 -3 -32 -8t-22 -18t-15 -30t-8 -52t-4 -74.5t-1 -106.5v-739q0 -227 -71 -348.5t-236 -153.5l-61 -12
l-13 55l45 21q38 17 59 39.5t34 75t16.5 125t3.5 204.5v733z" />
    <glyph glyph-name="jcircumflex" unicode="&#x135;" horiz-adv-x="589" 
d="M299 1356l-274 -223l-27 28l223 363h154l223 -363l-27 -28zM211 45v500q0 241 -15 296.5t-94 67.5l-47 6v64q129 0 202.5 7t152.5 30l16 -19q-8 -141 -8 -399v-582q0 -113 -13 -184.5t-48.5 -122t-86.5 -79.5t-139 -58l-57 -18l-21 47l39 20q51 28 74.5 66t34 118.5
t10.5 239.5z" />
    <glyph glyph-name="Kcommaaccent" unicode="&#x136;" horiz-adv-x="1476" 
d="M481 1030v-676q0 -69 0.5 -105t3.5 -72t7.5 -51t14.5 -28.5t22.5 -18t33.5 -7.5l74 -13v-63q-268 17 -537 0v63l74 13q21 3 33 7.5t22 18t14.5 29t8 50.5t4 72.5t0.5 104.5v676q0 68 -0.5 106.5t-4 74.5t-8 52t-14.5 30t-22.5 18.5t-32.5 7.5l-74 12v66q268 -17 537 0
v-66l-74 -12q-21 -3 -33.5 -7.5t-22.5 -19t-14.5 -29.5t-7.5 -52t-3.5 -74t-0.5 -107zM1450 59v-63q-172 13 -356 0l-580 717l369 393q40 42 63 77.5t29 60t-0.5 42.5t-22 28.5t-39.5 14.5l-43 8v60q245 -17 508 0v-60l-43 -8q-69 -13 -157 -75t-238 -210l-227 -231
l438 -530q106 -127 157 -169t99 -48zM647 -616l-26 41l51 45q72 63 68.5 136t-85.5 169l7 28q52 52 118 52t105 -45.5t39 -102.5q0 -90 -63.5 -160t-213.5 -163z" />
    <glyph glyph-name="kcommaaccent" unicode="&#x137;" horiz-adv-x="1239" 
d="M432 330q0 -65 0.5 -98t4.5 -66.5t8.5 -45.5t17 -24.5t26 -15.5t39.5 -8l60 -13v-63q-232 17 -520 0v63l59 13q26 5 39.5 8.5t26.5 15.5t18 24.5t9 45t4.5 66.5t0.5 98v704v8q0 242 -15.5 300t-94.5 65l-47 4v66q124 0 202 8t152 31l18 -19q-8 -151 -8 -418v-749z
M1221 59v-63q-166 9 -332 0l-432 547l198 178q57 51 81 80.5t24 52.5q0 26 -19.5 40.5t-66.5 25.5v61q262 -17 481 0v-61l-55 -15q-55 -17 -94.5 -32t-113.5 -59t-155 -109l-96 -76l326 -404q64 -83 120.5 -118t133.5 -48zM522 -616l-26 41l51 45q72 63 68.5 136t-85.5 169
l7 28q52 52 118 52t105 -45.5t39 -102.5q0 -90 -63.5 -160t-213.5 -163z" />
    <glyph glyph-name="kgreenlandic" unicode="&#x138;" horiz-adv-x="1249" 
d="M440 330q0 -63 0.5 -98t5 -66.5t9.5 -45t18 -25t26.5 -15t39.5 -8.5l59 -13v-63q-233 16 -520 0v63l59 13q26 5 39.5 8t26 15.5t17 24.5t8.5 45.5t4.5 66.5t0.5 98v209v8q0 242 -15 299.5t-93 64.5l-47 4v64q217 0 354 39l17 -19q-9 -169 -9 -417v-252zM1231 59v-63
q-166 9 -332 0l-434 547l201 178q56 51 80 80t24 53q0 26 -19.5 40.5t-66.5 25.5v61q263 -17 479 0v-61l-53 -15q-55 -16 -94.5 -31.5t-113 -59t-154.5 -109.5l-99 -76l328 -404q64 -83 120.5 -118t133.5 -48z" />
    <glyph glyph-name="Lacute" unicode="&#x139;" horiz-adv-x="1216" 
d="M719 1827q0 -67 -77 -126t-284 -157l-20 25l229 360l29 13q56 -12 89.5 -43t33.5 -72zM256 1030q0 68 -0.5 106.5t-4 74.5t-8 52t-14.5 30t-22.5 18.5t-32.5 7.5l-74 12v66q270 -16 537 0v-66l-74 -12q-21 -3 -33.5 -7.5t-22.5 -19t-14.5 -29.5t-7.5 -52t-3.5 -74
t-0.5 -107v-727q0 -139 36.5 -183t148.5 -44h61q87 0 162 76.5t180 259.5l33 55l45 -18q-73 -264 -92 -453q-585 18 -955 0v63l74 13q20 3 32.5 7.5t22.5 17.5t14.5 27.5t8 47.5t4 68.5t0.5 97.5v692z" />
    <glyph glyph-name="lacute" unicode="&#x13a;" horiz-adv-x="641" 
d="M637 1905q0 -67 -77 -126t-284 -157l-20 25l229 360l29 12q56 -12 89.5 -42.5t33.5 -71.5zM432 338v-80t2 -60t4 -45.5t8 -31t11 -22t17 -12.5t23 -9.5t31 -5.5l60 -13v-63q-233 16 -520 0v63l59 13q26 5 39.5 8t26.5 15t17.5 25t9 46.5t5 69t0.5 102.5v696v8
q0 240 -15.5 296.5t-94.5 66.5l-47 6v66q124 0 202 8t152 31l18 -19q-8 -151 -8 -418v-741z" />
    <glyph glyph-name="Lcommaaccent" unicode="&#x13b;" horiz-adv-x="1216" 
d="M256 1030q0 68 -0.5 106.5t-4 74.5t-8 52t-14.5 30t-22.5 18.5t-32.5 7.5l-74 12v66q270 -16 537 0v-66l-74 -12q-21 -3 -33.5 -7.5t-22.5 -19t-14.5 -29.5t-7.5 -52t-3.5 -74t-0.5 -107v-727q0 -139 36.5 -183t148.5 -44h61q87 0 162 76.5t180 259.5l33 55l45 -18
q-73 -264 -92 -453q-585 18 -955 0v63l74 13q20 3 32.5 7.5t22.5 17.5t14.5 27.5t8 47.5t4 68.5t0.5 97.5v692zM483 -616l-26 41l51 45q72 63 68.5 136t-84.5 169l6 28q52 52 118 52t105 -45.5t39 -102.5q0 -90 -63.5 -160t-213.5 -163z" />
    <glyph glyph-name="lcommaaccent" unicode="&#x13c;" horiz-adv-x="641" 
d="M432 338v-80t2 -60t4 -45.5t8 -31t11 -22t17 -12.5t23 -9.5t31 -5.5l60 -13v-63q-233 16 -520 0v63l59 13q26 5 39.5 8t26.5 15t17.5 25t9 46.5t5 69t0.5 102.5v696v8q0 240 -15.5 296.5t-94.5 66.5l-47 6v66q124 0 202 8t152 31l18 -19q-8 -151 -8 -418v-741zM180 -616
l-26 41l51 45q72 63 68.5 136t-85.5 169l7 28q52 52 118 52t105 -45.5t39 -102.5q0 -90 -63.5 -160t-213.5 -163z" />
    <glyph glyph-name="Lcaron" unicode="&#x13d;" horiz-adv-x="1216" 
d="M770 1389q46 24 84 24q43 0 70.5 -28t27.5 -80t-27.5 -105t-73 -126t-71.5 -142l-32 8l4 420zM256 1030q0 68 -0.5 106.5t-4 74.5t-8 52t-14.5 30t-22.5 18.5t-32.5 7.5l-74 12v66q270 -16 537 0v-66l-74 -12q-21 -3 -33.5 -7.5t-22.5 -19t-14.5 -29.5t-7.5 -52t-3.5 -74
t-0.5 -107v-727q0 -139 36.5 -183t148.5 -44h61q87 0 162 76.5t180 259.5l33 55l45 -18q-73 -264 -92 -453q-585 18 -955 0v63l74 13q20 3 32.5 7.5t22.5 17.5t14.5 27.5t8 47.5t4 68.5t0.5 97.5v692z" />
    <glyph glyph-name="lcaron" unicode="&#x13e;" horiz-adv-x="774" 
d="M432 338v-80t2 -60t4 -45.5t8 -31t11 -22t17 -12.5t23 -9.5t31 -5.5l60 -13v-63q-233 16 -520 0v63l59 13q26 5 39.5 8t26.5 15t17.5 25t9 46.5t5 69t0.5 102.5v696v8q0 240 -15.5 296.5t-94.5 66.5l-47 6v66q124 0 202 8t152 31l18 -19q-8 -151 -8 -418v-741zM578 1481
q46 24 84 24q43 0 70.5 -28t27.5 -80t-27.5 -105t-73 -126t-71.5 -142l-33 8l4 420z" />
    <glyph glyph-name="Ldot" unicode="&#x13f;" horiz-adv-x="1216" 
d="M256 1030q0 68 -0.5 106.5t-4 74.5t-8 52t-14.5 30t-22.5 18.5t-32.5 7.5l-74 12v66q270 -16 537 0v-66l-74 -12q-21 -3 -33.5 -7.5t-22.5 -19t-14.5 -29.5t-7.5 -52t-3.5 -74t-0.5 -107v-727q0 -139 36.5 -183t148.5 -44h61q87 0 162 76.5t180 259.5l33 55l45 -18
q-73 -264 -92 -453q-585 18 -955 0v63l74 13q20 3 32.5 7.5t22.5 17.5t14.5 27.5t8 47.5t4 68.5t0.5 97.5v692zM1108 788q0 -60 -41 -101.5t-102 -41.5q-63 0 -104.5 41.5t-41.5 101.5q0 62 41.5 103t104.5 41q61 0 102 -41t41 -103z" />
    <glyph glyph-name="ldot" unicode="&#x140;" horiz-adv-x="714" 
d="M432 338v-80t2 -60t4 -45.5t8 -31t11 -22t17 -12.5t23 -9.5t31 -5.5l60 -13v-63q-233 16 -520 0v63l59 13q26 5 39.5 8t26.5 15t17.5 25t9 46.5t5 69t0.5 102.5v696v8q0 240 -15.5 296.5t-94.5 66.5l-47 6v66q124 0 202 8t152 31l18 -19q-8 -151 -8 -418v-741zM815 764
q0 -60 -41 -101.5t-102 -41.5q-63 0 -104.5 41.5t-41.5 101.5q0 62 41.5 102.5t104.5 40.5q62 0 102.5 -40.5t40.5 -102.5z" />
    <glyph glyph-name="Lslash" unicode="&#x141;" horiz-adv-x="1216" 
d="M1147 449q-73 -264 -92 -453q-585 18 -955 0v63l74 13q20 3 32.5 7.5t22.5 17.5t14.5 27.5t8 47.5t4 68.5t0.5 97.5v289l-178 -49v86l178 49v317q0 68 -0.5 106.5t-4 74.5t-8 52t-14.5 30t-22.5 18.5t-32.5 7.5l-74 12v66q270 -16 537 0v-66l-74 -12q-21 -3 -33.5 -7.5
t-22.5 -19t-14.5 -29.5t-7.5 -52t-3.5 -74t-0.5 -107v-254l258 72v-86l-258 -72v-387q0 -139 36.5 -183t148.5 -44h61q87 0 162 76.5t180 259.5l33 55z" />
    <glyph glyph-name="lslash" unicode="&#x142;" horiz-adv-x="641" 
d="M588 59v-63q-233 16 -520 0v63l59 13q26 5 39.5 8t26.5 15t17.5 25t9 46.5t5 69t0.5 102.5v352l-162 -43v86l162 43v258v8q0 240 -15.5 296.5t-94.5 66.5l-47 6v66q124 0 202 8t152 31l18 -19q-8 -151 -8 -418v-250l152 41v-84l-152 -41v-407v-80t2 -60t4 -45.5t8 -31
t11 -22t17 -12.5t23 -9.5t31 -5.5z" />
    <glyph glyph-name="Nacute" unicode="&#x143;" horiz-adv-x="1517" 
d="M1090 1827q0 -67 -77 -126t-284 -157l-20 25l229 360l29 13q56 -12 89.5 -43t33.5 -72zM526 59v-63q-221 10 -436 0v63l66 17q35 9 55 32t31.5 80.5t11.5 157.5v766q0 90 -24 139t-76 64l-62 16v66q67 -7 165 -7t165 7l772 -1090l-16 742q-3 141 -25 196t-90 72l-51 14
v66q213 -14 422 0v-66l-56 -16q-38 -11 -59.5 -35t-33 -79t-11.5 -150v-1051q-74 3 -152 0l-786 1110l10 -766q1 -101 12 -153.5t36.5 -78t76.5 -38.5z" />
    <glyph glyph-name="nacute" unicode="&#x144;" horiz-adv-x="1333" 
d="M985 1419q0 -67 -76.5 -125.5t-283.5 -156.5l-21 24l230 361l28 12q56 -12 89.5 -43t33.5 -72zM1282 59v-63q-255 18 -514 0v65l55 11q26 5 38.5 8t26 15t18 25.5t9 46.5t5 70t0.5 105v293q0 111 -57 165t-148 54q-72 0 -146 -27.5t-127 -72.5q-2 -57 -2 -150v-262
q0 -68 0.5 -105t5 -70.5t9 -46.5t18.5 -25t26.5 -15t39.5 -8l55 -13v-63q-255 18 -516 0v63l59 13q26 5 38.5 8t26 15t17.5 25t8.5 47t5 70.5t0.5 104.5v209q0 240 -15 294t-93 64l-47 6v64q214 0 354 37l17 -17q-6 -139 -7 -184q160 195 385 195q60 0 111.5 -18t94.5 -56.5
t68 -106t25 -157.5v-330q0 -68 0.5 -105t5 -70.5t9 -46.5t18.5 -25t26.5 -15t39.5 -8z" />
    <glyph glyph-name="Ncommaaccent" unicode="&#x145;" horiz-adv-x="1517" 
d="M526 59v-63q-221 10 -436 0v63l66 17q35 9 55 32t31.5 80.5t11.5 157.5v766q0 90 -24 139t-76 64l-62 16v66q67 -7 165 -7t165 7l772 -1090l-16 742q-3 141 -25 196t-90 72l-51 14v66q213 -14 422 0v-66l-56 -16q-38 -11 -59.5 -35t-33 -79t-11.5 -150v-1051
q-74 3 -152 0l-786 1110l10 -766q1 -101 12 -153.5t36.5 -78t76.5 -38.5zM623 -616l-27 41l51 45q72 63 68.5 136t-84.5 169l6 28q52 52 119 52q66 0 104.5 -45t38.5 -103q0 -90 -63 -160.5t-213 -162.5z" />
    <glyph glyph-name="ncommaaccent" unicode="&#x146;" horiz-adv-x="1333" 
d="M1282 59v-63q-255 18 -514 0v65l55 11q26 5 38.5 8t26 15t18 25.5t9 46.5t5 70t0.5 105v293q0 111 -57 165t-148 54q-72 0 -146 -27.5t-127 -72.5q-2 -57 -2 -150v-262q0 -68 0.5 -105t5 -70.5t9 -46.5t18.5 -25t26.5 -15t39.5 -8l55 -13v-63q-255 18 -516 0v63l59 13
q26 5 38.5 8t26 15t17.5 25t8.5 47t5 70.5t0.5 104.5v209q0 240 -15 294t-93 64l-47 6v64q214 0 354 37l17 -17q-6 -139 -7 -184q160 195 385 195q60 0 111.5 -18t94.5 -56.5t68 -106t25 -157.5v-330q0 -68 0.5 -105t5 -70.5t9 -46.5t18.5 -25t26.5 -15t39.5 -8zM535 -616
l-27 41l51 45q72 63 68.5 136t-84.5 169l6 28q52 52 119 52q66 0 104.5 -45t38.5 -103q0 -90 -63 -160.5t-213 -162.5z" />
    <glyph glyph-name="Ncaron" unicode="&#x147;" horiz-adv-x="1517" 
d="M772 1722l277 226l28 -29l-227 -360h-158l-227 360l29 29zM526 59v-63q-221 10 -436 0v63l66 17q35 9 55 32t31.5 80.5t11.5 157.5v766q0 90 -24 139t-76 64l-62 16v66q67 -7 165 -7t165 7l772 -1090l-16 742q-3 141 -25 196t-90 72l-51 14v66q213 -14 422 0v-66l-56 -16
q-38 -11 -59.5 -35t-33 -79t-11.5 -150v-1051q-74 3 -152 0l-786 1110l10 -766q1 -101 12 -153.5t36.5 -78t76.5 -38.5z" />
    <glyph glyph-name="ncaron" unicode="&#x148;" horiz-adv-x="1333" 
d="M690 1315l277 225l28 -29l-227 -360h-158l-227 360l29 29zM1282 59v-63q-255 18 -514 0v65l55 11q26 5 38.5 8t26 15t18 25.5t9 46.5t5 70t0.5 105v293q0 111 -57 165t-148 54q-72 0 -146 -27.5t-127 -72.5q-2 -57 -2 -150v-262q0 -68 0.5 -105t5 -70.5t9 -46.5t18.5 -25
t26.5 -15t39.5 -8l55 -13v-63q-255 18 -516 0v63l59 13q26 5 38.5 8t26 15t17.5 25t8.5 47t5 70.5t0.5 104.5v209q0 240 -15 294t-93 64l-47 6v64q214 0 354 37l17 -17q-6 -139 -7 -184q160 195 385 195q60 0 111.5 -18t94.5 -56.5t68 -106t25 -157.5v-330q0 -68 0.5 -105
t5 -70.5t9 -46.5t18.5 -25t26.5 -15t39.5 -8z" />
    <glyph glyph-name="napostrophe" unicode="&#x149;" horiz-adv-x="1333" 
d="M127 1126l-27 41l52 45q72 63 68.5 136.5t-85.5 169.5l6 28q51 51 119 51q66 0 104.5 -45t38.5 -102q0 -90 -63 -161t-213 -163zM1282 59v-63q-255 18 -514 0v65l55 11q26 5 38.5 8t26 15t18 25.5t9 46.5t5 70t0.5 105v293q0 111 -57 165t-148 54q-72 0 -146 -27.5
t-127 -72.5q-2 -57 -2 -150v-262q0 -68 0.5 -105t5 -70.5t9 -46.5t18.5 -25t26.5 -15t39.5 -8l55 -13v-63q-255 18 -516 0v63l59 13q26 5 38.5 8t26 15t17.5 25t8.5 47t5 70.5t0.5 104.5v209q0 240 -15 294t-93 64l-47 6v64q214 0 354 37l17 -17q-6 -139 -7 -184
q160 195 385 195q60 0 111.5 -18t94.5 -56.5t68 -106t25 -157.5v-330q0 -68 0.5 -105t5 -70.5t9 -46.5t18.5 -25t26.5 -15t39.5 -8z" />
    <glyph glyph-name="Eng" unicode="&#x14a;" horiz-adv-x="1517" 
d="M1378 1315q-38 -11 -59.5 -35t-33 -79t-11.5 -150v-1039q0 -161 -71.5 -272t-215.5 -139l-63 -13l-11 58l50 20q59 25 77.5 96.5t18.5 237.5v90l-723 1020l10 -766q1 -101 12 -153.5t36.5 -78t76.5 -38.5l55 -15v-63q-221 10 -436 0v63l66 17q35 9 55 32t31.5 80.5
t11.5 157.5v766q0 90 -24 139t-76 64l-62 16v66q67 -7 165 -7t165 7l772 -1090l-16 742q-3 141 -25 196t-90 72l-51 14v66q213 -14 422 0v-66z" />
    <glyph glyph-name="eng" unicode="&#x14b;" horiz-adv-x="1296" 
d="M840 -426l-58 -20l-20 51l37 20q52 29 75.5 65t34.5 116.5t11 240.5v588q0 111 -57 165t-148 54q-73 0 -147 -27.5t-126 -72.5q-2 -57 -2 -150v-262q0 -68 0.5 -105t5 -70t9 -46.5t18 -25.5t26 -15t38.5 -8l55 -13v-63q-254 18 -514 0v63l59 13q26 5 38.5 8t26 15
t17.5 25t8.5 47t5 70.5t0.5 104.5v209q0 238 -15.5 293t-92.5 65l-47 6v64q211 0 354 37l17 -17q-6 -139 -7 -184q160 195 385 195q59 0 110.5 -18.5t95 -56.5t68.5 -105.5t25 -157.5v-656q0 -113 -12.5 -184t-48 -121t-86.5 -79t-139 -58z" />
    <glyph glyph-name="Omacron" unicode="&#x14c;" horiz-adv-x="1615" 
d="M520 1636v152h572v-152h-572zM809 1421q137 0 262 -53t219 -146.5t149.5 -231.5t55.5 -298q0 -158 -53 -293.5t-144.5 -229t-219 -146t-273.5 -52.5q-109 0 -212 33t-188.5 97t-149.5 151.5t-100 203t-36 244.5q0 158 53 293.5t144.5 229t219 146t273.5 52.5zM1255 594
q0 324 -148 529.5t-364 205.5q-174 0 -279.5 -142t-105.5 -388q0 -162 40.5 -301t109.5 -234t163 -149t199 -54q174 0 279.5 143t105.5 390z" />
    <glyph glyph-name="omacron" unicode="&#x14d;" horiz-adv-x="1214" 
d="M319 1229v151h572v-151h-572zM596 -29q-97 0 -185 33.5t-158 96t-111.5 163t-41.5 225.5q0 152 70.5 272.5t187.5 184.5t258 64q97 0 185.5 -34t158.5 -97.5t112 -165t42 -226.5q0 -152 -70.5 -271t-188 -182t-259.5 -63zM657 55q109 0 171.5 95.5t62.5 259.5
q0 144 -43.5 262t-120 185t-170.5 67q-109 0 -171 -96.5t-62 -262.5q0 -221 95 -365.5t238 -144.5z" />
    <glyph glyph-name="Obreve" unicode="&#x14e;" horiz-adv-x="1615" 
d="M1092 1923q0 -172 -74 -269.5t-211 -97.5q-138 0 -212.5 97.5t-74.5 269.5h47q11 -86 71.5 -138t168.5 -52q102 0 163 52.5t74 137.5h48zM809 1421q137 0 262 -53t219 -146.5t149.5 -231.5t55.5 -298q0 -158 -53 -293.5t-144.5 -229t-219 -146t-273.5 -52.5
q-109 0 -212 33t-188.5 97t-149.5 151.5t-100 203t-36 244.5q0 158 53 293.5t144.5 229t219 146t273.5 52.5zM1255 594q0 324 -148 529.5t-364 205.5q-174 0 -279.5 -142t-105.5 -388q0 -162 40.5 -301t109.5 -234t163 -149t199 -54q174 0 279.5 143t105.5 390z" />
    <glyph glyph-name="obreve" unicode="&#x14f;" horiz-adv-x="1214" 
d="M891 1516q0 -172 -74 -269.5t-211 -97.5q-138 0 -212.5 97.5t-74.5 269.5h48q11 -86 71 -138.5t168 -52.5q102 0 163.5 53t74.5 138h47zM596 -29q-97 0 -185 33.5t-158 96t-111.5 163t-41.5 225.5q0 152 70.5 272.5t187.5 184.5t258 64q97 0 185.5 -34t158.5 -97.5
t112 -165t42 -226.5q0 -152 -70.5 -271t-188 -182t-259.5 -63zM657 55q109 0 171.5 95.5t62.5 259.5q0 144 -43.5 262t-120 185t-170.5 67q-109 0 -171 -96.5t-62 -262.5q0 -221 95 -365.5t238 -144.5z" />
    <glyph glyph-name="Ohungarumlaut" unicode="&#x150;" horiz-adv-x="1615" 
d="M907 1827q0 -54 -67.5 -119.5t-233.5 -165.5l-22 27l184 352l29 12q110 -22 110 -106zM1262 1827q0 -55 -68 -119t-246 -166l-22 27l196 352l31 12q109 -22 109 -106zM809 1421q137 0 262 -53t219 -146.5t149.5 -231.5t55.5 -298q0 -158 -53 -293.5t-144.5 -229
t-219 -146t-273.5 -52.5q-109 0 -212 33t-188.5 97t-149.5 151.5t-100 203t-36 244.5q0 158 53 293.5t144.5 229t219 146t273.5 52.5zM1255 594q0 324 -148 529.5t-364 205.5q-174 0 -279.5 -142t-105.5 -388q0 -162 40.5 -301t109.5 -234t163 -149t199 -54q174 0 279.5 143
t105.5 390z" />
    <glyph glyph-name="ohungarumlaut" unicode="&#x151;" horiz-adv-x="1214" 
d="M684 1419q0 -54 -67.5 -119t-233.5 -165l-23 26l185 352l28 13q111 -22 111 -107zM1038 1419q0 -55 -67.5 -118.5t-245.5 -165.5l-23 26l197 352l31 13q108 -22 108 -107zM596 -29q-97 0 -185 33.5t-158 96t-111.5 163t-41.5 225.5q0 152 70.5 272.5t187.5 184.5t258 64
q97 0 185.5 -34t158.5 -97.5t112 -165t42 -226.5q0 -152 -70.5 -271t-188 -182t-259.5 -63zM657 55q109 0 171.5 95.5t62.5 259.5q0 144 -43.5 262t-120 185t-170.5 67q-109 0 -171 -96.5t-62 -262.5q0 -221 95 -365.5t238 -144.5z" />
    <glyph glyph-name="OE" unicode="&#x152;" horiz-adv-x="2009" 
d="M1919 375q-63 -267 -74 -379q-204 3 -389 3t-354.5 -1.5t-233.5 -1.5q-219 0 -387.5 81.5t-265 242t-96.5 380.5q0 164 55.5 296t156 219.5t241 134.5t309.5 47q61 0 225.5 -2.5t342.5 -2.5t370 5q-6 -175 4 -383l-47 -10q-22 71 -37 113t-35 80t-39 56t-49 32t-64 18
t-86 4h-254v-580l168 6q102 4 141.5 35t71.5 123l11 35h47q-16 -259 0 -463h-47l-11 35q-32 91 -72 122t-141 35l-168 7v-345q0 -141 41.5 -191t163.5 -50h94q60 0 101 11t85 44.5t86 94.5t95 163zM872 76q66 0 90.5 32.5t24.5 133.5v833q0 135 -39.5 189.5t-142.5 54.5
q-91 0 -170.5 -35t-142 -102t-98.5 -176.5t-36 -247.5q0 -156 44 -287t117 -216t164.5 -132t188.5 -47z" />
    <glyph glyph-name="oe" unicode="&#x153;" horiz-adv-x="1863" 
d="M1786 242q-140 -271 -416 -271q-122 0 -220.5 51t-162.5 142q-68 -92 -169.5 -142.5t-221.5 -50.5q-97 0 -185 33.5t-158 96t-111.5 163t-41.5 225.5q0 152 70.5 272.5t187.5 184.5t258 64q111 0 211.5 -51t165.5 -146q67 93 165 145t206 52q122 0 212 -58.5
t132.5 -146.5t42.5 -191q0 -53 -4 -82h-651q19 -178 116.5 -283.5t247.5 -105.5q83 0 158.5 33.5t132.5 91.5zM657 55q109 0 171.5 95.5t62.5 259.5q0 144 -43.5 262t-120 185t-170.5 67q-109 0 -171 -96.5t-62 -262.5q0 -221 95 -365.5t238 -144.5zM1092 608v-8l462 29
q-15 145 -78 219t-161 74q-97 0 -160 -77.5t-63 -236.5z" />
    <glyph glyph-name="Racute" unicode="&#x154;" horiz-adv-x="1357" 
d="M971 1827q0 -67 -77 -126t-284 -157l-20 25l229 360l29 13q56 -12 89.5 -43t33.5 -72zM637 59v-63q-282 18 -537 0v63l74 13q21 3 33.5 7.5t22.5 19t14.5 29.5t7.5 51.5t3.5 72.5t0.5 104v674q0 70 -0.5 107t-3.5 74t-7.5 52t-14.5 29.5t-22.5 19t-33.5 7.5l-74 12v66
q81 -5 155.5 -5t153 2.5t119.5 2.5q274 0 426 -88t152 -267q0 -126 -90 -212t-262 -128l323 -442q62 -85 92 -119t51 -46.5t58 -20.5l47 -13v-63q-165 6 -330 0l-477 688q194 50 274 126.5t80 217.5q0 144 -96 213t-295 72v-959q0 -69 0.5 -105t3.5 -72.5t7.5 -51.5
t14.5 -29t22.5 -18.5t33.5 -7.5z" />
    <glyph glyph-name="racute" unicode="&#x155;" horiz-adv-x="919" 
d="M805 1419q0 -67 -76.5 -125.5t-284.5 -156.5l-20 24l229 361l29 12q56 -12 89.5 -43t33.5 -72zM618 59v-63q-279 18 -540 0v63l74 13q58 7 69.5 48t11.5 222v211v8q0 235 -14.5 286.5t-93.5 61.5l-47 6v64q203 0 348 37l16 -17q-4 -90 -4 -268q64 146 133 215.5t160 69.5
q65 0 99 -38.5t34 -90.5q0 -42 -22 -78l-31 -21q-46 16 -65 22.5t-47 12.5t-52 6q-132 0 -207 -172v-315q0 -80 1.5 -118t5.5 -73t15 -47.5t26 -20t44 -11.5z" />
    <glyph glyph-name="Rcommaaccent" unicode="&#x156;" horiz-adv-x="1357" 
d="M637 59v-63q-282 18 -537 0v63l74 13q21 3 33.5 7.5t22.5 19t14.5 29.5t7.5 51.5t3.5 72.5t0.5 104v674q0 70 -0.5 107t-3.5 74t-7.5 52t-14.5 29.5t-22.5 19t-33.5 7.5l-74 12v66q81 -5 155.5 -5t153 2.5t119.5 2.5q274 0 426 -88t152 -267q0 -126 -90 -212t-262 -128
l323 -442q62 -85 92 -119t51 -46.5t58 -20.5l47 -13v-63q-165 6 -330 0l-477 688q194 50 274 126.5t80 217.5q0 144 -96 213t-295 72v-959q0 -69 0.5 -105t3.5 -72.5t7.5 -51.5t14.5 -29t22.5 -18.5t33.5 -7.5zM578 -616l-27 41l51 45q72 63 68.5 136t-84.5 169l6 28
q52 52 119 52q66 0 104.5 -45t38.5 -103q0 -90 -63 -160.5t-213 -162.5z" />
    <glyph glyph-name="rcommaaccent" unicode="&#x157;" horiz-adv-x="919" 
d="M618 59v-63q-279 18 -540 0v63l74 13q58 7 69.5 48t11.5 222v211v8q0 235 -14.5 286.5t-93.5 61.5l-47 6v64q203 0 348 37l16 -17q-4 -90 -4 -268q64 146 133 215.5t160 69.5q65 0 99 -38.5t34 -90.5q0 -42 -22 -78l-31 -21q-46 16 -65 22.5t-47 12.5t-52 6
q-132 0 -207 -172v-315q0 -80 1.5 -118t5.5 -73t15 -47.5t26 -20t44 -11.5zM197 -616l-27 41l51 45q72 63 68.5 136t-84.5 169l6 28q52 52 119 52q66 0 104.5 -45t38.5 -103q0 -90 -63 -160.5t-213 -162.5z" />
    <glyph glyph-name="Rcaron" unicode="&#x158;" horiz-adv-x="1357" 
d="M670 1722l276 226l29 -29l-227 -360h-158l-228 360l29 29zM637 59v-63q-282 18 -537 0v63l74 13q21 3 33.5 7.5t22.5 19t14.5 29.5t7.5 51.5t3.5 72.5t0.5 104v674q0 70 -0.5 107t-3.5 74t-7.5 52t-14.5 29.5t-22.5 19t-33.5 7.5l-74 12v66q81 -5 155.5 -5t153 2.5
t119.5 2.5q274 0 426 -88t152 -267q0 -126 -90 -212t-262 -128l323 -442q62 -85 92 -119t51 -46.5t58 -20.5l47 -13v-63q-165 6 -330 0l-477 688q194 50 274 126.5t80 217.5q0 144 -96 213t-295 72v-959q0 -69 0.5 -105t3.5 -72.5t7.5 -51.5t14.5 -29t22.5 -18.5t33.5 -7.5z
" />
    <glyph glyph-name="rcaron" unicode="&#x159;" horiz-adv-x="919" 
d="M477 1315l277 225l28 -29l-227 -360h-158l-227 360l29 29zM618 59v-63q-279 18 -540 0v63l74 13q58 7 69.5 48t11.5 222v211v8q0 235 -14.5 286.5t-93.5 61.5l-47 6v64q203 0 348 37l16 -17q-4 -90 -4 -268q64 146 133 215.5t160 69.5q65 0 99 -38.5t34 -90.5
q0 -42 -22 -78l-31 -21q-46 16 -65 22.5t-47 12.5t-52 6q-132 0 -207 -172v-315q0 -80 1.5 -118t5.5 -73t15 -47.5t26 -20t44 -11.5z" />
    <glyph glyph-name="Sacute" unicode="&#x15a;" horiz-adv-x="1185" 
d="M893 1827q0 -67 -77 -126t-284 -157l-20 25l229 360l29 13q56 -12 89.5 -43t33.5 -72zM612 53q119 0 193 63.5t74 162.5q0 60 -25 110t-68 85t-98.5 65.5t-116.5 57.5t-122 55t-116.5 63.5t-98.5 78t-68 103.5t-25 135q0 169 122.5 280t336.5 111q227 0 383 -116
q-9 -136 -6 -320l-55 -12q-52 187 -133.5 276.5t-208.5 89.5q-107 0 -170.5 -62.5t-63.5 -158.5q0 -57 25 -104t68 -80t98 -61.5t116 -54t122.5 -53t116.5 -64t98 -80t68 -107t25 -141.5q0 -182 -131.5 -293t-378.5 -111q-272 0 -423 115q8 119 4 371l55 12
q80 -416 403 -416z" />
    <glyph glyph-name="sacute" unicode="&#x15b;" horiz-adv-x="923" 
d="M750 1419q0 -67 -76.5 -125.5t-284.5 -156.5l-20 24l229 361l29 12q56 -12 89.5 -43t33.5 -72zM489 49q83 0 128 40t45 104q0 52 -30.5 92t-79.5 67t-108.5 51t-119 52t-108.5 62t-79.5 88.5t-30.5 125.5q0 120 96 199.5t261 79.5t311 -78q0 -110 12 -248h-51
q-79 136 -145.5 191t-155.5 55q-66 0 -102.5 -37t-36.5 -94q0 -49 30.5 -86.5t79.5 -62.5t107.5 -48t117.5 -50.5t108 -61.5t79.5 -90t30.5 -128q0 -132 -110 -216.5t-279 -84.5q-100 0 -195 24.5t-151 61.5q7 133 4 254h45q110 -262 327 -262z" />
    <glyph glyph-name="Scircumflex" unicode="&#x15c;" horiz-adv-x="1185" 
d="M592 1763l-275 -223l-26 29l223 362h154l223 -362l-27 -29zM612 53q119 0 193 63.5t74 162.5q0 60 -25 110t-68 85t-98.5 65.5t-116.5 57.5t-122 55t-116.5 63.5t-98.5 78t-68 103.5t-25 135q0 169 122.5 280t336.5 111q227 0 383 -116q-9 -136 -6 -320l-55 -12
q-52 187 -133.5 276.5t-208.5 89.5q-107 0 -170.5 -62.5t-63.5 -158.5q0 -57 25 -104t68 -80t98 -61.5t116 -54t122.5 -53t116.5 -64t98 -80t68 -107t25 -141.5q0 -182 -131.5 -293t-378.5 -111q-272 0 -423 115q8 119 4 371l55 12q80 -416 403 -416z" />
    <glyph glyph-name="scircumflex" unicode="&#x15d;" horiz-adv-x="923" 
d="M463 1356l-275 -223l-26 28l223 363h154l223 -363l-27 -28zM489 49q83 0 128 40t45 104q0 52 -30.5 92t-79.5 67t-108.5 51t-119 52t-108.5 62t-79.5 88.5t-30.5 125.5q0 120 96 199.5t261 79.5t311 -78q0 -110 12 -248h-51q-79 136 -145.5 191t-155.5 55
q-66 0 -102.5 -37t-36.5 -94q0 -49 30.5 -86.5t79.5 -62.5t107.5 -48t117.5 -50.5t108 -61.5t79.5 -90t30.5 -128q0 -132 -110 -216.5t-279 -84.5q-100 0 -195 24.5t-151 61.5q7 133 4 254h45q110 -262 327 -262z" />
    <glyph glyph-name="Scedilla" unicode="&#x15e;" horiz-adv-x="1185" 
d="M811 -332q0 -95 -66.5 -155t-173.5 -60q-124 0 -225 101l31 43q60 -48 135 -48q50 0 84.5 31t34.5 80q0 113 -150 135l-10 23l78 153q-253 6 -399 115q8 119 4 371l55 12q80 -416 403 -416q119 0 193 63.5t74 162.5q0 60 -25 110t-68 85t-98.5 65.5t-116.5 57.5t-122 55
t-116.5 63.5t-98.5 78t-68 103.5t-25 135q0 169 122.5 280t336.5 111q227 0 383 -116q-9 -136 -6 -320l-55 -12q-52 187 -133.5 276.5t-208.5 89.5q-107 0 -170.5 -62.5t-63.5 -158.5q0 -57 25 -104t68 -80t98 -61.5t116 -54t122.5 -53t116.5 -64t98 -80t68 -107t25 -141.5
q0 -173 -120 -282.5t-345 -119.5l-63 -123q112 17 184 -35t72 -147z" />
    <glyph glyph-name="scedilla" unicode="&#x15f;" horiz-adv-x="923" 
d="M678 -332q0 -95 -66.5 -155t-173.5 -60q-124 0 -225 101l31 43q60 -48 135 -48q50 0 84.5 31t34.5 80q0 113 -150 135l-10 23l78 155q-90 4 -172.5 27.5t-130.5 56.5q7 133 4 254h45q110 -262 327 -262q83 0 128 40t45 104q0 52 -30.5 92t-79.5 67t-108.5 51t-119 52
t-108.5 62t-79.5 88.5t-30.5 125.5q0 120 96 199.5t261 79.5t311 -78q0 -110 12 -248h-51q-79 136 -145.5 191t-155.5 55q-66 0 -102.5 -37t-36.5 -94q0 -49 30.5 -86.5t79.5 -62.5t107.5 -48t117.5 -50.5t108 -61.5t79.5 -90t30.5 -128q0 -127 -102 -210t-261 -91l-63 -121
q112 17 184 -35t72 -147z" />
    <glyph glyph-name="Scaron" unicode="&#x160;" horiz-adv-x="1185" 
d="M592 1722l276 226l29 -29l-227 -360h-158l-227 360l28 29zM612 53q119 0 193 63.5t74 162.5q0 60 -25 110t-68 85t-98.5 65.5t-116.5 57.5t-122 55t-116.5 63.5t-98.5 78t-68 103.5t-25 135q0 169 122.5 280t336.5 111q227 0 383 -116q-9 -136 -6 -320l-55 -12
q-52 187 -133.5 276.5t-208.5 89.5q-107 0 -170.5 -62.5t-63.5 -158.5q0 -57 25 -104t68 -80t98 -61.5t116 -54t122.5 -53t116.5 -64t98 -80t68 -107t25 -141.5q0 -182 -131.5 -293t-378.5 -111q-272 0 -423 115q8 119 4 371l55 12q80 -416 403 -416z" />
    <glyph glyph-name="scaron" unicode="&#x161;" horiz-adv-x="923" 
d="M471 1315l277 225l28 -29l-227 -360h-158l-227 360l29 29zM489 49q83 0 128 40t45 104q0 52 -30.5 92t-79.5 67t-108.5 51t-119 52t-108.5 62t-79.5 88.5t-30.5 125.5q0 120 96 199.5t261 79.5t311 -78q0 -110 12 -248h-51q-79 136 -145.5 191t-155.5 55
q-66 0 -102.5 -37t-36.5 -94q0 -49 30.5 -86.5t79.5 -62.5t107.5 -48t117.5 -50.5t108 -61.5t79.5 -90t30.5 -128q0 -132 -110 -216.5t-279 -84.5q-100 0 -195 24.5t-151 61.5q7 133 4 254h45q110 -262 327 -262z" />
    <glyph glyph-name="uni0162" unicode="&#x162;" horiz-adv-x="1374" 
d="M573 360v963h-139q-83 0 -144 -68t-122 -231l-37 -98l-53 8q29 252 35 463q355 -7 573 -7t576 7q5 -208 32 -463l-51 -8l-37 98q-61 163 -125 231t-145 68h-137v-963q0 -70 0.5 -107t3.5 -73.5t7.5 -52t14.5 -29.5t22.5 -18.5t33.5 -7.5l75 -13v-63q-270 16 -540 0v63
l76 13q57 9 69 54t12 234zM535 -616l-27 41l51 45q72 63 68.5 136t-84.5 169l6 28q52 52 119 52q66 0 104.5 -45t38.5 -103q0 -90 -63 -160.5t-213 -162.5z" />
    <glyph glyph-name="uni0163" unicode="&#x163;" horiz-adv-x="716" 
d="M63 967q120 14 184.5 89t108.5 218l52 -6v-289h251v-90h-251v-574q0 -106 27.5 -154t86.5 -48q68 0 135 71l35 -34q-71 -98 -133 -138.5t-135 -40.5q-124 0 -173.5 83t-49.5 251v584h-138v78zM233 -616l-26 41l51 45q72 63 68.5 136t-84.5 169l6 28q52 52 119 52
q66 0 104.5 -45t38.5 -103q0 -90 -63.5 -160t-213.5 -163z" />
    <glyph glyph-name="Tcaron" unicode="&#x164;" horiz-adv-x="1374" 
d="M686 1722l277 226l28 -29l-227 -360h-158l-227 360l29 29zM573 360v963h-139q-83 0 -144 -68t-122 -231l-37 -98l-53 8q29 252 35 463q355 -7 573 -7t576 7q5 -208 32 -463l-51 -8l-37 98q-61 163 -125 231t-145 68h-137v-963q0 -70 0.5 -107t3.5 -73.5t7.5 -52
t14.5 -29.5t22.5 -18.5t33.5 -7.5l75 -13v-63q-270 16 -540 0v63l76 13q57 9 69 54t12 234z" />
    <glyph glyph-name="tcaron" unicode="&#x165;" horiz-adv-x="731" 
d="M516 1534q48 25 84 25q43 0 70.5 -28.5t27.5 -80.5t-27.5 -105t-73 -126t-71.5 -142l-32 8l4 420zM63 967q120 14 184.5 89t108.5 218l52 -6v-289h251v-90h-251v-574q0 -106 27.5 -154t86.5 -48q68 0 135 71l35 -34q-71 -98 -133 -138.5t-135 -40.5q-124 0 -173.5 83
t-49.5 251v584h-138v78z" />
    <glyph glyph-name="Tbar" unicode="&#x166;" horiz-adv-x="1374" 
d="M956 59v-63q-270 16 -540 0v63l76 13q57 9 69 54t12 234v308h-260v88h260v567h-139q-83 0 -144 -68t-122 -231l-37 -98l-53 8q29 252 35 463q355 -7 573 -7t576 7q5 -208 32 -463l-51 -8l-37 98q-61 163 -125 231t-145 68h-137v-567h260v-88h-260v-308q0 -70 0.5 -107
t3.5 -73.5t7.5 -52t14.5 -29.5t22.5 -18.5t33.5 -7.5z" />
    <glyph glyph-name="tbar" unicode="&#x167;" horiz-adv-x="716" 
d="M692 150q-71 -98 -133 -138.5t-135 -40.5q-124 0 -173.5 83t-49.5 251v242h-138v88h138v254h-138v78q120 14 184.5 89t108.5 218l52 -6v-289h251v-90h-251v-254h251v-88h-251v-232q0 -106 27.5 -154t86.5 -48q68 0 135 71z" />
    <glyph glyph-name="Utilde" unicode="&#x168;" horiz-adv-x="1484" 
d="M475 1602q31 139 84 207.5t121 68.5q54 0 137 -47t131 -47q79 0 129 123l43 -17q-58 -282 -202 -282q-52 0 -138 47t-135 47q-84 0 -131 -115zM238 1030q0 70 -0.5 107t-3.5 74t-7.5 52t-15 29.5t-23.5 19t-34 7.5l-72 12v66q270 -19 536 0v-66l-73 -12q-25 -4 -39 -12
t-24 -22.5t-14 -51t-5.5 -79t-1.5 -124.5v-510q0 -222 87 -328t265 -106q349 0 346 463l-4 526q-1 99 -10 146.5t-31.5 69.5t-71.5 30l-47 10v66q220 -15 416 0v-66l-63 -14q-34 -7 -52.5 -25t-30.5 -70.5t-12 -146.5v-532q0 -155 -37 -267.5t-106 -178t-157 -96t-199 -30.5
q-516 0 -516 512v547z" />
    <glyph glyph-name="utilde" unicode="&#x169;" horiz-adv-x="1257" 
d="M324 1194q31 139 83.5 207.5t120.5 68.5q54 0 137.5 -47t131.5 -47q79 0 129 123l43 -16q-58 -283 -203 -283q-43 0 -90.5 23.5t-94 47t-87.5 23.5q-86 0 -132 -114zM1208 55q-154 -19 -327 -84q-23 87 -31 181q-148 -181 -348 -181q-141 0 -227.5 80t-86.5 256v244
q0 239 -14 295t-86 63l-47 4v66q218 0 346 37l16 -19q-8 -153 -8 -424v-245q0 -104 51.5 -153.5t139.5 -49.5q71 0 130.5 21.5t129.5 66.5q-2 20 -2 61v279q0 236 -16 291t-99 65l-37 6v64q220 0 350 37l17 -17q-8 -141 -8 -395v-233q0 -113 5.5 -159.5t22 -65t56.5 -21.5
l71 -6z" />
    <glyph glyph-name="Umacron" unicode="&#x16a;" horiz-adv-x="1484" 
d="M498 1636v152h571v-152h-571zM238 1030q0 70 -0.5 107t-3.5 74t-7.5 52t-15 29.5t-23.5 19t-34 7.5l-72 12v66q270 -19 536 0v-66l-73 -12q-25 -4 -39 -12t-24 -22.5t-14 -51t-5.5 -79t-1.5 -124.5v-510q0 -222 87 -328t265 -106q349 0 346 463l-4 526q-1 99 -10 146.5
t-31.5 69.5t-71.5 30l-47 10v66q220 -15 416 0v-66l-63 -14q-34 -7 -52.5 -25t-30.5 -70.5t-12 -146.5v-532q0 -155 -37 -267.5t-106 -178t-157 -96t-199 -30.5q-516 0 -516 512v547z" />
    <glyph glyph-name="umacron" unicode="&#x16b;" horiz-adv-x="1257" 
d="M352 1229v151h572v-151h-572zM1208 55q-154 -19 -327 -84q-23 87 -31 181q-148 -181 -348 -181q-141 0 -227.5 80t-86.5 256v244q0 239 -14 295t-86 63l-47 4v66q218 0 346 37l16 -19q-8 -153 -8 -424v-245q0 -104 51.5 -153.5t139.5 -49.5q71 0 130.5 21.5t129.5 66.5
q-2 20 -2 61v279q0 236 -16 291t-99 65l-37 6v64q220 0 350 37l17 -17q-8 -141 -8 -395v-233q0 -113 5.5 -159.5t22 -65t56.5 -21.5l71 -6z" />
    <glyph glyph-name="Ubreve" unicode="&#x16c;" horiz-adv-x="1484" 
d="M1081 1923q0 -172 -74 -269.5t-210 -97.5q-138 0 -212.5 97.5t-74.5 269.5h47q11 -86 71.5 -138t168.5 -52q102 0 163 52.5t74 137.5h47zM238 1030q0 70 -0.5 107t-3.5 74t-7.5 52t-15 29.5t-23.5 19t-34 7.5l-72 12v66q270 -19 536 0v-66l-73 -12q-25 -4 -39 -12
t-24 -22.5t-14 -51t-5.5 -79t-1.5 -124.5v-510q0 -222 87 -328t265 -106q349 0 346 463l-4 526q-1 99 -10 146.5t-31.5 69.5t-71.5 30l-47 10v66q220 -15 416 0v-66l-63 -14q-34 -7 -52.5 -25t-30.5 -70.5t-12 -146.5v-532q0 -155 -37 -267.5t-106 -178t-157 -96t-199 -30.5
q-516 0 -516 512v547z" />
    <glyph glyph-name="ubreve" unicode="&#x16d;" horiz-adv-x="1257" 
d="M920 1516q0 -172 -74 -269.5t-211 -97.5q-138 0 -212.5 97.5t-74.5 269.5h47q11 -86 71.5 -138.5t168.5 -52.5q102 0 163 52.5t74 138.5h48zM1208 55q-154 -19 -327 -84q-23 87 -31 181q-148 -181 -348 -181q-141 0 -227.5 80t-86.5 256v244q0 239 -14 295t-86 63l-47 4
v66q218 0 346 37l16 -19q-8 -153 -8 -424v-245q0 -104 51.5 -153.5t139.5 -49.5q71 0 130.5 21.5t129.5 66.5q-2 20 -2 61v279q0 236 -16 291t-99 65l-37 6v64q220 0 350 37l17 -17q-8 -141 -8 -395v-233q0 -113 5.5 -159.5t22 -65t56.5 -21.5l71 -6z" />
    <glyph glyph-name="Uring" unicode="&#x16e;" horiz-adv-x="1484" 
d="M1057 1798q0 -106 -74 -180t-180 -74t-181 74t-75 180q0 107 75 181.5t181 74.5t180 -74.5t74 -181.5zM645 1798q0 -71 44 -117.5t114 -46.5q67 0 111 46.5t44 117.5q0 69 -44.5 117.5t-110.5 48.5q-69 0 -113.5 -48.5t-44.5 -117.5zM238 1030q0 70 -0.5 107t-3.5 74
t-7.5 52t-15 29.5t-23.5 19t-34 7.5l-72 12v66q270 -19 536 0v-66l-73 -12q-25 -4 -39 -12t-24 -22.5t-14 -51t-5.5 -79t-1.5 -124.5v-510q0 -222 87 -328t265 -106q349 0 346 463l-4 526q-1 99 -10 146.5t-31.5 69.5t-71.5 30l-47 10v66q220 -15 416 0v-66l-63 -14
q-34 -7 -52.5 -25t-30.5 -70.5t-12 -146.5v-532q0 -155 -37 -267.5t-106 -178t-157 -96t-199 -30.5q-516 0 -516 512v547z" />
    <glyph glyph-name="uring" unicode="&#x16f;" horiz-adv-x="1257" 
d="M891 1391q0 -106 -74 -180t-180 -74t-181 74t-75 180q0 107 75 181.5t181 74.5t180 -74.5t74 -181.5zM479 1391q0 -71 44 -117.5t114 -46.5q67 0 111.5 46.5t44.5 117.5q0 68 -44.5 116.5t-111.5 48.5q-69 0 -113.5 -48t-44.5 -117zM1208 55q-154 -19 -327 -84
q-23 87 -31 181q-148 -181 -348 -181q-141 0 -227.5 80t-86.5 256v244q0 239 -14 295t-86 63l-47 4v66q218 0 346 37l16 -19q-8 -153 -8 -424v-245q0 -104 51.5 -153.5t139.5 -49.5q71 0 130.5 21.5t129.5 66.5q-2 20 -2 61v279q0 236 -16 291t-99 65l-37 6v64q220 0 350 37
l17 -17q-8 -141 -8 -395v-233q0 -113 5.5 -159.5t22 -65t56.5 -21.5l71 -6z" />
    <glyph glyph-name="Uhungarumlaut" unicode="&#x170;" horiz-adv-x="1484" 
d="M885 1827q0 -54 -67.5 -119.5t-233.5 -165.5l-23 27l184 352l29 12q111 -22 111 -106zM1239 1827q0 -55 -68 -119t-245 -166l-23 27l197 352l30 12q109 -22 109 -106zM238 1030q0 70 -0.5 107t-3.5 74t-7.5 52t-15 29.5t-23.5 19t-34 7.5l-72 12v66q270 -19 536 0v-66
l-73 -12q-25 -4 -39 -12t-24 -22.5t-14 -51t-5.5 -79t-1.5 -124.5v-510q0 -222 87 -328t265 -106q349 0 346 463l-4 526q-1 99 -10 146.5t-31.5 69.5t-71.5 30l-47 10v66q220 -15 416 0v-66l-63 -14q-34 -7 -52.5 -25t-30.5 -70.5t-12 -146.5v-532q0 -155 -37 -267.5
t-106 -178t-157 -96t-199 -30.5q-516 0 -516 512v547z" />
    <glyph glyph-name="uhungarumlaut" unicode="&#x171;" horiz-adv-x="1257" 
d="M723 1419q0 -54 -67.5 -119t-233.5 -165l-23 26l185 352l28 13q111 -22 111 -107zM1077 1419q0 -55 -67.5 -118.5t-245.5 -165.5l-23 26l197 352l31 13q108 -22 108 -107zM1208 55q-154 -19 -327 -84q-23 87 -31 181q-148 -181 -348 -181q-141 0 -227.5 80t-86.5 256v244
q0 239 -14 295t-86 63l-47 4v66q218 0 346 37l16 -19q-8 -153 -8 -424v-245q0 -104 51.5 -153.5t139.5 -49.5q71 0 130.5 21.5t129.5 66.5q-2 20 -2 61v279q0 236 -16 291t-99 65l-37 6v64q220 0 350 37l17 -17q-8 -141 -8 -395v-233q0 -113 5.5 -159.5t22 -65t56.5 -21.5
l71 -6z" />
    <glyph glyph-name="Uogonek" unicode="&#x172;" horiz-adv-x="1484" 
d="M1030 -389q-107 -158 -244 -158q-89 0 -145.5 49.5t-56.5 137.5q0 91 76 180.5t208 159.5q-83 -9 -114 -9q-516 0 -516 512v547q0 70 -0.5 107t-3.5 74t-7.5 52t-15 29.5t-23.5 19t-34 7.5l-72 12v66q270 -19 536 0v-66l-73 -12q-25 -4 -39 -12t-24 -22.5t-14 -51
t-5.5 -79t-1.5 -124.5v-510q0 -222 87 -328t265 -106q349 0 346 463l-4 526q-1 99 -10 146.5t-31.5 69.5t-71.5 30l-47 10v66q220 -15 416 0v-66l-63 -14q-34 -7 -52.5 -25t-30.5 -70.5t-12 -146.5v-532q0 -204 -61.5 -325.5t-177.5 -192.5q-132 -78 -187 -152t-55 -166
q0 -62 28.5 -94.5t82.5 -32.5q34 0 58 14t52 44z" />
    <glyph glyph-name="uogonek" unicode="&#x173;" horiz-adv-x="1257" 
d="M1190 -389q-104 -158 -244 -158q-88 0 -145.5 49.5t-57.5 137.5q0 110 101 220.5t260 176.5q-124 -26 -223 -66q-23 87 -31 181q-148 -181 -348 -181q-141 0 -227.5 80t-86.5 256v244q0 239 -14 295t-86 63l-47 4v66q218 0 346 37l16 -19q-8 -153 -8 -424v-245
q0 -104 51.5 -153.5t139.5 -49.5q71 0 130.5 21.5t129.5 66.5q-2 20 -2 61v279q0 236 -16 291t-99 65l-37 6v64q220 0 350 37l17 -17q-8 -141 -8 -395v-233q0 -113 5.5 -159.5t22 -65t56.5 -21.5l71 -6l2 -64q-276 -122 -276 -346q0 -129 112 -129q56 0 111 58z" />
    <glyph glyph-name="Wcircumflex" unicode="&#x174;" horiz-adv-x="2084" 
d="M1065 1763l-274 -223l-27 29l223 362h154l223 -362l-27 -29zM1849 1116l-370 -1118q-72 6 -140 0l-274 809l-297 -809q-74 6 -147 0l-410 1128q-43 115 -71.5 152.5t-67.5 44.5l-45 8v66q287 -16 514 0v-66l-54 -10q-33 -6 -49 -20.5t-16 -54t24 -105.5l332 -905l246 686
l-70 206q-28 82 -50 124t-40.5 56t-46.5 17l-45 8v64q297 -16 531 0v-66l-58 -10q-43 -7 -61 -20t-18.5 -50.5t22.5 -109.5l291 -891l272 885q27 89 5.5 132.5t-97.5 57.5l-35 6v66q195 -16 434 0v-66l-47 -12q-104 -22 -162 -203z" />
    <glyph glyph-name="wcircumflex" unicode="&#x175;" horiz-adv-x="1728" 
d="M901 1356l-274 -223l-27 28l223 363h154l223 -363l-26 -28zM1475 616l-242 -618q-65 6 -123 0l-240 631l-241 -631q-63 6 -127 0l-293 721q-44 107 -69.5 144t-67.5 46l-49 11v63q269 -14 489 0v-63l-49 -13q-52 -11 -58.5 -46t27.5 -130l205 -547l199 543
q-39 105 -60 138t-57 42l-47 13v63q254 -14 463 0v-63l-45 -13q-61 -17 -67.5 -44.5t26.5 -125.5l192 -553l156 451q47 133 43 194t-68 78l-49 13v63q192 -12 381 0v-63l-33 -11q-49 -16 -92.5 -78.5t-103.5 -214.5z" />
    <glyph glyph-name="Ycircumflex" unicode="&#x176;" horiz-adv-x="1300" 
d="M694 1763l-274 -223l-27 29l223 362h154l223 -362l-26 -29zM924 59v-63q-265 17 -537 0v63l76 9q21 2 33.5 5.5t22.5 18t14.5 30t7.5 53.5t3.5 76t0.5 109v222l-295 514q-62 105 -90.5 147t-48 58t-50.5 22l-34 8v66q215 -14 544 0v-66l-43 -8q-88 -17 -98.5 -56.5
t43.5 -131.5l256 -443l211 426q85 173 -61 205l-41 8v66q89 -9 217 -9t217 9v-66l-39 -8q-45 -10 -89 -56t-104 -155l-272 -491v-261q0 -71 0.5 -109t3.5 -76t7.5 -53.5t14.5 -30t22.5 -18t33.5 -5.5z" />
    <glyph glyph-name="ycircumflex" unicode="&#x177;" horiz-adv-x="1136" 
d="M612 1356l-274 -223l-27 28l224 363h153l223 -363l-26 -28zM633 6q-58 -144 -109.5 -238t-98 -142.5t-85.5 -66.5t-86 -18q-69 0 -102 44.5t-33 109.5l16 31q74 3 122.5 9.5t99 23.5t85.5 46.5t67.5 78t59.5 118.5l6 18h-63l-303 697q-53 120 -84.5 155.5t-101.5 47.5v63
q267 -14 487 0v-63l-51 -13q-59 -15 -64 -52t33 -126l219 -518l156 416q52 145 49.5 204.5t-55.5 73.5l-54 15v63q188 -12 369 0v-63l-33 -9q-48 -13 -91 -75.5t-111 -229.5z" />
    <glyph glyph-name="Ydieresis" unicode="&#x178;" horiz-adv-x="1300" 
d="M641 1741q0 -53 -37 -90t-92 -37q-58 0 -94.5 37t-36.5 90q0 55 36.5 91t94.5 36q54 0 91.5 -36.5t37.5 -90.5zM1030 1741q0 -54 -36 -90.5t-95 -36.5q-54 0 -91.5 37t-37.5 90q0 54 37.5 90.5t91.5 36.5q58 0 94.5 -36t36.5 -91zM924 59v-63q-265 17 -537 0v63l76 9
q21 2 33.5 5.5t22.5 18t14.5 30t7.5 53.5t3.5 76t0.5 109v222l-295 514q-62 105 -90.5 147t-48 58t-50.5 22l-34 8v66q215 -14 544 0v-66l-43 -8q-88 -17 -98.5 -56.5t43.5 -131.5l256 -443l211 426q85 173 -61 205l-41 8v66q89 -9 217 -9t217 9v-66l-39 -8q-45 -10 -89 -56
t-104 -155l-272 -491v-261q0 -71 0.5 -109t3.5 -76t7.5 -53.5t14.5 -30t22.5 -18t33.5 -5.5z" />
    <glyph glyph-name="Zacute" unicode="&#x179;" horiz-adv-x="1271" 
d="M975 1827q0 -67 -77 -126t-284 -157l-20 25l229 360l29 13q56 -12 89.5 -43t33.5 -72zM1112 -4q-504 13 -1012 0v35l774 1282l-239 -2q-175 -2 -264.5 -61.5t-159.5 -225.5l-29 -66l-47 13q24 164 43 426q528 -18 965 0v-37l-776 -1282l237 2q108 1 178 12.5t127.5 43.5
t97 85.5t76.5 140.5l33 78l53 -12q-36 -183 -57 -432z" />
    <glyph glyph-name="zacute" unicode="&#x17a;" horiz-adv-x="1017" 
d="M852 1419q0 -67 -76.5 -125.5t-283.5 -156.5l-21 24l229 361l29 12q56 -12 89.5 -43t33.5 -72zM938 342q-23 -186 -23 -346q-362 14 -829 0v57l576 854q-93 -1 -154.5 -4t-112 -15t-80 -26t-58 -45t-46.5 -63t-45 -88l-51 8q23 128 30 309q381 -15 760 0v-61l-581 -850
q103 0 169.5 3.5t126 15t95.5 29t69.5 51t55.5 75.5t47 106z" />
    <glyph glyph-name="Zdotaccent" unicode="&#x17b;" horiz-adv-x="1271" 
d="M801 1741q0 -61 -41.5 -102.5t-102.5 -41.5q-63 0 -104 41t-41 103t41 102.5t104 40.5q62 0 103 -41t41 -102zM1112 -4q-504 13 -1012 0v35l774 1282l-239 -2q-175 -2 -264.5 -61.5t-159.5 -225.5l-29 -66l-47 13q24 164 43 426q528 -18 965 0v-37l-776 -1282l237 2
q108 1 178 12.5t127.5 43.5t97 85.5t76.5 140.5l33 78l53 -12q-36 -183 -57 -432z" />
    <glyph glyph-name="zdotaccent" unicode="&#x17c;" horiz-adv-x="1017" 
d="M682 1333q0 -61 -41 -102t-102 -41q-63 0 -104.5 40.5t-41.5 102.5t41.5 103t104.5 41q61 0 102 -41t41 -103zM938 342q-23 -186 -23 -346q-362 14 -829 0v57l576 854q-93 -1 -154.5 -4t-112 -15t-80 -26t-58 -45t-46.5 -63t-45 -88l-51 8q23 128 30 309q381 -15 760 0
v-61l-581 -850q103 0 169.5 3.5t126 15t95.5 29t69.5 51t55.5 75.5t47 106z" />
    <glyph glyph-name="Zcaron" unicode="&#x17d;" horiz-adv-x="1271" 
d="M655 1722l277 226l29 -29l-228 -360h-158l-227 360l29 29zM1112 -4q-504 13 -1012 0v35l774 1282l-239 -2q-175 -2 -264.5 -61.5t-159.5 -225.5l-29 -66l-47 13q24 164 43 426q528 -18 965 0v-37l-776 -1282l237 2q108 1 178 12.5t127.5 43.5t97 85.5t76.5 140.5l33 78
l53 -12q-36 -183 -57 -432z" />
    <glyph glyph-name="zcaron" unicode="&#x17e;" horiz-adv-x="1017" 
d="M528 1315l277 225l29 -29l-228 -360h-157l-228 360l29 29zM938 342q-23 -186 -23 -346q-362 14 -829 0v57l576 854q-93 -1 -154.5 -4t-112 -15t-80 -26t-58 -45t-46.5 -63t-45 -88l-51 8q23 128 30 309q381 -15 760 0v-61l-581 -850q103 0 169.5 3.5t126 15t95.5 29
t69.5 51t55.5 75.5t47 106z" />
    <glyph glyph-name="uni0191" unicode="&#x191;" horiz-adv-x="1153" 
d="M178 -193l-63 -12l-11 51l46 21q50 22 72.5 64t31 125.5t8.5 258.5v740q-1 64 -1.5 97t-4 67t-8 48t-14 27t-22 17.5t-32.5 7.5l-76 12v66q385 -18 928 0q-6 -176 4 -381l-43 -12q-18 66 -32 108.5t-33.5 78.5t-39.5 55.5t-51 33.5t-67 18.5t-88 4.5h-197v-584l156 6
q97 4 136.5 35.5t62.5 122.5l8 35h47q-16 -260 0 -461h-47l-8 32q-24 90 -63.5 122.5t-135.5 35.5l-156 6v-344q0 -228 -71 -348.5t-236 -153.5z" />
    <glyph glyph-name="uni0192" unicode="&#x192;" horiz-adv-x="694" 
d="M111 -428l-60 -18l-18 47l37 20q51 28 74.5 66.5t33.5 118t10 239.5v848h-122v74l122 12v84q0 203 101.5 326.5t261.5 123.5q117 0 190.5 -56t73.5 -120q0 -50 -30.5 -76t-77.5 -26l-33 8q-46 108 -82 155.5t-88 47.5q-109 0 -109 -201v-266h232v-86h-232v-877
q0 -91 -9 -154t-27.5 -109.5t-53.5 -79t-79.5 -55.5t-114.5 -46z" />
    <glyph glyph-name="uni0218" unicode="&#x218;" horiz-adv-x="1185" 
d="M612 53q119 0 193 63.5t74 162.5q0 60 -25 110t-68 85t-98.5 65.5t-116.5 57.5t-122 55t-116.5 63.5t-98.5 78t-68 103.5t-25 135q0 169 122.5 280t336.5 111q227 0 383 -116q-9 -136 -6 -320l-55 -12q-52 187 -133.5 276.5t-208.5 89.5q-107 0 -170.5 -62.5
t-63.5 -158.5q0 -57 25 -104t68 -80t98 -61.5t116 -54t122.5 -53t116.5 -64t98 -80t68 -107t25 -141.5q0 -182 -131.5 -293t-378.5 -111q-272 0 -423 115q8 119 4 371l55 12q80 -416 403 -416zM444 -616l-26 41l51 45q72 63 68.5 136t-84.5 169l6 28q52 52 119 52
q66 0 104.5 -45t38.5 -103q0 -90 -63.5 -160t-213.5 -163z" />
    <glyph glyph-name="uni0219" unicode="&#x219;" horiz-adv-x="923" 
d="M489 49q83 0 128 40t45 104q0 52 -30.5 92t-79.5 67t-108.5 51t-119 52t-108.5 62t-79.5 88.5t-30.5 125.5q0 120 96 199.5t261 79.5t311 -78q0 -110 12 -248h-51q-79 136 -145.5 191t-155.5 55q-66 0 -102.5 -37t-36.5 -94q0 -49 30.5 -86.5t79.5 -62.5t107.5 -48
t117.5 -50.5t108 -61.5t79.5 -90t30.5 -128q0 -132 -110 -216.5t-279 -84.5q-100 0 -195 24.5t-151 61.5q7 133 4 254h45q110 -262 327 -262zM330 -616l-27 41l51 45q72 63 68.5 136t-84.5 169l6 28q52 52 119 52q66 0 104.5 -45t38.5 -103q0 -90 -63 -160.5t-213 -162.5z
" />
    <glyph glyph-name="uni021A" unicode="&#x21a;" horiz-adv-x="1374" 
d="M573 360v963h-139q-83 0 -144 -68t-122 -231l-37 -98l-53 8q29 252 35 463q355 -7 573 -7t576 7q5 -208 32 -463l-51 -8l-37 98q-61 163 -125 231t-145 68h-137v-963q0 -70 0.5 -107t3.5 -73.5t7.5 -52t14.5 -29.5t22.5 -18.5t33.5 -7.5l75 -13v-63q-270 16 -540 0v63
l76 13q57 9 69 54t12 234zM535 -616l-27 41l51 45q72 63 68.5 136t-84.5 169l6 28q52 52 119 52q66 0 104.5 -45t38.5 -103q0 -90 -63 -160.5t-213 -162.5z" />
    <glyph glyph-name="uni021B" unicode="&#x21b;" horiz-adv-x="716" 
d="M63 967q120 14 184.5 89t108.5 218l52 -6v-289h251v-90h-251v-574q0 -106 27.5 -154t86.5 -48q68 0 135 71l35 -34q-71 -98 -133 -138.5t-135 -40.5q-124 0 -173.5 83t-49.5 251v584h-138v78zM233 -616l-26 41l51 45q72 63 68.5 136t-84.5 169l6 28q52 52 119 52
q66 0 104.5 -45t38.5 -103q0 -90 -63.5 -160t-213.5 -163z" />
    <glyph glyph-name="dotlessj" unicode="&#x237;" horiz-adv-x="589" 
d="M211 45v500q0 241 -15 296.5t-94 67.5l-47 6v64q129 0 202.5 7t152.5 30l16 -19q-8 -141 -8 -399v-582q0 -113 -13 -184.5t-48.5 -122t-86.5 -79.5t-139 -58l-57 -18l-21 47l39 20q51 28 74.5 66t34 118.5t10.5 239.5z" />
    <glyph glyph-name="circumflex" unicode="&#x2c6;" 
d="M512 1356l-274 -223l-27 28l223 363h154l223 -363l-27 -28z" />
    <glyph glyph-name="caron" unicode="&#x2c7;" 
d="M512 1315l276 225l29 -29l-227 -360h-158l-227 360l28 29z" />
    <glyph glyph-name="breve" unicode="&#x2d8;" 
d="M797 1516q0 -172 -74 -269.5t-211 -97.5q-138 0 -212.5 97.5t-74.5 269.5h47q11 -86 71.5 -138.5t168.5 -52.5q102 0 163.5 53t74.5 138h47z" />
    <glyph glyph-name="dotaccent" unicode="&#x2d9;" 
d="M655 1333q0 -61 -40.5 -102t-102.5 -41q-63 0 -104 40.5t-41 102.5t41 103t104 41q61 0 102 -41t41 -103z" />
    <glyph glyph-name="ring" unicode="&#x2da;" 
d="M766 1391q0 -106 -74 -180t-180 -74t-181 74t-75 180q0 107 75 181.5t181 74.5t180 -74.5t74 -181.5zM354 1391q0 -71 44 -117.5t114 -46.5q67 0 111.5 46.5t44.5 117.5q0 68 -44.5 116.5t-111.5 48.5q-69 0 -113.5 -48t-44.5 -117z" />
    <glyph glyph-name="ogonek" unicode="&#x2db;" 
d="M705 45l8 -12q-139 -83 -197.5 -159t-58.5 -167q0 -127 112 -127q56 0 111 58l35 -27q-104 -158 -244 -158q-88 0 -145.5 49.5t-57.5 137.5q0 114 120.5 224.5t316.5 180.5z" />
    <glyph glyph-name="tilde" unicode="&#x2dc;" 
d="M188 1194q31 139 84 207.5t121 68.5q54 0 137.5 -47t131.5 -47q79 0 129 123l43 -16q-58 -283 -203 -283q-51 0 -138 47t-135 47q-85 0 -131 -114z" />
    <glyph glyph-name="hungarumlaut" unicode="&#x2dd;" 
d="M549 1419q0 -54 -67.5 -119t-233.5 -165l-23 26l185 352l28 13q111 -22 111 -107zM903 1419q0 -55 -67.5 -118.5t-245.5 -165.5l-23 26l197 352l31 13q108 -22 108 -107z" />
    <glyph glyph-name="Delta" unicode="&#x394;" horiz-adv-x="1323" 
d="M31 0l-8 47l555 1346h149l573 -1344l-8 -49h-1261zM162 160h850l-434 1036z" />
    <glyph glyph-name="mu" unicode="&#x3bc;" horiz-adv-x="1280" 
d="M360 -289q0 -65 -30.5 -111t-91.5 -46q-54 0 -88.5 42.5t-34.5 114.5q0 48 19.5 124t39 185.5t19.5 237.5v721h206v-619q0 -115 51.5 -175t139.5 -60q133 0 217 94v760h207v-739q0 -66 17 -93.5t61 -27.5q31 0 56.5 14.5t55.5 50.5l29 -24q-44 -95 -102 -142t-138 -47
q-162 0 -182 189q-109 -189 -289 -189q-110 0 -176 62t-84 209h-22q0 -87 19 -170.5t41 -137t41 -114.5t19 -109z" />
    <glyph glyph-name="uni0400" unicode="&#x400;" horiz-adv-x="1263" 
d="M342 1827q0 41 32.5 72t88.5 43l29 -13l229 -360l-21 -25q-206 97 -282 156t-76 127zM1188 375q-61 -241 -74 -379q-621 15 -1014 0v63l74 13q20 3 32.5 7.5t22.5 17.5t14.5 28t8 48.5t4 69.5t0.5 99v707q0 63 -0.5 99t-4 69.5t-8 48.5t-14.5 28t-22.5 17.5t-32.5 7.5
l-74 12v66q386 -17 985 0q-5 -162 5 -383l-46 -10q-22 71 -37 112.5t-35 80t-38.5 56.5t-48.5 32t-64 18t-86 4h-254v-580l168 6q102 4 141.5 35t69.5 123l12 35h48q-16 -259 0 -463h-48l-12 35q-30 91 -70 122t-141 35l-168 7v-345q0 -141 44 -191t173 -50h82q60 0 101 11
t85 44.5t85.5 94.5t93.5 163z" />
    <glyph glyph-name="afii10023" unicode="&#x401;" horiz-adv-x="1263" 
d="M563 1741q0 -53 -37 -90t-92 -37q-58 0 -94.5 37t-36.5 90q0 55 36.5 91t94.5 36q54 0 91.5 -36.5t37.5 -90.5zM952 1741q0 -54 -36 -90.5t-95 -36.5q-54 0 -91.5 37t-37.5 90q0 54 37.5 90.5t91.5 36.5q58 0 94.5 -36t36.5 -91zM1188 375q-61 -241 -74 -379
q-621 15 -1014 0v63l74 13q20 3 32.5 7.5t22.5 17.5t14.5 28t8 48.5t4 69.5t0.5 99v707q0 63 -0.5 99t-4 69.5t-8 48.5t-14.5 28t-22.5 17.5t-32.5 7.5l-74 12v66q386 -17 985 0q-5 -162 5 -383l-46 -10q-22 71 -37 112.5t-35 80t-38.5 56.5t-48.5 32t-64 18t-86 4h-254
v-580l168 6q102 4 141.5 35t69.5 123l12 35h48q-16 -259 0 -463h-48l-12 35q-30 91 -70 122t-141 35l-168 7v-345q0 -141 44 -191t173 -50h82q60 0 101 11t85 44.5t85.5 94.5t93.5 163z" />
    <glyph glyph-name="afii10051" unicode="&#x402;" horiz-adv-x="1617" 
d="M1225 -215l-84 -53l-37 39l41 45q87 96 118 191t31 274v163q0 131 -63.5 193.5t-173.5 62.5q-163 0 -297 -90v-252q0 -70 0.5 -107t3.5 -74t7 -52.5t14 -29.5t21.5 -18t31.5 -7l75 -13v-61q-267 13 -534 0v61l74 13q21 3 33.5 7.5t22.5 18.5t14.5 29.5t7.5 52t3.5 73.5
t0.5 107v965h-99q-96 0 -168 -78.5t-139 -269.5l-51 10q30 256 35 412q475 -11 1071 0q3 -91 35 -387l-52 -11q-64 178 -137 251t-172 73h-98v-639q71 73 179 122.5t220 49.5q72 0 134 -20.5t114.5 -63.5t82.5 -119t30 -178v-178q0 -166 -75 -299t-220 -213z" />
    <glyph glyph-name="afii10052" unicode="&#x403;" horiz-adv-x="1167" 
d="M946 1827q0 -67 -76.5 -126t-283.5 -157l-21 25l230 360l28 13q56 -12 89.5 -43t33.5 -72zM100 59l74 13q20 3 32.5 7.5t22.5 18.5t14.5 30t8 51.5t4 74t0.5 106.5v689q0 63 -0.5 99t-4 69.5t-8 48.5t-14.5 28t-22.5 17.5t-32.5 7.5l-74 12v66q435 -14 973 0
q0 -167 19 -463l-52 -8q-44 158 -91 243.5t-97 114.5t-125 29h-246v-953q0 -70 0.5 -106.5t4.5 -73.5t9 -52t17.5 -29t27.5 -18.5t40 -8.5l79 -13v-63q-284 16 -559 0v63z" />
    <glyph glyph-name="afii10053" unicode="&#x404;" horiz-adv-x="1388" 
d="M1225 57q-145 -86 -371 -86q-156 0 -290.5 51t-233 145t-155 234.5t-56.5 311.5q0 206 84.5 367t240.5 251t359 90q230 0 385 -106q2 -144 31 -377l-54 -12l-45 92q-82 169 -175 238t-228 69q-160 0 -259.5 -132t-99.5 -359q0 -51 2 -74l297 4q98 1 137.5 32t61.5 119
l10 35h47q-16 -258 0 -461h-47l-10 33q-20 87 -61 119t-138 35l-288 4q34 -271 173.5 -445t323.5 -174q104 0 172 67.5t160 264.5l35 74l51 -14q-22 -111 -59 -396z" />
    <glyph glyph-name="afii10054" unicode="&#x405;" horiz-adv-x="1191" 
d="M612 53q119 0 193 63.5t74 162.5q0 60 -25 110t-68 85t-98.5 65.5t-116.5 57.5t-122 55t-116.5 63.5t-98.5 78t-68 103.5t-25 135q0 169 122.5 280t336.5 111q227 0 383 -116q-9 -136 -6 -320l-55 -12q-52 187 -133.5 276.5t-208.5 89.5q-107 0 -170.5 -62.5
t-63.5 -158.5q0 -57 25 -104t68 -80t98 -61.5t116 -54t122.5 -53t116.5 -64t98 -80t68 -107t25 -141.5q0 -182 -131.5 -293t-378.5 -111q-272 0 -423 115q8 119 4 371l55 12q80 -416 403 -416z" />
    <glyph glyph-name="afii10055" unicode="&#x406;" horiz-adv-x="737" 
d="M256 360v670q0 68 -0.5 106.5t-4 74.5t-8 52t-14.5 30t-22.5 18.5t-32.5 7.5l-74 12v66q267 -16 537 0v-66l-74 -12q-21 -3 -33.5 -7.5t-22.5 -19t-14.5 -29.5t-7.5 -52t-3.5 -74t-0.5 -107v-670q0 -70 0.5 -107t3.5 -73.5t7.5 -52t14.5 -29.5t22.5 -18.5t33.5 -7.5
l74 -13v-63q-270 16 -537 0v63l74 13q20 3 32.5 7.5t22.5 18.5t14.5 30t8 51.5t4 74t0.5 106.5z" />
    <glyph glyph-name="afii10056" unicode="&#x407;" horiz-adv-x="737" 
d="M305 1741q0 -53 -37 -90t-92 -37q-58 0 -94.5 37t-36.5 90q0 55 36.5 91t94.5 36q54 0 91.5 -36.5t37.5 -90.5zM694 1741q0 -54 -36 -90.5t-95 -36.5q-54 0 -91.5 37t-37.5 90q0 54 37.5 90.5t91.5 36.5q58 0 94.5 -36t36.5 -91zM256 360v670q0 68 -0.5 106.5t-4 74.5
t-8 52t-14.5 30t-22.5 18.5t-32.5 7.5l-74 12v66q267 -16 537 0v-66l-74 -12q-21 -3 -33.5 -7.5t-22.5 -19t-14.5 -29.5t-7.5 -52t-3.5 -74t-0.5 -107v-670q0 -70 0.5 -107t3.5 -73.5t7.5 -52t14.5 -29.5t22.5 -18.5t33.5 -7.5l74 -13v-63q-270 16 -537 0v63l74 13
q20 3 32.5 7.5t22.5 18.5t14.5 30t8 51.5t4 74t0.5 106.5z" />
    <glyph glyph-name="afii10057" unicode="&#x408;" horiz-adv-x="724" 
d="M258 1030q0 67 -1 106.5t-4 74.5t-8 52t-15 30t-22 18t-32 8l-74 12v66q267 -19 537 0v-66l-76 -12q-20 -3 -32 -8t-22 -18t-15 -30t-8 -52t-4 -74.5t-1 -106.5v-739q0 -227 -71 -348.5t-236 -153.5l-61 -12l-13 55l45 21q38 17 59 39.5t34 75t16.5 125t3.5 204.5v733z
" />
    <glyph glyph-name="afii10058" unicode="&#x409;" horiz-adv-x="2039" 
d="M897 74q43 7 60 28t23.5 74.5t6.5 181.5v940h-409l-21 -325q-35 -531 -113 -766.5t-237 -235.5q-76 0 -117 53t-43 146l27 25q50 -9 92 -9q58 0 97 17.5t75 69t59 146t41 247t29 374.5q7 146 -13.5 203t-78.5 68l-74 14v72q533 -14 1065 0v-66l-74 -16q-18 -4 -28 -9
t-20 -12t-15 -21.5t-9.5 -32t-6 -50t-2.5 -68t-1 -92.5v-233h197q269 0 412 -103.5t143 -285.5q0 -190 -164.5 -304.5t-451.5 -107.5q-368 9 -519 0v65zM1210 713v-365q0 -157 41 -214.5t160 -57.5q153 0 233 67t80 215q0 164 -121 259.5t-313 95.5h-80z" />
    <glyph glyph-name="afii10059" unicode="&#x40a;" horiz-adv-x="2195" 
d="M2118 408q0 -190 -165 -304.5t-452 -107.5q-367 9 -516 0v65l70 13q42 7 58.5 28t23 74.5t6.5 181.5v344h-662v-342q0 -70 0.5 -107t3.5 -73.5t7.5 -52t14.5 -29.5t22.5 -18.5t33.5 -7.5l74 -13v-63q-267 16 -537 0v63l74 13q20 3 32.5 7.5t22.5 18.5t14.5 30t8 51.5
t4 74t0.5 106.5v670q0 68 -0.5 106.5t-4 74.5t-8 52t-14.5 30t-22.5 18.5t-32.5 7.5l-74 12v66q268 -16 537 0v-66l-74 -12q-21 -3 -33.5 -7.5t-22.5 -19t-14.5 -29.5t-7.5 -52t-3.5 -74t-0.5 -107v-242h662v242q0 68 -0.5 106.5t-4 74.5t-8 52t-14.5 30t-22.5 18.5
t-32.5 7.5l-76 12v66q270 -16 537 0v-66l-74 -12q-20 -3 -32.5 -7.5t-22.5 -18.5t-14.5 -30t-8 -52t-4 -74.5t-0.5 -106.5v-242h197q269 0 412 -101.5t143 -278.5zM1366 705v-357q0 -157 41 -214.5t160 -57.5q153 0 233 67t80 215q0 161 -120.5 254t-313.5 93h-80z" />
    <glyph glyph-name="afii10060" unicode="&#x40b;" horiz-adv-x="1726" 
d="M1645 59v-63q-189 10 -377 0v489q0 111 -58.5 165.5t-152.5 54.5q-164 0 -297 -89v-258q0 -70 0.5 -107t3.5 -73.5t7 -52t14 -29.5t21.5 -18.5t31.5 -7.5l71 -13v-61q-265 13 -530 0v61l74 13q21 3 33.5 7.5t22.5 18.5t14.5 29.5t7.5 52t3.5 73.5t0.5 107v965h-99
q-96 0 -168 -78.5t-139 -269.5l-51 10q30 256 35 412q475 -11 1071 0q3 -91 35 -387l-52 -11q-64 178 -137 251t-172 73h-98v-631q73 69 181.5 116.5t217.5 47.5q65 0 122 -18t105.5 -55.5t76.5 -104.5t28 -156v-162v-70t1 -56.5t2 -46t3.5 -35.5t5 -28t8 -19t10.5 -14.5
t13.5 -9t17 -6t21.5 -3.5z" />
    <glyph glyph-name="afii10061" unicode="&#x40c;" horiz-adv-x="1447" 
d="M1059 1827q0 -67 -77 -126t-284 -157l-20 25l229 360l29 13q56 -12 89.5 -43t33.5 -72zM481 1030v-676q0 -69 0.5 -105t3.5 -72t7.5 -51t14.5 -28.5t22.5 -18t33.5 -7.5l74 -13v-63q-268 17 -537 0v63l74 13q21 3 33 7.5t22 18t14.5 29t8 50.5t4 72.5t0.5 104.5v676
q0 68 -0.5 106.5t-4 74.5t-8 52t-14.5 30t-22.5 18.5t-32.5 7.5l-74 12v66q268 -17 537 0v-66l-74 -12q-21 -3 -33.5 -7.5t-22.5 -19t-14.5 -29.5t-7.5 -52t-3.5 -74t-0.5 -107zM1450 59v-63q-172 13 -356 0l-580 717l369 393q40 42 63 77.5t29 60t-0.5 42.5t-22 28.5
t-39.5 14.5l-43 8v60q245 -17 508 0v-60l-43 -8q-69 -13 -157 -75t-238 -210l-227 -231l438 -530q106 -127 157 -169t99 -48z" />
    <glyph glyph-name="uni040D" unicode="&#x40d;" horiz-adv-x="1644" 
d="M553 1827q0 41 32.5 72t88.5 43l28 -13l230 -360l-21 -25q-206 97 -282 156t-76 127zM1542 59v-63q-265 16 -536 0v63l75 13q20 3 32.5 7.5t22.5 18.5t14.5 30t8 51.5t4 74t0.5 106.5v721l-680 -882q4 -73 20.5 -97t59.5 -30l74 -13v-63q-267 16 -537 0v63l74 13
q20 3 32.5 7.5t22.5 18.5t14.5 30t8 51.5t4 74t0.5 106.5v670q0 68 -0.5 106.5t-4 74.5t-8 52t-14.5 30t-22.5 18.5t-32.5 7.5l-74 12v66q268 -16 537 0v-66l-74 -12q-21 -3 -33.5 -7.5t-22.5 -19t-14.5 -29.5t-7.5 -52t-3.5 -74t-0.5 -107v-698l678 878q-6 61 -22 82
t-56 27l-75 12v66q271 -16 536 0v-66l-74 -12q-20 -3 -32.5 -7.5t-22.5 -18.5t-14.5 -30t-8 -52t-4 -74.5t-0.5 -106.5v-670q0 -68 0.5 -106.5t4 -74t8 -51.5t14.5 -30t22.5 -18.5t32.5 -7.5z" />
    <glyph glyph-name="afii10062" unicode="&#x40e;" horiz-adv-x="1357" 
d="M551 1855l33 -18q-33 -217 145 -217t145 217l33 18q81 0 122.5 -30t41.5 -84q0 -53 -49 -97t-127.5 -68t-165.5 -24t-165.5 24t-127.5 68t-49 97q0 54 41.5 84t122.5 30zM813 444q-115 -267 -203 -370t-198 -103q-77 0 -121 60t-39 151l35 23q82 -28 151 -25
q84 0 147.5 45.5t116.5 147.5h-84l-376 766q-46 92 -76.5 125t-79.5 49l-59 18v66q249 -15 526 0v-66l-47 -10q-96 -18 -19 -174l287 -600l209 528q27 69 33.5 117t-6 73.5t-30 37t-44.5 16.5l-57 12v66q226 -17 452 0v-66l-37 -10q-50 -16 -79 -38.5t-63.5 -79
t-84.5 -171.5z" />
    <glyph glyph-name="afii10145" unicode="&#x40f;" horiz-adv-x="1570" 
d="M817 -342l-6 -43h-53l-6 43q-12 79 -21 126.5t-24.5 90t-33.5 63.5t-48.5 37t-67.5 20.5t-94 4.5q-252 0 -365 -4v61l74 13q21 3 33 7.5t22 17.5t14.5 29t8 51.5t4 74.5t0.5 108v672q0 69 -0.5 108t-4 75t-8 51.5t-14.5 29t-22 18t-33 7.5l-74 12v66q269 -16 537 0v-66
l-76 -12q-21 -3 -33 -7.5t-22 -18t-14.5 -29t-8 -51.5t-4 -75t-0.5 -108v-938h615v938q0 69 -0.5 108t-4 75t-8 51.5t-14.5 29t-22 18t-33 7.5l-74 12v66q267 -16 537 0v-66l-74 -12q-21 -3 -33 -7.5t-22 -18t-14.5 -29t-8 -51.5t-4 -75t-0.5 -108v-672q0 -69 0.5 -108
t4 -74.5t8 -51.5t14.5 -29t22 -17.5t33 -7.5l74 -13v-61q-115 4 -379 4q-54 0 -90 -4.5t-65 -21t-46 -37t-31.5 -64t-23.5 -89.5t-21 -126z" />
    <glyph glyph-name="afii10017" unicode="&#x410;" horiz-adv-x="1419" 
d="M1393 59v-63q-284 9 -543 0v63l47 11q33 7 48.5 12.5t30.5 17t16 30.5t-4.5 49.5t-22.5 76.5l-68 197h-491l-64 -193q-28 -97 -7.5 -134.5t101.5 -55.5l43 -11v-63q-213 13 -452 0v63l39 11q41 11 68 28.5t57 62t57 120.5l180 497q67 186 94 277t27 135q0 32 -13 49
t-42 25l-54 14v55q85 3 170 26.5t140 57.5h30l426 -1149q30 -82 52.5 -122.5t42 -54.5t51.5 -21zM432 537h434l-223 645z" />
    <glyph glyph-name="afii10018" unicode="&#x411;" horiz-adv-x="1327" 
d="M715 1313h-234v-525h189q238 0 385 -105t147 -282q0 -189 -157 -297t-433 -108q-52 0 -165 2t-201 2t-146 -4v63l70 15q21 4 33.5 8.5t23 18t15.5 30t8.5 51t4.5 74t1 106.5v691q0 62 -0.5 97.5t-4 68.5t-8 47.5t-14.5 27.5t-22.5 17.5t-32.5 7.5l-74 12v66
q433 -14 981 0q3 -234 17 -447l-51 -8l-17 53q-31 99 -61.5 160.5t-69 96.5t-80.5 48t-104 13zM963 356q0 164 -101 255.5t-266 93.5h-115v-367q0 -65 4 -106t15.5 -74.5t33.5 -50.5t56 -26t86 -9q138 0 212.5 73t74.5 211z" />
    <glyph glyph-name="afii10019" unicode="&#x412;" horiz-adv-x="1339" 
d="M1190 410q0 -189 -158.5 -301.5t-449.5 -112.5q-51 0 -150 2t-180.5 2t-151.5 -4v63l74 15q21 3 33 7.5t22 18t14.5 29t8 50.5t4 72.5t0.5 104.5v678q0 67 -0.5 105t-4 73t-8 51t-14.5 30t-22.5 18.5t-32.5 7.5l-74 12v66q68 -4 138.5 -4t157.5 2t139 2q125 0 224 -17.5
t178 -55t122 -103.5t43 -156q0 -238 -297 -313q189 -26 287 -115.5t98 -226.5zM565 766q138 0 221.5 71.5t83.5 204.5q0 136 -99 204.5t-290 68.5v-549h84zM647 74q147 0 226 80.5t79 230.5q0 144 -102.5 224.5t-271.5 80.5h-97v-426q0 -111 35.5 -150.5t130.5 -39.5z" />
    <glyph glyph-name="afii10020" unicode="&#x413;" horiz-adv-x="1171" 
d="M100 59l74 13q20 3 32.5 7.5t22.5 18.5t14.5 30t8 51.5t4 74t0.5 106.5v689q0 63 -0.5 99t-4 69.5t-8 48.5t-14.5 28t-22.5 17.5t-32.5 7.5l-74 12v66q435 -14 973 0q0 -167 19 -463l-52 -8q-44 158 -91 243.5t-97 114.5t-125 29h-246v-953q0 -70 0.5 -106.5t4.5 -73.5
t9 -52t17.5 -29t27.5 -18.5t40 -8.5l79 -13v-63q-284 16 -559 0v63z" />
    <glyph glyph-name="afii10021" unicode="&#x414;" horiz-adv-x="1447" 
d="M1393 -379l-58 -8l-12 53q-37 177 -106.5 255.5t-178.5 78.5h-624q-111 0 -183.5 -78.5t-111.5 -255.5l-13 -53l-59 8q22 239 16 465h154q97 223 134 429.5t50 522.5q5 162 -11 214.5t-81 64.5l-76 14v66q546 -16 1092 0v-66l-74 -12q-21 -3 -33.5 -7.5t-22.5 -19
t-14.5 -29.5t-7.5 -52t-3.5 -74t-0.5 -107v-944h209q-3 -263 15 -465zM504 1008q-9 -273 -47.5 -490t-120.5 -432h608v1214h-430z" />
    <glyph glyph-name="afii10022" unicode="&#x415;" horiz-adv-x="1263" 
d="M1188 375q-61 -241 -74 -379q-621 15 -1014 0v63l74 13q20 3 32.5 7.5t22.5 17.5t14.5 28t8 48.5t4 69.5t0.5 99v707q0 63 -0.5 99t-4 69.5t-8 48.5t-14.5 28t-22.5 17.5t-32.5 7.5l-74 12v66q386 -17 985 0q-5 -162 5 -383l-46 -10q-22 71 -37 112.5t-35 80t-38.5 56.5
t-48.5 32t-64 18t-86 4h-254v-580l168 6q102 4 141.5 35t69.5 123l12 35h48q-16 -259 0 -463h-48l-12 35q-30 91 -70 122t-141 35l-168 7v-345q0 -141 44 -191t173 -50h82q60 0 101 11t85 44.5t85.5 94.5t93.5 163z" />
    <glyph glyph-name="afii10024" unicode="&#x416;" horiz-adv-x="2076" 
d="M2046 59v-63q-165 13 -326 0l-512 713l316 397q59 74 76.5 122t3 69t-53.5 30l-45 10v60q259 -18 518 0v-60l-43 -12q-35 -9 -48 -13t-46.5 -15.5t-52.5 -23t-52.5 -33t-61 -47t-63.5 -64t-73 -85.5l-178 -231l338 -477q78 -107 133.5 -167t80.5 -76t54 -23zM868 709
l-514 -713q-160 13 -323 0v63l35 11q29 7 54 22.5t80.5 76t133.5 167.5l338 477l-180 231q-37 47 -73 85.5t-63.5 64t-60.5 47t-52.5 33t-52.5 23t-46.5 15.5t-47.5 13l-43 12v60q259 -18 518 0v-60l-47 -10q-28 -6 -42.5 -20t-16 -38.5t19.5 -65.5t66 -97zM926 354v676
q0 68 -0.5 106.5t-4 74.5t-8 52t-14.5 30t-22.5 18.5t-32.5 7.5l-74 12v66q267 -17 537 0v-66l-76 -12q-20 -3 -32.5 -7.5t-22 -19t-14 -29.5t-7.5 -52t-3.5 -74t-0.5 -107v-676v-81.5t1.5 -62.5t3.5 -48.5t6.5 -34t9.5 -25t14.5 -15t19.5 -10.5t25 -5l76 -13v-63
q-269 17 -537 0v63l74 13q21 3 33 7.5t22 18t14.5 29t8 50.5t4 72.5t0.5 104.5z" />
    <glyph glyph-name="afii10025" unicode="&#x417;" horiz-adv-x="1189" 
d="M563 61q122 0 203.5 77t81.5 206q0 70 -21 128t-65.5 105t-122.5 73t-184 26h-99v90h103q151 0 237 74.5t86 210.5q0 122 -63 201t-172 79q-112 0 -189 -72.5t-129 -218.5l-28 -79l-60 14q44 298 49 354q189 92 375 92q131 0 232 -35.5t162 -111.5t61 -184
q0 -141 -96.5 -236.5t-257.5 -122.5q186 -14 301.5 -107t115.5 -247q0 -98 -48.5 -178t-127 -128.5t-171.5 -74t-189 -25.5q-235 0 -414 95q3 177 -18 358l57 12l21 -61q60 -169 152.5 -241.5t217.5 -72.5z" />
    <glyph glyph-name="afii10026" unicode="&#x418;" horiz-adv-x="1644" 
d="M1542 59v-63q-265 16 -536 0v63l75 13q20 3 32.5 7.5t22.5 18.5t14.5 30t8 51.5t4 74t0.5 106.5v721l-680 -882q4 -73 20.5 -97t59.5 -30l74 -13v-63q-267 16 -537 0v63l74 13q20 3 32.5 7.5t22.5 18.5t14.5 30t8 51.5t4 74t0.5 106.5v670q0 68 -0.5 106.5t-4 74.5t-8 52
t-14.5 30t-22.5 18.5t-32.5 7.5l-74 12v66q268 -16 537 0v-66l-74 -12q-21 -3 -33.5 -7.5t-22.5 -19t-14.5 -29.5t-7.5 -52t-3.5 -74t-0.5 -107v-698l678 878q-6 61 -22 82t-56 27l-75 12v66q271 -16 536 0v-66l-74 -12q-20 -3 -32.5 -7.5t-22.5 -18.5t-14.5 -30t-8 -52
t-4 -74.5t-0.5 -106.5v-670q0 -68 0.5 -106.5t4 -74t8 -51.5t14.5 -30t22.5 -18.5t32.5 -7.5z" />
    <glyph glyph-name="afii10027" unicode="&#x419;" horiz-adv-x="1644" 
d="M614 1849l33 -16q-4 -112 39 -163.5t139 -51.5t139.5 51.5t39.5 163.5l32 16q79 0 119.5 -26t40.5 -72q0 -55 -53.5 -100.5t-138.5 -71t-179 -25.5t-178.5 25.5t-138 71t-53.5 100.5q0 46 40 72t119 26zM1542 59v-63q-265 16 -536 0v63l75 13q20 3 32.5 7.5t22.5 18.5
t14.5 30t8 51.5t4 74t0.5 106.5v721l-680 -882q4 -73 20.5 -97t59.5 -30l74 -13v-63q-267 16 -537 0v63l74 13q20 3 32.5 7.5t22.5 18.5t14.5 30t8 51.5t4 74t0.5 106.5v670q0 68 -0.5 106.5t-4 74.5t-8 52t-14.5 30t-22.5 18.5t-32.5 7.5l-74 12v66q268 -16 537 0v-66
l-74 -12q-21 -3 -33.5 -7.5t-22.5 -19t-14.5 -29.5t-7.5 -52t-3.5 -74t-0.5 -107v-698l678 878q-6 61 -22 82t-56 27l-75 12v66q271 -16 536 0v-66l-74 -12q-20 -3 -32.5 -7.5t-22.5 -18.5t-14.5 -30t-8 -52t-4 -74.5t-0.5 -106.5v-670q0 -68 0.5 -106.5t4 -74t8 -51.5
t14.5 -30t22.5 -18.5t32.5 -7.5z" />
    <glyph glyph-name="afii10028" unicode="&#x41a;" horiz-adv-x="1447" 
d="M481 1030v-676q0 -69 0.5 -105t3.5 -72t7.5 -51t14.5 -28.5t22.5 -18t33.5 -7.5l74 -13v-63q-268 17 -537 0v63l74 13q21 3 33 7.5t22 18t14.5 29t8 50.5t4 72.5t0.5 104.5v676q0 68 -0.5 106.5t-4 74.5t-8 52t-14.5 30t-22.5 18.5t-32.5 7.5l-74 12v66q268 -17 537 0
v-66l-74 -12q-21 -3 -33.5 -7.5t-22.5 -19t-14.5 -29.5t-7.5 -52t-3.5 -74t-0.5 -107zM1450 59v-63q-172 13 -356 0l-580 717l369 393q40 42 63 77.5t29 60t-0.5 42.5t-22 28.5t-39.5 14.5l-43 8v60q245 -17 508 0v-60l-43 -8q-69 -13 -157 -75t-238 -210l-227 -231
l438 -530q106 -127 157 -169t99 -48z" />
    <glyph glyph-name="afii10029" unicode="&#x41b;" horiz-adv-x="1464" 
d="M1208 360q0 -68 0.5 -106t4 -72.5t8 -49.5t15 -28.5t22 -18t32.5 -9.5l74 -17v-63q-267 16 -537 0v63l74 17q21 5 32.5 9.5t22 18t15 28.5t8 49.5t4 72.5t0.5 106v938h-408l-20 -325q-35 -531 -113 -766.5t-237 -235.5q-76 0 -117 53t-43 146l27 25q47 -9 88 -9
q49 0 83.5 11.5t68 44t56 91t42 153.5t33 231t22.5 323q7 146 -13.5 203t-78.5 68l-76 14v72q485 -16 1067 0v-66l-74 -16q-21 -5 -32.5 -9.5t-22 -18t-15 -29t-8 -50.5t-4 -73.5t-0.5 -106.5v-668z" />
    <glyph glyph-name="afii10030" unicode="&#x41c;" horiz-adv-x="1906" 
d="M1804 59v-63q-266 17 -528 0v63l67 13q42 7 59 28.5t23.5 76t6.5 183.5v797l-469 -1053q-62 3 -121 0l-500 1039l10 -840q1 -88 13 -133.5t35 -65t73 -32.5l45 -13v-63q-218 14 -426 0v63l53 15q42 10 63 27t34.5 66.5t13.5 141.5v805q0 89 -19 133.5t-85 65.5l-54 18v66
q166 -17 371 0l508 -1061l463 1061q176 -18 364 0v-66l-75 -12q-20 -3 -32.5 -7.5t-22 -19t-14 -30t-7.5 -52t-3.5 -73t-0.5 -105.5v-672q0 -79 2 -124t6 -79t15 -49.5t24.5 -23t38.5 -12.5z" />
    <glyph glyph-name="afii10031" unicode="&#x41d;" horiz-adv-x="1624" 
d="M1522 59v-63q-265 16 -537 0v63l76 13q20 3 32.5 7.5t22.5 18.5t14.5 30t8 51.5t4 74t0.5 106.5v326h-662v-326q0 -70 0.5 -107t3.5 -73.5t7.5 -52t14.5 -29.5t22.5 -18.5t33.5 -7.5l74 -13v-63q-267 16 -537 0v63l74 13q20 3 32.5 7.5t22.5 18.5t14.5 30t8 51.5t4 74
t0.5 106.5v670q0 68 -0.5 106.5t-4 74.5t-8 52t-14.5 30t-22.5 18.5t-32.5 7.5l-74 12v66q268 -16 537 0v-66l-74 -12q-21 -3 -33.5 -7.5t-22.5 -19t-14.5 -29.5t-7.5 -52t-3.5 -74t-0.5 -107v-256h662v256q0 68 -0.5 106.5t-4 74.5t-8 52t-14.5 30t-22.5 18.5t-32.5 7.5
l-76 12v66q272 -16 537 0v-66l-74 -12q-20 -3 -32.5 -7.5t-22.5 -18.5t-14.5 -30t-8 -52t-4 -74.5t-0.5 -106.5v-670q0 -68 0.5 -106.5t4 -74t8 -51.5t14.5 -30t22.5 -18.5t32.5 -7.5z" />
    <glyph glyph-name="afii10032" unicode="&#x41e;" horiz-adv-x="1615" 
d="M809 1421q137 0 262 -53t219 -146.5t149.5 -231.5t55.5 -298q0 -158 -53 -293.5t-144.5 -229t-219 -146t-273.5 -52.5q-109 0 -212 33t-188.5 97t-149.5 151.5t-100 203t-36 244.5q0 158 53 293.5t144.5 229t219 146t273.5 52.5zM1255 594q0 324 -148 529.5t-364 205.5
q-174 0 -279.5 -142t-105.5 -388q0 -162 40.5 -301t109.5 -234t163 -149t199 -54q174 0 279.5 143t105.5 390z" />
    <glyph glyph-name="afii10033" unicode="&#x41f;" horiz-adv-x="1603" 
d="M256 360v670q0 67 -0.5 105t-4 73t-8 50.5t-14.5 29.5t-22.5 18.5t-32.5 8.5l-74 16v66q703 -15 1403 0v-66l-73 -16q-21 -4 -33 -9t-22.5 -18t-15.5 -29.5t-8 -50.5t-4 -72.5t-1 -103.5v-672q0 -69 0.5 -106.5t3.5 -74t7.5 -52t14.5 -29.5t22.5 -18.5t32.5 -7.5l76 -13
v-63q-268 16 -536 0v63l73 13q20 3 32.5 7.5t22.5 18.5t14.5 30t8 51.5t4 74t0.5 106.5v940h-641v-940q0 -68 0.5 -106.5t4 -74t8 -51.5t14.5 -30t22.5 -18.5t32.5 -7.5l74 -13v-63q-267 16 -537 0v63l74 13q21 3 33.5 7.5t22.5 18.5t14.5 29.5t7.5 52t3.5 73.5t0.5 107z
" />
    <glyph glyph-name="afii10034" unicode="&#x420;" horiz-adv-x="1259" 
d="M100 -4v63l74 13q21 3 33.5 7.5t22.5 19t14.5 29.5t7.5 51.5t3.5 72.5t0.5 104v674q0 70 -0.5 107t-3.5 74t-7.5 52t-14.5 29.5t-22.5 19t-33.5 7.5l-74 12v66q81 -5 156 -5t154.5 2.5t121.5 2.5q291 0 450 -100t159 -306q0 -215 -168 -333.5t-492 -118.5v-183
q0 -69 0.5 -105t4 -72.5t8 -51t16 -28.5t25 -18.5t36.5 -8.5l93 -13v-63q-298 18 -564 0zM481 1315v-694q216 1 321 86t105 256q0 174 -105 261.5t-321 90.5z" />
    <glyph glyph-name="afii10035" unicode="&#x421;" horiz-adv-x="1390" 
d="M717 1325q-160 0 -259.5 -132t-99.5 -359q0 -215 68.5 -393t185 -279t254.5 -101q104 0 172 67.5t160 264.5l35 74l51 -14q-22 -111 -59 -396q-145 -86 -371 -86q-156 0 -290.5 51t-233 145t-155 234.5t-56.5 311.5q0 206 84.5 367t240.5 251t359 90q230 0 385 -106
q2 -144 31 -377l-54 -12l-45 92q-82 169 -175 238t-228 69z" />
    <glyph glyph-name="afii10036" unicode="&#x422;" horiz-adv-x="1374" 
d="M573 360v963h-139q-83 0 -144 -68t-122 -231l-37 -98l-53 8q29 252 35 463q355 -7 573 -7t576 7q5 -208 32 -463l-51 -8l-37 98q-61 163 -125 231t-145 68h-137v-963q0 -70 0.5 -107t3.5 -73.5t7.5 -52t14.5 -29.5t22.5 -18.5t33.5 -7.5l75 -13v-63q-270 16 -540 0v63
l76 13q57 9 69 54t12 234z" />
    <glyph glyph-name="afii10037" unicode="&#x423;" horiz-adv-x="1357" 
d="M813 444q-115 -267 -203 -370t-198 -103q-77 0 -121 60t-39 151l35 23q82 -28 151 -25q84 0 147.5 45.5t116.5 147.5h-84l-376 766q-46 92 -76.5 125t-79.5 49l-59 18v66q249 -15 526 0v-66l-47 -10q-96 -18 -19 -174l287 -600l209 528q27 69 33.5 117t-6 73.5t-30 37
t-44.5 16.5l-57 12v66q226 -17 452 0v-66l-37 -10q-50 -16 -79 -38.5t-63.5 -79t-84.5 -171.5z" />
    <glyph glyph-name="afii10038" unicode="&#x424;" horiz-adv-x="1773" 
d="M1153 59v-63q-238 15 -535 0v63l74 13q45 8 61 34.5t19 112.5q-319 5 -498.5 135t-179.5 361q0 236 183 383t495 153q-4 76 -20.5 101.5t-59.5 31.5l-74 13v65q267 -17 535 0v-65l-74 -13q-44 -6 -60 -31.5t-20 -101.5q319 -5 498.5 -135t179.5 -360q0 -234 -184 -382.5
t-494 -154.5q3 -86 18.5 -112.5t61.5 -34.5zM330 756q0 -125 60.5 -231t162 -168.5t221.5 -69.5v899q-135 -5 -237.5 -65.5t-154.5 -155.5t-52 -209zM997 1186v-901q189 8 317 126t128 300q0 121 -52.5 226t-155.5 173.5t-237 75.5z" />
    <glyph glyph-name="afii10039" unicode="&#x425;" horiz-adv-x="1454" 
d="M1419 59v-63q-269 13 -542 0v63l61 7q26 3 36.5 21t-1.5 60t-53 103l-250 366l-230 -356q-29 -44 -40 -80.5t-4.5 -59.5t24 -36.5t43.5 -17.5l53 -7v-63q-100 6 -242.5 6t-240.5 -6v63l51 11q55 12 112.5 57t135.5 152l293 403l-301 442q-82 121 -113 154t-64 41l-67 12
v66q275 -17 543 0v-66l-66 -8q-28 -5 -39.5 -19t-1 -52.5t52.5 -100.5l217 -317l195 296q110 170 -20 193l-56 8v66q100 -6 243 -6t241 6v-66l-52 -10q-54 -11 -114 -58t-140 -151l-256 -340l357 -520q74 -111 104.5 -142.5t63.5 -37.5z" />
    <glyph glyph-name="afii10040" unicode="&#x426;" horiz-adv-x="1597" 
d="M1321 1030v-940h231q-7 -184 15 -469l-58 -8l-12 53q-37 177 -106.5 255.5t-178.5 78.5h-720q-310 0 -392 -4v63l74 13q31 6 45.5 15.5t24.5 43t12 81.5t2 148v670q0 68 -0.5 106.5t-4 74.5t-8 52t-14.5 30t-22.5 18.5t-32.5 7.5l-74 12v66q269 -16 537 0v-66l-76 -12
q-20 -3 -32.5 -7.5t-22.5 -18.5t-14.5 -30t-8 -52t-4 -74.5t-0.5 -106.5v-940h617v940q0 68 -0.5 106.5t-4 74.5t-8 52t-14.5 30t-22.5 18.5t-32.5 7.5l-74 12v66q269 -16 537 0v-66l-76 -12q-20 -3 -32.5 -7.5t-22.5 -18.5t-14.5 -30t-8 -52t-4 -74.5t-0.5 -106.5z" />
    <glyph glyph-name="afii10041" unicode="&#x427;" horiz-adv-x="1521" 
d="M1415 59v-63q-270 16 -536 0v63l73 13q20 3 32.5 7.5t22.5 18.5t14.5 30t8 51.5t4 74t0.5 106.5v271q-70 -38 -165 -64t-189 -26q-100 0 -176.5 20t-138 66t-94.5 129t-33 200v93q0 67 -0.5 103.5t-5 70t-9 47t-17.5 25.5t-26 15.5t-39 8.5l-59 12v66q265 -16 536 0v-66
l-59 -12q-26 -5 -38.5 -8t-26 -15.5t-18 -25.5t-8.5 -46.5t-4.5 -70t-0.5 -104.5v-91q0 -172 65 -239.5t217 -67.5q72 0 151 17.5t138 50.5v311q0 68 -0.5 106.5t-4 74.5t-8 52t-14.5 30t-22.5 18.5t-32.5 7.5l-73 12v66q266 -16 536 0v-66l-74 -12q-57 -9 -69 -54.5
t-12 -234.5v-670q0 -189 12 -234t69 -54z" />
    <glyph glyph-name="afii10042" unicode="&#x428;" horiz-adv-x="2168" 
d="M1907 1030v-672q0 -68 0.5 -106.5t4 -74t8 -51t14.5 -29t22 -18t33 -7.5l75 -15v-61q-115 4 -364 4h-1233q-250 0 -363 -4v61l74 15q21 3 33 7.5t22 18t14.5 29t8 51t4 74t0.5 106.5v672q0 68 -0.5 106.5t-4 74.5t-8 52t-14.5 30t-22.5 18.5t-32.5 7.5l-74 12v66
q270 -16 537 0v-66l-74 -12q-20 -3 -32.5 -7.5t-22.5 -18.5t-14.5 -30t-8 -52t-4 -74.5t-0.5 -106.5v-940h488v940q0 68 -0.5 106.5t-4 74.5t-8 52t-14.5 30t-22.5 18.5t-32.5 7.5l-76 12v66q272 -16 537 0v-66l-74 -12q-20 -3 -32.5 -7.5t-22.5 -18.5t-14.5 -30t-8 -52
t-4 -74.5t-0.5 -106.5v-940h487v940q0 69 -0.5 107t-3.5 74t-7.5 52t-14.5 30t-22.5 18.5t-32.5 7.5l-74 12v66q265 -16 536 0v-66l-75 -12q-20 -3 -32.5 -7.5t-22.5 -18.5t-14.5 -30t-8 -52t-4 -74.5t-0.5 -106.5z" />
    <glyph glyph-name="afii10043" unicode="&#x429;" horiz-adv-x="2183" 
d="M1808 0h-1341q-250 0 -363 -4v61l74 15q21 3 33 7.5t22 18t14.5 29t8 51t4 74t0.5 106.5v672q0 68 -0.5 106.5t-4 74.5t-8 52t-14.5 30t-22.5 18.5t-32.5 7.5l-74 12v66q270 -16 537 0v-66l-74 -12q-20 -3 -32.5 -7.5t-22.5 -18.5t-14.5 -30t-8 -52t-4 -74.5t-0.5 -106.5
v-940h488v940q0 68 -0.5 106.5t-4 74.5t-8 52t-14.5 30t-22.5 18.5t-32.5 7.5l-76 12v66q272 -16 537 0v-66l-74 -12q-20 -3 -32.5 -7.5t-22.5 -18.5t-14.5 -30t-8 -52t-4 -74.5t-0.5 -106.5v-940h487v940q0 69 -0.5 107t-3.5 74t-7.5 52t-14.5 30t-22.5 18.5t-32.5 7.5
l-74 12v66q268 -16 536 0v-66l-75 -12q-20 -3 -32.5 -7.5t-22.5 -18.5t-14.5 -30t-8 -52t-4 -74.5t-0.5 -106.5v-940h231q-7 -191 14 -469l-57 -8l-12 53q-38 178 -103 256t-172 78z" />
    <glyph glyph-name="afii10044" unicode="&#x42a;" horiz-adv-x="1587" 
d="M842 1319q-25 -4 -39 -12t-24 -22t-14 -49.5t-5.5 -78t-1.5 -123.5v-237h194q269 0 413 -103.5t144 -285.5q0 -190 -164.5 -304.5t-453.5 -107.5q-354 9 -516 0v65l69 13q43 7 59.5 28.5t22.5 73.5t6 182v963h-98q-99 0 -172.5 -90t-134.5 -303l-51 10q30 253 35 461
q412 -15 804 -2v-66zM758 713v-365q0 -157 41 -214.5t159 -57.5q153 0 233.5 67t80.5 215q0 164 -121.5 259.5t-314.5 95.5h-78z" />
    <glyph glyph-name="afii10045" unicode="&#x42b;" horiz-adv-x="1970" 
d="M1487 362v670q0 68 -0.5 106.5t-4 74.5t-8 52t-14.5 30t-22.5 18.5t-32.5 7.5l-74 12v66q267 -16 537 0v-66l-74 -12q-21 -3 -33.5 -7.5t-22.5 -19t-14.5 -29.5t-7.5 -52t-3.5 -74t-0.5 -107v-670q0 -70 0.5 -107t3.5 -73.5t7.5 -52t14.5 -29.5t22.5 -18.5t33.5 -7.5
l74 -13v-63q-270 16 -537 0v63l74 13q20 3 32.5 7.5t22.5 18.5t14.5 30t8 51.5t4 74t0.5 106.5zM483 1030v-233h195q269 0 413 -103.5t144 -285.5q0 -190 -165 -304.5t-454 -107.5q-332 8 -514 0v65l70 13q25 5 39 12.5t24.5 22t15 49t6 77.5t1.5 123v672q0 68 -0.5 106.5
t-4 74.5t-8 52t-14.5 30t-22.5 18.5t-32.5 7.5l-74 12v66q267 -16 537 0v-66l-74 -12q-21 -3 -33.5 -7.5t-22.5 -19t-14.5 -29.5t-7.5 -52t-3.5 -74t-0.5 -107zM483 713v-365q0 -157 41 -214.5t160 -57.5q153 0 233 67t80 215q0 164 -121.5 259.5t-314.5 95.5h-78z" />
    <glyph glyph-name="afii10046" unicode="&#x42c;" horiz-adv-x="1310" 
d="M481 1030v-233h195q269 0 413 -103.5t144 -285.5q0 -190 -165 -304.5t-454 -107.5q-332 8 -514 0v65l70 13q25 5 39 12.5t24.5 22t15 49t6 77.5t1.5 123v672q0 68 -0.5 106.5t-4 74.5t-8 52t-14.5 30t-22.5 18.5t-32.5 7.5l-74 12v66q267 -16 537 0v-66l-74 -12
q-21 -3 -33.5 -7.5t-22.5 -19t-14.5 -29.5t-7.5 -52t-3.5 -74t-0.5 -107zM481 713v-365q0 -157 41 -214.5t160 -57.5q153 0 233 67t80 215q0 164 -121.5 259.5t-314.5 95.5h-78z" />
    <glyph glyph-name="afii10047" unicode="&#x42d;" horiz-adv-x="1368" 
d="M1249 698q0 -208 -84.5 -372.5t-246 -259.5t-373.5 -95q-240 0 -395 88q3 172 -19 361l57 12l17 -39q74 -188 162 -261t211 -73q185 0 306.5 154.5t121.5 415.5q0 35 -2 53l-310 -6q-97 -1 -136.5 -32.5t-61.5 -119.5l-9 -35h-47q16 205 0 461h47l9 -32q22 -89 61.5 -120
t136.5 -34l305 -6q-28 256 -151.5 412.5t-304.5 156.5q-111 0 -191 -77.5t-145 -252.5l-19 -47l-57 17q37 282 45 370q182 84 385 84q150 0 276.5 -50.5t218 -142.5t142.5 -228t51 -302z" />
    <glyph glyph-name="afii10048" unicode="&#x42e;" horiz-adv-x="2238" 
d="M2118 692q0 -158 -52.5 -293.5t-144 -229t-218.5 -146t-273 -52.5q-135 0 -257.5 51.5t-215.5 143t-149.5 227t-59.5 293.5h-267v-326q0 -70 0.5 -107t3.5 -73.5t7.5 -52t14.5 -29.5t22.5 -18.5t33.5 -7.5l74 -13v-63q-270 16 -537 0v63l74 13q20 3 32.5 7.5t22.5 18.5
t14.5 30t8 51.5t4 74t0.5 106.5v670q0 68 -0.5 106.5t-4 74.5t-8 52t-14.5 30t-22.5 18.5t-32.5 7.5l-74 12v66q267 -16 537 0v-66l-74 -12q-21 -3 -33.5 -7.5t-22.5 -19t-14.5 -29.5t-7.5 -52t-3.5 -74t-0.5 -107v-254h271q15 192 107.5 339t242 226.5t332.5 79.5
q136 0 260.5 -53t218.5 -146.5t149.5 -231.5t55.5 -298zM1878 594q0 215 -69 384t-185 260t-256 91q-172 0 -276.5 -142t-104.5 -388q0 -162 40 -301t108.5 -234.5t161.5 -149t198 -53.5q174 0 278.5 142.5t104.5 390.5z" />
    <glyph glyph-name="afii10049" unicode="&#x42f;" horiz-adv-x="1447" 
d="M1348 59v-63q-267 16 -537 0v63l74 15q21 4 33 8.5t22 18t14.5 29t8 50.5t4 73t0.5 105v271h-115l-467 -633q-172 6 -344 0v63l76 15q41 7 81 42.5t103 116.5l320 410q-86 14 -155 40t-124.5 68t-86 105.5t-30.5 144.5q0 136 78 227t211.5 131t316.5 38q36 0 124 -2
t142.5 -2.5t127 0.5t123.5 4v-66l-74 -12q-20 -3 -32.5 -7.5t-22.5 -18.5t-14.5 -30.5t-8 -52.5t-4 -74.5t-0.5 -107.5v-670q0 -67 0.5 -105t4 -73t8 -50.5t14.5 -29t22 -18t33 -8.5zM967 1311h-152q-93 0 -163 -24.5t-110 -67t-59.5 -93.5t-19.5 -110q0 -144 117 -224.5
t307 -80.5h80v600z" />
    <glyph glyph-name="afii10065" unicode="&#x430;" horiz-adv-x="1097" 
d="M1075 117q-111 -146 -244 -146q-64 0 -102.5 37.5t-38.5 108.5v6q-54 -75 -122 -113.5t-175 -38.5q-132 0 -212.5 72t-80.5 190q0 120 83 192t241 89l258 27v61q0 148 -51.5 235t-149.5 87q-174 0 -151 -291l-35 -10q-139 4 -139 96q0 65 60 133t157 113t194 45
q164 0 243 -90.5t79 -270.5v-454q0 -54 11.5 -74.5t43.5 -20.5q53 0 103 47zM496 98q117 0 186 78v283h-150q-120 0 -174.5 -43t-54.5 -131q0 -83 54 -135t139 -52z" />
    <glyph glyph-name="afii10066" unicode="&#x431;" horiz-adv-x="1224" 
d="M1124 492q0 -118 -40.5 -217t-109.5 -165t-161 -102.5t-195 -36.5q-109 0 -200 40.5t-159 120t-106 207.5t-38 294q0 115 23 222.5t73.5 205.5t123.5 172.5t181.5 122t239.5 55.5l94 6q86 6 126 24.5t87 74.5l39 -19q-55 -156 -129 -213.5t-172 -46.5l-195 10
q-56 3 -98.5 -6t-81 -37.5t-63 -78.5t-38.5 -131.5t-14 -192.5q0 -53 2 -82q106 260 400 260q177 0 294 -130.5t117 -356.5zM596 866q-112 0 -179 -99t-67 -251q0 -193 91.5 -328t220.5 -135q114 0 176.5 90.5t62.5 257.5q0 205 -87 335t-218 130z" />
    <glyph glyph-name="afii10067" unicode="&#x432;" horiz-adv-x="1161" 
d="M78 59l59 13q27 5 39.5 8t26 15.5t17.5 24.5t8 47t4.5 70.5t0.5 106.5v348q0 53 -0.5 80t-4.5 54t-8.5 37t-17 21t-26 14.5t-39.5 8.5l-59 13v63q54 -4 127.5 -4.5t131.5 0t154 2t148 2.5q183 1 283 -57.5t100 -167.5q0 -89 -80 -150.5t-197 -87.5q69 -3 125.5 -17
t103.5 -40.5t73 -71.5t26 -104q0 -134 -139 -211.5t-393 -77.5q-36 0 -141 1t-181.5 0.5t-140.5 -3.5v63zM440 547h99q122 0 194 48t72 134q0 82 -73.5 129t-221.5 47h-70v-358zM440 473v-215q0 -107 44.5 -147.5t133.5 -40.5q40 0 78.5 9.5t73.5 30t56.5 57.5t21.5 87
q0 93 -76 156t-242 63h-90z" />
    <glyph glyph-name="afii10068" unicode="&#x433;" horiz-adv-x="1007" 
d="M596 903l-156 2v-561q0 -66 1 -104t6.5 -70.5t11.5 -46.5t22.5 -26t32 -16t47.5 -9l57 -13v-63q-268 15 -540 0v63l59 13q27 5 39 8t25.5 15t17.5 25t8.5 47t5 70.5t0.5 106.5v291q0 71 -0.5 106.5t-4.5 70.5t-8 47t-17.5 24.5t-26 15.5t-39.5 8l-59 13v63q424 -14 846 0
q-6 -205 12 -399l-51 -9l-11 31q-54 169 -119 233t-159 64z" />
    <glyph glyph-name="afii10069" unicode="&#x434;" horiz-adv-x="1191" 
d="M1151 -344l-55 -6l-15 43q-22 70 -39 114.5t-39.5 85t-48 61.5t-60.5 33.5t-81 12.5h-444q-56 0 -94.5 -17t-69 -59t-51.5 -92.5t-48 -138.5l-14 -43l-55 6q19 226 16 428h135q124 251 148 590q6 84 -4.5 134t-30 68t-53.5 25l-60 12v70q461 -11 922 0v-63l-57 -13
q-26 -5 -39 -8.5t-26.5 -15.5t-18.5 -26t-9 -47t-5 -71t-1 -104v-551h181q-3 -202 16 -428zM430 672q-24 -346 -135 -588h453v805h-304z" />
    <glyph glyph-name="afii10070" unicode="&#x435;" horiz-adv-x="1067" 
d="M991 242q-140 -271 -416 -271q-212 0 -343.5 144.5t-131.5 363.5q0 119 39 220.5t104 168.5t149.5 104.5t176.5 37.5q122 0 212 -58.5t132.5 -146.5t42.5 -191q0 -53 -4 -82h-651q19 -178 117 -283.5t248 -105.5q168 0 290 125zM297 608v-8l461 29q-15 146 -78 219.5
t-162 73.5q-96 0 -158.5 -77.5t-62.5 -236.5z" />
    </font>
</defs>
</svg>
